<?xml version="1.0" encoding="UTF-8" standalone="no"?>
<!-- Created with Inkscape (http://www.inkscape.org/) -->

<svg
   xmlns:dc="http://purl.org/dc/elements/1.1/"
   xmlns:cc="http://creativecommons.org/ns#"
   xmlns:rdf="http://www.w3.org/1999/02/22-rdf-syntax-ns#"
   xmlns:svg="http://www.w3.org/2000/svg"
   xmlns="http://www.w3.org/2000/svg"
   xmlns:sodipodi="http://sodipodi.sourceforge.net/DTD/sodipodi-0.dtd"
   xmlns:inkscape="http://www.inkscape.org/namespaces/inkscape"
   width="210mm"
   height="297mm"
   viewBox="0 0 744.09448819 1052.3622047"
   id="svg2"
   version="1.1"
   inkscape:version="0.91 r13725"
   sodipodi:docname="drawing.svg">
  <defs
     id="defs4" />
  <sodipodi:namedview
     id="base"
     pagecolor="#ffffff"
     bordercolor="#666666"
     borderopacity="1.0"
     inkscape:pageopacity="0.0"
     inkscape:pageshadow="2"
     inkscape:zoom="1.1727231"
     inkscape:cx="524.66436"
     inkscape:cy="406.04137"
     inkscape:document-units="px"
     inkscape:current-layer="layer1"
     showgrid="false"
     showguides="true"
     inkscape:guide-bbox="true"
     inkscape:window-width="1280"
     inkscape:window-height="1000"
     inkscape:window-x="0"
     inkscape:window-y="24"
     inkscape:window-maximized="1" />
  <metadata
     id="metadata7">
    <rdf:RDF>
      <cc:Work
         rdf:about="">
        <dc:format>image/svg+xml</dc:format>
        <dc:type
           rdf:resource="http://purl.org/dc/dcmitype/StillImage" />
        <dc:title></dc:title>
      </cc:Work>
    </rdf:RDF>
  </metadata>
  <g
     inkscape:label="Camada 1"
     inkscape:groupmode="layer"
     id="layer1">
    <path
       inkscape:connector-curvature="0"
       id="path3343"
       style="font-style:normal;font-variant:normal;font-weight:normal;font-stretch:normal;font-size:medium;line-height:125%;font-family:'Anonymous Pro for Powerline';-inkscape-font-specification:'Anonymous Pro for Powerline, Normal';text-align:start;letter-spacing:0px;word-spacing:0px;writing-mode:lr-tb;text-anchor:start;fill:#cf6c75;fill-opacity:1;stroke:none;stroke-width:1px;stroke-linecap:butt;stroke-linejoin:miter;stroke-opacity:1"
       d="m 261.06233,449.12064 -99.67026,173.1279 -14.16863,-8.56768 99.67596,-173.00474 14.16293,8.44452 z" />
    <path
       inkscape:connector-curvature="0"
       id="path3345"
       style="font-style:normal;font-variant:normal;font-weight:normal;font-stretch:normal;font-size:medium;line-height:125%;font-family:'Anonymous Pro for Powerline';-inkscape-font-specification:'Anonymous Pro for Powerline, Normal';text-align:start;letter-spacing:0px;word-spacing:0px;writing-mode:lr-tb;text-anchor:start;fill:#ca9558;fill-opacity:1;stroke:none;stroke-width:1px;stroke-linecap:butt;stroke-linejoin:miter;stroke-opacity:1"
       d="m 348.17941,531.46233 -76.42455,75 -11.6428,-11.57227 64.48321,-63.42773 -64.48321,-63.28126 11.6428,-11.71874 76.42455,75 z" />
    <text
       xml:space="preserve"
       style="font-style:normal;font-weight:normal;font-size:46.57328796px;line-height:125%;font-family:sans-serif;text-align:start;letter-spacing:0px;word-spacing:0px;text-anchor:start;fill:#000000;fill-opacity:1;stroke:none;stroke-width:1px;stroke-linecap:butt;stroke-linejoin:miter;stroke-opacity:1"
       x="367.53345"
       y="489.70969"
       id="text3353"
       sodipodi:linespacing="125%"><tspan
         sodipodi:role="line"
         x="367.53345"
         y="489.70969"
         id="tspan3357"
         style="font-style:normal;font-variant:normal;font-weight:normal;font-stretch:normal;font-size:46.57328796px;line-height:125%;font-family:'Open Sans';-inkscape-font-specification:'Open Sans, Normal';text-align:start;writing-mode:lr-tb;text-anchor:start">Técnico em </tspan><tspan
         sodipodi:role="line"
         x="367.53345"
         y="547.76312"
         style="font-style:normal;font-variant:normal;font-weight:bold;font-stretch:normal;font-size:46.57328796px;line-height:125%;font-family:'Open Sans';-inkscape-font-specification:'Open Sans, Normal';text-align:start;writing-mode:lr-tb;text-anchor:start"
         id="tspan3374">INFORMÁTICA</tspan><tspan
         sodipodi:role="line"
         x="367.53345"
         y="605.81653"
         style="font-style:normal;font-variant:normal;font-weight:bold;font-stretch:normal;font-size:46.57328796px;line-height:125%;font-family:'Open Sans';-inkscape-font-specification:'Open Sans, Normal';text-align:start;writing-mode:lr-tb;text-anchor:start"
         id="tspan3383">PARA INTERNET</tspan></text>
    <g
       transform="matrix(1.0817824,0,0,1.0817824,-919.38981,543.85395)"
       id="text3706"
       style="font-style:normal;font-variant:normal;font-weight:normal;font-stretch:normal;font-size:172.36972046px;line-height:125%;font-family:Sans;-inkscape-font-specification:'Source Code Pro Semi-Light';text-align:start;letter-spacing:0px;word-spacing:0px;writing-mode:lr-tb;text-anchor:start;fill:#336699;fill-opacity:1;stroke:none"
       inkscape:export-filename="/home/marcio/tads-sem-texto.png"
       inkscape:export-xdpi="599"
       inkscape:export-ydpi="599">
      <g
         id="g3814"
         transform="translate(-483.95541,-451.3292)">
        <path
           d="m 963.12568,412.32958 c -3.90709,-1e-5 -7.5843,-0.57457 -11.03166,-1.7237 -3.44743,-1.03422 -6.49262,-2.52809 -9.1356,-4.48161 -2.52811,-2.06843 -4.53909,-4.53907 -6.03294,-7.4119 -1.49388,-2.98773 -2.24082,-6.37766 -2.24081,-10.16982 -10e-6,-4.71141 1.09166,-8.79082 3.27503,-12.23825 2.29824,-3.56227 5.86055,-6.60746 10.68692,-9.13559 4.94123,-2.52804 11.26145,-4.59648 18.96067,-6.20531 7.69913,-1.60873 16.94963,-2.87278 27.75151,-3.79213 -0.115,-2.87278 -0.5746,-5.57323 -1.3789,-8.10138 -0.8045,-2.52803 -2.06855,-4.71137 -3.79218,-6.55005 -1.72376,-1.95346 -4.02202,-3.50478 -6.89478,-4.65398 -2.75798,-1.14906 -6.14791,-1.72363 -10.16982,-1.7237 -5.51588,7e-5 -10.80187,1.09175 -15.85801,3.27502 -5.05621,2.06851 -9.53782,4.30931 -13.44484,6.72242 l -5.51583,-9.6527 c 2.06842,-1.37888 4.48159,-2.75784 7.23953,-4.13687 2.8728,-1.4938 5.86054,-2.8153 8.96322,-3.96451 3.21753,-1.14905 6.60747,-2.06835 10.16982,-2.75791 3.56226,-0.80431 7.18202,-1.20651 10.85929,-1.20659 11.49125,8e-5 19.9948,3.16019 25.5107,9.48033 5.6307,6.20538 8.446,14.53658 8.4461,24.99361 l 0,51.36618 -11.5487,0 -1.2066,-11.3764 -0.5171,0 c -4.71154,3.67723 -9.94009,6.83733 -15.68568,9.48033 -5.6308,2.643 -11.43391,3.9645 -17.40934,3.96451 m 3.79213,-11.37641 c 4.8263,10e-6 9.53774,-1.0342 14.13432,-3.10265 4.71137,-2.18334 9.48026,-5.28599 14.30667,-9.30797 l 0,-22.06332 c -8.96327,0.68952 -16.49008,1.66628 -22.58042,2.93029 -5.97553,1.26408 -10.80187,2.81541 -14.47905,4.65398 -3.56234,1.72373 -6.09043,3.73471 -7.58427,6.03294 -1.4939,2.18338 -2.24084,4.65401 -2.24081,7.4119 -3e-5,2.41319 0.51708,4.48163 1.55133,6.20531 1.03419,1.60879 2.35569,2.98775 3.9645,4.13687 1.72367,1.03423 3.67719,1.83862 5.86057,2.41318 2.29823,0.45966 4.65394,0.68948 7.06716,0.68947"
           style="font-variant:normal;font-stretch:normal;font-family:'Source Code Pro';-inkscape-font-specification:'Source Code Pro Semi-Light';fill:#336699;fill-opacity:1"
           id="path3713"
           inkscape:connector-curvature="0" />
        <path
           d="m 1063.3942,412.32958 c -5.5159,-1e-5 -10.5146,-0.97677 -14.9961,-2.93029 -4.3668,-1.95352 -8.1589,-4.76889 -11.3764,-8.44612 -3.2176,-3.79212 -5.6883,-8.38864 -7.4119,-13.78957 -1.7238,-5.40089 -2.5856,-11.6062 -2.5856,-18.61593 0,-6.77983 1.0342,-12.87022 3.1027,-18.27119 2.1833,-5.51577 4.9987,-10.16975 8.4461,-13.96195 3.5623,-3.79206 7.6417,-6.72234 12.2382,-8.79086 4.5965,-2.06835 9.3654,-3.10257 14.3067,-3.10265 5.0561,8e-5 9.5378,0.97684 13.4449,2.93028 4.0219,1.83869 7.8714,4.48169 11.5487,7.92901 l 0.5171,0 -0.6894,-15.51327 0,-32.23314 14.1343,0 0,122.72724 -11.7212,0 -1.2066,-11.03166 -0.5171,0 c -3.4474,3.56231 -7.5843,6.66496 -12.4106,9.30796 -4.7115,2.52809 -9.6527,3.79213 -14.8238,3.79214 m 2.9303,-11.89352 c 8.2737,10e-6 16.1452,-4.19431 23.6147,-12.58298 l 0,-41.71348 c -3.7922,-3.56224 -7.5269,-6.09032 -11.2041,-7.58426 -3.5623,-1.4938 -7.1821,-2.24074 -10.8593,-2.24081 -3.6772,7e-5 -7.1246,0.80446 -10.3421,2.41317 -3.1027,1.49395 -5.8607,3.67729 -8.2738,6.55005 -2.2983,2.75798 -4.1369,6.09046 -5.5158,9.99745 -1.379,3.9071 -2.0685,8.27379 -2.0685,13.1001 0,10.11239 2.1259,17.98393 6.3777,23.61465 4.3667,5.63076 10.4571,8.44612 18.2712,8.44611"
           style="font-variant:normal;font-stretch:normal;font-family:'Source Code Pro';-inkscape-font-specification:'Source Code Pro Semi-Light';fill:#336699;fill-opacity:1"
           id="path3715"
           inkscape:connector-curvature="0" />
        <path
           d="m 1166.0759,412.32958 c -8.2737,-1e-5 -15.9155,-1.26405 -22.9251,-3.79214 -7.0098,-2.643 -13.1001,-5.74565 -18.2712,-9.30796 l 6.55,-9.30797 c 4.8264,3.44741 10.1124,6.20533 15.858,8.27375 5.8606,2.06845 12.6979,3.10266 20.512,3.10265 7.1246,10e-6 12.4106,-1.26403 15.8581,-3.79213 3.5622,-2.64299 5.3433,-5.74564 5.3434,-9.30797 -10e-5,-1.60876 -0.2873,-3.10263 -0.8618,-4.48161 -0.5747,-1.37893 -1.8387,-2.70043 -3.7922,-3.9645 -1.8386,-1.26401 -4.4816,-2.4706 -7.929,-3.61977 -3.4474,-1.14909 -7.9865,-2.29822 -13.6172,-3.44739 -10.9168,-2.29822 -19.133,-5.34342 -24.6488,-9.1356 -5.401,-3.90699 -8.1014,-9.02062 -8.1014,-15.3409 0,-3.33242 0.7469,-6.43507 2.2408,-9.30797 1.4938,-2.98766 3.6772,-5.51575 6.55,-7.58426 2.9877,-2.18327 6.6075,-3.84951 10.8593,-4.99872 4.3667,-1.26396 9.4229,-1.89599 15.1686,-1.89607 6.435,8e-5 12.6403,1.09176 18.6159,3.27502 5.9754,2.06852 11.0316,4.53915 15.1685,7.4119 l -6.8948,9.1356 c -3.9071,-2.64294 -8.2163,-4.76883 -12.9277,-6.37768 -4.7115,-1.60871 -9.7677,-2.4131 -15.1685,-2.41318 -7.1247,8e-5 -12.1234,1.20666 -14.9962,3.61976 -2.8729,2.41325 -4.3093,5.22862 -4.3092,8.44612 -1e-4,3.67728 1.896,6.49265 5.6882,8.44612 3.7921,1.83866 9.9974,3.67727 18.6159,5.51583 7.0096,1.49392 12.7553,3.1027 17.237,4.82635 4.4815,1.60883 7.9863,3.44744 10.5145,5.51583 2.6429,2.06847 4.4241,4.36673 5.3435,6.89479 1.0341,2.52812 1.5512,5.40094 1.5513,8.61849 -10e-5,3.44741 -0.8045,6.66497 -2.4132,9.6527 -1.6088,2.98775 -4.022,5.63075 -7.2395,7.92901 -3.1027,2.29826 -7.0098,4.07942 -11.7211,5.34346 -4.5966,1.37896 -9.8826,2.06843 -15.8581,2.06844"
           style="font-variant:normal;font-stretch:normal;font-family:'Source Code Pro';-inkscape-font-specification:'Source Code Pro Semi-Light';fill:#336699;fill-opacity:1"
           id="path3717"
           inkscape:connector-curvature="0" />
      </g>
    </g>
    <path
       style="font-style:normal;font-variant:normal;font-stretch:normal;font-size:144px;line-height:125%;font-family:'Source Code Pro';-inkscape-font-specification:'Source Code Pro Semi-Light';text-align:start;letter-spacing:0px;word-spacing:0px;writing-mode:lr-tb;text-anchor:start;fill:#5599ff;fill-opacity:1;stroke:none"
       d="m 61.932,698.51552 0,32.44436 191.00009,0 0,-32.44436 z"
       id="path4547"
       inkscape:connector-curvature="0"
       sodipodi:nodetypes="ccccc"
       inkscape:export-filename="/home/marcio/tads-sem-texto.png"
       inkscape:export-xdpi="599"
       inkscape:export-ydpi="599" />
    <path
       style="font-style:normal;font-variant:normal;font-stretch:normal;font-size:144px;line-height:125%;font-family:'Source Code Pro';-inkscape-font-specification:'Source Code Pro Semi-Light';text-align:start;letter-spacing:0px;word-spacing:0px;writing-mode:lr-tb;text-anchor:start;fill:#002b3d;fill-opacity:1;stroke:none"
       d="m 61.932,799.69791 0,89.8177 191.00009,0 0,-89.8177 z"
       id="rect3744"
       inkscape:connector-curvature="0"
       inkscape:export-filename="/home/marcio/tads-sem-texto.png"
       inkscape:export-xdpi="599"
       inkscape:export-ydpi="599" />
    <path
       style="font-style:normal;font-variant:normal;font-stretch:normal;font-size:144px;line-height:125%;font-family:'Source Code Pro';-inkscape-font-specification:'Source Code Pro Semi-Light';text-align:start;letter-spacing:0px;word-spacing:0px;writing-mode:lr-tb;text-anchor:start;fill:#336699;fill-opacity:1;stroke:none"
       d="m 61.794524,737.64387 0,55.37005 191.275046,0 0,-55.37005 z"
       id="rect3746"
       inkscape:connector-curvature="0"
       sodipodi:nodetypes="ccccc"
       inkscape:export-filename="/home/marcio/tads-sem-texto.png"
       inkscape:export-xdpi="599"
       inkscape:export-ydpi="599" />
    <g
       id="g4357"
       style="font-style:normal;font-weight:normal;font-size:30.2641983px;line-height:125%;font-family:sans-serif;text-align:center;letter-spacing:0px;word-spacing:0px;text-anchor:middle;fill:#000000;fill-opacity:1;stroke:none;stroke-width:1px;stroke-linecap:butt;stroke-linejoin:miter;stroke-opacity:1"
       transform="matrix(1.0216225,0,0,0.97883514,98.122088,-167.49947)" />
    <text
       sodipodi:linespacing="125%"
       id="text3765"
       y="729.11633"
       x="261.15411"
       style="font-style:normal;font-weight:normal;font-size:42.7209549px;line-height:125%;font-family:sans-serif;text-align:start;letter-spacing:0px;word-spacing:0px;text-anchor:start;fill:#000000;fill-opacity:1;stroke:none;stroke-width:1px;stroke-linecap:butt;stroke-linejoin:miter;stroke-opacity:1"
       xml:space="preserve"><tspan
         style="font-style:normal;font-variant:normal;font-weight:bold;font-stretch:normal;font-size:42.7209549px;line-height:125%;font-family:'Open Sans';-inkscape-font-specification:'Open Sans, Normal';text-align:start;writing-mode:lr-tb;text-anchor:start"
         y="729.11633"
         x="261.15411"
         sodipodi:role="line"
         id="tspan3782"><tspan
           id="tspan3806"
           style="font-style:normal;font-variant:normal;font-weight:normal;font-stretch:normal;font-size:42.7209549px;line-height:125%;font-family:'Open Sans';-inkscape-font-specification:'Open Sans, Normal';text-align:start;writing-mode:lr-tb;text-anchor:start">Tecnologia em</tspan></tspan><tspan
         style="font-style:normal;font-variant:normal;font-weight:bold;font-stretch:normal;font-size:42.7209549px;line-height:125%;font-family:'Open Sans';-inkscape-font-specification:'Open Sans, Normal';text-align:start;writing-mode:lr-tb;text-anchor:start"
         y="782.08612"
         x="261.15411"
         sodipodi:role="line"
         id="tspan3812">Análise e </tspan><tspan
         style="font-style:normal;font-variant:normal;font-weight:bold;font-stretch:normal;font-size:42.7209549px;line-height:125%;font-family:'Open Sans';-inkscape-font-specification:'Open Sans, Normal';text-align:start;writing-mode:lr-tb;text-anchor:start"
         y="835.05591"
         x="261.15411"
         sodipodi:role="line"
         id="tspan3808">Desenvolvimento de </tspan><tspan
         id="tspan3775"
         style="font-style:normal;font-variant:normal;font-weight:bold;font-stretch:normal;font-size:42.7209549px;line-height:125%;font-family:'Open Sans';-inkscape-font-specification:'Open Sans, Normal';text-align:start;writing-mode:lr-tb;text-anchor:start"
         y="888.0257"
         x="261.15411"
         sodipodi:role="line">Sistemas</tspan></text>
    <path
       inkscape:connector-curvature="0"
       id="path3341"
       style="font-style:normal;font-variant:normal;font-weight:normal;font-stretch:normal;font-size:medium;line-height:125%;font-family:'Anonymous Pro for Powerline';-inkscape-font-specification:'Anonymous Pro for Powerline, Normal';text-align:start;letter-spacing:0px;word-spacing:0px;writing-mode:lr-tb;text-anchor:start;fill:#5b98be;fill-opacity:1;stroke:none;stroke-width:1px;stroke-linecap:butt;stroke-linejoin:miter;stroke-opacity:1"
       d="m 148.10478,594.89006 -11.49354,11.57227 -76.42455,-75 76.42455,-75 11.49354,11.71874 -64.48321,63.28126 64.48321,63.42773 z" />
  </g>
</svg>
