<?xml version="1.0" encoding="UTF-8" standalone="no"?>
<!-- Created with Inkscape (http://www.inkscape.org/) -->

<svg
   xmlns:dc="http://purl.org/dc/elements/1.1/"
   xmlns:cc="http://creativecommons.org/ns#"
   xmlns:rdf="http://www.w3.org/1999/02/22-rdf-syntax-ns#"
   xmlns:svg="http://www.w3.org/2000/svg"
   xmlns="http://www.w3.org/2000/svg"
   xmlns:xlink="http://www.w3.org/1999/xlink"
   xmlns:sodipodi="http://sodipodi.sourceforge.net/DTD/sodipodi-0.dtd"
   xmlns:inkscape="http://www.inkscape.org/namespaces/inkscape"
   width="744.09448"
   height="1052.3622"
   id="svg2"
   version="1.1"
   inkscape:version="0.91 r13725"
   sodipodi:docname="adesivos-tads.svg"
   inkscape:export-filename="/home/marcio/adesivos.png"
   inkscape:export-xdpi="600.04474"
   inkscape:export-ydpi="600.04474">
  <defs
     id="defs4">
    <inkscape:path-effect
       effect="gears"
       id="path-effect3167"
       is_visible="true"
       teeth="10"
       phi="5" />
    <inkscape:path-effect
       effect="construct_grid"
       id="path-effect3165"
       is_visible="true"
       nr_x="5"
       nr_y="5" />
    <clipPath
       clipPathUnits="userSpaceOnUse"
       id="clipPath4135">
      <rect
         style="fill:none;stroke:none"
         id="rect4137"
         width="2661.0193"
         height="1115.599"
         x="-1271.6869"
         y="2145.2009" />
    </clipPath>
    <path
       style="fill:#ffffff"
       inkscape:connector-curvature="0"
       d="m -744.1338,917.03908 c -10.6421,-29.9386 -12.60804,-62.62378 -5.34035,-93.49497 9.19663,-39.79193 33.46284,-76.27196 67.45339,-100.90018 22.77325,-16.85248 49.95614,-27.95923 78.23816,-32.87937 44.3423,-7.87217 91.59063,1.20555 129.55629,24.41537 33.04212,19.92546 59.22952,50.27895 72.77086,85.37256 9.28408,22.80352 13.07843,47.58333 11.65088,71.98473 -2.17364,36.06048 -16.52279,71.31919 -40.30579,99.371 -23.00619,27.51278 -55.07422,47.84598 -90.4065,57.71638 -35.55262,9.9147 -74.33774,9.2746 -109.37451,-2.3117 -53.05797,-16.8499 -96.85009,-58.39863 -114.24243,-109.27382 m 73.78648,59.49198 c -2.49384,6.91086 -5.2799,13.71769 -7.69487,20.64953 6.33828,-4.13591 12.66909,-8.29771 18.9467,-12.54298 5.95913,4.50164 12.01771,8.89351 18.13886,13.19925 -1.99245,-7.16285 -4.12014,-14.29004 -6.2885,-21.4065 6.40318,-4.26444 13.01169,-8.22089 19.22448,-12.74156 -7.80503,-0.5471 -15.6457,-0.20738 -23.45402,-0.61433 -1.99662,-6.92498 -3.88121,-13.86555 -6.22607,-20.6848 -2.72443,6.81844 -5.16647,13.75741 -7.60245,20.66693 -7.86627,-0.002 -15.74514,-0.0976 -23.60672,-0.18411 6.01649,4.75115 12.39996,9.05737 18.56259,13.65857 m -1.15176,-70.37895 c 9.0248,18.72143 24.17576,34.49101 42.45318,45.34174 21.24359,12.29729 46.87055,17.77062 71.52909,14.52986 28.67102,-3.2678 55.52645,-18.18795 73.08424,-40.04451 16.19302,-19.76979 24.39613,-45.27474 22.96938,-70.33044 -1.56335,-23.30662 -10.86141,-46.25965 -27.09639,-63.81869 -19.90314,-21.99605 -49.70692,-35.33777 -80.08801,-36.13176 -22.96248,-0.57677 -46.13906,5.78311 -65.07735,18.25425 -25.77417,16.59893 -43.42026,44.16123 -47.32358,73.61634 -2.80516,19.87595 0.71592,40.42416 9.54944,58.58321 m -12.53947,-120.63639 c 6.13511,4.45527 12.16097,9.03682 18.42495,13.33276 -2.31867,-7.13256 -4.23487,-14.38513 -6.37763,-21.56407 6.31919,-4.35372 12.76811,-8.56058 19.30241,-12.62282 -7.61733,-0.80549 -15.29927,-0.52152 -22.9466,-0.62274 -3.07677,-6.93273 -4.77176,-14.32717 -6.794,-21.59358 -2.67174,7.15273 -5.2436,14.34877 -7.94988,21.48275 -7.86575,-0.25254 -15.7512,-0.0682 -23.62539,-0.24884 6.20698,4.60344 12.4569,9.15379 18.78294,13.61443 -2.69597,6.86664 -5.14409,13.83508 -7.87086,20.69591 6.44701,-4.01137 12.66024,-8.37894 19.05406,-12.4738 m 220.55457,160.67977 c -2.75386,6.86796 -5.17723,13.87167 -7.89282,20.77133 6.42793,-4.22918 12.64678,-8.77929 19.39623,-12.55005 6.14163,4.57889 12.31641,9.12117 18.53041,13.59743 -2.13844,-7.41684 -4.25962,-14.82429 -6.42521,-22.23398 6.29722,-4.2783 12.72187,-8.36733 19.07229,-12.56215 -7.92505,-0.30657 -15.85197,-0.41764 -23.77614,-0.41802 -2.14319,-6.92812 -3.85691,-13.98337 -6.29793,-20.83298 -2.7305,6.84789 -5.19963,13.79401 -7.57634,20.75754 -7.90497,-0.1865 -15.81697,-0.24579 -23.72247,-0.18145 6.28541,4.47135 12.45551,9.09844 18.6919,13.65235 m -37.07263,-171.92734 c 6.46941,-3.93371 12.63456,-8.31647 18.97656,-12.43945 5.99645,4.63109 12.26043,8.92703 18.32924,13.45548 -2.13524,-7.15306 -4.04402,-14.37974 -6.83883,-21.34501 6.57593,-4.57459 13.59944,-8.55687 19.94297,-13.43233 -7.93212,0.22456 -15.87678,-0.0489 -23.81863,-0.21182 -1.83931,-7.03607 -4.05761,-13.97225 -6.2083,-20.92625 -2.65397,6.91127 -5.14269,13.89042 -7.60435,20.86243 -7.79347,0.0488 -15.58547,-0.25111 -23.38083,-0.007 5.95583,4.64179 12.19272,8.94488 18.23447,13.48045 -2.42617,6.89301 -5.14078,13.69493 -7.6323,20.56339 z"
       id="path3149-1" />
    <path
       style="fill:#ffffff"
       inkscape:connector-curvature="0"
       d="m -744.1338,917.03908 c -10.6421,-29.9386 -12.60804,-62.62378 -5.34035,-93.49497 9.19663,-39.79193 33.46284,-76.27196 67.45339,-100.90018 22.77325,-16.85248 49.95614,-27.95923 78.23816,-32.87937 44.3423,-7.87217 91.59063,1.20555 129.55629,24.41537 33.04212,19.92546 59.22952,50.27895 72.77086,85.37256 9.28408,22.80352 13.07843,47.58333 11.65088,71.98473 -2.17364,36.06048 -16.52279,71.31919 -40.30579,99.371 -23.00619,27.51278 -55.07422,47.84598 -90.4065,57.71638 -35.55262,9.9147 -74.33774,9.2746 -109.37451,-2.3117 -53.05797,-16.8499 -96.85009,-58.39863 -114.24243,-109.27382 m 73.78648,59.49198 c -2.49384,6.91086 -5.2799,13.71769 -7.69487,20.64953 6.33828,-4.13591 12.66909,-8.29771 18.9467,-12.54298 5.95913,4.50164 12.01771,8.89351 18.13886,13.19925 -1.99245,-7.16285 -4.12014,-14.29004 -6.2885,-21.4065 6.40318,-4.26444 13.01169,-8.22089 19.22448,-12.74156 -7.80503,-0.5471 -15.6457,-0.20738 -23.45402,-0.61433 -1.99662,-6.92498 -3.88121,-13.86555 -6.22607,-20.6848 -2.72443,6.81844 -5.16647,13.75741 -7.60245,20.66693 -7.86627,-0.002 -15.74514,-0.0976 -23.60672,-0.18411 6.01649,4.75115 12.39996,9.05737 18.56259,13.65857 m -1.15176,-70.37895 c 9.0248,18.72143 24.17576,34.49101 42.45318,45.34174 21.24359,12.29729 46.87055,17.77062 71.52909,14.52986 28.67102,-3.2678 55.52645,-18.18795 73.08424,-40.04451 16.19302,-19.76979 24.39613,-45.27474 22.96938,-70.33044 -1.56335,-23.30662 -10.86141,-46.25965 -27.09639,-63.81869 -19.90314,-21.99605 -49.70692,-35.33777 -80.08801,-36.13176 -22.96248,-0.57677 -46.13906,5.78311 -65.07735,18.25425 -25.77417,16.59893 -43.42026,44.16123 -47.32358,73.61634 -2.80516,19.87595 0.71592,40.42416 9.54944,58.58321 m -12.53947,-120.63639 c 6.13511,4.45527 12.16097,9.03682 18.42495,13.33276 -2.31867,-7.13256 -4.23487,-14.38513 -6.37763,-21.56407 6.31919,-4.35372 12.76811,-8.56058 19.30241,-12.62282 -7.61733,-0.80549 -15.29927,-0.52152 -22.9466,-0.62274 -3.07677,-6.93273 -4.77176,-14.32717 -6.794,-21.59358 -2.67174,7.15273 -5.2436,14.34877 -7.94988,21.48275 -7.86575,-0.25254 -15.7512,-0.0682 -23.62539,-0.24884 6.20698,4.60344 12.4569,9.15379 18.78294,13.61443 -2.69597,6.86664 -5.14409,13.83508 -7.87086,20.69591 6.44701,-4.01137 12.66024,-8.37894 19.05406,-12.4738 m 220.55457,160.67977 c -2.75386,6.86796 -5.17723,13.87167 -7.89282,20.77133 6.42793,-4.22918 12.64678,-8.77929 19.39623,-12.55005 6.14163,4.57889 12.31641,9.12117 18.53041,13.59743 -2.13844,-7.41684 -4.25962,-14.82429 -6.42521,-22.23398 6.29722,-4.2783 12.72187,-8.36733 19.07229,-12.56215 -7.92505,-0.30657 -15.85197,-0.41764 -23.77614,-0.41802 -2.14319,-6.92812 -3.85691,-13.98337 -6.29793,-20.83298 -2.7305,6.84789 -5.19963,13.79401 -7.57634,20.75754 -7.90497,-0.1865 -15.81697,-0.24579 -23.72247,-0.18145 6.28541,4.47135 12.45551,9.09844 18.6919,13.65235 m -37.07263,-171.92734 c 6.46941,-3.93371 12.63456,-8.31647 18.97656,-12.43945 5.99645,4.63109 12.26043,8.92703 18.32924,13.45548 -2.13524,-7.15306 -4.04402,-14.37974 -6.83883,-21.34501 6.57593,-4.57459 13.59944,-8.55687 19.94297,-13.43233 -7.93212,0.22456 -15.87678,-0.0489 -23.81863,-0.21182 -1.83931,-7.03607 -4.05761,-13.97225 -6.2083,-20.92625 -2.65397,6.91127 -5.14269,13.89042 -7.60435,20.86243 -7.79347,0.0488 -15.58547,-0.25111 -23.38083,-0.007 5.95583,4.64179 12.19272,8.94488 18.23447,13.48045 -2.42617,6.89301 -5.14078,13.69493 -7.6323,20.56339 z"
       id="path3149-7" />
    <path
       style="fill:#ffffff"
       inkscape:connector-curvature="0"
       d="m -744.1338,917.03908 c -10.6421,-29.9386 -12.60804,-62.62378 -5.34035,-93.49497 9.19663,-39.79193 33.46284,-76.27196 67.45339,-100.90018 22.77325,-16.85248 49.95614,-27.95923 78.23816,-32.87937 44.3423,-7.87217 91.59063,1.20555 129.55629,24.41537 33.04212,19.92546 59.22952,50.27895 72.77086,85.37256 9.28408,22.80352 13.07843,47.58333 11.65088,71.98473 -2.17364,36.06048 -16.52279,71.31919 -40.30579,99.371 -23.00619,27.51278 -55.07422,47.84598 -90.4065,57.71638 -35.55262,9.9147 -74.33774,9.2746 -109.37451,-2.3117 -53.05797,-16.8499 -96.85009,-58.39863 -114.24243,-109.27382 m 73.78648,59.49198 c -2.49384,6.91086 -5.2799,13.71769 -7.69487,20.64953 6.33828,-4.13591 12.66909,-8.29771 18.9467,-12.54298 5.95913,4.50164 12.01771,8.89351 18.13886,13.19925 -1.99245,-7.16285 -4.12014,-14.29004 -6.2885,-21.4065 6.40318,-4.26444 13.01169,-8.22089 19.22448,-12.74156 -7.80503,-0.5471 -15.6457,-0.20738 -23.45402,-0.61433 -1.99662,-6.92498 -3.88121,-13.86555 -6.22607,-20.6848 -2.72443,6.81844 -5.16647,13.75741 -7.60245,20.66693 -7.86627,-0.002 -15.74514,-0.0976 -23.60672,-0.18411 6.01649,4.75115 12.39996,9.05737 18.56259,13.65857 m -1.15176,-70.37895 c 9.0248,18.72143 24.17576,34.49101 42.45318,45.34174 21.24359,12.29729 46.87055,17.77062 71.52909,14.52986 28.67102,-3.2678 55.52645,-18.18795 73.08424,-40.04451 16.19302,-19.76979 24.39613,-45.27474 22.96938,-70.33044 -1.56335,-23.30662 -10.86141,-46.25965 -27.09639,-63.81869 -19.90314,-21.99605 -49.70692,-35.33777 -80.08801,-36.13176 -22.96248,-0.57677 -46.13906,5.78311 -65.07735,18.25425 -25.77417,16.59893 -43.42026,44.16123 -47.32358,73.61634 -2.80516,19.87595 0.71592,40.42416 9.54944,58.58321 m -12.53947,-120.63639 c 6.13511,4.45527 12.16097,9.03682 18.42495,13.33276 -2.31867,-7.13256 -4.23487,-14.38513 -6.37763,-21.56407 6.31919,-4.35372 12.76811,-8.56058 19.30241,-12.62282 -7.61733,-0.80549 -15.29927,-0.52152 -22.9466,-0.62274 -3.07677,-6.93273 -4.77176,-14.32717 -6.794,-21.59358 -2.67174,7.15273 -5.2436,14.34877 -7.94988,21.48275 -7.86575,-0.25254 -15.7512,-0.0682 -23.62539,-0.24884 6.20698,4.60344 12.4569,9.15379 18.78294,13.61443 -2.69597,6.86664 -5.14409,13.83508 -7.87086,20.69591 6.44701,-4.01137 12.66024,-8.37894 19.05406,-12.4738 m 220.55457,160.67977 c -2.75386,6.86796 -5.17723,13.87167 -7.89282,20.77133 6.42793,-4.22918 12.64678,-8.77929 19.39623,-12.55005 6.14163,4.57889 12.31641,9.12117 18.53041,13.59743 -2.13844,-7.41684 -4.25962,-14.82429 -6.42521,-22.23398 6.29722,-4.2783 12.72187,-8.36733 19.07229,-12.56215 -7.92505,-0.30657 -15.85197,-0.41764 -23.77614,-0.41802 -2.14319,-6.92812 -3.85691,-13.98337 -6.29793,-20.83298 -2.7305,6.84789 -5.19963,13.79401 -7.57634,20.75754 -7.90497,-0.1865 -15.81697,-0.24579 -23.72247,-0.18145 6.28541,4.47135 12.45551,9.09844 18.6919,13.65235 m -37.07263,-171.92734 c 6.46941,-3.93371 12.63456,-8.31647 18.97656,-12.43945 5.99645,4.63109 12.26043,8.92703 18.32924,13.45548 -2.13524,-7.15306 -4.04402,-14.37974 -6.83883,-21.34501 6.57593,-4.57459 13.59944,-8.55687 19.94297,-13.43233 -7.93212,0.22456 -15.87678,-0.0489 -23.81863,-0.21182 -1.83931,-7.03607 -4.05761,-13.97225 -6.2083,-20.92625 -2.65397,6.91127 -5.14269,13.89042 -7.60435,20.86243 -7.79347,0.0488 -15.58547,-0.25111 -23.38083,-0.007 5.95583,4.64179 12.19272,8.94488 18.23447,13.48045 -2.42617,6.89301 -5.14078,13.69493 -7.6323,20.56339 z"
       id="path3149-8" />
    <path
       style="fill:#ffffff"
       inkscape:connector-curvature="0"
       d="m -744.1338,917.03908 c -10.6421,-29.9386 -12.60804,-62.62378 -5.34035,-93.49497 9.19663,-39.79193 33.46284,-76.27196 67.45339,-100.90018 22.77325,-16.85248 49.95614,-27.95923 78.23816,-32.87937 44.3423,-7.87217 91.59063,1.20555 129.55629,24.41537 33.04212,19.92546 59.22952,50.27895 72.77086,85.37256 9.28408,22.80352 13.07843,47.58333 11.65088,71.98473 -2.17364,36.06048 -16.52279,71.31919 -40.30579,99.371 -23.00619,27.51278 -55.07422,47.84598 -90.4065,57.71638 -35.55262,9.9147 -74.33774,9.2746 -109.37451,-2.3117 -53.05797,-16.8499 -96.85009,-58.39863 -114.24243,-109.27382 m 73.78648,59.49198 c -2.49384,6.91086 -5.2799,13.71769 -7.69487,20.64953 6.33828,-4.13591 12.66909,-8.29771 18.9467,-12.54298 5.95913,4.50164 12.01771,8.89351 18.13886,13.19925 -1.99245,-7.16285 -4.12014,-14.29004 -6.2885,-21.4065 6.40318,-4.26444 13.01169,-8.22089 19.22448,-12.74156 -7.80503,-0.5471 -15.6457,-0.20738 -23.45402,-0.61433 -1.99662,-6.92498 -3.88121,-13.86555 -6.22607,-20.6848 -2.72443,6.81844 -5.16647,13.75741 -7.60245,20.66693 -7.86627,-0.002 -15.74514,-0.0976 -23.60672,-0.18411 6.01649,4.75115 12.39996,9.05737 18.56259,13.65857 m -1.15176,-70.37895 c 9.0248,18.72143 24.17576,34.49101 42.45318,45.34174 21.24359,12.29729 46.87055,17.77062 71.52909,14.52986 28.67102,-3.2678 55.52645,-18.18795 73.08424,-40.04451 16.19302,-19.76979 24.39613,-45.27474 22.96938,-70.33044 -1.56335,-23.30662 -10.86141,-46.25965 -27.09639,-63.81869 -19.90314,-21.99605 -49.70692,-35.33777 -80.08801,-36.13176 -22.96248,-0.57677 -46.13906,5.78311 -65.07735,18.25425 -25.77417,16.59893 -43.42026,44.16123 -47.32358,73.61634 -2.80516,19.87595 0.71592,40.42416 9.54944,58.58321 m -12.53947,-120.63639 c 6.13511,4.45527 12.16097,9.03682 18.42495,13.33276 -2.31867,-7.13256 -4.23487,-14.38513 -6.37763,-21.56407 6.31919,-4.35372 12.76811,-8.56058 19.30241,-12.62282 -7.61733,-0.80549 -15.29927,-0.52152 -22.9466,-0.62274 -3.07677,-6.93273 -4.77176,-14.32717 -6.794,-21.59358 -2.67174,7.15273 -5.2436,14.34877 -7.94988,21.48275 -7.86575,-0.25254 -15.7512,-0.0682 -23.62539,-0.24884 6.20698,4.60344 12.4569,9.15379 18.78294,13.61443 -2.69597,6.86664 -5.14409,13.83508 -7.87086,20.69591 6.44701,-4.01137 12.66024,-8.37894 19.05406,-12.4738 m 220.55457,160.67977 c -2.75386,6.86796 -5.17723,13.87167 -7.89282,20.77133 6.42793,-4.22918 12.64678,-8.77929 19.39623,-12.55005 6.14163,4.57889 12.31641,9.12117 18.53041,13.59743 -2.13844,-7.41684 -4.25962,-14.82429 -6.42521,-22.23398 6.29722,-4.2783 12.72187,-8.36733 19.07229,-12.56215 -7.92505,-0.30657 -15.85197,-0.41764 -23.77614,-0.41802 -2.14319,-6.92812 -3.85691,-13.98337 -6.29793,-20.83298 -2.7305,6.84789 -5.19963,13.79401 -7.57634,20.75754 -7.90497,-0.1865 -15.81697,-0.24579 -23.72247,-0.18145 6.28541,4.47135 12.45551,9.09844 18.6919,13.65235 m -37.07263,-171.92734 c 6.46941,-3.93371 12.63456,-8.31647 18.97656,-12.43945 5.99645,4.63109 12.26043,8.92703 18.32924,13.45548 -2.13524,-7.15306 -4.04402,-14.37974 -6.83883,-21.34501 6.57593,-4.57459 13.59944,-8.55687 19.94297,-13.43233 -7.93212,0.22456 -15.87678,-0.0489 -23.81863,-0.21182 -1.83931,-7.03607 -4.05761,-13.97225 -6.2083,-20.92625 -2.65397,6.91127 -5.14269,13.89042 -7.60435,20.86243 -7.79347,0.0488 -15.58547,-0.25111 -23.38083,-0.007 5.95583,4.64179 12.19272,8.94488 18.23447,13.48045 -2.42617,6.89301 -5.14078,13.69493 -7.6323,20.56339 z"
       id="path3149-0" />
    <clipPath
       clipPathUnits="userSpaceOnUse"
       id="clipPath4525">
      <path
         style="fill:none;stroke:#000000;stroke-width:1px;stroke-linecap:butt;stroke-linejoin:miter;stroke-opacity:1"
         d="m -1329.78,-1995.1738 c -3.9489,-1.9744 -7.6582,-4.5272 -11.8466,-5.9233 -1.8731,-0.6244 -3.9872,0.3872 -5.9233,0 -3.0613,-0.6122 -5.8056,-2.4484 -8.885,-2.9616 -6.8165,-1.1361 -13.8904,0.9772 -20.7315,0 -3.0905,-0.4415 -5.9233,-1.9745 -8.885,-2.9617 -2.9616,-0.9872 -5.9232,-1.9744 -8.8849,-2.9616 -2.9616,-0.9873 -5.8056,-2.4485 -8.8849,-2.9617 -4.869,-0.8115 -9.9681,0.9681 -14.8083,0 -6.0995,-1.2199 -9.5431,-3.2907 -14.8082,-5.9233 -1.9745,-0.9872 -3.8291,-2.2636 -5.9233,-2.9616 -0.9366,-0.3122 -2.0251,0.3121 -2.9617,0 -2.0942,-0.6981 -3.7817,-2.4263 -5.9233,-2.9617 -1.9154,-0.4789 -4.0078,0.4789 -5.9233,0 -3.4452,-0.8613 -13.2157,-7.6906 -14.8082,-8.8849 -1.1169,-0.8377 -1.7129,-2.3373 -2.9616,-2.9617 -1.766,-0.883 -4.1574,0.883 -5.9233,0 -1.2488,-0.6243 -1.713,-2.3373 -2.9617,-2.9616 -0.883,-0.4415 -1.9744,0 -2.9616,0 -1.9745,0 -4.0502,0.6243 -5.9233,0 -2.649,-0.883 -3.4259,-4.6746 -5.9233,-5.9233 -0.883,-0.4415 -2.0787,0.4415 -2.9617,0 -1.0592,-0.5296 -11.0255,-10.615 -11.8466,-11.8466 -1.5624,-2.3436 -8.0134,-15.1552 -8.8849,-17.7699 -0.3122,-0.9366 0.3122,-2.0251 0,-2.9617 -0.6981,-2.0942 -2.2636,-3.829 -2.9617,-5.9232 -0.3122,-0.9366 0,-1.9745 0,-2.9617 0,-1.9744 0.6244,-4.0502 0,-5.9233 -0.4415,-1.3245 -2.3372,-1.7129 -2.9616,-2.9616 -0.9307,-1.8615 0.9307,-9.9852 0,-11.8466 -0.6244,-1.2488 -2.3373,-1.7129 -2.9617,-2.9617 -0.9462,-1.8925 0.7946,-9.4627 0,-11.8466 -0.698,-2.0942 -2.2635,-3.8291 -2.9616,-5.9233 -0.8535,-2.5605 0.9423,-12.9237 0,-14.8082 -6.7772,-13.5543 1.2275,12.5675 -5.9233,-8.885 -0.3122,-0.9365 0.4415,-2.0786 0,-2.9616 -6.7772,-13.5543 1.2275,12.5675 -5.9233,-8.8849 -0.679,-2.0372 0.8737,-7.1376 0,-8.885 -0.6244,-1.2487 -2.3373,-1.7129 -2.9617,-2.9616 -0.4415,-0.883 0,-1.9745 0,-2.9617 -0.9872,-0.9872 -2.3372,-1.7129 -2.9616,-2.9616 -0.4415,-0.883 0,-1.9745 0,-2.9617 0,-0.9872 0,-1.9744 0,-2.9616 0,-4.9361 0,-9.8722 0,-14.8083 0,-0.9872 0.3122,-2.0251 0,-2.9616 -0.6981,-2.0942 -2.4263,-3.7817 -2.9617,-5.9233 -0.9577,-3.831 0.9578,-8.0157 0,-11.8466 -0.5353,-2.1416 -2.2635,-3.8291 -2.9616,-5.9233 -0.6384,-1.9153 0,-11.5744 0,-14.8083 0,-10.8593 0,-21.7187 0,-32.5781 0,-10.8594 0,-21.7187 0,-32.5781 0,-3.0799 -0.5824,-15.4402 0,-17.7699 1.0708,-4.2831 4.8525,-7.5634 5.9233,-11.8466 0.4789,-1.9155 -0.4789,-4.0078 0,-5.9233 1.0708,-4.2831 4.5272,-7.6582 5.9233,-11.8466 0.3122,-0.9365 -0.4415,-2.0786 0,-2.9616 0.6244,-1.2488 1.9744,-1.9745 2.9616,-2.9617 1.9745,-2.9616 4.3315,-5.7012 5.9233,-8.8849 0.4415,-0.883 0,-1.9745 0,-2.9617 0,-2.9616 -1.0999,-6.1351 0,-8.8849 1.0371,-2.5926 4.179,-3.7429 5.9233,-5.9233 2.2236,-2.7795 3.9489,-5.9233 5.9233,-8.885 1.9745,-2.9616 4.092,-5.8327 5.9233,-8.8849 4.2285,-7.0475 6.5766,-14.144 11.8466,-20.7315 9.0679,-11.3349 2.1738,-1.6304 11.8466,-8.885 4.4676,-3.3507 7.4858,-8.3579 11.8466,-11.8466 8.3071,-6.6456 18.3478,-11.1242 26.6548,-17.7699 2.1804,-1.7443 3.7429,-4.1789 5.9233,-5.9233 2.7795,-2.2235 5.9885,-3.8544 8.885,-5.9233 33.1538,-23.6813 -2.4333,2.0278 17.7699,-14.8082 3.792,-3.16 8.0546,-5.7249 11.8466,-8.8849 4.2901,-3.5752 7.4858,-8.358 11.8466,-11.8466 2.7794,-2.2236 6.1054,-3.6998 8.8849,-5.9233 2.1804,-1.7443 3.6,-4.3745 5.9233,-5.9233 3.6735,-2.449 7.8977,-3.9489 11.8466,-5.9233 1.9744,-0.9872 3.8737,-2.1418 5.9233,-2.9617 7.8846,-3.1538 11.718,-2.833 17.7699,-8.8849 1.9744,-1.9744 3.9488,-3.9489 5.9233,-5.9233 0.9872,-0.9872 2.5201,-1.6372 2.9616,-2.9617 2.0793,-6.2378 -4.8653,-17.5577 -5.9233,-20.7315 -0.3122,-0.9366 -0.698,-2.2636 0,-2.9616 0.6981,-0.6981 2.1403,0.5476 2.9617,0 2.3233,-1.5489 3.9488,-3.9489 5.9233,-5.9233 1.9744,-1.9745 4.2479,-3.6895 5.9233,-5.9233 1.3245,-1.766 1.7371,-4.0866 2.9616,-5.9233 1.5489,-2.3233 4.6746,-3.4259 5.9233,-5.9233 0.4415,-0.883 0,-1.9745 0,-2.9617 0.9872,-1.9744 1.7372,-4.0865 2.9617,-5.9233 1.5488,-2.3233 4.3744,-3.6 5.9233,-5.9233 1.2244,-1.8367 1.7371,-4.0865 2.9616,-5.9233 0.7744,-1.1616 1.9744,-1.9744 2.9616,-2.9616 0.9873,-0.9872 1.713,-2.3373 2.9617,-2.9617 2.7923,-1.3961 6.0927,-1.5655 8.8849,-2.9616 1.2488,-0.6244 1.8,-2.1872 2.9617,-2.9617 1.8367,-1.2245 4.1573,-1.6371 5.9233,-2.9616 2.2338,-1.6754 3.9489,-3.9489 5.9233,-5.9233 2.9616,-2.9617 5.9233,-5.9233 8.8849,-8.885 0.9872,-0.9872 1.8,-2.1872 2.9617,-2.9616 3.6734,-2.449 8.1731,-3.4743 11.8466,-5.9233 4.358,-2.9053 7.4886,-8.9413 11.8466,-11.8466 3.6734,-2.449 8.3146,-3.2743 11.8466,-5.9233 2.2338,-1.6753 3.6894,-4.2479 5.9233,-5.9233 1.7659,-1.3245 4.0303,-1.8259 5.9232,-2.9616 3.0523,-1.8314 5.8328,-4.092 8.885,-5.9233 1.8929,-1.1358 3.9489,-1.9745 5.9233,-2.9617 2.9616,-1.9744 5.8327,-4.0919 8.8849,-5.9233 11.4843,-6.8905 0.2534,2.0313 14.8083,-8.8849 3.3507,-2.5131 5.9233,-5.9233 8.8849,-8.885 2.8284,-2.8284 11.9798,-11.9798 14.8083,-14.8082 1.9744,-1.9744 3.6894,-4.2479 5.9233,-5.9233 1.7659,-1.3245 4.1573,-1.6372 5.9233,-2.9616 3.3507,-2.5131 5.9232,-5.9233 8.8849,-8.885 6.9105,-6.9105 13.821,-13.821 20.7315,-20.7315 5.9233,-5.9233 11.8466,-11.8466 17.7699,-17.7699 1.9745,-1.9744 3.6,-4.3744 5.9233,-5.9233 1.9745,-0.9872 3.9489,-1.9744 5.9233,-2.9617 0.9872,0 2.0787,0.4415 2.9617,0 2.4974,-1.2487 3.4258,-4.6745 5.9233,-5.9233 0.883,-0.4415 2.0786,0.4415 2.9616,0 1.2487,-0.6243 1.8,-2.1872 2.9617,-2.9616 1.8367,-1.2245 3.9488,-1.9744 5.9233,-2.9617 1.9744,-0.9872 3.8737,-2.1418 5.9232,-2.9616 2.8986,-1.1594 6.3875,-1.0885 8.885,-2.9617 1.766,-1.3244 1.1249,-4.6988 2.9616,-5.9232 1.6429,-1.0953 4.0079,0.4788 5.9233,0 4.2832,-1.0708 7.5635,-4.8526 11.8466,-5.9233 1.9155,-0.4789 4.0078,0.4788 5.9233,0 2.1416,-0.5354 3.8291,-2.2636 5.9233,-2.9617 3.8615,-1.2872 7.9328,-1.8434 11.8466,-2.9616 29.74176,-8.4977 -16.3028,3.3353 20.73155,-5.9233 14.87524,-3.7188 7.98508,-1.6745 20.73154,-5.9233 2.96165,-0.9872 6.09268,-1.5655 8.88495,-2.9617 3.18367,-1.5918 5.70126,-4.3314 8.88494,-5.9233 2.79227,-1.3961 5.98638,-1.8022 8.88494,-2.9616 6.05334,-2.4214 11.93628,-5.9682 17.76989,-8.885 1.97444,-0.9872 4.08656,-1.7371 5.9233,-2.9616 1.16165,-0.7745 1.63716,-2.5202 2.96165,-2.9617 1.87311,-0.6243 4.05018,0.6244 5.92329,0 1.32449,-0.4415 1.8,-2.1872 2.96165,-2.9616 1.83674,-1.2245 3.94887,-1.9744 5.9233,-2.9617 1.97443,-0.9872 3.82909,-2.2635 5.9233,-2.9616 0.93655,-0.3122 2.02509,0.3122 2.96164,0 2.09421,-0.6981 3.8291,-2.2636 5.9233,-2.9617 0.93656,-0.3121 2.02509,0.3122 2.96165,0 4.1884,-1.3961 7.65819,-4.5271 11.84659,-5.9233 0.93656,-0.3121 2.02509,0.3122 2.96165,0 2.0942,-0.698 3.8737,-2.1418 5.9233,-2.9616 2.89856,-1.1594 5.98637,-1.8022 8.88494,-2.9617 4.09919,-1.6396 7.65819,-4.5271 11.84659,-5.9232 3.86152,-1.2872 7.85524,-2.1634 11.8466,-2.9617 0.96804,-0.1936 2.02509,0.3122 2.96164,0 2.09421,-0.6981 3.78173,-2.4263 5.9233,-2.9616 2.87322,-0.7184 6.07528,0.9365 8.88494,0 2.09421,-0.6981 3.8291,-2.2636 5.9233,-2.9617 0.93656,-0.3122 1.97443,0 2.96165,0 1.97443,0 3.94886,0 5.9233,0 8.88494,0 17.76988,0 26.65483,0 9.87216,0 19.74432,0 29.61648,0 3.94887,0 7.91733,-0.3929 11.84659,0 18.19535,1.8195 35.55221,7.9005 53.30967,11.8466 33.83927,7.5198 -2.23649,-1.2995 26.65483,5.9233 3.94887,0.9872 8.10531,1.3582 11.8466,2.9616 3.27166,1.4022 5.50814,4.7977 8.88494,5.9233 1.65686,0.5523 17.43629,0 20.73154,0 1.97443,0 4.05019,-0.6243 5.9233,0 2.0942,0.6981 3.82909,2.2636 5.92329,2.9617 2.5605,0.8535 12.92368,-0.9423 14.80824,0 1.24874,0.6244 1.71291,2.3373 2.96165,2.9616 0.88299,0.4415 2.02509,-0.3121 2.96165,0 2.0942,0.6981 3.82909,2.2636 5.9233,2.9617 1.87311,0.6244 4.05018,-0.6244 5.92329,0 2.0942,0.6981 3.8291,2.2636 5.9233,2.9616 0.93655,0.3122 2.07865,-0.4415 2.96165,0 1.24874,0.6244 1.7129,2.3373 2.96165,2.9617 0.88299,0.4415 2.14023,-0.5476 2.96164,0 4.00828,1.6849 5.39999,6.5616 8.88495,8.8849 3.67347,2.449 8.31462,3.2743 11.84659,5.9233 3.35072,2.5131 5.9233,5.9233 8.88495,8.885 4.93608,4.936 9.87216,9.8721 14.80824,14.8082 2.96164,2.9617 6.3719,5.5342 8.88494,8.885 2.13568,2.8475 3.69972,6.1054 5.9233,8.8849 1.74431,2.1804 4.13573,3.7782 5.92329,5.9233 3.16001,3.792 5.72495,8.0546 8.88495,11.8466 3.57513,4.2901 7.89773,7.8977 11.84659,11.8466 0.98722,0.9872 2.12397,1.8447 2.96165,2.9616 2.13567,2.8476 3.78762,6.0374 5.9233,8.885 1.67536,2.2338 4.24793,3.6895 5.92329,5.9233 2.13568,2.8475 3.78762,6.0373 5.9233,8.8849 0.83768,1.1169 2.33728,1.7129 2.96165,2.9617 1.39613,2.7922 1.56551,6.0926 2.96164,8.8849 0.62437,1.2487 2.12397,1.8447 2.96165,2.9617 1.97443,2.9616 3.94887,5.9233 5.9233,8.8849 1.97443,1.9744 4.24793,3.6895 5.9233,5.9233 5.99345,7.9913 -0.0496,4.8534 5.92329,14.8082 2.96165,4.9361 5.9233,4.9361 8.88495,8.885 22.02682,29.3691 -4.89613,-5.8634 8.88494,14.8082 1.54887,2.3233 4.67456,3.4258 5.9233,5.9233 0.44149,0.883 -0.4415,2.0787 0,2.9617 1.24874,2.4974 4.37442,3.6 5.92329,5.9233 1.22449,1.8367 1.73716,4.0865 2.96165,5.9233 0.77444,1.1616 2.18721,1.8 2.96165,2.9616 1.22449,1.8367 1.97443,3.9489 2.96165,5.9233 0.98721,1.9744 2.26358,3.8291 2.96165,5.9233 0.62437,1.8731 -0.883,4.1573 0,5.9233 6.77715,13.5543 -1.22752,-12.5675 5.92329,8.8849 0.31219,0.9366 -0.23943,2.0039 0,2.9617 0.75716,3.0286 2.34941,5.8237 2.96165,8.8849 0.38722,1.9361 -0.62437,4.0502 0,5.9233 0.4415,1.3245 2.18721,1.8 2.96165,2.9617 1.22449,1.8367 1.97443,3.9488 2.96165,5.9233 0.98721,1.9744 2.26358,3.8291 2.96165,5.9233 0.31218,0.9365 -0.31219,2.0251 0,2.9616 0.69806,2.0942 2.26358,3.8291 2.96164,5.9233 0.31219,0.9366 0,1.9744 0,2.9617 0.98722,2.9616 1.80223,5.9863 2.96165,8.8849 1.63968,4.0992 3.94887,7.8977 5.9233,11.8466 1.97443,3.9489 3.47431,8.1731 5.92329,11.8466 0.77444,1.1616 2.33728,1.7129 2.96165,2.9616 0.4415,0.883 -0.54761,2.1403 0,2.9617 1.54887,2.3233 4.24794,3.6895 5.9233,5.9233 1.32449,1.766 1.73716,4.0865 2.96165,5.9233 1.54887,2.3233 3.94886,3.9488 5.92329,5.9233 3.94887,3.9488 7.89773,7.8977 11.8466,11.8466 3.94886,3.9488 7.89773,7.8977 11.84659,11.8466 1.97443,1.9744 3.68948,4.2479 5.9233,5.9233 2.84756,2.1356 6.03737,3.7876 8.88494,5.9233 3.28289,2.4621 5.47417,6.611 8.88494,8.8849 1.83674,1.2245 4.08657,1.7372 5.9233,2.9616 1.16166,0.7745 1.8,2.1873 2.96165,2.9617 1.83674,1.2245 4.08656,1.7372 5.9233,2.9616 4.91459,3.2764 8.68603,10.5942 11.84659,14.8083 0.83768,1.1169 1.97443,1.9744 2.96165,2.9616 2.96164,3.9489 6.1469,7.7396 8.88494,11.8466 1.22449,1.8368 1.82591,4.0304 2.96165,5.9233 1.83133,3.0522 4.09197,5.8328 5.9233,8.885 1.13574,1.8929 1.40072,4.3623 2.96164,5.9233 2.51692,2.5169 6.03738,3.7876 8.88495,5.9233 4.11387,3.0854 2.98349,3.9852 5.9233,8.8849 10.72168,17.8695 2.11502,1.2684 8.88494,14.8082 0.98722,1.9745 2.42625,3.7818 2.96165,5.9233 0.47887,1.9155 0,3.9489 0,5.9233 0.98721,1.9745 2.26358,3.8291 2.96165,5.9233 0.31218,0.9366 -0.4415,2.0787 0,2.9617 0.62437,1.2487 2.52015,1.6371 2.96164,2.9616 1.24874,3.7463 -0.95774,8.0157 0,11.8466 1.07079,4.2832 4.28362,7.7474 5.9233,11.8466 8.58947,21.4737 -0.20281,-1.014 2.96165,14.8083 1.22449,6.1224 4.6988,11.6474 5.9233,17.7698 0.38721,1.9361 0,3.9489 0,5.9233 0,3.9489 0,7.8978 0,11.8466 0,1.9745 -0.62438,4.0502 0,5.9233 0.44149,1.3245 2.52015,1.6372 2.96164,2.9617 0.50859,1.5257 0,17.5986 0,20.7315 0,13.821 0,27.6421 0,41.4631 0,11.8466 0,23.6932 0,35.5398 0,2.8694 0.58865,16.0039 0,17.7699 -0.69806,2.0942 -2.26358,3.8291 -2.96164,5.9233 -2.93878,8.8163 7.01279,-6.0768 -2.96165,8.8849 -0.77444,1.1617 -2.33728,1.7129 -2.96165,2.9617 -0.4415,0.8829 0.4415,2.0786 0,2.9616 -0.62437,1.2487 -2.33728,1.7129 -2.96165,2.9616 -0.4415,0.883 0,1.9745 0,2.9617 -0.98722,1.9744 -1.73716,4.0866 -2.96165,5.9233 -1.54887,2.3233 -4.67455,3.4258 -5.92329,5.9233 -0.4415,0.883 0.44149,2.0786 0,2.9616 -1.24874,2.4975 -4.67456,3.4259 -5.9233,5.9233 -0.4415,0.883 0.4415,2.0787 0,2.9617 -0.62437,1.2487 -1.97443,1.9744 -2.96165,2.9616 -0.98721,0.9872 -1.97443,1.9745 -2.96165,2.9617 -2.96164,2.9616 -5.92329,5.9233 -8.88494,8.8849 -1.97443,1.9745 -4.37443,3.6 -5.9233,5.9233 -1.22449,1.8368 -1.73716,4.0866 -2.96165,5.9233 -0.77443,1.1617 -2.18721,1.8 -2.96164,2.9617 -1.22449,1.8367 -1.73716,4.0865 -2.96165,5.9233 -0.77444,1.1616 -2.33728,1.7129 -2.96165,2.9616 -0.4415,0.883 0,1.9744 0,2.9617 -0.98722,1.9744 -1.73716,4.0865 -2.96165,5.9233 -0.77443,1.1616 -2.18721,1.7999 -2.96165,2.9616 -1.22449,1.8367 -1.73715,4.0866 -2.96165,5.9233 -0.77443,1.1616 -1.97443,1.9744 -2.96164,2.9616 -0.98722,1.9745 -1.73716,4.0866 -2.96165,5.9233 -0.77444,1.1617 -2.18721,1.8 -2.96165,2.9617 -1.22449,1.8367 -1.73716,4.0865 -2.96165,5.9233 -0.95728,1.4359 -13.37231,13.8509 -14.80824,14.8082 -1.83673,1.2245 -4.08656,1.7372 -5.9233,2.9617 -2.3233,1.5488 -3.59998,4.3744 -5.92329,5.9233 -1.83674,1.2245 -4.08656,1.7371 -5.9233,2.9616 -3.41728,2.2782 -5.46766,6.6068 -8.88494,8.885 -1.83674,1.2245 -3.94887,1.9744 -5.9233,2.9616 -1.97443,0.9872 -3.82909,2.2636 -5.9233,2.9617 -1.87311,0.6243 -4.05018,-0.6244 -5.92329,0 -2.0942,0.698 -3.8291,2.2635 -5.9233,2.9616 -1.87311,0.6244 -4.15731,-0.883 -5.92329,0 -1.24874,0.6244 -1.71291,2.3373 -2.96165,2.9617 -0.90133,0.4506 -7.55115,0 -8.88495,0 -5.92329,0 -11.84659,0 -17.76989,0 -0.98721,0 -1.97443,0 -2.96164,0 -0.98722,0 -2.07866,-0.4415 -2.96165,0 -1.24874,0.6243 -1.71291,2.3372 -2.96165,2.9616 -0.88299,0.4415 -1.97443,0 -2.96165,0 -0.98722,0 -1.97443,0 -2.96165,0 -6.91051,0 -13.82102,0 -20.73153,0 -1.33381,0 -7.98362,-0.4507 -8.88495,0 -1.24874,0.6244 -1.71291,2.3373 -2.96165,2.9617 -1.79838,0.8991 -15.97151,-0.8992 -17.76989,0 -1.24874,0.6243 -1.7129,2.3372 -2.96164,2.9616 -0.77874,0.3894 -10.29789,0 -11.8466,0 -7.89773,0 -15.79545,0 -23.69318,0 -11.8466,0 -23.69319,0 -35.53978,0 -3.94887,0 -7.89773,0 -11.84659,0 -1.97444,0 -7.89773,0 -5.9233,0 1.97443,0 7.89773,0 5.9233,0 -5.9233,0 -11.8466,0 -17.76989,0 -1.94612,0 -7.21399,-0.557 -8.88495,0 -10.73683,3.5789 -2.10779,1.4052 -8.88494,5.9233 -1.83674,1.2245 -4.08656,1.7372 -5.9233,2.9616 -1.16165,0.7745 -1.79999,2.1873 -2.96165,2.9617 -1.83673,1.2245 -4.08656,1.7372 -5.92329,2.9616 -1.16166,0.7745 -1.97444,1.9745 -2.96165,2.9617 -0.98722,0.9872 -2.33728,1.7129 -2.96165,2.9616 -0.4415,0.883 0.4415,2.0787 0,2.9617 -1.24874,2.4975 -4.67456,3.4258 -5.9233,5.9233 -0.44149,0.883 0.4415,2.0786 0,2.9616 -1.77698,3.554 -7.10795,5.331 -8.88494,8.885 -0.88299,1.766 0.88299,4.1573 0,5.9233 -0.62437,1.2487 -2.18721,1.8 -2.96165,2.9616 -1.22449,1.8368 -1.73716,4.0866 -2.96165,5.9233 -0.77443,1.1617 -2.18721,1.8 -2.96164,2.9617 -3.64511,5.4676 -5.23984,12.3022 -8.88495,17.7699 -0.77444,1.1616 -1.97443,1.9744 -2.96165,2.9616 -2.96165,2.9616 -5.92329,5.9233 -8.88494,8.8849 -0.98722,0.9873 -2.33728,1.713 -2.96165,2.9617 -0.4415,0.883 0.4415,2.0786 0,2.9616 -1.24874,2.4975 -4.67456,3.4259 -5.9233,5.9233 -0.44149,0.883 0,1.9745 0,2.9617 -0.98721,1.9744 -1.73715,4.0865 -2.96164,5.9233 -1.54888,2.3233 -4.37443,3.6 -5.9233,5.9233 -1.22449,1.8367 -1.82591,4.0304 -2.96165,5.9233 -1.83133,3.0522 -4.33146,5.7012 -5.9233,8.8849 -0.44149,0.883 0,1.9745 0,2.9617 -0.98721,1.9744 -1.73715,4.0865 -2.96164,5.9233 -1.54888,2.3233 -4.37443,3.6 -5.9233,5.9233 -1.22449,1.8367 -1.73716,4.0865 -2.96165,5.9233 -1.54887,2.3233 -4.67455,3.4258 -5.9233,5.9233 -0.44149,0.8829 0.4415,2.0786 0,2.9616 -1.77698,3.554 -7.10795,5.331 -8.88494,8.8849 -0.4415,0.883 0.31219,2.0251 0,2.9617 -0.69807,2.0942 -2.26358,3.8291 -2.96165,5.9233 -0.31218,0.9365 0.31219,2.0251 0,2.9616 -0.69806,2.0942 -2.26358,3.8291 -2.96165,5.9233 -0.62437,1.8731 0.883,4.1573 0,5.9233 -0.62437,1.2488 -1.97443,1.9745 -2.96164,2.9617 0,1.9744 0.62437,4.0502 0,5.9233 -0.4415,1.3245 -2.33728,1.7129 -2.96165,2.9616 -0.883,1.766 0.62437,4.0502 0,5.9233 -7.15082,21.4525 0.85385,-4.6693 -5.9233,8.885 -0.88299,1.766 0.62437,4.0502 0,5.9233 -0.69807,2.0942 -2.14181,3.8737 -2.96165,5.9233 -6.92633,1.5413 -1.80662,8.3815 -2.96165,11.8466 -1.39613,4.1884 -4.52716,7.6581 -5.92329,11.8465 -0.31219,0.9366 0.54761,2.1403 0,2.9617 -1.54887,2.3233 -4.37443,3.6 -5.9233,5.9233 -1.09522,1.6428 1.09522,4.2805 0,5.9233 -1.54887,2.3233 -4.24793,3.6895 -5.92329,5.9233 -2.64898,3.532 -3.47432,8.1731 -5.9233,11.8466 -0.77444,1.1616 -2.33728,1.7129 -2.96165,2.9616 -0.4415,0.883 0,1.9745 0,2.9617 0,1.9744 0.62437,4.0502 0,5.9233 -0.4415,1.3245 -2.33728,1.7129 -2.96165,2.9616 -0.44149,0.883 0.4415,2.0787 0,2.9617 -0.62437,1.2487 -2.33727,1.7129 -2.96165,2.9616 -0.44149,0.883 0.4415,2.0787 0,2.9617 -0.62437,1.2487 -2.18721,1.8 -2.96164,2.9616 -1.22449,1.8367 -1.73716,4.0866 -2.96165,5.9233 -1.54887,2.3233 -4.67456,3.4258 -5.9233,5.9233 -0.44149,0.883 0.4415,2.0787 0,2.9616 -0.62437,1.2488 -2.33728,1.713 -2.96165,2.9617 -0.44149,0.883 0.4415,2.0787 0,2.9616 -0.62437,1.2488 -2.18721,1.8 -2.96164,2.9617 -10.73684,21.4737 3.12185,-4.6828 -5.9233,8.8849 -3.64511,5.4677 -5.23984,12.3023 -8.88495,17.7699 -1.54887,2.3233 -4.67455,3.4258 -5.92329,5.9233 -0.4415,0.883 0.44149,2.0787 0,2.9617 -0.62437,1.2487 -2.33728,1.7129 -2.96165,2.9616 -0.87372,1.7475 0.67904,6.8478 0,8.885 -2.11736,6.3521 -7.29392,10.2555 -11.84659,14.8082 -0.98722,0.9872 -1.97443,1.9744 -2.96165,2.9617 -0.98722,0.9872 -2.33728,1.7129 -2.96165,2.9616 -0.4415,0.883 0.4415,2.0787 0,2.9617 -1.31251,2.625 -7.08759,6.1889 -8.88494,8.8849 -1.22449,1.8367 -1.73716,4.0866 -2.96165,5.9233 -1.34966,2.0245 -10.98006,11.2689 -11.84659,11.8466 -0.82142,0.5476 -2.0251,-0.3122 -2.96165,0 -2.0942,0.6981 -3.8737,2.1418 -5.9233,2.9616 -2.89857,1.1595 -6.20798,1.3555 -8.88494,2.9617 -2.39435,1.4366 -3.59999,4.3744 -5.9233,5.9233 -0.82141,0.5476 -2.07866,-0.4415 -2.96165,0 -1.24874,0.6243 -1.79999,2.1872 -2.96165,2.9616 -1.83673,1.2245 -3.94886,1.9745 -5.92329,2.9617 -1.97443,0.9872 -3.8291,2.2636 -5.9233,2.9616 -0.93655,0.3122 -2.07865,-0.4415 -2.96165,0 -1.24874,0.6244 -1.63716,2.5202 -2.96165,2.9617 -1.87311,0.6243 -4.00781,-0.4789 -5.92329,0 -2.14157,0.5354 -3.8291,2.2636 -5.9233,2.9616 -0.93655,0.3122 -2.07865,-0.4415 -2.96165,0 -1.24874,0.6244 -1.7129,2.3373 -2.96164,2.9617 -1.86147,0.9307 -9.98514,-0.9308 -11.8466,0 -1.24874,0.6243 -1.7129,2.3372 -2.96165,2.9616 -3.18342,1.5917 -2.73987,-1.5917 -5.92329,0 -1.24874,0.6244 -1.71291,2.3373 -2.96165,2.9617 -1.76599,0.883 -4.05019,-0.6244 -5.9233,0 -16.77977,8.3898 4.41497,-1.1038 -11.84659,2.9616 -2.14157,0.5354 -3.82909,2.2636 -5.9233,2.9617 -0.93655,0.3121 -2.02509,-0.3122 -2.96164,0 -2.09421,0.698 -3.8291,2.2635 -5.9233,2.9616 -0.93656,0.3122 -2.02509,-0.3122 -2.96165,0 -2.0942,0.6981 -3.82909,2.2636 -5.92329,2.9617 -2.66549,0.8884 -6.21947,-0.8885 -8.88495,0 -1.32449,0.4415 -1.79999,2.1872 -2.96165,2.9616 -5.46766,3.6451 -12.30223,5.2398 -17.76989,8.8849 -1.16165,0.7745 -1.79999,2.1873 -2.96164,2.9617 -3.67348,2.449 -8.17313,3.4743 -11.8466,5.9233 -1.16165,0.7744 -1.79999,2.1872 -2.96165,2.9616 -1.83673,1.2245 -4.08656,1.7372 -5.92329,2.9617 -2.55561,1.7037 -6.57164,6.5716 -8.88495,8.8849 -0.98721,0.9872 -1.97443,1.9745 -2.96164,2.9617 -0.98722,0.9872 -2.33728,1.7129 -2.96165,2.9616 -0.4415,0.883 0.44149,2.0787 0,2.9617 -0.79089,1.5817 -7.32575,7.3257 -8.88496,8.8849 -1.5592,1.5592 -7.3032,8.0941 -8.8849,8.885 -0.883,0.4415 -2.0787,-0.4415 -2.9617,0 -2.4975,1.2487 -3.4258,4.6745 -5.9233,5.9233 -0.883,0.4415 -2.0251,-0.3122 -2.9616,0 -2.0942,0.698 -3.8291,2.2635 -5.9233,2.9616 -1.8731,0.6244 -4.1573,-0.883 -5.9233,0 -1.2488,0.6244 -1.7129,2.3373 -2.9617,2.9617 -1.071,0.5355 -12.7483,0 -14.8082,0 -5.9233,0 -11.8466,0 -17.7699,0 -1.3338,0 -7.9836,0.4506 -8.8849,0 -1.2488,-0.6244 -1.8,-2.1873 -2.9617,-2.9617 -1.4915,-6.525 -6.0927,-1.5655 -8.8849,-2.9616 -1.2488,-0.6244 -1.7129,-2.3373 -2.9617,-2.9617 -0.883,-0.4415 -2.0786,0.4415 -2.9616,0 -3.554,-1.777 -5.331,-7.1079 -8.885,-8.8849 -0.883,-0.4415 -2.0786,0.4415 -2.9616,0 -1.2488,-0.6244 -1.9745,-1.9745 -2.9617,-2.9617 -2.3133,-2.3133 -6.3293,-7.1812 -8.8849,-8.8849 -1.8368,-1.2245 -4.0866,-1.7372 -5.9233,-2.9617 -3.4173,-2.2782 -5.4677,-6.6067 -8.885,-8.8849 -1.8367,-1.2245 -4.0865,-1.7372 -5.9233,-2.9617 -1.1616,-0.7744 -1.9744,-1.9744 -2.9616,-2.9616 -0.9872,-0.9872 -2.1872,-1.8 -2.9616,-2.9617 -1.2245,-1.8367 -1.7372,-4.0865 -2.9617,-5.9233 -0.7744,-1.1616 -2.3373,-1.7129 -2.9616,-2.9616 -1.1847,-2.3693 1.1846,-6.5156 0,-8.8849 -0.6244,-1.2488 -2.3373,-1.713 -2.9617,-2.9617 -0.4507,-0.9013 0,-7.5511 0,-8.8849 0,-3.1004 -0.6021,-15.3615 0,-17.7699 0.5354,-2.1416 2.4263,-3.7818 2.9617,-5.9233 1.1614,-4.6457 -1.1615,-10.1625 0,-14.8083 8.3898,-16.7797 -1.1038,4.415 2.9616,-11.8466 3.5754,-14.3016 1.4074,0.1468 5.9233,-8.8849 0.883,-1.766 -0.6244,-4.0502 0,-5.9233 0.6981,-2.0942 2.2636,-3.8291 2.9616,-5.9233 0.6244,-1.8731 -0.8829,-4.1573 0,-5.9233 0.6244,-1.2487 2.3373,-1.7129 2.9617,-2.9616 0.4507,-0.9014 0,-7.5512 0,-8.885 0,-6.9105 0,-13.821 0,-20.7315 0,-2.06 0.5355,-13.7372 0,-14.8083 -0.6244,-1.2487 -2.3373,-1.7129 -2.9617,-2.9616 -0.4414,-0.883 0.4415,-2.0787 0,-2.9617 -1.2487,-2.4974 -4.6745,-3.4258 -5.9232,-5.9233 -0.4415,-0.883 0.4414,-2.0786 0,-2.9616 -9.8226,-9.8226 1.3961,2.7923 -2.9617,-5.9233 -0.7909,-1.5818 -7.3257,-7.3257 -8.8849,-8.8849 -1.5592,-1.5592 -7.3032,-8.0941 -8.885,-8.885 -0.1549,-0.078 -8.73,-0.078 -8.8849,0 -1.2488,0.6244 -1.7129,2.3373 -2.9617,2.9617 -0.883,0.4415 -2.0786,-0.4415 -2.9616,0 -1.2488,0.6243 -1.7129,2.3372 -2.9617,2.9616 -1.8684,0.9342 -12.9398,-0.9342 -14.8082,0 -1.2488,0.6244 -1.7129,2.3373 -2.9617,2.9617 -1.8684,0.9342 -12.9398,-0.9343 -14.8082,0 -1.2487,0.6243 -1.7129,2.3372 -2.9617,2.9616 -2.3693,1.1847 -6.5156,-1.1847 -8.8849,0 -1.2487,0.6244 -1.7129,2.3373 -2.9616,2.9616 -0.9014,0.4507 -7.5512,0 -8.885,0 -2.0599,0 -13.7372,0.5356 -14.8082,0 -1.2488,-0.6243 -1.9745,-1.9744 -2.9617,-2.9616 -9.8225,-9.8225 2.7923,1.3961 -5.9233,-2.9616 -1.2487,-0.6244 -1.7129,-2.3373 -2.9616,-2.9617 -0.883,-0.4415 -2.9617,0.9872 -2.9617,0 0,-0.9872 3.6597,0.6981 2.9617,0 -11.5586,-11.5585 -1.5906,0.6856 -8.885,-2.9616 -1.2487,-0.6244 -1.7129,-2.3373 -2.9616,-2.9617 -8.7156,-4.3578 3.8992,6.8609 -5.9233,-2.9616 -0.9872,-0.9873 -2.9617,-1.5656 -2.9617,-2.9617 0,-1.3961 1.9745,-1.9744 2.9617,-2.9616 2.3272,-2.3272 13.865,-12.9218 14.8082,-14.8083 0.8992,-1.7984 -0.8992,-15.9715 0,-17.7699 0.6244,-1.2487 2.3373,-1.7129 2.9617,-2.9616 0.4415,-0.883 0,-1.9744 0,-2.9617 0.9872,-1.9744 1.7371,-4.0865 2.9616,-5.9233 1.5489,-2.3233 3.9489,-3.9488 5.9233,-5.9233 2.9617,-2.9616 5.9233,-5.9233 8.885,-8.8849 0.9872,-0.9872 1.9744,-1.9744 2.9616,-2.9616 0.9872,-0.9873 2.3373,-1.713 2.9617,-2.9617 1.5794,-3.1589 -1.5795,-2.7644 0,-5.9233 1.7769,-3.554 7.1079,-5.331 8.8849,-8.8849 0.4415,-0.883 -0.4415,-2.0787 0,-2.9617 1.3125,-2.625 7.0876,-6.1889 8.885,-8.8849 1.2244,-1.8368 1.7371,-4.0866 2.9616,-5.9233 1.5489,-2.3233 4.6746,-3.4258 5.9233,-5.9233 0.4415,-0.883 -0.3122,-2.0251 0,-2.9617 0.6981,-2.0942 2.2636,-3.8291 2.9616,-5.9233 0.8457,-2.5371 -0.6532,-9.2337 0,-11.8466 0.5354,-2.1415 2.2636,-3.8291 2.9617,-5.9233 0.7895,-2.3684 -0.5567,-12.0249 0,-14.8082 0.6122,-3.0612 2.3494,-5.8237 2.9616,-8.8849 0.3873,-1.9361 0,-3.9489 0,-5.9233 0,-5.9233 0,-11.8466 0,-17.7699 0,-2.9617 -0.9365,-6.0753 0,-8.885 3.6598,-10.9791 2.9617,3.6101 2.9617,-5.9233 0,-1.1707 0.6324,-13.5433 0,-14.8082 -1.2488,-2.4975 -4.3744,-3.6 -5.9233,-5.9233 -2.449,-3.6735 -3.4743,-8.1731 -5.9233,-11.8466 -1.5489,-2.3233 -3.9489,-3.9489 -5.9233,-5.9233 -3.9489,-3.9489 -7.8977,-7.8977 -11.8466,-11.8466 -1.9744,-1.9744 -4.3744,-3.6 -5.9233,-5.9233 -1.2245,-1.8367 -1.7371,-4.0865 -2.9616,-5.9233 -1.5489,-2.3233 -4.6746,-3.4258 -5.9233,-5.9233 -0.4415,-0.883 0.4415,-2.0786 0,-2.9616 -1.777,-3.554 -7.108,-5.331 -8.885,-8.885 -0.4415,-0.883 0.4415,-2.0786 0,-2.9616 -0.6244,-1.2488 -2.3373,-1.7129 -2.9616,-2.9617 -0.4415,-0.883 0.4415,-2.0786 0,-2.9616 -0.6244,-1.2488 -2.3373,-1.7129 -2.9617,-2.9617 -0.4415,-0.883 0,-1.9744 0,-2.9616 0,-4.4082 0.4415,-3.7802 -2.9616,-8.885 -0.8211,-1.2316 -10.7874,-11.3169 -11.8466,-11.8465 -0.883,-0.4415 -2.0787,0.4414 -2.9617,0 -1.2487,-0.6244 -1.7129,-2.3373 -2.9616,-2.9617 -1.766,-0.883 -4.1573,0.883 -5.9233,0 -1.2488,-0.6244 -1.7129,-2.3373 -2.9617,-2.9616 -0.7657,-0.3829 -15.6706,0 -17.7698,0 -0.677,0 -8.8604,-0.031 -8.885,0 -3.596,4.495 -5.9233,9.8721 -8.8849,14.8082 z"
         id="path4527"
         inkscape:connector-curvature="0" />
    </clipPath>
  </defs>
  <sodipodi:namedview
     id="base"
     pagecolor="#ffffff"
     bordercolor="#666666"
     borderopacity="1.0"
     inkscape:pageopacity="1"
     inkscape:pageshadow="2"
     inkscape:zoom="0.5"
     inkscape:cx="-0.51267376"
     inkscape:cy="281.37185"
     inkscape:document-units="px"
     inkscape:current-layer="layer1"
     showgrid="false"
     inkscape:window-width="1280"
     inkscape:window-height="1000"
     inkscape:window-x="0"
     inkscape:window-y="24"
     inkscape:window-maximized="1"
     showguides="true"
     inkscape:guide-bbox="true"
     units="px" />
  <metadata
     id="metadata7">
    <rdf:RDF>
      <cc:Work
         rdf:about="">
        <dc:format>image/svg+xml</dc:format>
        <dc:type
           rdf:resource="http://purl.org/dc/dcmitype/StillImage" />
        <dc:title></dc:title>
      </cc:Work>
    </rdf:RDF>
  </metadata>
  <g
     inkscape:label="Camada 1"
     inkscape:groupmode="layer"
     id="layer1"
     transform="translate(0,3.9490035e-5)">
    <text
       xml:space="preserve"
       style="font-style:normal;font-variant:normal;font-stretch:normal;font-size:24px;line-height:125%;font-family:'Source Code Pro';-inkscape-font-specification:'Source Code Pro Semi-Light';letter-spacing:0px;word-spacing:0px;fill:#000000;fill-opacity:1;stroke:none"
       x="933.5553"
       y="697.38757"
       id="text3052"
       sodipodi:linespacing="125%"><tspan
         sodipodi:role="line"
         id="tspan3054"
         x="933.5553"
         y="697.38757" /></text>
    <g
       id="g3146"
       transform="matrix(1.1493727,0,0,1.1493727,1028.3391,-475.13253)">
      <path
         id="path3149"
         d="m -744.1338,917.03908 c -10.6421,-29.9386 -12.60804,-62.62378 -5.34035,-93.49497 9.19663,-39.79193 33.46284,-76.27196 67.45339,-100.90018 22.77325,-16.85248 49.95614,-27.95923 78.23816,-32.87937 44.3423,-7.87217 91.59063,1.20555 129.55629,24.41537 33.04212,19.92546 59.22952,50.27895 72.77086,85.37256 9.28408,22.80352 13.07843,47.58333 11.65088,71.98473 -2.17364,36.06048 -16.52279,71.31919 -40.30579,99.371 -23.00619,27.51278 -55.07422,47.84598 -90.4065,57.71638 -35.55262,9.9147 -74.33774,9.2746 -109.37451,-2.3117 -53.05797,-16.8499 -96.85009,-58.39863 -114.24243,-109.27382 m 73.78648,59.49198 c -2.49384,6.91086 -5.2799,13.71769 -7.69487,20.64953 6.33828,-4.13591 12.66909,-8.29771 18.9467,-12.54298 5.95913,4.50164 12.01771,8.89351 18.13886,13.19925 -1.99245,-7.16285 -4.12014,-14.29004 -6.2885,-21.4065 6.40318,-4.26444 13.01169,-8.22089 19.22448,-12.74156 -7.80503,-0.5471 -15.6457,-0.20738 -23.45402,-0.61433 -1.99662,-6.92498 -3.88121,-13.86555 -6.22607,-20.6848 -2.72443,6.81844 -5.16647,13.75741 -7.60245,20.66693 -7.86627,-0.002 -15.74514,-0.0976 -23.60672,-0.18411 6.01649,4.75115 12.39996,9.05737 18.56259,13.65857 m -1.15176,-70.37895 c 9.0248,18.72143 24.17576,34.49101 42.45318,45.34174 21.24359,12.29729 46.87055,17.77062 71.52909,14.52986 28.67102,-3.2678 55.52645,-18.18795 73.08424,-40.04451 16.19302,-19.76979 24.39613,-45.27474 22.96938,-70.33044 -1.56335,-23.30662 -10.86141,-46.25965 -27.09639,-63.81869 -19.90314,-21.99605 -49.70692,-35.33777 -80.08801,-36.13176 -22.96248,-0.57677 -46.13906,5.78311 -65.07735,18.25425 -25.77417,16.59893 -43.42026,44.16123 -47.32358,73.61634 -2.80516,19.87595 0.71592,40.42416 9.54944,58.58321 m -12.53947,-120.63639 c 6.13511,4.45527 12.16097,9.03682 18.42495,13.33276 -2.31867,-7.13256 -4.23487,-14.38513 -6.37763,-21.56407 6.31919,-4.35372 12.76811,-8.56058 19.30241,-12.62282 -7.61733,-0.80549 -15.29927,-0.52152 -22.9466,-0.62274 -3.07677,-6.93273 -4.77176,-14.32717 -6.794,-21.59358 -2.67174,7.15273 -5.2436,14.34877 -7.94988,21.48275 -7.86575,-0.25254 -15.7512,-0.0682 -23.62539,-0.24884 6.20698,4.60344 12.4569,9.15379 18.78294,13.61443 -2.69597,6.86664 -5.14409,13.83508 -7.87086,20.69591 6.44701,-4.01137 12.66024,-8.37894 19.05406,-12.4738 m 220.55457,160.67977 c -2.75386,6.86796 -5.17723,13.87167 -7.89282,20.77133 6.42793,-4.22918 12.64678,-8.77929 19.39623,-12.55005 6.14163,4.57889 12.31641,9.12117 18.53041,13.59743 -2.13844,-7.41684 -4.25962,-14.82429 -6.42521,-22.23398 6.29722,-4.2783 12.72187,-8.36733 19.07229,-12.56215 -7.92505,-0.30657 -15.85197,-0.41764 -23.77614,-0.41802 -2.14319,-6.92812 -3.85691,-13.98337 -6.29793,-20.83298 -2.7305,6.84789 -5.19963,13.79401 -7.57634,20.75754 -7.90497,-0.1865 -15.81697,-0.24579 -23.72247,-0.18145 6.28541,4.47135 12.45551,9.09844 18.6919,13.65235 m -37.07263,-171.92734 c 6.46941,-3.93371 12.63456,-8.31647 18.97656,-12.43945 5.99645,4.63109 12.26043,8.92703 18.32924,13.45548 -2.13524,-7.15306 -4.04402,-14.37974 -6.83883,-21.34501 6.57593,-4.57459 13.59944,-8.55687 19.94297,-13.43233 -7.93212,0.22456 -15.87678,-0.0489 -23.81863,-0.21182 -1.83931,-7.03607 -4.05761,-13.97225 -6.2083,-20.92625 -2.65397,6.91127 -5.14269,13.89042 -7.60435,20.86243 -7.79347,0.0488 -15.58547,-0.25111 -23.38083,-0.007 5.95583,4.64179 12.19272,8.94488 18.23447,13.48045 -2.42617,6.89301 -5.14078,13.69493 -7.6323,20.56339 z"
         inkscape:connector-curvature="0"
         style="fill:#ffffff" />
      <path
         style="fill:#002b3d"
         inkscape:connector-curvature="0"
         d="m -580.80482,699.5102 c 29.3875,-1.725 59.1875,4.675 85.175,18.55 33.5375,17.7375 60.5375,47.5875 74.6,82.85 9.7375,23.7125 13.275,49.7875 11,75.275 -3.425,40 -22.75,78.3 -52.5625,105.1375 -25.7,23.425 -59.1375,38.3875 -93.8375,41.325 -22.6625,2.325 -45.8,-0.55 -67.3625,-7.8125 -31.85,-10.7875 -60.1,-31.825 -79.65,-59.175 -19.25,-26.55 -29.9125,-59.1 -30.4125,-91.8625 -0.4875,-32.9625 9.2625,-66.0875 27.95,-93.2875 27.675,-41.3625 75.325,-68.6625 125.1,-71 m -70.85,48.6 c -5.6125,-3.85 -11.0625,-7.925 -16.7125,-11.7125 2.2125,6.4625 4.45,12.925 6.775,19.3625 -5.45,4 -10.825,8.1125 -16.1375,12.3 6.9,0.0625 13.8,0 20.7,-0.1 2.3125,6.55 4.3,13.2 6.8875,19.65 2.3375,-6.5625 3.8875,-13.375 6.1,-19.975 6.6875,0 13.3625,0.1 20.0375,-0.225 -5.475,-4.025 -11.125,-7.8375 -16.75,-11.6375 1.8625,-6.75 3.8125,-13.4875 5.75,-20.2125 -5.6875,3.9875 -11.0625,8.4 -16.65,12.55 m 63.4375,16.425 c -18.9375,3.1125 -36.675,12.2125 -50.7375,25.2125 -16.0625,15.1875 -27.0375,35.825 -29.9625,57.7875 -3.85,25.4125 3.1875,52.15 18.65,72.625 13.9125,18.7875 34.8625,32.1375 57.6875,37.1125 21.2875,4.425 44.0875,2.125 63.6875,-7.4625 24.45,-11.6375 43.475,-33.9125 51.375,-59.7875 5.95,-19.5625 5.725,-41.025 -0.9875,-60.3625 -8.8,-26.225 -29.3625,-48.1875 -54.875,-58.825 -17.175,-7.325 -36.45,-9.3875 -54.8375,-6.3 m 111.2375,19.0875 c -5.45,4.1625 -10.9875,8.2 -16.325,12.5125 6.95,-0.225 13.9125,-0.075 20.8625,-0.1375 2.4125,6.5 4.6625,13.075 6.7625,19.6875 2.525,-6.3375 4.0875,-13 5.9875,-19.5375 6.95,-0.925 13.9875,-0.55 20.9875,-0.4875 -5.7875,-4.0625 -11.6375,-8.05 -17.4,-12.1375 2.0875,-6.6875 3.7875,-13.5 5.8125,-20.2125 -5.6,4.1875 -11.1625,8.425 -16.6625,12.75 -5.525,-4.0125 -11.2,-7.8375 -16.7125,-11.875 2.075,6.525 4.525,12.9375 6.6875,19.4375 m -196.3875,149.5125 c -5.5125,-4.0625 -11.225,-7.875 -16.775,-11.9125 2.275,6.5625 4.8875,13.025 6.675,19.75 -5.5625,4.1375 -11.1,8.3125 -16.5875,12.5375 7.1625,0 14.3125,0.0125 21.475,-0.0125 2.35,6.4625 4.5,12.9875 6.7625,19.475 2.15,-6.725 4.125,-13.5 6,-20.3 6.725,-0.125 13.4625,0.15 20.1875,-0.25 -5.5,-4.0375 -11.15,-7.875 -16.8375,-11.6375 2.0375,-6.7375 3.9625,-13.5125 5.775,-20.3125 -5.5,4.2875 -11.1125,8.4375 -16.675,12.6625 m 163.075,10.725 c 2,6.525 4.475,12.9 6.675,19.3625 -5.575,4 -10.9125,8.3125 -16.4125,12.4 6.925,-0.0625 13.8625,0.0875 20.775,-0.5875 2.55,6.775 4.4625,13.7875 7.3375,20.4375 1.675,-6.8625 3.8,-13.6125 5.825,-20.3875 6.75,0.1625 13.5,-0.025 20.25,-0.15 -5.575,-3.9875 -11.25,-7.85 -16.925,-11.6875 1.8,-6.7 3.9125,-13.3125 5.5375,-20.0625 -5.575,3.9625 -10.9125,8.25 -16.4125,12.3125 -5.6125,-3.7875 -11.075,-7.8 -16.65,-11.6375 z"
         id="path3246" />
      <path
         style="fill:#002b3d"
         inkscape:connector-curvature="0"
         d="m -588.31732,768.1602 c 18.05,-2.8375 37,-1.25 53.85,6.05 22.9,9.7125 41.65,28.775 50.8625,51.9 8.1375,20.1625 8.9375,43.175 2.3375,63.8875 -6.775,21.4 -21.4875,40.1 -40.6,51.85 -16.1875,10.175 -35.6125,14.9375 -54.65,14.025 -19.9125,-1.1375 -39.4375,-8.5125 -54.8625,-21.2 -18.95,-15.2375 -31.575,-38.1125 -34.2875,-62.2875 -3.175,-24.85 4.425,-50.7875 20.175,-70.225 14.1375,-17.7375 34.85,-30.05 57.175,-34 m -48.3875,27.725 c -15.85,15.275 -25.475,36.6 -27.2125,58.4875 0.2,0.9375 0.475,1.85 0.825,2.7375 1.9125,-1.875 3.975,-3.5875 6.1375,-5.1625 12.325,-9.0875 24.225,-18.725 36.6375,-27.6875 8.3125,1.1 16.625,2.3375 24.9625,3.35 15.675,20.775 31.6125,41.3625 47.225,62.1875 -1.1625,8.675 -2.55,17.325 -3.4375,26.0375 -14.0875,10.8125 -28.225,21.575 -42.4,32.275 -21.5,-28.2875 -43.025,-56.55 -64.575,-84.8125 -1.7125,-2.275 -3.375,-4.6375 -5.425,-6.65 -0.675,14.05 1.7375,28.2875 7.4,41.1875 8.625,20.2 24.7875,37.025 44.5375,46.6 16.75,8.05 35.975,11.2125 54.35,8.2 24.7,-3.5375 47.5625,-17.8 61.7875,-38.275 12.725,-17.775 18.6125,-40.275 16.425,-62 -2.075,-22.325 -12.8125,-43.625 -29.2375,-58.8375 -14.75,-13.525 -33.9125,-22.425 -53.9125,-24.0625 -26.975,-2.9 -55.1125,6.9875 -74.0875,26.425 m 17.0125,30.625 c -13.5875,10.1875 -27.0625,20.525 -40.55,30.8375 22.3,29.2 44.45,58.5375 66.85,87.6625 13.075,-10.2125 26.4625,-20.025 39.4875,-30.2875 1.45,-8.0625 2.05,-16.2375 3.525,-24.2875 -15.4125,-20.1 -30.5,-40.475 -46.175,-60.35 -7.525,-2.0125 -15.5,-1.9625 -23.1375,-3.575 z"
         id="path3248" />
      <path
         style="fill:#002b3d"
         inkscape:connector-curvature="0"
         d="m -589.90482,802.2352 c 9.9625,-7.6875 19.9,-15.4375 30.125,-22.7625 8.525,0.4875 17.0125,2.075 25.4875,3.25 6.225,8.5375 12.8125,16.8125 19.05,25.35 -9.325,6.7625 -18.325,13.95 -27.5375,20.8875 -3.25,-4.05 -6.1125,-8.4 -9.65,-12.2125 -0.8625,0.525 -2.575,1.575 -3.425,2.1 8.875,11.875 17.95,23.6125 26.9375,35.4125 1.0625,-0.8875 2.0125,-1.875 2.8375,-2.975 -2.675,-4.3375 -6.1125,-8.125 -9.15,-12.2 9.15,-7.1125 18.3625,-14.15 27.7,-21.025 6.6125,8.9375 13.7875,17.525 20,26.7125 -0.725,8.7 -2.3875,17.3125 -3.275,26 -8.7,6.675 -17.4125,13.3375 -26.1125,20 -1.9625,1.675 -4.7375,0.2875 -7.0125,0.3625 -6.775,-1.1375 -13.7625,-1.6 -20.4,-3.0375 -16.4125,-20.8875 -32.1375,-42.325 -48.4875,-63.275 0.775,-7.55 2.0875,-15.0375 2.9125,-22.5875 m 30.5,-20.4125 c -9.4875,6.825 -18.4625,14.375 -28.0375,21.0875 -1.2,5.15 -1.5125,10.45 -2.4,15.6625 -0.3375,2.5875 -1.075,5.5875 1.025,7.675 15.1,19.975 30.4875,39.725 45.425,59.825 8.1,1.2 16.2125,2.6 24.3875,3.15 9,-6.1375 17.3875,-13.15 26.125,-19.65 0.7875,-8.2375 2.4125,-16.375 3.05,-24.6375 -6.0125,-7.975 -12.175,-15.825 -18.15,-23.825 -8.025,6.125 -16.1375,12.1375 -24.0875,18.375 3.2375,4.1375 6.375,8.35 9.525,12.5375 -2.425,1.65 -4.7625,3.4125 -6.9875,5.3125 -9.5875,-12.975 -19.6375,-25.625 -29.1625,-38.6375 2.1,-2 4.475,-3.6625 6.7875,-5.375 3.125,4.175 6.225,8.375 9.4875,12.45 7.95,-6.05 16.05,-11.925 23.8375,-18.2 -4.875,-7.2 -10.5125,-13.875 -15.625,-20.9125 -1.7375,-2.9 -5.525,-2.425 -8.4,-2.9375 -5.6,-0.425 -11.2875,-2.075 -16.8,-1.9 z"
         id="path3250" />
      <path
         style="fill:#336699"
         inkscape:connector-curvature="0"
         d="m -558.44232,783.6602 c 7.1625,1.2375 14.475,1.775 21.5875,3.175 5.275,6.65 10.2125,13.5875 15.5875,20.1625 -6.8125,5.4375 -13.9375,10.475 -20.7625,15.9 -3.125,-4.2 -6.25,-8.4125 -9.5125,-12.5 -3.425,2.6125 -6.8375,5.25 -10.325,7.7625 10.625,14.025 21.2375,28.0625 31.9625,42.0125 3.4,-2.625 6.8375,-5.175 10.2625,-7.7625 -3.0375,-4.2625 -6.225,-8.4125 -9.4375,-12.55 6.875,-5.2 13.6375,-10.55 20.575,-15.6875 5.6,7.2 11.5875,14.2875 16.425,21.975 -0.7375,7.475 -1.8625,14.9 -2.975,22.3375 -8,6.4375 -16.3375,12.4625 -24.4875,18.725 -7.4875,-0.775 -14.9375,-2.0875 -22.425,-2.9125 -15.275,-20.35 -31.0125,-40.375 -46.1125,-60.85 0.2875,-6.3625 1.6625,-12.6125 2.275,-18.95 9.175,-6.8625 18.1875,-13.9625 27.3625,-20.8375 z"
         id="path3252" />
      <path
         style="fill:#336699"
         inkscape:connector-curvature="0"
         d="m -619.44232,828.7352 c 7.1625,1 14.3,2.1375 21.5,2.825 15.25,19.6 29.975,39.625 45.3,59.1625 -1.1,7.2125 -1.9875,14.4625 -2.9125,21.7125 -0.1,1.475 -1.7,2.1375 -2.65,3.0625 -11.6875,8.7375 -23.175,17.75 -34.8625,26.4875 -21.6,-27.9 -42.5125,-56.3375 -64.35,-84.0375 12.4875,-9.9625 25.525,-19.2 37.975,-29.2125 m -2.3,34.9875 c 10.6625,14.25 21.6625,28.25 32.25,42.5625 3.4875,-2.6375 6.975,-5.2875 10.4125,-7.9875 -10.7625,-14.125 -21.625,-28.1875 -32.2625,-42.4125 -3.575,2.475 -6.9375,5.2125 -10.4,7.8375 z"
         id="path3254" />
      <path
         style="fill:#002b3d"
         inkscape:connector-curvature="0"
         d="m -618.92982,864.1477 c 2.3625,-1.8125 4.75,-3.5875 7.1375,-5.3625 9.8625,13.0875 19.7125,26.1875 29.825,39.0875 -2.3125,1.8125 -4.65,3.5875 -7,5.3375 -10.1875,-12.8625 -19.75,-26.2125 -29.9625,-39.0625 m 3.2,0.0625 c 8.7375,12.175 18.1625,23.8625 27.1,35.9 1.1625,-0.8875 2.325,-1.775 3.4875,-2.65 -9.0625,-11.6625 -18.0125,-23.4125 -26.7875,-35.275 -1.275,0.675 -2.5375,1.35 -3.8,2.025 z"
         id="path3256" />
      <text
         transform="matrix(0.97773789,-0.20983001,0.20983001,0.97773789,-193.45619,-100.59751)"
         xml:space="preserve"
         style="font-style:normal;font-variant:normal;font-weight:normal;font-stretch:normal;font-size:62.40406036px;line-height:125%;font-family:'JACKPORT COLLEGE NCV';-inkscape-font-specification:'JACKPORT COLLEGE NCV';text-align:start;letter-spacing:0px;word-spacing:0px;writing-mode:lr-tb;text-anchor:start;fill:#003366;fill-opacity:1;stroke:none"
         id="text3142"
         sodipodi:linespacing="125%"><textPath
           dx="0"
           style="font-style:normal;font-variant:normal;font-weight:normal;font-stretch:normal;font-size:60px;line-height:125%;font-family:'JACKPORT COLLEGE NCV';-inkscape-font-specification:'JACKPORT COLLEGE NCV';text-align:start;letter-spacing:0px;writing-mode:lr-tb;text-anchor:start"
           id="textPath3156"
           xlink:href="#path3149">DIVISO DE COMPUTAO    IFRS campus RIO GRANDE</textPath></text>
      <circle
         transform="matrix(1.0168694,0,0,0.99112653,5.5649363,142.43648)"
         id="path3170"
         style="fill:none;stroke:#002b3d;stroke-width:2.79306388;stroke-miterlimit:4;stroke-dasharray:none"
         cx="-567"
         cy="725.36218"
         r="237" />
    </g>
    <g
       id="g3679"
       transform="matrix(1.5606176,0,0,1.5606176,9.6256439,-88.39984)">
      <g
         style="font-style:normal;font-variant:normal;font-weight:normal;font-stretch:normal;font-size:172.36972046px;line-height:125%;font-family:Sans;-inkscape-font-specification:'Source Code Pro Semi-Light';text-align:start;letter-spacing:0px;word-spacing:0px;writing-mode:lr-tb;text-anchor:start;fill:#002b3d;fill-opacity:1;stroke:none"
         id="text3706"
         transform="matrix(0.70995452,0,0,0.70995452,-442.32039,370.94377)">
        <path
           d="m 892.6771,412.32958 c -6.09046,-1e-5 -11.20409,-0.8044 -15.34091,-2.41318 -4.13692,-1.7237 -7.4694,-4.07941 -9.99744,-7.06716 -2.52813,-3.10264 -4.36674,-6.77986 -5.51583,-11.03166 -1.03426,-4.25176 -1.55137,-8.9632 -1.55133,-14.13432 l 0,-39.64503 -23.61465,0 0,-10.68693 24.13176,-0.86185 1.89607,-26.88967 11.72114,0 0,26.88967 41.19636,0 0,11.54878 -41.19636,0 0,39.8174 c -5e-5,3.79216 0.34469,7.12464 1.03422,9.99745 0.68942,2.75793 1.83855,5.11365 3.44739,7.06715 1.60873,1.95354 3.79208,3.44741 6.55005,4.48162 2.75785,0.91931 6.14779,1.37896 10.16981,1.37895 4.02189,10e-6 7.64165,-0.34473 10.8593,-1.03421 3.21748,-0.68947 6.32013,-1.60878 9.30796,-2.75792 l 3.10266,10.34218 c -3.79223,1.37896 -7.81419,2.52809 -12.06589,3.4474 -4.13695,1.03421 -8.84838,1.55132 -14.13431,1.55133"
           style="font-variant:normal;font-stretch:normal;font-family:'Source Code Pro';-inkscape-font-specification:'Source Code Pro Semi-Light';fill:#002b3d"
           id="path3711"
           inkscape:connector-curvature="0" />
        <path
           d="m 963.12568,412.32958 c -3.90709,-1e-5 -7.5843,-0.57457 -11.03166,-1.7237 -3.44743,-1.03422 -6.49262,-2.52809 -9.1356,-4.48161 -2.52811,-2.06843 -4.53909,-4.53907 -6.03294,-7.4119 -1.49388,-2.98773 -2.24082,-6.37766 -2.24081,-10.16982 -10e-6,-4.71141 1.09166,-8.79082 3.27503,-12.23825 2.29824,-3.56227 5.86055,-6.60746 10.68692,-9.13559 4.94123,-2.52804 11.26145,-4.59648 18.96067,-6.20531 7.69913,-1.60873 16.94963,-2.87278 27.75151,-3.79213 -0.115,-2.87278 -0.5746,-5.57323 -1.3789,-8.10138 -0.8045,-2.52803 -2.06855,-4.71137 -3.79218,-6.55005 -1.72376,-1.95346 -4.02202,-3.50478 -6.89478,-4.65398 -2.75798,-1.14906 -6.14791,-1.72363 -10.16982,-1.7237 -5.51588,7e-5 -10.80187,1.09175 -15.85801,3.27502 -5.05621,2.06851 -9.53782,4.30931 -13.44484,6.72242 l -5.51583,-9.6527 c 2.06842,-1.37888 4.48159,-2.75784 7.23953,-4.13687 2.8728,-1.4938 5.86054,-2.8153 8.96322,-3.96451 3.21753,-1.14905 6.60747,-2.06835 10.16982,-2.75791 3.56226,-0.80431 7.18202,-1.20651 10.85929,-1.20659 11.49125,8e-5 19.9948,3.16019 25.5107,9.48033 5.6307,6.20538 8.446,14.53658 8.4461,24.99361 l 0,51.36618 -11.5487,0 -1.2066,-11.3764 -0.5171,0 c -4.71154,3.67723 -9.94009,6.83733 -15.68568,9.48033 -5.6308,2.643 -11.43391,3.9645 -17.40934,3.96451 m 3.79213,-11.37641 c 4.8263,10e-6 9.53774,-1.0342 14.13432,-3.10265 4.71137,-2.18334 9.48026,-5.28599 14.30667,-9.30797 l 0,-22.06332 c -8.96327,0.68952 -16.49008,1.66628 -22.58042,2.93029 -5.97553,1.26408 -10.80187,2.81541 -14.47905,4.65398 -3.56234,1.72373 -6.09043,3.73471 -7.58427,6.03294 -1.4939,2.18338 -2.24084,4.65401 -2.24081,7.4119 -3e-5,2.41319 0.51708,4.48163 1.55133,6.20531 1.03419,1.60879 2.35569,2.98775 3.9645,4.13687 1.72367,1.03423 3.67719,1.83862 5.86057,2.41318 2.29823,0.45966 4.65394,0.68948 7.06716,0.68947"
           style="font-variant:normal;font-stretch:normal;font-family:'Source Code Pro';-inkscape-font-specification:'Source Code Pro Semi-Light';fill:#002b3d"
           id="path3713"
           inkscape:connector-curvature="0" />
        <path
           d="m 1063.3942,412.32958 c -5.5159,-1e-5 -10.5146,-0.97677 -14.9961,-2.93029 -4.3668,-1.95352 -8.1589,-4.76889 -11.3764,-8.44612 -3.2176,-3.79212 -5.6883,-8.38864 -7.4119,-13.78957 -1.7238,-5.40089 -2.5856,-11.6062 -2.5856,-18.61593 0,-6.77983 1.0342,-12.87022 3.1027,-18.27119 2.1833,-5.51577 4.9987,-10.16975 8.4461,-13.96195 3.5623,-3.79206 7.6417,-6.72234 12.2382,-8.79086 4.5965,-2.06835 9.3654,-3.10257 14.3067,-3.10265 5.0561,8e-5 9.5378,0.97684 13.4449,2.93028 4.0219,1.83869 7.8714,4.48169 11.5487,7.92901 l 0.5171,0 -0.6894,-15.51327 0,-32.23314 14.1343,0 0,122.72724 -11.7212,0 -1.2066,-11.03166 -0.5171,0 c -3.4474,3.56231 -7.5843,6.66496 -12.4106,9.30796 -4.7115,2.52809 -9.6527,3.79213 -14.8238,3.79214 m 2.9303,-11.89352 c 8.2737,10e-6 16.1452,-4.19431 23.6147,-12.58298 l 0,-41.71348 c -3.7922,-3.56224 -7.5269,-6.09032 -11.2041,-7.58426 -3.5623,-1.4938 -7.1821,-2.24074 -10.8593,-2.24081 -3.6772,7e-5 -7.1246,0.80446 -10.3421,2.41317 -3.1027,1.49395 -5.8607,3.67729 -8.2738,6.55005 -2.2983,2.75798 -4.1369,6.09046 -5.5158,9.99745 -1.379,3.9071 -2.0685,8.27379 -2.0685,13.1001 0,10.11239 2.1259,17.98393 6.3777,23.61465 4.3667,5.63076 10.4571,8.44612 18.2712,8.44611"
           style="font-variant:normal;font-stretch:normal;font-family:'Source Code Pro';-inkscape-font-specification:'Source Code Pro Semi-Light';fill:#002b3d"
           id="path3715"
           inkscape:connector-curvature="0" />
        <path
           d="m 1166.0759,412.32958 c -8.2737,-1e-5 -15.9155,-1.26405 -22.9251,-3.79214 -7.0098,-2.643 -13.1001,-5.74565 -18.2712,-9.30796 l 6.55,-9.30797 c 4.8264,3.44741 10.1124,6.20533 15.858,8.27375 5.8606,2.06845 12.6979,3.10266 20.512,3.10265 7.1246,10e-6 12.4106,-1.26403 15.8581,-3.79213 3.5622,-2.64299 5.3433,-5.74564 5.3434,-9.30797 -10e-5,-1.60876 -0.2873,-3.10263 -0.8618,-4.48161 -0.5747,-1.37893 -1.8387,-2.70043 -3.7922,-3.9645 -1.8386,-1.26401 -4.4816,-2.4706 -7.929,-3.61977 -3.4474,-1.14909 -7.9865,-2.29822 -13.6172,-3.44739 -10.9168,-2.29822 -19.133,-5.34342 -24.6488,-9.1356 -5.401,-3.90699 -8.1014,-9.02062 -8.1014,-15.3409 0,-3.33242 0.7469,-6.43507 2.2408,-9.30797 1.4938,-2.98766 3.6772,-5.51575 6.55,-7.58426 2.9877,-2.18327 6.6075,-3.84951 10.8593,-4.99872 4.3667,-1.26396 9.4229,-1.89599 15.1686,-1.89607 6.435,8e-5 12.6403,1.09176 18.6159,3.27502 5.9754,2.06852 11.0316,4.53915 15.1685,7.4119 l -6.8948,9.1356 c -3.9071,-2.64294 -8.2163,-4.76883 -12.9277,-6.37768 -4.7115,-1.60871 -9.7677,-2.4131 -15.1685,-2.41318 -7.1247,8e-5 -12.1234,1.20666 -14.9962,3.61976 -2.8729,2.41325 -4.3093,5.22862 -4.3092,8.44612 -1e-4,3.67728 1.896,6.49265 5.6882,8.44612 3.7921,1.83866 9.9974,3.67727 18.6159,5.51583 7.0096,1.49392 12.7553,3.1027 17.237,4.82635 4.4815,1.60883 7.9863,3.44744 10.5145,5.51583 2.6429,2.06847 4.4241,4.36673 5.3435,6.89479 1.0341,2.52812 1.5512,5.40094 1.5513,8.61849 -10e-5,3.44741 -0.8045,6.66497 -2.4132,9.6527 -1.6088,2.98775 -4.022,5.63075 -7.2395,7.92901 -3.1027,2.29826 -7.0098,4.07942 -11.7211,5.34346 -4.5966,1.37896 -9.8826,2.06843 -15.8581,2.06844"
           style="font-variant:normal;font-stretch:normal;font-family:'Source Code Pro';-inkscape-font-specification:'Source Code Pro Semi-Light';fill:#002b3d"
           id="path3717"
           inkscape:connector-curvature="0" />
      </g>
      <text
         xml:space="preserve"
         style="font-style:normal;font-variant:normal;font-stretch:normal;font-size:16.13030243px;line-height:125%;font-family:'Source Code Pro';-inkscape-font-specification:'Source Code Pro Semi-Light';text-align:center;letter-spacing:0px;word-spacing:0px;writing-mode:lr-tb;text-anchor:middle;fill:#000000;fill-opacity:1;stroke:none"
         x="231.35913"
         y="686.86847"
         id="text3730"
         sodipodi:linespacing="125%"><tspan
           sodipodi:role="line"
           x="231.35913"
           y="686.86847"
           style="font-weight:bold"
           id="tspan4540">Anlise e Desenvolvimento de Sistemas</tspan><tspan
           id="tspan4579"
           sodipodi:role="line"
           x="231.35913"
           y="707.03137"
           style="font-weight:normal">Curso Superior de Tecnologia</tspan></text>
      <path
         sodipodi:nodetypes="ccccc"
         inkscape:connector-curvature="0"
         id="path4547"
         d="m 51.11464,580.40916 0,14.52024 85.48075,0 0,-14.52024 z"
         style="font-style:normal;font-variant:normal;font-stretch:normal;font-size:144px;line-height:125%;font-family:'Source Code Pro';-inkscape-font-specification:'Source Code Pro Semi-Light';text-align:start;letter-spacing:0px;word-spacing:0px;writing-mode:lr-tb;text-anchor:start;fill:#336699;fill-opacity:1;stroke:none" />
      <path
         id="rect3744"
         d="m 51.11464,625.69263 0,40.19728 85.48075,0 0,-40.19728 z"
         style="font-style:normal;font-variant:normal;font-stretch:normal;font-size:144px;line-height:125%;font-family:'Source Code Pro';-inkscape-font-specification:'Source Code Pro Semi-Light';text-align:start;letter-spacing:0px;word-spacing:0px;writing-mode:lr-tb;text-anchor:start;fill:#336699;fill-opacity:1;stroke:none"
         inkscape:connector-curvature="0" />
      <path
         sodipodi:nodetypes="ccccc"
         inkscape:connector-curvature="0"
         id="rect3746"
         d="m 51.05311,597.92078 0,24.78048 85.60381,0 0,-24.78048 z"
         style="font-style:normal;font-variant:normal;font-stretch:normal;font-size:144px;line-height:125%;font-family:'Source Code Pro';-inkscape-font-specification:'Source Code Pro Semi-Light';text-align:start;letter-spacing:0px;word-spacing:0px;writing-mode:lr-tb;text-anchor:start;fill:#336699;fill-opacity:1;stroke:none" />
    </g>
    <g
       id="g3736"
       transform="matrix(0.89960874,0,0,0.89960874,27.781851,-13.302607)">
      <rect
         ry="20.186258"
         y="66.712906"
         x="70.207214"
         height="40.372517"
         width="40.372517"
         id="rect3388"
         style="fill:#c8191e;fill-opacity:1;stroke:none;stroke-width:1;stroke-miterlimit:4;stroke-dasharray:1, 8;stroke-dashoffset:0;stroke-opacity:1" />
      <rect
         ry="3.670229"
         style="fill:#32a041;fill-opacity:1;stroke:none;stroke-width:1;stroke-miterlimit:4;stroke-dasharray:1, 8;stroke-dashoffset:0;stroke-opacity:1"
         id="rect3396"
         width="36.702286"
         height="36.702286"
         x="116.08511"
         y="68.548019" />
      <rect
         ry="3.670229"
         y="68.548019"
         x="160.12787"
         height="36.702286"
         width="36.702286"
         id="rect3398"
         style="fill:#32a041;fill-opacity:1;stroke:none;stroke-width:1;stroke-miterlimit:4;stroke-dasharray:1, 8;stroke-dashoffset:0;stroke-opacity:1" />
      <rect
         ry="3.670229"
         style="fill:#32a041;fill-opacity:1;stroke:none;stroke-width:1;stroke-miterlimit:4;stroke-dasharray:1, 8;stroke-dashoffset:0;stroke-opacity:1"
         id="rect3400"
         width="36.702286"
         height="36.702286"
         x="72.042389"
         y="112.59076" />
      <rect
         ry="3.670229"
         y="112.59076"
         x="116.08511"
         height="36.702286"
         width="36.702286"
         id="rect3402"
         style="fill:#32a041;fill-opacity:1;stroke:none;stroke-width:1;stroke-miterlimit:4;stroke-dasharray:1, 8;stroke-dashoffset:0;stroke-opacity:1" />
      <rect
         ry="3.670229"
         y="156.63354"
         x="72.042389"
         height="36.702286"
         width="36.702286"
         id="rect3406"
         style="fill:#32a041;fill-opacity:1;stroke:none;stroke-width:1;stroke-miterlimit:4;stroke-dasharray:1, 8;stroke-dashoffset:0;stroke-opacity:1" />
      <rect
         ry="3.670229"
         style="fill:#32a041;fill-opacity:1;stroke:none;stroke-width:1;stroke-miterlimit:4;stroke-dasharray:1, 8;stroke-dashoffset:0;stroke-opacity:1"
         id="rect3408"
         width="36.702286"
         height="36.702286"
         x="116.08511"
         y="156.63354" />
      <rect
         ry="3.670229"
         y="156.63354"
         x="160.12787"
         height="36.702286"
         width="36.702286"
         id="rect3410"
         style="fill:#32a041;fill-opacity:1;stroke:none;stroke-width:1;stroke-miterlimit:4;stroke-dasharray:1, 8;stroke-dashoffset:0;stroke-opacity:1" />
      <rect
         ry="3.670229"
         style="fill:#32a041;fill-opacity:1;stroke:none;stroke-width:1;stroke-miterlimit:4;stroke-dasharray:1, 8;stroke-dashoffset:0;stroke-opacity:1"
         id="rect3412"
         width="36.702286"
         height="36.702286"
         x="72.042389"
         y="200.67628" />
      <rect
         ry="3.670229"
         y="200.67628"
         x="116.08511"
         height="36.702286"
         width="36.702286"
         id="rect3414"
         style="fill:#32a041;fill-opacity:1;stroke:none;stroke-width:1;stroke-miterlimit:4;stroke-dasharray:1, 8;stroke-dashoffset:0;stroke-opacity:1" />
      <text
         transform="scale(0.98568811,1.0145197)"
         sodipodi:linespacing="125%"
         id="text4218"
         y="146.6756"
         x="213.88263"
         style="font-style:normal;font-variant:normal;font-weight:bold;font-stretch:normal;font-size:49.22957611px;line-height:125%;font-family:'Open Sans';-inkscape-font-specification:'Open Sans, Bold';text-align:start;letter-spacing:0px;word-spacing:0px;writing-mode:lr-tb;text-anchor:start;fill:#000000;fill-opacity:1;stroke:none;stroke-width:1px;stroke-linecap:butt;stroke-linejoin:miter;stroke-opacity:1"
         xml:space="preserve"><tspan
           style="font-style:normal;font-variant:normal;font-weight:bold;font-stretch:normal;font-size:49.22957611px;line-height:125%;font-family:'Open Sans';-inkscape-font-specification:'Open Sans, Bold';text-align:start;writing-mode:lr-tb;text-anchor:start"
           y="146.6756"
           x="213.88263"
           id="tspan4220"
           sodipodi:role="line">INSTITUTO FEDERAL</tspan></text>
      <text
         xml:space="preserve"
         style="font-style:normal;font-variant:normal;font-weight:normal;font-stretch:normal;font-size:36.92204285px;line-height:125%;font-family:'Open Sans';-inkscape-font-specification:'Open Sans, Normal';text-align:start;letter-spacing:0px;word-spacing:0px;writing-mode:lr-tb;text-anchor:start;fill:#000000;fill-opacity:1;stroke:none;stroke-width:1px;stroke-linecap:butt;stroke-linejoin:miter;stroke-opacity:1"
         x="214.98837"
         y="190.20816"
         id="text3468"
         sodipodi:linespacing="125%"
         transform="scale(0.98568811,1.0145197)"><tspan
           sodipodi:role="line"
           id="tspan3470"
           x="214.98837"
           y="190.20816"
           style="font-style:normal;font-variant:normal;font-weight:normal;font-stretch:normal;font-size:36.92204285px;line-height:125%;font-family:'Open Sans';-inkscape-font-specification:'Open Sans, Normal';text-align:start;writing-mode:lr-tb;text-anchor:start">Rio Grande do Sul</tspan></text>
      <text
         transform="scale(0.98568811,1.0145197)"
         sodipodi:linespacing="125%"
         id="text3472"
         y="233.62054"
         x="214.98837"
         style="font-style:normal;font-variant:normal;font-weight:normal;font-stretch:normal;font-size:36.92204285px;line-height:125%;font-family:'Open Sans';-inkscape-font-specification:'Open Sans, Normal';text-align:start;letter-spacing:0px;word-spacing:0px;writing-mode:lr-tb;text-anchor:start;fill:#000000;fill-opacity:1;stroke:none;stroke-width:1px;stroke-linecap:butt;stroke-linejoin:miter;stroke-opacity:1"
         xml:space="preserve"><tspan
           style="font-style:normal;font-variant:normal;font-weight:normal;font-stretch:normal;font-size:36.92204285px;line-height:125%;font-family:'Open Sans';-inkscape-font-specification:'Open Sans, Normal';text-align:start;writing-mode:lr-tb;text-anchor:start"
           y="233.62054"
           x="214.98837"
           id="tspan3474"
           sodipodi:role="line">Campus Rio Grande</tspan></text>
    </g>
  </g>
</svg>
