<?xml version="1.0" encoding="UTF-8" standalone="no"?>
<!-- Created with Inkscape (http://www.inkscape.org/) -->

<svg
   xmlns:dc="http://purl.org/dc/elements/1.1/"
   xmlns:cc="http://creativecommons.org/ns#"
   xmlns:rdf="http://www.w3.org/1999/02/22-rdf-syntax-ns#"
   xmlns:svg="http://www.w3.org/2000/svg"
   xmlns="http://www.w3.org/2000/svg"
   xmlns:xlink="http://www.w3.org/1999/xlink"
   xmlns:sodipodi="http://sodipodi.sourceforge.net/DTD/sodipodi-0.dtd"
   xmlns:inkscape="http://www.inkscape.org/namespaces/inkscape"
   width="744.09448"
   height="350"
   id="svg2"
   version="1.1"
   inkscape:version="0.91 r13725"
   sodipodi:docname="adesivos.svg"
   inkscape:export-filename="/home/marcio/adesivos.png"
   inkscape:export-xdpi="600.04474"
   inkscape:export-ydpi="600.04474">
  <defs
     id="defs4">
    <inkscape:path-effect
       effect="gears"
       id="path-effect3167"
       is_visible="true"
       teeth="10"
       phi="5" />
    <inkscape:path-effect
       effect="construct_grid"
       id="path-effect3165"
       is_visible="true"
       nr_x="5"
       nr_y="5" />
    <clipPath
       clipPathUnits="userSpaceOnUse"
       id="clipPath4135">
      <rect
         style="fill:none;stroke:none"
         id="rect4137"
         width="2661.0193"
         height="1115.599"
         x="-1271.6869"
         y="2145.2009" />
    </clipPath>
    <path
       style="fill:#ffffff"
       inkscape:connector-curvature="0"
       d="m -744.1338,917.03908 c -10.6421,-29.9386 -12.60804,-62.62378 -5.34035,-93.49497 9.19663,-39.79193 33.46284,-76.27196 67.45339,-100.90018 22.77325,-16.85248 49.95614,-27.95923 78.23816,-32.87937 44.3423,-7.87217 91.59063,1.20555 129.55629,24.41537 33.04212,19.92546 59.22952,50.27895 72.77086,85.37256 9.28408,22.80352 13.07843,47.58333 11.65088,71.98473 -2.17364,36.06048 -16.52279,71.31919 -40.30579,99.371 -23.00619,27.51278 -55.07422,47.84598 -90.4065,57.71638 -35.55262,9.9147 -74.33774,9.2746 -109.37451,-2.3117 -53.05797,-16.8499 -96.85009,-58.39863 -114.24243,-109.27382 m 73.78648,59.49198 c -2.49384,6.91086 -5.2799,13.71769 -7.69487,20.64953 6.33828,-4.13591 12.66909,-8.29771 18.9467,-12.54298 5.95913,4.50164 12.01771,8.89351 18.13886,13.19925 -1.99245,-7.16285 -4.12014,-14.29004 -6.2885,-21.4065 6.40318,-4.26444 13.01169,-8.22089 19.22448,-12.74156 -7.80503,-0.5471 -15.6457,-0.20738 -23.45402,-0.61433 -1.99662,-6.92498 -3.88121,-13.86555 -6.22607,-20.6848 -2.72443,6.81844 -5.16647,13.75741 -7.60245,20.66693 -7.86627,-0.002 -15.74514,-0.0976 -23.60672,-0.18411 6.01649,4.75115 12.39996,9.05737 18.56259,13.65857 m -1.15176,-70.37895 c 9.0248,18.72143 24.17576,34.49101 42.45318,45.34174 21.24359,12.29729 46.87055,17.77062 71.52909,14.52986 28.67102,-3.2678 55.52645,-18.18795 73.08424,-40.04451 16.19302,-19.76979 24.39613,-45.27474 22.96938,-70.33044 -1.56335,-23.30662 -10.86141,-46.25965 -27.09639,-63.81869 -19.90314,-21.99605 -49.70692,-35.33777 -80.08801,-36.13176 -22.96248,-0.57677 -46.13906,5.78311 -65.07735,18.25425 -25.77417,16.59893 -43.42026,44.16123 -47.32358,73.61634 -2.80516,19.87595 0.71592,40.42416 9.54944,58.58321 m -12.53947,-120.63639 c 6.13511,4.45527 12.16097,9.03682 18.42495,13.33276 -2.31867,-7.13256 -4.23487,-14.38513 -6.37763,-21.56407 6.31919,-4.35372 12.76811,-8.56058 19.30241,-12.62282 -7.61733,-0.80549 -15.29927,-0.52152 -22.9466,-0.62274 -3.07677,-6.93273 -4.77176,-14.32717 -6.794,-21.59358 -2.67174,7.15273 -5.2436,14.34877 -7.94988,21.48275 -7.86575,-0.25254 -15.7512,-0.0682 -23.62539,-0.24884 6.20698,4.60344 12.4569,9.15379 18.78294,13.61443 -2.69597,6.86664 -5.14409,13.83508 -7.87086,20.69591 6.44701,-4.01137 12.66024,-8.37894 19.05406,-12.4738 m 220.55457,160.67977 c -2.75386,6.86796 -5.17723,13.87167 -7.89282,20.77133 6.42793,-4.22918 12.64678,-8.77929 19.39623,-12.55005 6.14163,4.57889 12.31641,9.12117 18.53041,13.59743 -2.13844,-7.41684 -4.25962,-14.82429 -6.42521,-22.23398 6.29722,-4.2783 12.72187,-8.36733 19.07229,-12.56215 -7.92505,-0.30657 -15.85197,-0.41764 -23.77614,-0.41802 -2.14319,-6.92812 -3.85691,-13.98337 -6.29793,-20.83298 -2.7305,6.84789 -5.19963,13.79401 -7.57634,20.75754 -7.90497,-0.1865 -15.81697,-0.24579 -23.72247,-0.18145 6.28541,4.47135 12.45551,9.09844 18.6919,13.65235 m -37.07263,-171.92734 c 6.46941,-3.93371 12.63456,-8.31647 18.97656,-12.43945 5.99645,4.63109 12.26043,8.92703 18.32924,13.45548 -2.13524,-7.15306 -4.04402,-14.37974 -6.83883,-21.34501 6.57593,-4.57459 13.59944,-8.55687 19.94297,-13.43233 -7.93212,0.22456 -15.87678,-0.0489 -23.81863,-0.21182 -1.83931,-7.03607 -4.05761,-13.97225 -6.2083,-20.92625 -2.65397,6.91127 -5.14269,13.89042 -7.60435,20.86243 -7.79347,0.0488 -15.58547,-0.25111 -23.38083,-0.007 5.95583,4.64179 12.19272,8.94488 18.23447,13.48045 -2.42617,6.89301 -5.14078,13.69493 -7.6323,20.56339 z"
       id="path3149-1" />
    <path
       style="fill:#ffffff"
       inkscape:connector-curvature="0"
       d="m -744.1338,917.03908 c -10.6421,-29.9386 -12.60804,-62.62378 -5.34035,-93.49497 9.19663,-39.79193 33.46284,-76.27196 67.45339,-100.90018 22.77325,-16.85248 49.95614,-27.95923 78.23816,-32.87937 44.3423,-7.87217 91.59063,1.20555 129.55629,24.41537 33.04212,19.92546 59.22952,50.27895 72.77086,85.37256 9.28408,22.80352 13.07843,47.58333 11.65088,71.98473 -2.17364,36.06048 -16.52279,71.31919 -40.30579,99.371 -23.00619,27.51278 -55.07422,47.84598 -90.4065,57.71638 -35.55262,9.9147 -74.33774,9.2746 -109.37451,-2.3117 -53.05797,-16.8499 -96.85009,-58.39863 -114.24243,-109.27382 m 73.78648,59.49198 c -2.49384,6.91086 -5.2799,13.71769 -7.69487,20.64953 6.33828,-4.13591 12.66909,-8.29771 18.9467,-12.54298 5.95913,4.50164 12.01771,8.89351 18.13886,13.19925 -1.99245,-7.16285 -4.12014,-14.29004 -6.2885,-21.4065 6.40318,-4.26444 13.01169,-8.22089 19.22448,-12.74156 -7.80503,-0.5471 -15.6457,-0.20738 -23.45402,-0.61433 -1.99662,-6.92498 -3.88121,-13.86555 -6.22607,-20.6848 -2.72443,6.81844 -5.16647,13.75741 -7.60245,20.66693 -7.86627,-0.002 -15.74514,-0.0976 -23.60672,-0.18411 6.01649,4.75115 12.39996,9.05737 18.56259,13.65857 m -1.15176,-70.37895 c 9.0248,18.72143 24.17576,34.49101 42.45318,45.34174 21.24359,12.29729 46.87055,17.77062 71.52909,14.52986 28.67102,-3.2678 55.52645,-18.18795 73.08424,-40.04451 16.19302,-19.76979 24.39613,-45.27474 22.96938,-70.33044 -1.56335,-23.30662 -10.86141,-46.25965 -27.09639,-63.81869 -19.90314,-21.99605 -49.70692,-35.33777 -80.08801,-36.13176 -22.96248,-0.57677 -46.13906,5.78311 -65.07735,18.25425 -25.77417,16.59893 -43.42026,44.16123 -47.32358,73.61634 -2.80516,19.87595 0.71592,40.42416 9.54944,58.58321 m -12.53947,-120.63639 c 6.13511,4.45527 12.16097,9.03682 18.42495,13.33276 -2.31867,-7.13256 -4.23487,-14.38513 -6.37763,-21.56407 6.31919,-4.35372 12.76811,-8.56058 19.30241,-12.62282 -7.61733,-0.80549 -15.29927,-0.52152 -22.9466,-0.62274 -3.07677,-6.93273 -4.77176,-14.32717 -6.794,-21.59358 -2.67174,7.15273 -5.2436,14.34877 -7.94988,21.48275 -7.86575,-0.25254 -15.7512,-0.0682 -23.62539,-0.24884 6.20698,4.60344 12.4569,9.15379 18.78294,13.61443 -2.69597,6.86664 -5.14409,13.83508 -7.87086,20.69591 6.44701,-4.01137 12.66024,-8.37894 19.05406,-12.4738 m 220.55457,160.67977 c -2.75386,6.86796 -5.17723,13.87167 -7.89282,20.77133 6.42793,-4.22918 12.64678,-8.77929 19.39623,-12.55005 6.14163,4.57889 12.31641,9.12117 18.53041,13.59743 -2.13844,-7.41684 -4.25962,-14.82429 -6.42521,-22.23398 6.29722,-4.2783 12.72187,-8.36733 19.07229,-12.56215 -7.92505,-0.30657 -15.85197,-0.41764 -23.77614,-0.41802 -2.14319,-6.92812 -3.85691,-13.98337 -6.29793,-20.83298 -2.7305,6.84789 -5.19963,13.79401 -7.57634,20.75754 -7.90497,-0.1865 -15.81697,-0.24579 -23.72247,-0.18145 6.28541,4.47135 12.45551,9.09844 18.6919,13.65235 m -37.07263,-171.92734 c 6.46941,-3.93371 12.63456,-8.31647 18.97656,-12.43945 5.99645,4.63109 12.26043,8.92703 18.32924,13.45548 -2.13524,-7.15306 -4.04402,-14.37974 -6.83883,-21.34501 6.57593,-4.57459 13.59944,-8.55687 19.94297,-13.43233 -7.93212,0.22456 -15.87678,-0.0489 -23.81863,-0.21182 -1.83931,-7.03607 -4.05761,-13.97225 -6.2083,-20.92625 -2.65397,6.91127 -5.14269,13.89042 -7.60435,20.86243 -7.79347,0.0488 -15.58547,-0.25111 -23.38083,-0.007 5.95583,4.64179 12.19272,8.94488 18.23447,13.48045 -2.42617,6.89301 -5.14078,13.69493 -7.6323,20.56339 z"
       id="path3149-7" />
    <path
       style="fill:#ffffff"
       inkscape:connector-curvature="0"
       d="m -744.1338,917.03908 c -10.6421,-29.9386 -12.60804,-62.62378 -5.34035,-93.49497 9.19663,-39.79193 33.46284,-76.27196 67.45339,-100.90018 22.77325,-16.85248 49.95614,-27.95923 78.23816,-32.87937 44.3423,-7.87217 91.59063,1.20555 129.55629,24.41537 33.04212,19.92546 59.22952,50.27895 72.77086,85.37256 9.28408,22.80352 13.07843,47.58333 11.65088,71.98473 -2.17364,36.06048 -16.52279,71.31919 -40.30579,99.371 -23.00619,27.51278 -55.07422,47.84598 -90.4065,57.71638 -35.55262,9.9147 -74.33774,9.2746 -109.37451,-2.3117 -53.05797,-16.8499 -96.85009,-58.39863 -114.24243,-109.27382 m 73.78648,59.49198 c -2.49384,6.91086 -5.2799,13.71769 -7.69487,20.64953 6.33828,-4.13591 12.66909,-8.29771 18.9467,-12.54298 5.95913,4.50164 12.01771,8.89351 18.13886,13.19925 -1.99245,-7.16285 -4.12014,-14.29004 -6.2885,-21.4065 6.40318,-4.26444 13.01169,-8.22089 19.22448,-12.74156 -7.80503,-0.5471 -15.6457,-0.20738 -23.45402,-0.61433 -1.99662,-6.92498 -3.88121,-13.86555 -6.22607,-20.6848 -2.72443,6.81844 -5.16647,13.75741 -7.60245,20.66693 -7.86627,-0.002 -15.74514,-0.0976 -23.60672,-0.18411 6.01649,4.75115 12.39996,9.05737 18.56259,13.65857 m -1.15176,-70.37895 c 9.0248,18.72143 24.17576,34.49101 42.45318,45.34174 21.24359,12.29729 46.87055,17.77062 71.52909,14.52986 28.67102,-3.2678 55.52645,-18.18795 73.08424,-40.04451 16.19302,-19.76979 24.39613,-45.27474 22.96938,-70.33044 -1.56335,-23.30662 -10.86141,-46.25965 -27.09639,-63.81869 -19.90314,-21.99605 -49.70692,-35.33777 -80.08801,-36.13176 -22.96248,-0.57677 -46.13906,5.78311 -65.07735,18.25425 -25.77417,16.59893 -43.42026,44.16123 -47.32358,73.61634 -2.80516,19.87595 0.71592,40.42416 9.54944,58.58321 m -12.53947,-120.63639 c 6.13511,4.45527 12.16097,9.03682 18.42495,13.33276 -2.31867,-7.13256 -4.23487,-14.38513 -6.37763,-21.56407 6.31919,-4.35372 12.76811,-8.56058 19.30241,-12.62282 -7.61733,-0.80549 -15.29927,-0.52152 -22.9466,-0.62274 -3.07677,-6.93273 -4.77176,-14.32717 -6.794,-21.59358 -2.67174,7.15273 -5.2436,14.34877 -7.94988,21.48275 -7.86575,-0.25254 -15.7512,-0.0682 -23.62539,-0.24884 6.20698,4.60344 12.4569,9.15379 18.78294,13.61443 -2.69597,6.86664 -5.14409,13.83508 -7.87086,20.69591 6.44701,-4.01137 12.66024,-8.37894 19.05406,-12.4738 m 220.55457,160.67977 c -2.75386,6.86796 -5.17723,13.87167 -7.89282,20.77133 6.42793,-4.22918 12.64678,-8.77929 19.39623,-12.55005 6.14163,4.57889 12.31641,9.12117 18.53041,13.59743 -2.13844,-7.41684 -4.25962,-14.82429 -6.42521,-22.23398 6.29722,-4.2783 12.72187,-8.36733 19.07229,-12.56215 -7.92505,-0.30657 -15.85197,-0.41764 -23.77614,-0.41802 -2.14319,-6.92812 -3.85691,-13.98337 -6.29793,-20.83298 -2.7305,6.84789 -5.19963,13.79401 -7.57634,20.75754 -7.90497,-0.1865 -15.81697,-0.24579 -23.72247,-0.18145 6.28541,4.47135 12.45551,9.09844 18.6919,13.65235 m -37.07263,-171.92734 c 6.46941,-3.93371 12.63456,-8.31647 18.97656,-12.43945 5.99645,4.63109 12.26043,8.92703 18.32924,13.45548 -2.13524,-7.15306 -4.04402,-14.37974 -6.83883,-21.34501 6.57593,-4.57459 13.59944,-8.55687 19.94297,-13.43233 -7.93212,0.22456 -15.87678,-0.0489 -23.81863,-0.21182 -1.83931,-7.03607 -4.05761,-13.97225 -6.2083,-20.92625 -2.65397,6.91127 -5.14269,13.89042 -7.60435,20.86243 -7.79347,0.0488 -15.58547,-0.25111 -23.38083,-0.007 5.95583,4.64179 12.19272,8.94488 18.23447,13.48045 -2.42617,6.89301 -5.14078,13.69493 -7.6323,20.56339 z"
       id="path3149-8" />
    <path
       style="fill:#ffffff"
       inkscape:connector-curvature="0"
       d="m -744.1338,917.03908 c -10.6421,-29.9386 -12.60804,-62.62378 -5.34035,-93.49497 9.19663,-39.79193 33.46284,-76.27196 67.45339,-100.90018 22.77325,-16.85248 49.95614,-27.95923 78.23816,-32.87937 44.3423,-7.87217 91.59063,1.20555 129.55629,24.41537 33.04212,19.92546 59.22952,50.27895 72.77086,85.37256 9.28408,22.80352 13.07843,47.58333 11.65088,71.98473 -2.17364,36.06048 -16.52279,71.31919 -40.30579,99.371 -23.00619,27.51278 -55.07422,47.84598 -90.4065,57.71638 -35.55262,9.9147 -74.33774,9.2746 -109.37451,-2.3117 -53.05797,-16.8499 -96.85009,-58.39863 -114.24243,-109.27382 m 73.78648,59.49198 c -2.49384,6.91086 -5.2799,13.71769 -7.69487,20.64953 6.33828,-4.13591 12.66909,-8.29771 18.9467,-12.54298 5.95913,4.50164 12.01771,8.89351 18.13886,13.19925 -1.99245,-7.16285 -4.12014,-14.29004 -6.2885,-21.4065 6.40318,-4.26444 13.01169,-8.22089 19.22448,-12.74156 -7.80503,-0.5471 -15.6457,-0.20738 -23.45402,-0.61433 -1.99662,-6.92498 -3.88121,-13.86555 -6.22607,-20.6848 -2.72443,6.81844 -5.16647,13.75741 -7.60245,20.66693 -7.86627,-0.002 -15.74514,-0.0976 -23.60672,-0.18411 6.01649,4.75115 12.39996,9.05737 18.56259,13.65857 m -1.15176,-70.37895 c 9.0248,18.72143 24.17576,34.49101 42.45318,45.34174 21.24359,12.29729 46.87055,17.77062 71.52909,14.52986 28.67102,-3.2678 55.52645,-18.18795 73.08424,-40.04451 16.19302,-19.76979 24.39613,-45.27474 22.96938,-70.33044 -1.56335,-23.30662 -10.86141,-46.25965 -27.09639,-63.81869 -19.90314,-21.99605 -49.70692,-35.33777 -80.08801,-36.13176 -22.96248,-0.57677 -46.13906,5.78311 -65.07735,18.25425 -25.77417,16.59893 -43.42026,44.16123 -47.32358,73.61634 -2.80516,19.87595 0.71592,40.42416 9.54944,58.58321 m -12.53947,-120.63639 c 6.13511,4.45527 12.16097,9.03682 18.42495,13.33276 -2.31867,-7.13256 -4.23487,-14.38513 -6.37763,-21.56407 6.31919,-4.35372 12.76811,-8.56058 19.30241,-12.62282 -7.61733,-0.80549 -15.29927,-0.52152 -22.9466,-0.62274 -3.07677,-6.93273 -4.77176,-14.32717 -6.794,-21.59358 -2.67174,7.15273 -5.2436,14.34877 -7.94988,21.48275 -7.86575,-0.25254 -15.7512,-0.0682 -23.62539,-0.24884 6.20698,4.60344 12.4569,9.15379 18.78294,13.61443 -2.69597,6.86664 -5.14409,13.83508 -7.87086,20.69591 6.44701,-4.01137 12.66024,-8.37894 19.05406,-12.4738 m 220.55457,160.67977 c -2.75386,6.86796 -5.17723,13.87167 -7.89282,20.77133 6.42793,-4.22918 12.64678,-8.77929 19.39623,-12.55005 6.14163,4.57889 12.31641,9.12117 18.53041,13.59743 -2.13844,-7.41684 -4.25962,-14.82429 -6.42521,-22.23398 6.29722,-4.2783 12.72187,-8.36733 19.07229,-12.56215 -7.92505,-0.30657 -15.85197,-0.41764 -23.77614,-0.41802 -2.14319,-6.92812 -3.85691,-13.98337 -6.29793,-20.83298 -2.7305,6.84789 -5.19963,13.79401 -7.57634,20.75754 -7.90497,-0.1865 -15.81697,-0.24579 -23.72247,-0.18145 6.28541,4.47135 12.45551,9.09844 18.6919,13.65235 m -37.07263,-171.92734 c 6.46941,-3.93371 12.63456,-8.31647 18.97656,-12.43945 5.99645,4.63109 12.26043,8.92703 18.32924,13.45548 -2.13524,-7.15306 -4.04402,-14.37974 -6.83883,-21.34501 6.57593,-4.57459 13.59944,-8.55687 19.94297,-13.43233 -7.93212,0.22456 -15.87678,-0.0489 -23.81863,-0.21182 -1.83931,-7.03607 -4.05761,-13.97225 -6.2083,-20.92625 -2.65397,6.91127 -5.14269,13.89042 -7.60435,20.86243 -7.79347,0.0488 -15.58547,-0.25111 -23.38083,-0.007 5.95583,4.64179 12.19272,8.94488 18.23447,13.48045 -2.42617,6.89301 -5.14078,13.69493 -7.6323,20.56339 z"
       id="path3149-0" />
    <clipPath
       clipPathUnits="userSpaceOnUse"
       id="clipPath4525">
      <path
         style="fill:none;stroke:#000000;stroke-width:1px;stroke-linecap:butt;stroke-linejoin:miter;stroke-opacity:1"
         d="m -1329.78,-1995.1738 c -3.9489,-1.9744 -7.6582,-4.5272 -11.8466,-5.9233 -1.8731,-0.6244 -3.9872,0.3872 -5.9233,0 -3.0613,-0.6122 -5.8056,-2.4484 -8.885,-2.9616 -6.8165,-1.1361 -13.8904,0.9772 -20.7315,0 -3.0905,-0.4415 -5.9233,-1.9745 -8.885,-2.9617 -2.9616,-0.9872 -5.9232,-1.9744 -8.8849,-2.9616 -2.9616,-0.9873 -5.8056,-2.4485 -8.8849,-2.9617 -4.869,-0.8115 -9.9681,0.9681 -14.8083,0 -6.0995,-1.2199 -9.5431,-3.2907 -14.8082,-5.9233 -1.9745,-0.9872 -3.8291,-2.2636 -5.9233,-2.9616 -0.9366,-0.3122 -2.0251,0.3121 -2.9617,0 -2.0942,-0.6981 -3.7817,-2.4263 -5.9233,-2.9617 -1.9154,-0.4789 -4.0078,0.4789 -5.9233,0 -3.4452,-0.8613 -13.2157,-7.6906 -14.8082,-8.8849 -1.1169,-0.8377 -1.7129,-2.3373 -2.9616,-2.9617 -1.766,-0.883 -4.1574,0.883 -5.9233,0 -1.2488,-0.6243 -1.713,-2.3373 -2.9617,-2.9616 -0.883,-0.4415 -1.9744,0 -2.9616,0 -1.9745,0 -4.0502,0.6243 -5.9233,0 -2.649,-0.883 -3.4259,-4.6746 -5.9233,-5.9233 -0.883,-0.4415 -2.0787,0.4415 -2.9617,0 -1.0592,-0.5296 -11.0255,-10.615 -11.8466,-11.8466 -1.5624,-2.3436 -8.0134,-15.1552 -8.8849,-17.7699 -0.3122,-0.9366 0.3122,-2.0251 0,-2.9617 -0.6981,-2.0942 -2.2636,-3.829 -2.9617,-5.9232 -0.3122,-0.9366 0,-1.9745 0,-2.9617 0,-1.9744 0.6244,-4.0502 0,-5.9233 -0.4415,-1.3245 -2.3372,-1.7129 -2.9616,-2.9616 -0.9307,-1.8615 0.9307,-9.9852 0,-11.8466 -0.6244,-1.2488 -2.3373,-1.7129 -2.9617,-2.9617 -0.9462,-1.8925 0.7946,-9.4627 0,-11.8466 -0.698,-2.0942 -2.2635,-3.8291 -2.9616,-5.9233 -0.8535,-2.5605 0.9423,-12.9237 0,-14.8082 -6.7772,-13.5543 1.2275,12.5675 -5.9233,-8.885 -0.3122,-0.9365 0.4415,-2.0786 0,-2.9616 -6.7772,-13.5543 1.2275,12.5675 -5.9233,-8.8849 -0.679,-2.0372 0.8737,-7.1376 0,-8.885 -0.6244,-1.2487 -2.3373,-1.7129 -2.9617,-2.9616 -0.4415,-0.883 0,-1.9745 0,-2.9617 -0.9872,-0.9872 -2.3372,-1.7129 -2.9616,-2.9616 -0.4415,-0.883 0,-1.9745 0,-2.9617 0,-0.9872 0,-1.9744 0,-2.9616 0,-4.9361 0,-9.8722 0,-14.8083 0,-0.9872 0.3122,-2.0251 0,-2.9616 -0.6981,-2.0942 -2.4263,-3.7817 -2.9617,-5.9233 -0.9577,-3.831 0.9578,-8.0157 0,-11.8466 -0.5353,-2.1416 -2.2635,-3.8291 -2.9616,-5.9233 -0.6384,-1.9153 0,-11.5744 0,-14.8083 0,-10.8593 0,-21.7187 0,-32.5781 0,-10.8594 0,-21.7187 0,-32.5781 0,-3.0799 -0.5824,-15.4402 0,-17.7699 1.0708,-4.2831 4.8525,-7.5634 5.9233,-11.8466 0.4789,-1.9155 -0.4789,-4.0078 0,-5.9233 1.0708,-4.2831 4.5272,-7.6582 5.9233,-11.8466 0.3122,-0.9365 -0.4415,-2.0786 0,-2.9616 0.6244,-1.2488 1.9744,-1.9745 2.9616,-2.9617 1.9745,-2.9616 4.3315,-5.7012 5.9233,-8.8849 0.4415,-0.883 0,-1.9745 0,-2.9617 0,-2.9616 -1.0999,-6.1351 0,-8.8849 1.0371,-2.5926 4.179,-3.7429 5.9233,-5.9233 2.2236,-2.7795 3.9489,-5.9233 5.9233,-8.885 1.9745,-2.9616 4.092,-5.8327 5.9233,-8.8849 4.2285,-7.0475 6.5766,-14.144 11.8466,-20.7315 9.0679,-11.3349 2.1738,-1.6304 11.8466,-8.885 4.4676,-3.3507 7.4858,-8.3579 11.8466,-11.8466 8.3071,-6.6456 18.3478,-11.1242 26.6548,-17.7699 2.1804,-1.7443 3.7429,-4.1789 5.9233,-5.9233 2.7795,-2.2235 5.9885,-3.8544 8.885,-5.9233 33.1538,-23.6813 -2.4333,2.0278 17.7699,-14.8082 3.792,-3.16 8.0546,-5.7249 11.8466,-8.8849 4.2901,-3.5752 7.4858,-8.358 11.8466,-11.8466 2.7794,-2.2236 6.1054,-3.6998 8.8849,-5.9233 2.1804,-1.7443 3.6,-4.3745 5.9233,-5.9233 3.6735,-2.449 7.8977,-3.9489 11.8466,-5.9233 1.9744,-0.9872 3.8737,-2.1418 5.9233,-2.9617 7.8846,-3.1538 11.718,-2.833 17.7699,-8.8849 1.9744,-1.9744 3.9488,-3.9489 5.9233,-5.9233 0.9872,-0.9872 2.5201,-1.6372 2.9616,-2.9617 2.0793,-6.2378 -4.8653,-17.5577 -5.9233,-20.7315 -0.3122,-0.9366 -0.698,-2.2636 0,-2.9616 0.6981,-0.6981 2.1403,0.5476 2.9617,0 2.3233,-1.5489 3.9488,-3.9489 5.9233,-5.9233 1.9744,-1.9745 4.2479,-3.6895 5.9233,-5.9233 1.3245,-1.766 1.7371,-4.0866 2.9616,-5.9233 1.5489,-2.3233 4.6746,-3.4259 5.9233,-5.9233 0.4415,-0.883 0,-1.9745 0,-2.9617 0.9872,-1.9744 1.7372,-4.0865 2.9617,-5.9233 1.5488,-2.3233 4.3744,-3.6 5.9233,-5.9233 1.2244,-1.8367 1.7371,-4.0865 2.9616,-5.9233 0.7744,-1.1616 1.9744,-1.9744 2.9616,-2.9616 0.9873,-0.9872 1.713,-2.3373 2.9617,-2.9617 2.7923,-1.3961 6.0927,-1.5655 8.8849,-2.9616 1.2488,-0.6244 1.8,-2.1872 2.9617,-2.9617 1.8367,-1.2245 4.1573,-1.6371 5.9233,-2.9616 2.2338,-1.6754 3.9489,-3.9489 5.9233,-5.9233 2.9616,-2.9617 5.9233,-5.9233 8.8849,-8.885 0.9872,-0.9872 1.8,-2.1872 2.9617,-2.9616 3.6734,-2.449 8.1731,-3.4743 11.8466,-5.9233 4.358,-2.9053 7.4886,-8.9413 11.8466,-11.8466 3.6734,-2.449 8.3146,-3.2743 11.8466,-5.9233 2.2338,-1.6753 3.6894,-4.2479 5.9233,-5.9233 1.7659,-1.3245 4.0303,-1.8259 5.9232,-2.9616 3.0523,-1.8314 5.8328,-4.092 8.885,-5.9233 1.8929,-1.1358 3.9489,-1.9745 5.9233,-2.9617 2.9616,-1.9744 5.8327,-4.0919 8.8849,-5.9233 11.4843,-6.8905 0.2534,2.0313 14.8083,-8.8849 3.3507,-2.5131 5.9233,-5.9233 8.8849,-8.885 2.8284,-2.8284 11.9798,-11.9798 14.8083,-14.8082 1.9744,-1.9744 3.6894,-4.2479 5.9233,-5.9233 1.7659,-1.3245 4.1573,-1.6372 5.9233,-2.9616 3.3507,-2.5131 5.9232,-5.9233 8.8849,-8.885 6.9105,-6.9105 13.821,-13.821 20.7315,-20.7315 5.9233,-5.9233 11.8466,-11.8466 17.7699,-17.7699 1.9745,-1.9744 3.6,-4.3744 5.9233,-5.9233 1.9745,-0.9872 3.9489,-1.9744 5.9233,-2.9617 0.9872,0 2.0787,0.4415 2.9617,0 2.4974,-1.2487 3.4258,-4.6745 5.9233,-5.9233 0.883,-0.4415 2.0786,0.4415 2.9616,0 1.2487,-0.6243 1.8,-2.1872 2.9617,-2.9616 1.8367,-1.2245 3.9488,-1.9744 5.9233,-2.9617 1.9744,-0.9872 3.8737,-2.1418 5.9232,-2.9616 2.8986,-1.1594 6.3875,-1.0885 8.885,-2.9617 1.766,-1.3244 1.1249,-4.6988 2.9616,-5.9232 1.6429,-1.0953 4.0079,0.4788 5.9233,0 4.2832,-1.0708 7.5635,-4.8526 11.8466,-5.9233 1.9155,-0.4789 4.0078,0.4788 5.9233,0 2.1416,-0.5354 3.8291,-2.2636 5.9233,-2.9617 3.8615,-1.2872 7.9328,-1.8434 11.8466,-2.9616 29.74176,-8.4977 -16.3028,3.3353 20.73155,-5.9233 14.87524,-3.7188 7.98508,-1.6745 20.73154,-5.9233 2.96165,-0.9872 6.09268,-1.5655 8.88495,-2.9617 3.18367,-1.5918 5.70126,-4.3314 8.88494,-5.9233 2.79227,-1.3961 5.98638,-1.8022 8.88494,-2.9616 6.05334,-2.4214 11.93628,-5.9682 17.76989,-8.885 1.97444,-0.9872 4.08656,-1.7371 5.9233,-2.9616 1.16165,-0.7745 1.63716,-2.5202 2.96165,-2.9617 1.87311,-0.6243 4.05018,0.6244 5.92329,0 1.32449,-0.4415 1.8,-2.1872 2.96165,-2.9616 1.83674,-1.2245 3.94887,-1.9744 5.9233,-2.9617 1.97443,-0.9872 3.82909,-2.2635 5.9233,-2.9616 0.93655,-0.3122 2.02509,0.3122 2.96164,0 2.09421,-0.6981 3.8291,-2.2636 5.9233,-2.9617 0.93656,-0.3121 2.02509,0.3122 2.96165,0 4.1884,-1.3961 7.65819,-4.5271 11.84659,-5.9233 0.93656,-0.3121 2.02509,0.3122 2.96165,0 2.0942,-0.698 3.8737,-2.1418 5.9233,-2.9616 2.89856,-1.1594 5.98637,-1.8022 8.88494,-2.9617 4.09919,-1.6396 7.65819,-4.5271 11.84659,-5.9232 3.86152,-1.2872 7.85524,-2.1634 11.8466,-2.9617 0.96804,-0.1936 2.02509,0.3122 2.96164,0 2.09421,-0.6981 3.78173,-2.4263 5.9233,-2.9616 2.87322,-0.7184 6.07528,0.9365 8.88494,0 2.09421,-0.6981 3.8291,-2.2636 5.9233,-2.9617 0.93656,-0.3122 1.97443,0 2.96165,0 1.97443,0 3.94886,0 5.9233,0 8.88494,0 17.76988,0 26.65483,0 9.87216,0 19.74432,0 29.61648,0 3.94887,0 7.91733,-0.3929 11.84659,0 18.19535,1.8195 35.55221,7.9005 53.30967,11.8466 33.83927,7.5198 -2.23649,-1.2995 26.65483,5.9233 3.94887,0.9872 8.10531,1.3582 11.8466,2.9616 3.27166,1.4022 5.50814,4.7977 8.88494,5.9233 1.65686,0.5523 17.43629,0 20.73154,0 1.97443,0 4.05019,-0.6243 5.9233,0 2.0942,0.6981 3.82909,2.2636 5.92329,2.9617 2.5605,0.8535 12.92368,-0.9423 14.80824,0 1.24874,0.6244 1.71291,2.3373 2.96165,2.9616 0.88299,0.4415 2.02509,-0.3121 2.96165,0 2.0942,0.6981 3.82909,2.2636 5.9233,2.9617 1.87311,0.6244 4.05018,-0.6244 5.92329,0 2.0942,0.6981 3.8291,2.2636 5.9233,2.9616 0.93655,0.3122 2.07865,-0.4415 2.96165,0 1.24874,0.6244 1.7129,2.3373 2.96165,2.9617 0.88299,0.4415 2.14023,-0.5476 2.96164,0 4.00828,1.6849 5.39999,6.5616 8.88495,8.8849 3.67347,2.449 8.31462,3.2743 11.84659,5.9233 3.35072,2.5131 5.9233,5.9233 8.88495,8.885 4.93608,4.936 9.87216,9.8721 14.80824,14.8082 2.96164,2.9617 6.3719,5.5342 8.88494,8.885 2.13568,2.8475 3.69972,6.1054 5.9233,8.8849 1.74431,2.1804 4.13573,3.7782 5.92329,5.9233 3.16001,3.792 5.72495,8.0546 8.88495,11.8466 3.57513,4.2901 7.89773,7.8977 11.84659,11.8466 0.98722,0.9872 2.12397,1.8447 2.96165,2.9616 2.13567,2.8476 3.78762,6.0374 5.9233,8.885 1.67536,2.2338 4.24793,3.6895 5.92329,5.9233 2.13568,2.8475 3.78762,6.0373 5.9233,8.8849 0.83768,1.1169 2.33728,1.7129 2.96165,2.9617 1.39613,2.7922 1.56551,6.0926 2.96164,8.8849 0.62437,1.2487 2.12397,1.8447 2.96165,2.9617 1.97443,2.9616 3.94887,5.9233 5.9233,8.8849 1.97443,1.9744 4.24793,3.6895 5.9233,5.9233 5.99345,7.9913 -0.0496,4.8534 5.92329,14.8082 2.96165,4.9361 5.9233,4.9361 8.88495,8.885 22.02682,29.3691 -4.89613,-5.8634 8.88494,14.8082 1.54887,2.3233 4.67456,3.4258 5.9233,5.9233 0.44149,0.883 -0.4415,2.0787 0,2.9617 1.24874,2.4974 4.37442,3.6 5.92329,5.9233 1.22449,1.8367 1.73716,4.0865 2.96165,5.9233 0.77444,1.1616 2.18721,1.8 2.96165,2.9616 1.22449,1.8367 1.97443,3.9489 2.96165,5.9233 0.98721,1.9744 2.26358,3.8291 2.96165,5.9233 0.62437,1.8731 -0.883,4.1573 0,5.9233 6.77715,13.5543 -1.22752,-12.5675 5.92329,8.8849 0.31219,0.9366 -0.23943,2.0039 0,2.9617 0.75716,3.0286 2.34941,5.8237 2.96165,8.8849 0.38722,1.9361 -0.62437,4.0502 0,5.9233 0.4415,1.3245 2.18721,1.8 2.96165,2.9617 1.22449,1.8367 1.97443,3.9488 2.96165,5.9233 0.98721,1.9744 2.26358,3.8291 2.96165,5.9233 0.31218,0.9365 -0.31219,2.0251 0,2.9616 0.69806,2.0942 2.26358,3.8291 2.96164,5.9233 0.31219,0.9366 0,1.9744 0,2.9617 0.98722,2.9616 1.80223,5.9863 2.96165,8.8849 1.63968,4.0992 3.94887,7.8977 5.9233,11.8466 1.97443,3.9489 3.47431,8.1731 5.92329,11.8466 0.77444,1.1616 2.33728,1.7129 2.96165,2.9616 0.4415,0.883 -0.54761,2.1403 0,2.9617 1.54887,2.3233 4.24794,3.6895 5.9233,5.9233 1.32449,1.766 1.73716,4.0865 2.96165,5.9233 1.54887,2.3233 3.94886,3.9488 5.92329,5.9233 3.94887,3.9488 7.89773,7.8977 11.8466,11.8466 3.94886,3.9488 7.89773,7.8977 11.84659,11.8466 1.97443,1.9744 3.68948,4.2479 5.9233,5.9233 2.84756,2.1356 6.03737,3.7876 8.88494,5.9233 3.28289,2.4621 5.47417,6.611 8.88494,8.8849 1.83674,1.2245 4.08657,1.7372 5.9233,2.9616 1.16166,0.7745 1.8,2.1873 2.96165,2.9617 1.83674,1.2245 4.08656,1.7372 5.9233,2.9616 4.91459,3.2764 8.68603,10.5942 11.84659,14.8083 0.83768,1.1169 1.97443,1.9744 2.96165,2.9616 2.96164,3.9489 6.1469,7.7396 8.88494,11.8466 1.22449,1.8368 1.82591,4.0304 2.96165,5.9233 1.83133,3.0522 4.09197,5.8328 5.9233,8.885 1.13574,1.8929 1.40072,4.3623 2.96164,5.9233 2.51692,2.5169 6.03738,3.7876 8.88495,5.9233 4.11387,3.0854 2.98349,3.9852 5.9233,8.8849 10.72168,17.8695 2.11502,1.2684 8.88494,14.8082 0.98722,1.9745 2.42625,3.7818 2.96165,5.9233 0.47887,1.9155 0,3.9489 0,5.9233 0.98721,1.9745 2.26358,3.8291 2.96165,5.9233 0.31218,0.9366 -0.4415,2.0787 0,2.9617 0.62437,1.2487 2.52015,1.6371 2.96164,2.9616 1.24874,3.7463 -0.95774,8.0157 0,11.8466 1.07079,4.2832 4.28362,7.7474 5.9233,11.8466 8.58947,21.4737 -0.20281,-1.014 2.96165,14.8083 1.22449,6.1224 4.6988,11.6474 5.9233,17.7698 0.38721,1.9361 0,3.9489 0,5.9233 0,3.9489 0,7.8978 0,11.8466 0,1.9745 -0.62438,4.0502 0,5.9233 0.44149,1.3245 2.52015,1.6372 2.96164,2.9617 0.50859,1.5257 0,17.5986 0,20.7315 0,13.821 0,27.6421 0,41.4631 0,11.8466 0,23.6932 0,35.5398 0,2.8694 0.58865,16.0039 0,17.7699 -0.69806,2.0942 -2.26358,3.8291 -2.96164,5.9233 -2.93878,8.8163 7.01279,-6.0768 -2.96165,8.8849 -0.77444,1.1617 -2.33728,1.7129 -2.96165,2.9617 -0.4415,0.8829 0.4415,2.0786 0,2.9616 -0.62437,1.2487 -2.33728,1.7129 -2.96165,2.9616 -0.4415,0.883 0,1.9745 0,2.9617 -0.98722,1.9744 -1.73716,4.0866 -2.96165,5.9233 -1.54887,2.3233 -4.67455,3.4258 -5.92329,5.9233 -0.4415,0.883 0.44149,2.0786 0,2.9616 -1.24874,2.4975 -4.67456,3.4259 -5.9233,5.9233 -0.4415,0.883 0.4415,2.0787 0,2.9617 -0.62437,1.2487 -1.97443,1.9744 -2.96165,2.9616 -0.98721,0.9872 -1.97443,1.9745 -2.96165,2.9617 -2.96164,2.9616 -5.92329,5.9233 -8.88494,8.8849 -1.97443,1.9745 -4.37443,3.6 -5.9233,5.9233 -1.22449,1.8368 -1.73716,4.0866 -2.96165,5.9233 -0.77443,1.1617 -2.18721,1.8 -2.96164,2.9617 -1.22449,1.8367 -1.73716,4.0865 -2.96165,5.9233 -0.77444,1.1616 -2.33728,1.7129 -2.96165,2.9616 -0.4415,0.883 0,1.9744 0,2.9617 -0.98722,1.9744 -1.73716,4.0865 -2.96165,5.9233 -0.77443,1.1616 -2.18721,1.7999 -2.96165,2.9616 -1.22449,1.8367 -1.73715,4.0866 -2.96165,5.9233 -0.77443,1.1616 -1.97443,1.9744 -2.96164,2.9616 -0.98722,1.9745 -1.73716,4.0866 -2.96165,5.9233 -0.77444,1.1617 -2.18721,1.8 -2.96165,2.9617 -1.22449,1.8367 -1.73716,4.0865 -2.96165,5.9233 -0.95728,1.4359 -13.37231,13.8509 -14.80824,14.8082 -1.83673,1.2245 -4.08656,1.7372 -5.9233,2.9617 -2.3233,1.5488 -3.59998,4.3744 -5.92329,5.9233 -1.83674,1.2245 -4.08656,1.7371 -5.9233,2.9616 -3.41728,2.2782 -5.46766,6.6068 -8.88494,8.885 -1.83674,1.2245 -3.94887,1.9744 -5.9233,2.9616 -1.97443,0.9872 -3.82909,2.2636 -5.9233,2.9617 -1.87311,0.6243 -4.05018,-0.6244 -5.92329,0 -2.0942,0.698 -3.8291,2.2635 -5.9233,2.9616 -1.87311,0.6244 -4.15731,-0.883 -5.92329,0 -1.24874,0.6244 -1.71291,2.3373 -2.96165,2.9617 -0.90133,0.4506 -7.55115,0 -8.88495,0 -5.92329,0 -11.84659,0 -17.76989,0 -0.98721,0 -1.97443,0 -2.96164,0 -0.98722,0 -2.07866,-0.4415 -2.96165,0 -1.24874,0.6243 -1.71291,2.3372 -2.96165,2.9616 -0.88299,0.4415 -1.97443,0 -2.96165,0 -0.98722,0 -1.97443,0 -2.96165,0 -6.91051,0 -13.82102,0 -20.73153,0 -1.33381,0 -7.98362,-0.4507 -8.88495,0 -1.24874,0.6244 -1.71291,2.3373 -2.96165,2.9617 -1.79838,0.8991 -15.97151,-0.8992 -17.76989,0 -1.24874,0.6243 -1.7129,2.3372 -2.96164,2.9616 -0.77874,0.3894 -10.29789,0 -11.8466,0 -7.89773,0 -15.79545,0 -23.69318,0 -11.8466,0 -23.69319,0 -35.53978,0 -3.94887,0 -7.89773,0 -11.84659,0 -1.97444,0 -7.89773,0 -5.9233,0 1.97443,0 7.89773,0 5.9233,0 -5.9233,0 -11.8466,0 -17.76989,0 -1.94612,0 -7.21399,-0.557 -8.88495,0 -10.73683,3.5789 -2.10779,1.4052 -8.88494,5.9233 -1.83674,1.2245 -4.08656,1.7372 -5.9233,2.9616 -1.16165,0.7745 -1.79999,2.1873 -2.96165,2.9617 -1.83673,1.2245 -4.08656,1.7372 -5.92329,2.9616 -1.16166,0.7745 -1.97444,1.9745 -2.96165,2.9617 -0.98722,0.9872 -2.33728,1.7129 -2.96165,2.9616 -0.4415,0.883 0.4415,2.0787 0,2.9617 -1.24874,2.4975 -4.67456,3.4258 -5.9233,5.9233 -0.44149,0.883 0.4415,2.0786 0,2.9616 -1.77698,3.554 -7.10795,5.331 -8.88494,8.885 -0.88299,1.766 0.88299,4.1573 0,5.9233 -0.62437,1.2487 -2.18721,1.8 -2.96165,2.9616 -1.22449,1.8368 -1.73716,4.0866 -2.96165,5.9233 -0.77443,1.1617 -2.18721,1.8 -2.96164,2.9617 -3.64511,5.4676 -5.23984,12.3022 -8.88495,17.7699 -0.77444,1.1616 -1.97443,1.9744 -2.96165,2.9616 -2.96165,2.9616 -5.92329,5.9233 -8.88494,8.8849 -0.98722,0.9873 -2.33728,1.713 -2.96165,2.9617 -0.4415,0.883 0.4415,2.0786 0,2.9616 -1.24874,2.4975 -4.67456,3.4259 -5.9233,5.9233 -0.44149,0.883 0,1.9745 0,2.9617 -0.98721,1.9744 -1.73715,4.0865 -2.96164,5.9233 -1.54888,2.3233 -4.37443,3.6 -5.9233,5.9233 -1.22449,1.8367 -1.82591,4.0304 -2.96165,5.9233 -1.83133,3.0522 -4.33146,5.7012 -5.9233,8.8849 -0.44149,0.883 0,1.9745 0,2.9617 -0.98721,1.9744 -1.73715,4.0865 -2.96164,5.9233 -1.54888,2.3233 -4.37443,3.6 -5.9233,5.9233 -1.22449,1.8367 -1.73716,4.0865 -2.96165,5.9233 -1.54887,2.3233 -4.67455,3.4258 -5.9233,5.9233 -0.44149,0.8829 0.4415,2.0786 0,2.9616 -1.77698,3.554 -7.10795,5.331 -8.88494,8.8849 -0.4415,0.883 0.31219,2.0251 0,2.9617 -0.69807,2.0942 -2.26358,3.8291 -2.96165,5.9233 -0.31218,0.9365 0.31219,2.0251 0,2.9616 -0.69806,2.0942 -2.26358,3.8291 -2.96165,5.9233 -0.62437,1.8731 0.883,4.1573 0,5.9233 -0.62437,1.2488 -1.97443,1.9745 -2.96164,2.9617 0,1.9744 0.62437,4.0502 0,5.9233 -0.4415,1.3245 -2.33728,1.7129 -2.96165,2.9616 -0.883,1.766 0.62437,4.0502 0,5.9233 -7.15082,21.4525 0.85385,-4.6693 -5.9233,8.885 -0.88299,1.766 0.62437,4.0502 0,5.9233 -0.69807,2.0942 -2.14181,3.8737 -2.96165,5.9233 -6.92633,1.5413 -1.80662,8.3815 -2.96165,11.8466 -1.39613,4.1884 -4.52716,7.6581 -5.92329,11.8465 -0.31219,0.9366 0.54761,2.1403 0,2.9617 -1.54887,2.3233 -4.37443,3.6 -5.9233,5.9233 -1.09522,1.6428 1.09522,4.2805 0,5.9233 -1.54887,2.3233 -4.24793,3.6895 -5.92329,5.9233 -2.64898,3.532 -3.47432,8.1731 -5.9233,11.8466 -0.77444,1.1616 -2.33728,1.7129 -2.96165,2.9616 -0.4415,0.883 0,1.9745 0,2.9617 0,1.9744 0.62437,4.0502 0,5.9233 -0.4415,1.3245 -2.33728,1.7129 -2.96165,2.9616 -0.44149,0.883 0.4415,2.0787 0,2.9617 -0.62437,1.2487 -2.33727,1.7129 -2.96165,2.9616 -0.44149,0.883 0.4415,2.0787 0,2.9617 -0.62437,1.2487 -2.18721,1.8 -2.96164,2.9616 -1.22449,1.8367 -1.73716,4.0866 -2.96165,5.9233 -1.54887,2.3233 -4.67456,3.4258 -5.9233,5.9233 -0.44149,0.883 0.4415,2.0787 0,2.9616 -0.62437,1.2488 -2.33728,1.713 -2.96165,2.9617 -0.44149,0.883 0.4415,2.0787 0,2.9616 -0.62437,1.2488 -2.18721,1.8 -2.96164,2.9617 -10.73684,21.4737 3.12185,-4.6828 -5.9233,8.8849 -3.64511,5.4677 -5.23984,12.3023 -8.88495,17.7699 -1.54887,2.3233 -4.67455,3.4258 -5.92329,5.9233 -0.4415,0.883 0.44149,2.0787 0,2.9617 -0.62437,1.2487 -2.33728,1.7129 -2.96165,2.9616 -0.87372,1.7475 0.67904,6.8478 0,8.885 -2.11736,6.3521 -7.29392,10.2555 -11.84659,14.8082 -0.98722,0.9872 -1.97443,1.9744 -2.96165,2.9617 -0.98722,0.9872 -2.33728,1.7129 -2.96165,2.9616 -0.4415,0.883 0.4415,2.0787 0,2.9617 -1.31251,2.625 -7.08759,6.1889 -8.88494,8.8849 -1.22449,1.8367 -1.73716,4.0866 -2.96165,5.9233 -1.34966,2.0245 -10.98006,11.2689 -11.84659,11.8466 -0.82142,0.5476 -2.0251,-0.3122 -2.96165,0 -2.0942,0.6981 -3.8737,2.1418 -5.9233,2.9616 -2.89857,1.1595 -6.20798,1.3555 -8.88494,2.9617 -2.39435,1.4366 -3.59999,4.3744 -5.9233,5.9233 -0.82141,0.5476 -2.07866,-0.4415 -2.96165,0 -1.24874,0.6243 -1.79999,2.1872 -2.96165,2.9616 -1.83673,1.2245 -3.94886,1.9745 -5.92329,2.9617 -1.97443,0.9872 -3.8291,2.2636 -5.9233,2.9616 -0.93655,0.3122 -2.07865,-0.4415 -2.96165,0 -1.24874,0.6244 -1.63716,2.5202 -2.96165,2.9617 -1.87311,0.6243 -4.00781,-0.4789 -5.92329,0 -2.14157,0.5354 -3.8291,2.2636 -5.9233,2.9616 -0.93655,0.3122 -2.07865,-0.4415 -2.96165,0 -1.24874,0.6244 -1.7129,2.3373 -2.96164,2.9617 -1.86147,0.9307 -9.98514,-0.9308 -11.8466,0 -1.24874,0.6243 -1.7129,2.3372 -2.96165,2.9616 -3.18342,1.5917 -2.73987,-1.5917 -5.92329,0 -1.24874,0.6244 -1.71291,2.3373 -2.96165,2.9617 -1.76599,0.883 -4.05019,-0.6244 -5.9233,0 -16.77977,8.3898 4.41497,-1.1038 -11.84659,2.9616 -2.14157,0.5354 -3.82909,2.2636 -5.9233,2.9617 -0.93655,0.3121 -2.02509,-0.3122 -2.96164,0 -2.09421,0.698 -3.8291,2.2635 -5.9233,2.9616 -0.93656,0.3122 -2.02509,-0.3122 -2.96165,0 -2.0942,0.6981 -3.82909,2.2636 -5.92329,2.9617 -2.66549,0.8884 -6.21947,-0.8885 -8.88495,0 -1.32449,0.4415 -1.79999,2.1872 -2.96165,2.9616 -5.46766,3.6451 -12.30223,5.2398 -17.76989,8.8849 -1.16165,0.7745 -1.79999,2.1873 -2.96164,2.9617 -3.67348,2.449 -8.17313,3.4743 -11.8466,5.9233 -1.16165,0.7744 -1.79999,2.1872 -2.96165,2.9616 -1.83673,1.2245 -4.08656,1.7372 -5.92329,2.9617 -2.55561,1.7037 -6.57164,6.5716 -8.88495,8.8849 -0.98721,0.9872 -1.97443,1.9745 -2.96164,2.9617 -0.98722,0.9872 -2.33728,1.7129 -2.96165,2.9616 -0.4415,0.883 0.44149,2.0787 0,2.9617 -0.79089,1.5817 -7.32575,7.3257 -8.88496,8.8849 -1.5592,1.5592 -7.3032,8.0941 -8.8849,8.885 -0.883,0.4415 -2.0787,-0.4415 -2.9617,0 -2.4975,1.2487 -3.4258,4.6745 -5.9233,5.9233 -0.883,0.4415 -2.0251,-0.3122 -2.9616,0 -2.0942,0.698 -3.8291,2.2635 -5.9233,2.9616 -1.8731,0.6244 -4.1573,-0.883 -5.9233,0 -1.2488,0.6244 -1.7129,2.3373 -2.9617,2.9617 -1.071,0.5355 -12.7483,0 -14.8082,0 -5.9233,0 -11.8466,0 -17.7699,0 -1.3338,0 -7.9836,0.4506 -8.8849,0 -1.2488,-0.6244 -1.8,-2.1873 -2.9617,-2.9617 -1.4915,-6.525 -6.0927,-1.5655 -8.8849,-2.9616 -1.2488,-0.6244 -1.7129,-2.3373 -2.9617,-2.9617 -0.883,-0.4415 -2.0786,0.4415 -2.9616,0 -3.554,-1.777 -5.331,-7.1079 -8.885,-8.8849 -0.883,-0.4415 -2.0786,0.4415 -2.9616,0 -1.2488,-0.6244 -1.9745,-1.9745 -2.9617,-2.9617 -2.3133,-2.3133 -6.3293,-7.1812 -8.8849,-8.8849 -1.8368,-1.2245 -4.0866,-1.7372 -5.9233,-2.9617 -3.4173,-2.2782 -5.4677,-6.6067 -8.885,-8.8849 -1.8367,-1.2245 -4.0865,-1.7372 -5.9233,-2.9617 -1.1616,-0.7744 -1.9744,-1.9744 -2.9616,-2.9616 -0.9872,-0.9872 -2.1872,-1.8 -2.9616,-2.9617 -1.2245,-1.8367 -1.7372,-4.0865 -2.9617,-5.9233 -0.7744,-1.1616 -2.3373,-1.7129 -2.9616,-2.9616 -1.1847,-2.3693 1.1846,-6.5156 0,-8.8849 -0.6244,-1.2488 -2.3373,-1.713 -2.9617,-2.9617 -0.4507,-0.9013 0,-7.5511 0,-8.8849 0,-3.1004 -0.6021,-15.3615 0,-17.7699 0.5354,-2.1416 2.4263,-3.7818 2.9617,-5.9233 1.1614,-4.6457 -1.1615,-10.1625 0,-14.8083 8.3898,-16.7797 -1.1038,4.415 2.9616,-11.8466 3.5754,-14.3016 1.4074,0.1468 5.9233,-8.8849 0.883,-1.766 -0.6244,-4.0502 0,-5.9233 0.6981,-2.0942 2.2636,-3.8291 2.9616,-5.9233 0.6244,-1.8731 -0.8829,-4.1573 0,-5.9233 0.6244,-1.2487 2.3373,-1.7129 2.9617,-2.9616 0.4507,-0.9014 0,-7.5512 0,-8.885 0,-6.9105 0,-13.821 0,-20.7315 0,-2.06 0.5355,-13.7372 0,-14.8083 -0.6244,-1.2487 -2.3373,-1.7129 -2.9617,-2.9616 -0.4414,-0.883 0.4415,-2.0787 0,-2.9617 -1.2487,-2.4974 -4.6745,-3.4258 -5.9232,-5.9233 -0.4415,-0.883 0.4414,-2.0786 0,-2.9616 -9.8226,-9.8226 1.3961,2.7923 -2.9617,-5.9233 -0.7909,-1.5818 -7.3257,-7.3257 -8.8849,-8.8849 -1.5592,-1.5592 -7.3032,-8.0941 -8.885,-8.885 -0.1549,-0.078 -8.73,-0.078 -8.8849,0 -1.2488,0.6244 -1.7129,2.3373 -2.9617,2.9617 -0.883,0.4415 -2.0786,-0.4415 -2.9616,0 -1.2488,0.6243 -1.7129,2.3372 -2.9617,2.9616 -1.8684,0.9342 -12.9398,-0.9342 -14.8082,0 -1.2488,0.6244 -1.7129,2.3373 -2.9617,2.9617 -1.8684,0.9342 -12.9398,-0.9343 -14.8082,0 -1.2487,0.6243 -1.7129,2.3372 -2.9617,2.9616 -2.3693,1.1847 -6.5156,-1.1847 -8.8849,0 -1.2487,0.6244 -1.7129,2.3373 -2.9616,2.9616 -0.9014,0.4507 -7.5512,0 -8.885,0 -2.0599,0 -13.7372,0.5356 -14.8082,0 -1.2488,-0.6243 -1.9745,-1.9744 -2.9617,-2.9616 -9.8225,-9.8225 2.7923,1.3961 -5.9233,-2.9616 -1.2487,-0.6244 -1.7129,-2.3373 -2.9616,-2.9617 -0.883,-0.4415 -2.9617,0.9872 -2.9617,0 0,-0.9872 3.6597,0.6981 2.9617,0 -11.5586,-11.5585 -1.5906,0.6856 -8.885,-2.9616 -1.2487,-0.6244 -1.7129,-2.3373 -2.9616,-2.9617 -8.7156,-4.3578 3.8992,6.8609 -5.9233,-2.9616 -0.9872,-0.9873 -2.9617,-1.5656 -2.9617,-2.9617 0,-1.3961 1.9745,-1.9744 2.9617,-2.9616 2.3272,-2.3272 13.865,-12.9218 14.8082,-14.8083 0.8992,-1.7984 -0.8992,-15.9715 0,-17.7699 0.6244,-1.2487 2.3373,-1.7129 2.9617,-2.9616 0.4415,-0.883 0,-1.9744 0,-2.9617 0.9872,-1.9744 1.7371,-4.0865 2.9616,-5.9233 1.5489,-2.3233 3.9489,-3.9488 5.9233,-5.9233 2.9617,-2.9616 5.9233,-5.9233 8.885,-8.8849 0.9872,-0.9872 1.9744,-1.9744 2.9616,-2.9616 0.9872,-0.9873 2.3373,-1.713 2.9617,-2.9617 1.5794,-3.1589 -1.5795,-2.7644 0,-5.9233 1.7769,-3.554 7.1079,-5.331 8.8849,-8.8849 0.4415,-0.883 -0.4415,-2.0787 0,-2.9617 1.3125,-2.625 7.0876,-6.1889 8.885,-8.8849 1.2244,-1.8368 1.7371,-4.0866 2.9616,-5.9233 1.5489,-2.3233 4.6746,-3.4258 5.9233,-5.9233 0.4415,-0.883 -0.3122,-2.0251 0,-2.9617 0.6981,-2.0942 2.2636,-3.8291 2.9616,-5.9233 0.8457,-2.5371 -0.6532,-9.2337 0,-11.8466 0.5354,-2.1415 2.2636,-3.8291 2.9617,-5.9233 0.7895,-2.3684 -0.5567,-12.0249 0,-14.8082 0.6122,-3.0612 2.3494,-5.8237 2.9616,-8.8849 0.3873,-1.9361 0,-3.9489 0,-5.9233 0,-5.9233 0,-11.8466 0,-17.7699 0,-2.9617 -0.9365,-6.0753 0,-8.885 3.6598,-10.9791 2.9617,3.6101 2.9617,-5.9233 0,-1.1707 0.6324,-13.5433 0,-14.8082 -1.2488,-2.4975 -4.3744,-3.6 -5.9233,-5.9233 -2.449,-3.6735 -3.4743,-8.1731 -5.9233,-11.8466 -1.5489,-2.3233 -3.9489,-3.9489 -5.9233,-5.9233 -3.9489,-3.9489 -7.8977,-7.8977 -11.8466,-11.8466 -1.9744,-1.9744 -4.3744,-3.6 -5.9233,-5.9233 -1.2245,-1.8367 -1.7371,-4.0865 -2.9616,-5.9233 -1.5489,-2.3233 -4.6746,-3.4258 -5.9233,-5.9233 -0.4415,-0.883 0.4415,-2.0786 0,-2.9616 -1.777,-3.554 -7.108,-5.331 -8.885,-8.885 -0.4415,-0.883 0.4415,-2.0786 0,-2.9616 -0.6244,-1.2488 -2.3373,-1.7129 -2.9616,-2.9617 -0.4415,-0.883 0.4415,-2.0786 0,-2.9616 -0.6244,-1.2488 -2.3373,-1.7129 -2.9617,-2.9617 -0.4415,-0.883 0,-1.9744 0,-2.9616 0,-4.4082 0.4415,-3.7802 -2.9616,-8.885 -0.8211,-1.2316 -10.7874,-11.3169 -11.8466,-11.8465 -0.883,-0.4415 -2.0787,0.4414 -2.9617,0 -1.2487,-0.6244 -1.7129,-2.3373 -2.9616,-2.9617 -1.766,-0.883 -4.1573,0.883 -5.9233,0 -1.2488,-0.6244 -1.7129,-2.3373 -2.9617,-2.9616 -0.7657,-0.3829 -15.6706,0 -17.7698,0 -0.677,0 -8.8604,-0.031 -8.885,0 -3.596,4.495 -5.9233,9.8721 -8.8849,14.8082 z"
         id="path4527"
         inkscape:connector-curvature="0" />
    </clipPath>
  </defs>
  <sodipodi:namedview
     id="base"
     pagecolor="#ffffff"
     bordercolor="#666666"
     borderopacity="1.0"
     inkscape:pageopacity="1"
     inkscape:pageshadow="2"
     inkscape:zoom="0.70710678"
     inkscape:cx="294.87143"
     inkscape:cy="54.443235"
     inkscape:document-units="px"
     inkscape:current-layer="layer1"
     showgrid="false"
     inkscape:window-width="1280"
     inkscape:window-height="1000"
     inkscape:window-x="0"
     inkscape:window-y="24"
     inkscape:window-maximized="1"
     showguides="true"
     inkscape:guide-bbox="true"
     units="px" />
  <metadata
     id="metadata7">
    <rdf:RDF>
      <cc:Work
         rdf:about="">
        <dc:format>image/svg+xml</dc:format>
        <dc:type
           rdf:resource="http://purl.org/dc/dcmitype/StillImage" />
        <dc:title></dc:title>
      </cc:Work>
    </rdf:RDF>
  </metadata>
  <g
     inkscape:label="Camada 1"
     inkscape:groupmode="layer"
     id="layer1"
     transform="translate(0,-702.36214)">
    <text
       xml:space="preserve"
       style="font-style:normal;font-variant:normal;font-stretch:normal;font-size:24px;line-height:125%;font-family:'Source Code Pro';-inkscape-font-specification:'Source Code Pro Semi-Light';letter-spacing:0px;word-spacing:0px;fill:#000000;fill-opacity:1;stroke:none"
       x="933.5553"
       y="697.38757"
       id="text3052"
       sodipodi:linespacing="125%"><tspan
         sodipodi:role="line"
         id="tspan3054"
         x="933.5553"
         y="697.38757" /></text>
    <g
       id="g3146"
       transform="matrix(0.64996759,0,0,0.64996759,552.09891,321.03614)">
      <path
         id="path3149"
         d="m -744.1338,917.03908 c -10.6421,-29.9386 -12.60804,-62.62378 -5.34035,-93.49497 9.19663,-39.79193 33.46284,-76.27196 67.45339,-100.90018 22.77325,-16.85248 49.95614,-27.95923 78.23816,-32.87937 44.3423,-7.87217 91.59063,1.20555 129.55629,24.41537 33.04212,19.92546 59.22952,50.27895 72.77086,85.37256 9.28408,22.80352 13.07843,47.58333 11.65088,71.98473 -2.17364,36.06048 -16.52279,71.31919 -40.30579,99.371 -23.00619,27.51278 -55.07422,47.84598 -90.4065,57.71638 -35.55262,9.9147 -74.33774,9.2746 -109.37451,-2.3117 -53.05797,-16.8499 -96.85009,-58.39863 -114.24243,-109.27382 m 73.78648,59.49198 c -2.49384,6.91086 -5.2799,13.71769 -7.69487,20.64953 6.33828,-4.13591 12.66909,-8.29771 18.9467,-12.54298 5.95913,4.50164 12.01771,8.89351 18.13886,13.19925 -1.99245,-7.16285 -4.12014,-14.29004 -6.2885,-21.4065 6.40318,-4.26444 13.01169,-8.22089 19.22448,-12.74156 -7.80503,-0.5471 -15.6457,-0.20738 -23.45402,-0.61433 -1.99662,-6.92498 -3.88121,-13.86555 -6.22607,-20.6848 -2.72443,6.81844 -5.16647,13.75741 -7.60245,20.66693 -7.86627,-0.002 -15.74514,-0.0976 -23.60672,-0.18411 6.01649,4.75115 12.39996,9.05737 18.56259,13.65857 m -1.15176,-70.37895 c 9.0248,18.72143 24.17576,34.49101 42.45318,45.34174 21.24359,12.29729 46.87055,17.77062 71.52909,14.52986 28.67102,-3.2678 55.52645,-18.18795 73.08424,-40.04451 16.19302,-19.76979 24.39613,-45.27474 22.96938,-70.33044 -1.56335,-23.30662 -10.86141,-46.25965 -27.09639,-63.81869 -19.90314,-21.99605 -49.70692,-35.33777 -80.08801,-36.13176 -22.96248,-0.57677 -46.13906,5.78311 -65.07735,18.25425 -25.77417,16.59893 -43.42026,44.16123 -47.32358,73.61634 -2.80516,19.87595 0.71592,40.42416 9.54944,58.58321 m -12.53947,-120.63639 c 6.13511,4.45527 12.16097,9.03682 18.42495,13.33276 -2.31867,-7.13256 -4.23487,-14.38513 -6.37763,-21.56407 6.31919,-4.35372 12.76811,-8.56058 19.30241,-12.62282 -7.61733,-0.80549 -15.29927,-0.52152 -22.9466,-0.62274 -3.07677,-6.93273 -4.77176,-14.32717 -6.794,-21.59358 -2.67174,7.15273 -5.2436,14.34877 -7.94988,21.48275 -7.86575,-0.25254 -15.7512,-0.0682 -23.62539,-0.24884 6.20698,4.60344 12.4569,9.15379 18.78294,13.61443 -2.69597,6.86664 -5.14409,13.83508 -7.87086,20.69591 6.44701,-4.01137 12.66024,-8.37894 19.05406,-12.4738 m 220.55457,160.67977 c -2.75386,6.86796 -5.17723,13.87167 -7.89282,20.77133 6.42793,-4.22918 12.64678,-8.77929 19.39623,-12.55005 6.14163,4.57889 12.31641,9.12117 18.53041,13.59743 -2.13844,-7.41684 -4.25962,-14.82429 -6.42521,-22.23398 6.29722,-4.2783 12.72187,-8.36733 19.07229,-12.56215 -7.92505,-0.30657 -15.85197,-0.41764 -23.77614,-0.41802 -2.14319,-6.92812 -3.85691,-13.98337 -6.29793,-20.83298 -2.7305,6.84789 -5.19963,13.79401 -7.57634,20.75754 -7.90497,-0.1865 -15.81697,-0.24579 -23.72247,-0.18145 6.28541,4.47135 12.45551,9.09844 18.6919,13.65235 m -37.07263,-171.92734 c 6.46941,-3.93371 12.63456,-8.31647 18.97656,-12.43945 5.99645,4.63109 12.26043,8.92703 18.32924,13.45548 -2.13524,-7.15306 -4.04402,-14.37974 -6.83883,-21.34501 6.57593,-4.57459 13.59944,-8.55687 19.94297,-13.43233 -7.93212,0.22456 -15.87678,-0.0489 -23.81863,-0.21182 -1.83931,-7.03607 -4.05761,-13.97225 -6.2083,-20.92625 -2.65397,6.91127 -5.14269,13.89042 -7.60435,20.86243 -7.79347,0.0488 -15.58547,-0.25111 -23.38083,-0.007 5.95583,4.64179 12.19272,8.94488 18.23447,13.48045 -2.42617,6.89301 -5.14078,13.69493 -7.6323,20.56339 z"
         inkscape:connector-curvature="0"
         style="fill:#ffffff" />
      <path
         style="fill:#002b3d"
         inkscape:connector-curvature="0"
         d="m -580.80482,699.5102 c 29.3875,-1.725 59.1875,4.675 85.175,18.55 33.5375,17.7375 60.5375,47.5875 74.6,82.85 9.7375,23.7125 13.275,49.7875 11,75.275 -3.425,40 -22.75,78.3 -52.5625,105.1375 -25.7,23.425 -59.1375,38.3875 -93.8375,41.325 -22.6625,2.325 -45.8,-0.55 -67.3625,-7.8125 -31.85,-10.7875 -60.1,-31.825 -79.65,-59.175 -19.25,-26.55 -29.9125,-59.1 -30.4125,-91.8625 -0.4875,-32.9625 9.2625,-66.0875 27.95,-93.2875 27.675,-41.3625 75.325,-68.6625 125.1,-71 m -70.85,48.6 c -5.6125,-3.85 -11.0625,-7.925 -16.7125,-11.7125 2.2125,6.4625 4.45,12.925 6.775,19.3625 -5.45,4 -10.825,8.1125 -16.1375,12.3 6.9,0.0625 13.8,0 20.7,-0.1 2.3125,6.55 4.3,13.2 6.8875,19.65 2.3375,-6.5625 3.8875,-13.375 6.1,-19.975 6.6875,0 13.3625,0.1 20.0375,-0.225 -5.475,-4.025 -11.125,-7.8375 -16.75,-11.6375 1.8625,-6.75 3.8125,-13.4875 5.75,-20.2125 -5.6875,3.9875 -11.0625,8.4 -16.65,12.55 m 63.4375,16.425 c -18.9375,3.1125 -36.675,12.2125 -50.7375,25.2125 -16.0625,15.1875 -27.0375,35.825 -29.9625,57.7875 -3.85,25.4125 3.1875,52.15 18.65,72.625 13.9125,18.7875 34.8625,32.1375 57.6875,37.1125 21.2875,4.425 44.0875,2.125 63.6875,-7.4625 24.45,-11.6375 43.475,-33.9125 51.375,-59.7875 5.95,-19.5625 5.725,-41.025 -0.9875,-60.3625 -8.8,-26.225 -29.3625,-48.1875 -54.875,-58.825 -17.175,-7.325 -36.45,-9.3875 -54.8375,-6.3 m 111.2375,19.0875 c -5.45,4.1625 -10.9875,8.2 -16.325,12.5125 6.95,-0.225 13.9125,-0.075 20.8625,-0.1375 2.4125,6.5 4.6625,13.075 6.7625,19.6875 2.525,-6.3375 4.0875,-13 5.9875,-19.5375 6.95,-0.925 13.9875,-0.55 20.9875,-0.4875 -5.7875,-4.0625 -11.6375,-8.05 -17.4,-12.1375 2.0875,-6.6875 3.7875,-13.5 5.8125,-20.2125 -5.6,4.1875 -11.1625,8.425 -16.6625,12.75 -5.525,-4.0125 -11.2,-7.8375 -16.7125,-11.875 2.075,6.525 4.525,12.9375 6.6875,19.4375 m -196.3875,149.5125 c -5.5125,-4.0625 -11.225,-7.875 -16.775,-11.9125 2.275,6.5625 4.8875,13.025 6.675,19.75 -5.5625,4.1375 -11.1,8.3125 -16.5875,12.5375 7.1625,0 14.3125,0.0125 21.475,-0.0125 2.35,6.4625 4.5,12.9875 6.7625,19.475 2.15,-6.725 4.125,-13.5 6,-20.3 6.725,-0.125 13.4625,0.15 20.1875,-0.25 -5.5,-4.0375 -11.15,-7.875 -16.8375,-11.6375 2.0375,-6.7375 3.9625,-13.5125 5.775,-20.3125 -5.5,4.2875 -11.1125,8.4375 -16.675,12.6625 m 163.075,10.725 c 2,6.525 4.475,12.9 6.675,19.3625 -5.575,4 -10.9125,8.3125 -16.4125,12.4 6.925,-0.0625 13.8625,0.0875 20.775,-0.5875 2.55,6.775 4.4625,13.7875 7.3375,20.4375 1.675,-6.8625 3.8,-13.6125 5.825,-20.3875 6.75,0.1625 13.5,-0.025 20.25,-0.15 -5.575,-3.9875 -11.25,-7.85 -16.925,-11.6875 1.8,-6.7 3.9125,-13.3125 5.5375,-20.0625 -5.575,3.9625 -10.9125,8.25 -16.4125,12.3125 -5.6125,-3.7875 -11.075,-7.8 -16.65,-11.6375 z"
         id="path3246" />
      <path
         style="fill:#002b3d"
         inkscape:connector-curvature="0"
         d="m -588.31732,768.1602 c 18.05,-2.8375 37,-1.25 53.85,6.05 22.9,9.7125 41.65,28.775 50.8625,51.9 8.1375,20.1625 8.9375,43.175 2.3375,63.8875 -6.775,21.4 -21.4875,40.1 -40.6,51.85 -16.1875,10.175 -35.6125,14.9375 -54.65,14.025 -19.9125,-1.1375 -39.4375,-8.5125 -54.8625,-21.2 -18.95,-15.2375 -31.575,-38.1125 -34.2875,-62.2875 -3.175,-24.85 4.425,-50.7875 20.175,-70.225 14.1375,-17.7375 34.85,-30.05 57.175,-34 m -48.3875,27.725 c -15.85,15.275 -25.475,36.6 -27.2125,58.4875 0.2,0.9375 0.475,1.85 0.825,2.7375 1.9125,-1.875 3.975,-3.5875 6.1375,-5.1625 12.325,-9.0875 24.225,-18.725 36.6375,-27.6875 8.3125,1.1 16.625,2.3375 24.9625,3.35 15.675,20.775 31.6125,41.3625 47.225,62.1875 -1.1625,8.675 -2.55,17.325 -3.4375,26.0375 -14.0875,10.8125 -28.225,21.575 -42.4,32.275 -21.5,-28.2875 -43.025,-56.55 -64.575,-84.8125 -1.7125,-2.275 -3.375,-4.6375 -5.425,-6.65 -0.675,14.05 1.7375,28.2875 7.4,41.1875 8.625,20.2 24.7875,37.025 44.5375,46.6 16.75,8.05 35.975,11.2125 54.35,8.2 24.7,-3.5375 47.5625,-17.8 61.7875,-38.275 12.725,-17.775 18.6125,-40.275 16.425,-62 -2.075,-22.325 -12.8125,-43.625 -29.2375,-58.8375 -14.75,-13.525 -33.9125,-22.425 -53.9125,-24.0625 -26.975,-2.9 -55.1125,6.9875 -74.0875,26.425 m 17.0125,30.625 c -13.5875,10.1875 -27.0625,20.525 -40.55,30.8375 22.3,29.2 44.45,58.5375 66.85,87.6625 13.075,-10.2125 26.4625,-20.025 39.4875,-30.2875 1.45,-8.0625 2.05,-16.2375 3.525,-24.2875 -15.4125,-20.1 -30.5,-40.475 -46.175,-60.35 -7.525,-2.0125 -15.5,-1.9625 -23.1375,-3.575 z"
         id="path3248" />
      <path
         style="fill:#002b3d"
         inkscape:connector-curvature="0"
         d="m -589.90482,802.2352 c 9.9625,-7.6875 19.9,-15.4375 30.125,-22.7625 8.525,0.4875 17.0125,2.075 25.4875,3.25 6.225,8.5375 12.8125,16.8125 19.05,25.35 -9.325,6.7625 -18.325,13.95 -27.5375,20.8875 -3.25,-4.05 -6.1125,-8.4 -9.65,-12.2125 -0.8625,0.525 -2.575,1.575 -3.425,2.1 8.875,11.875 17.95,23.6125 26.9375,35.4125 1.0625,-0.8875 2.0125,-1.875 2.8375,-2.975 -2.675,-4.3375 -6.1125,-8.125 -9.15,-12.2 9.15,-7.1125 18.3625,-14.15 27.7,-21.025 6.6125,8.9375 13.7875,17.525 20,26.7125 -0.725,8.7 -2.3875,17.3125 -3.275,26 -8.7,6.675 -17.4125,13.3375 -26.1125,20 -1.9625,1.675 -4.7375,0.2875 -7.0125,0.3625 -6.775,-1.1375 -13.7625,-1.6 -20.4,-3.0375 -16.4125,-20.8875 -32.1375,-42.325 -48.4875,-63.275 0.775,-7.55 2.0875,-15.0375 2.9125,-22.5875 m 30.5,-20.4125 c -9.4875,6.825 -18.4625,14.375 -28.0375,21.0875 -1.2,5.15 -1.5125,10.45 -2.4,15.6625 -0.3375,2.5875 -1.075,5.5875 1.025,7.675 15.1,19.975 30.4875,39.725 45.425,59.825 8.1,1.2 16.2125,2.6 24.3875,3.15 9,-6.1375 17.3875,-13.15 26.125,-19.65 0.7875,-8.2375 2.4125,-16.375 3.05,-24.6375 -6.0125,-7.975 -12.175,-15.825 -18.15,-23.825 -8.025,6.125 -16.1375,12.1375 -24.0875,18.375 3.2375,4.1375 6.375,8.35 9.525,12.5375 -2.425,1.65 -4.7625,3.4125 -6.9875,5.3125 -9.5875,-12.975 -19.6375,-25.625 -29.1625,-38.6375 2.1,-2 4.475,-3.6625 6.7875,-5.375 3.125,4.175 6.225,8.375 9.4875,12.45 7.95,-6.05 16.05,-11.925 23.8375,-18.2 -4.875,-7.2 -10.5125,-13.875 -15.625,-20.9125 -1.7375,-2.9 -5.525,-2.425 -8.4,-2.9375 -5.6,-0.425 -11.2875,-2.075 -16.8,-1.9 z"
         id="path3250" />
      <path
         style="fill:#336699"
         inkscape:connector-curvature="0"
         d="m -558.44232,783.6602 c 7.1625,1.2375 14.475,1.775 21.5875,3.175 5.275,6.65 10.2125,13.5875 15.5875,20.1625 -6.8125,5.4375 -13.9375,10.475 -20.7625,15.9 -3.125,-4.2 -6.25,-8.4125 -9.5125,-12.5 -3.425,2.6125 -6.8375,5.25 -10.325,7.7625 10.625,14.025 21.2375,28.0625 31.9625,42.0125 3.4,-2.625 6.8375,-5.175 10.2625,-7.7625 -3.0375,-4.2625 -6.225,-8.4125 -9.4375,-12.55 6.875,-5.2 13.6375,-10.55 20.575,-15.6875 5.6,7.2 11.5875,14.2875 16.425,21.975 -0.7375,7.475 -1.8625,14.9 -2.975,22.3375 -8,6.4375 -16.3375,12.4625 -24.4875,18.725 -7.4875,-0.775 -14.9375,-2.0875 -22.425,-2.9125 -15.275,-20.35 -31.0125,-40.375 -46.1125,-60.85 0.2875,-6.3625 1.6625,-12.6125 2.275,-18.95 9.175,-6.8625 18.1875,-13.9625 27.3625,-20.8375 z"
         id="path3252" />
      <path
         style="fill:#336699"
         inkscape:connector-curvature="0"
         d="m -619.44232,828.7352 c 7.1625,1 14.3,2.1375 21.5,2.825 15.25,19.6 29.975,39.625 45.3,59.1625 -1.1,7.2125 -1.9875,14.4625 -2.9125,21.7125 -0.1,1.475 -1.7,2.1375 -2.65,3.0625 -11.6875,8.7375 -23.175,17.75 -34.8625,26.4875 -21.6,-27.9 -42.5125,-56.3375 -64.35,-84.0375 12.4875,-9.9625 25.525,-19.2 37.975,-29.2125 m -2.3,34.9875 c 10.6625,14.25 21.6625,28.25 32.25,42.5625 3.4875,-2.6375 6.975,-5.2875 10.4125,-7.9875 -10.7625,-14.125 -21.625,-28.1875 -32.2625,-42.4125 -3.575,2.475 -6.9375,5.2125 -10.4,7.8375 z"
         id="path3254" />
      <path
         style="fill:#002b3d"
         inkscape:connector-curvature="0"
         d="m -618.92982,864.1477 c 2.3625,-1.8125 4.75,-3.5875 7.1375,-5.3625 9.8625,13.0875 19.7125,26.1875 29.825,39.0875 -2.3125,1.8125 -4.65,3.5875 -7,5.3375 -10.1875,-12.8625 -19.75,-26.2125 -29.9625,-39.0625 m 3.2,0.0625 c 8.7375,12.175 18.1625,23.8625 27.1,35.9 1.1625,-0.8875 2.325,-1.775 3.4875,-2.65 -9.0625,-11.6625 -18.0125,-23.4125 -26.7875,-35.275 -1.275,0.675 -2.5375,1.35 -3.8,2.025 z"
         id="path3256" />
      <text
         transform="matrix(0.97773789,-0.20983001,0.20983001,0.97773789,-193.45619,-100.59751)"
         xml:space="preserve"
         style="font-style:normal;font-variant:normal;font-weight:normal;font-stretch:normal;font-size:62.40406036px;line-height:125%;font-family:'JACKPORT COLLEGE NCV';-inkscape-font-specification:'JACKPORT COLLEGE NCV';text-align:start;letter-spacing:0px;word-spacing:0px;writing-mode:lr-tb;text-anchor:start;fill:#003366;fill-opacity:1;stroke:none"
         id="text3142"
         sodipodi:linespacing="125%"><textPath
           dx="0"
           style="font-style:normal;font-variant:normal;font-weight:normal;font-stretch:normal;font-size:60px;line-height:125%;font-family:'JACKPORT COLLEGE NCV';-inkscape-font-specification:'JACKPORT COLLEGE NCV';text-align:start;letter-spacing:0px;writing-mode:lr-tb;text-anchor:start"
           id="textPath3156"
           xlink:href="#path3149">DIVISO DE COMPUTAO    IFRS campus RIO GRANDE</textPath></text>
      <circle
         transform="matrix(1.0168694,0,0,0.99112653,5.5649363,142.43648)"
         id="path3170"
         style="fill:none;stroke:#002b3d;stroke-width:2.79306388;stroke-miterlimit:4;stroke-dasharray:none"
         cx="-567"
         cy="725.36218"
         r="237" />
    </g>
    <rect
       style="fill:#c8191e;fill-opacity:1;stroke:none;stroke-width:1;stroke-miterlimit:4;stroke-dasharray:1, 8;stroke-dashoffset:0;stroke-opacity:1"
       id="rect3388"
       width="22.313185"
       height="22.313185"
       x="382.33548"
       y="908.85956"
       ry="11.15659" />
    <rect
       y="909.87378"
       x="407.69138"
       height="20.284706"
       width="20.284706"
       id="rect3396"
       style="fill:#32a041;fill-opacity:1;stroke:none;stroke-width:1;stroke-miterlimit:4;stroke-dasharray:1, 8;stroke-dashoffset:0;stroke-opacity:1"
       ry="2.0284715" />
    <rect
       style="fill:#32a041;fill-opacity:1;stroke:none;stroke-width:1;stroke-miterlimit:4;stroke-dasharray:1, 8;stroke-dashoffset:0;stroke-opacity:1"
       id="rect3398"
       width="20.284706"
       height="20.284706"
       x="432.03302"
       y="909.87378"
       ry="2.0284715" />
    <rect
       y="934.21545"
       x="383.34973"
       height="20.284706"
       width="20.284706"
       id="rect3400"
       style="fill:#32a041;fill-opacity:1;stroke:none;stroke-width:1;stroke-miterlimit:4;stroke-dasharray:1, 8;stroke-dashoffset:0;stroke-opacity:1"
       ry="2.0284715" />
    <rect
       style="fill:#32a041;fill-opacity:1;stroke:none;stroke-width:1;stroke-miterlimit:4;stroke-dasharray:1, 8;stroke-dashoffset:0;stroke-opacity:1"
       id="rect3402"
       width="20.284706"
       height="20.284706"
       x="407.69138"
       y="934.21545"
       ry="2.0284715" />
    <rect
       style="fill:#32a041;fill-opacity:1;stroke:none;stroke-width:1;stroke-miterlimit:4;stroke-dasharray:1, 8;stroke-dashoffset:0;stroke-opacity:1"
       id="rect3406"
       width="20.284706"
       height="20.284706"
       x="383.34973"
       y="958.55707"
       ry="2.0284715" />
    <rect
       y="958.55707"
       x="407.69138"
       height="20.284706"
       width="20.284706"
       id="rect3408"
       style="fill:#32a041;fill-opacity:1;stroke:none;stroke-width:1;stroke-miterlimit:4;stroke-dasharray:1, 8;stroke-dashoffset:0;stroke-opacity:1"
       ry="2.0284715" />
    <rect
       style="fill:#32a041;fill-opacity:1;stroke:none;stroke-width:1;stroke-miterlimit:4;stroke-dasharray:1, 8;stroke-dashoffset:0;stroke-opacity:1"
       id="rect3410"
       width="20.284706"
       height="20.284706"
       x="432.03302"
       y="958.55707"
       ry="2.0284715" />
    <rect
       y="982.89874"
       x="383.34973"
       height="20.284706"
       width="20.284706"
       id="rect3412"
       style="fill:#32a041;fill-opacity:1;stroke:none;stroke-width:1;stroke-miterlimit:4;stroke-dasharray:1, 8;stroke-dashoffset:0;stroke-opacity:1"
       ry="2.0284715" />
    <rect
       style="fill:#32a041;fill-opacity:1;stroke:none;stroke-width:1;stroke-miterlimit:4;stroke-dasharray:1, 8;stroke-dashoffset:0;stroke-opacity:1"
       id="rect3414"
       width="20.284706"
       height="20.284706"
       x="407.69138"
       y="982.89874"
       ry="2.0284715" />
    <text
       xml:space="preserve"
       style="font-style:normal;font-variant:normal;font-weight:bold;font-stretch:normal;font-size:27.20832253px;line-height:125%;font-family:'Open Sans';-inkscape-font-specification:'Open Sans, Bold';text-align:start;letter-spacing:0px;word-spacing:0px;writing-mode:lr-tb;text-anchor:start;fill:#000000;fill-opacity:1;stroke:none;stroke-width:1px;stroke-linecap:butt;stroke-linejoin:miter;stroke-opacity:1"
       x="466.73044"
       y="940.57373"
       id="text4218"
       sodipodi:linespacing="125%"
       transform="scale(0.98568811,1.0145197)"><tspan
         sodipodi:role="line"
         id="tspan4220"
         x="466.73044"
         y="940.57373"
         style="font-style:normal;font-variant:normal;font-weight:bold;font-stretch:normal;font-size:27.20832253px;line-height:125%;font-family:'Open Sans';-inkscape-font-specification:'Open Sans, Bold';text-align:start;writing-mode:lr-tb;text-anchor:start">INSTITUTO FEDERAL</tspan></text>
    <text
       transform="scale(0.98568811,1.0145197)"
       sodipodi:linespacing="125%"
       id="text3468"
       y="964.63348"
       x="467.34155"
       style="font-style:normal;font-variant:normal;font-weight:normal;font-stretch:normal;font-size:20.40616417px;line-height:125%;font-family:'Open Sans';-inkscape-font-specification:'Open Sans, Normal';text-align:start;letter-spacing:0px;word-spacing:0px;writing-mode:lr-tb;text-anchor:start;fill:#000000;fill-opacity:1;stroke:none;stroke-width:1px;stroke-linecap:butt;stroke-linejoin:miter;stroke-opacity:1"
       xml:space="preserve"><tspan
         style="font-style:normal;font-variant:normal;font-weight:normal;font-stretch:normal;font-size:20.40616417px;line-height:125%;font-family:'Open Sans';-inkscape-font-specification:'Open Sans, Normal';text-align:start;writing-mode:lr-tb;text-anchor:start"
         y="964.63348"
         x="467.34155"
         id="tspan3470"
         sodipodi:role="line">Rio Grande do Sul</tspan></text>
    <text
       xml:space="preserve"
       style="font-style:normal;font-variant:normal;font-weight:normal;font-stretch:normal;font-size:20.40616417px;line-height:125%;font-family:'Open Sans';-inkscape-font-specification:'Open Sans, Normal';text-align:start;letter-spacing:0px;word-spacing:0px;writing-mode:lr-tb;text-anchor:start;fill:#000000;fill-opacity:1;stroke:none;stroke-width:1px;stroke-linecap:butt;stroke-linejoin:miter;stroke-opacity:1"
       x="467.34155"
       y="988.62665"
       id="text3472"
       sodipodi:linespacing="125%"
       transform="scale(0.98568811,1.0145197)"><tspan
         sodipodi:role="line"
         id="tspan3474"
         x="467.34155"
         y="988.62665"
         style="font-style:normal;font-variant:normal;font-weight:normal;font-stretch:normal;font-size:20.40616417px;line-height:125%;font-family:'Open Sans';-inkscape-font-specification:'Open Sans, Normal';text-align:start;writing-mode:lr-tb;text-anchor:start">Campus Rio Grande</tspan></text>
    <g
       id="g4582"
       transform="matrix(0.3787794,0,0,0.3787794,413.45373,736.52127)">
      <path
         inkscape:export-ydpi="599.98749"
         inkscape:export-xdpi="599.98749"
         inkscape:export-filename="/home/marcio/info.png"
         inkscape:connector-curvature="0"
         id="path3089"
         d="m 269.78694,249.21014 c 0,-44.77447 0,-89.54894 0,-134.32341 -24.15043,0 -48.30087,0 -72.4513,0 0,-7.15964 0,-14.31928 0,-21.478926 32.91298,0 65.82596,0 98.73893,0 0,51.934116 0,103.868226 0,155.802336 -8.76254,0 -17.52509,0 -26.28763,0 z"
         style="font-style:normal;font-variant:normal;font-stretch:normal;font-size:144px;line-height:125%;font-family:'Source Code Pro';-inkscape-font-specification:'Source Code Pro Semi-Light';text-align:start;letter-spacing:0px;word-spacing:0px;writing-mode:lr-tb;text-anchor:start;fill:#85f611;fill-opacity:1;stroke:none" />
      <path
         inkscape:export-ydpi="599.98749"
         inkscape:export-xdpi="599.98749"
         inkscape:export-filename="/home/marcio/info.png"
         inkscape:connector-curvature="0"
         id="path3091"
         d="m 280.04265,65.154074 c -12.61621,0.77418 -24.83887,-10.01884 -24.60467,-23.5617 -1.62437,-14.8792 11.97704,-27.781561 25.89782,-26.328191 13.62382,-0.10241 25.38246,13.478471 23.2284,27.691621 -0.53421,13.20774 -12.25685,22.73266 -24.52155,22.19827 z"
         style="font-style:normal;font-variant:normal;font-stretch:normal;font-size:144px;line-height:125%;font-family:'Source Code Pro';-inkscape-font-specification:'Source Code Pro Semi-Light';text-align:start;letter-spacing:0px;word-spacing:0px;writing-mode:lr-tb;text-anchor:start;fill:#d40000;fill-opacity:1;stroke:none" />
      <path
         inkscape:export-ydpi="599.98749"
         inkscape:export-xdpi="599.98749"
         inkscape:export-filename="/home/marcio/info.png"
         inkscape:connector-curvature="0"
         id="path3093"
         style="font-style:normal;font-variant:normal;font-stretch:normal;font-size:144px;line-height:125%;font-family:'Source Code Pro';-inkscape-font-specification:'Source Code Pro Semi-Light';text-align:start;letter-spacing:0px;word-spacing:0px;writing-mode:lr-tb;text-anchor:start;fill:#18a6dc;fill-opacity:1;stroke:none"
         d="m 345.99559,249.21014 0,-155.802336 21.79951,0 2.24406,26.608216 1.28233,0 c 8.12131,-8.76241 16.88386,-16.02891 26.28763,-21.799496 9.40362,-5.7703 20.19651,-8.65553 32.37868,-8.65569 18.59356,1.6e-4 32.16482,5.34318 40.71378,16.029046 8.76239,10.47244 13.14366,26.07403 13.14381,46.80482 l 0,96.81544 -26.28763,0 0,-93.28905 c -1.4e-4,-14.74661 -2.7785,-25.64637 -8.33511,-32.69926 -5.55684,-7.26637 -14.74683,-10.89962 -27.56996,-10.89975 -4.70194,1.3e-4 -9.08321,0.6413 -13.14382,1.92349 -3.84706,1.06873 -7.69403,2.7785 -11.54091,5.12929 -3.84704,2.35106 -7.80087,5.34315 -11.86149,8.97627 -4.06076,3.41964 -8.33515,7.48033 -12.82324,12.18207 l 0,108.67694 -26.28764,0" />
      <path
         inkscape:export-ydpi="599.98749"
         inkscape:export-xdpi="599.98749"
         inkscape:export-filename="/home/marcio/info.png"
         inkscape:connector-curvature="0"
         id="path3095"
         style="font-style:normal;font-variant:normal;font-stretch:normal;font-size:144px;line-height:125%;font-family:'Source Code Pro';-inkscape-font-specification:'Source Code Pro Semi-Light';text-align:start;letter-spacing:0px;word-spacing:0px;writing-mode:lr-tb;text-anchor:start;fill:#f31161;fill-opacity:1;stroke:none"
         d="m 554.8179,249.21014 0,-134.32341 -44.56076,0 0,-19.876016 44.56076,-1.60291 0,-13.14381 c -7e-5,-19.02096 5.02236,-34.30196 15.0673,-45.84308 10.2585,-11.540691 26.18066,-17.311151 47.76656,-17.311371 15.38773,2.2e-4 30.34817,2.99231 44.88133,8.976271 l -6.09104,19.87602 c -6.4118,-2.99189 -12.39595,-4.91538 -17.95253,-5.77046 -5.34317,-1.0684 -11.43419,-1.6027 -18.27311,-1.60291 -14.1057,2.1e-4 -24.25741,3.63346 -30.45519,10.89976 -5.98429,7.05298 -8.97636,16.99096 -8.97627,29.81402 l 0,14.10556 65.39851,0 0,21.478926 -65.39851,0 0,134.32341 -25.96705,0" />
      <path
         inkscape:export-ydpi="599.98749"
         inkscape:export-xdpi="599.98749"
         inkscape:export-filename="/home/marcio/info.png"
         inkscape:connector-curvature="0"
         id="path3097"
         style="font-style:normal;font-variant:normal;font-stretch:normal;font-size:144px;line-height:125%;font-family:'Source Code Pro';-inkscape-font-specification:'Source Code Pro Semi-Light';text-align:start;letter-spacing:0px;word-spacing:0px;writing-mode:lr-tb;text-anchor:start;fill:#ff8d12;fill-opacity:1;stroke:none"
         d="m 734.46733,253.05711 c -10.25868,0 -20.0898,-1.81662 -29.49344,-5.44987 -9.19003,-3.63326 -17.31142,-8.86941 -24.36415,-15.70847 -7.05281,-7.05276 -12.7164,-15.60158 -16.99079,-25.64648 -4.06072,-10.25854 -6.09106,-21.79943 -6.09104,-34.62274 -2e-5,-13.03687 2.03032,-24.57776 6.09104,-34.62274 4.27439,-10.25848 9.93798,-18.91414 16.99079,-25.96705 7.05273,-7.05265 15.17412,-12.395636 24.36415,-16.029046 9.40364,-3.6331 19.23476,-5.44972 29.49344,-5.44988 10.25848,1.6e-4 19.98277,1.81678 29.17287,5.44988 9.40357,3.63341 17.63182,8.976396 24.68473,16.029046 7.05263,7.05291 12.60936,15.70857 16.67021,25.96705 4.27426,10.04498 6.41144,21.58587 6.41162,34.62274 -1.8e-4,12.82331 -2.13736,24.3642 -6.41162,34.62274 -4.06085,10.0449 -9.61758,18.59372 -16.67021,25.64648 -7.05291,6.83906 -15.28116,12.07521 -24.68473,15.70847 -9.1901,3.63325 -18.91439,5.44987 -29.17287,5.44987 m 0,-21.7995 c 7.48014,2e-5 14.21231,-1.38916 20.1966,-4.16755 6.19779,-2.99207 11.43394,-7.05276 15.70847,-12.18208 4.488,-5.34297 7.90753,-11.64773 10.25859,-18.91428 2.35079,-7.26643 3.52625,-15.38781 3.52639,-24.36415 -1.4e-4,-8.97617 -1.1756,-17.09756 -3.52639,-24.36415 -2.35106,-7.48011 -5.77059,-13.89173 -10.25859,-19.23485 -4.27453,-5.34289 -9.51068,-9.40358 -15.70847,-12.18208 -5.98429,-2.99195 -12.71646,-4.488 -20.1966,-4.48813 -7.48031,1.3e-4 -14.31935,1.49618 -20.51718,4.48813 -5.98424,2.7785 -11.2204,6.83919 -15.70846,12.18208 -4.27446,5.34312 -7.58713,11.75474 -9.93801,19.23485 -2.35097,7.26659 -3.52644,15.38798 -3.52639,24.36415 -5e-5,8.97634 1.17542,17.09772 3.52639,24.36415 2.35088,7.26655 5.66355,13.57131 9.93801,18.91428 4.48806,5.12932 9.72422,9.19001 15.70846,12.18208 6.19783,2.77839 13.03687,4.16757 20.51718,4.16755" />
      <g
         inkscape:export-ydpi="599.98749"
         inkscape:export-xdpi="599.98749"
         inkscape:export-filename="/home/marcio/info.png"
         transform="matrix(1.7264096,0,0,1.7264096,-2234.0272,40.819634)"
         id="g3099">
        <rect
           ry="5"
           y="77.850952"
           x="1293.2427"
           height="44.033901"
           width="44.033901"
           id="rect3101"
           style="fill:#ff8d12;fill-opacity:1;fill-rule:evenodd;stroke:none" />
        <rect
           style="fill:#18a6dc;fill-opacity:1;fill-rule:evenodd;stroke:none"
           id="rect3103"
           width="44.033901"
           height="44.033901"
           x="1339.326"
           y="31.85096"
           ry="5" />
        <rect
           ry="5"
           y="77.850952"
           x="1339.3262"
           height="44.033901"
           width="44.033901"
           id="rect3105"
           style="fill:#f31161;fill-opacity:1;fill-rule:evenodd;stroke:none" />
        <rect
           style="fill:#85f611;fill-opacity:1;fill-rule:evenodd;stroke:none"
           id="rect3107"
           width="44.033901"
           height="44.033901"
           x="1293.2427"
           y="-14.14904"
           ry="5" />
        <rect
           ry="5"
           y="77.850952"
           x="1247.1051"
           height="44.033901"
           width="44.033901"
           id="rect3109"
           style="fill:#d40000;fill-opacity:1;fill-rule:evenodd;stroke:none" />
      </g>
      <g
         id="text4324"
         style="font-style:normal;font-weight:normal;font-size:50.47404861px;line-height:125%;font-family:sans-serif;letter-spacing:0px;word-spacing:0px;fill:#000000;fill-opacity:1;stroke:none;stroke-width:1px;stroke-linecap:butt;stroke-linejoin:miter;stroke-opacity:1"
         transform="translate(-144.31399,-678.50788)">
        <path
           id="path3350"
           style="font-style:normal;font-variant:normal;font-weight:300;font-stretch:normal;font-size:50.47404861px;line-height:125%;font-family:'Open Sans';-inkscape-font-specification:'Open Sans, Light';text-align:start;writing-mode:lr-tb;text-anchor:start"
           d="m 76.886546,993.84418 -2.538489,0 0,-33.6658 -11.706628,0 0,-2.36597 25.951745,0 0,2.36597 -11.706628,0 0,33.6658 z"
           inkscape:connector-curvature="0" />
        <path
           id="path3352"
           style="font-style:normal;font-variant:normal;font-weight:300;font-stretch:normal;font-size:50.47404861px;line-height:125%;font-family:'Open Sans';-inkscape-font-specification:'Open Sans, Light';text-align:start;writing-mode:lr-tb;text-anchor:start"
           d="m 104.11986,994.33709 q -5.840993,0 -9.118848,-3.59825 -3.25321,-3.59825 -3.25321,-10.08002 0,-6.40784 3.154628,-10.25254 3.154628,-3.86935 8.50271,-3.86935 4.73194,0 7.46759,3.3025 2.73566,3.3025 2.73566,8.97097 l 0,1.97165 -19.297453,0 q 0.04929,5.52059 2.563135,8.42877 2.53849,2.90817 7.245788,2.90817 2.29203,0 4.01722,-0.32039 1.74983,-0.32039 4.41155,-1.38015 l 0,2.2181 q -2.26739,0.98582 -4.18974,1.33085 -1.92235,0.36969 -4.23903,0.36969 z m -0.71472,-25.63135 q -3.86935,0 -6.210676,2.56313 -2.341325,2.53849 -2.735654,7.34437 l 16.5618,0 q 0,-4.65801 -2.02094,-7.27043 -2.02093,-2.63707 -5.59453,-2.63707 z m -3.450376,-5.841 q 1.799126,-1.94699 3.548956,-4.21438 1.77448,-2.29204 2.41526,-3.47502 l 3.47502,0 0,0.41897 q -0.88724,1.28157 -3.0314,3.40109 -2.11951,2.11951 -4.68265,4.26367 l -1.725186,0 0,-0.39433 z"
           inkscape:connector-curvature="0" />
        <path
           id="path3354"
           style="font-style:normal;font-variant:normal;font-weight:300;font-stretch:normal;font-size:50.47404861px;line-height:125%;font-family:'Open Sans';-inkscape-font-specification:'Open Sans, Light';text-align:start;writing-mode:lr-tb;text-anchor:start"
           d="m 131.69821,994.33709 q -5.74241,0 -8.99562,-3.6229 -3.25321,-3.62289 -3.25321,-10.10466 0,-6.6543 3.37644,-10.35113 3.37644,-3.72147 9.24207,-3.72147 3.47502,0 6.6543,1.20763 l -0.66543,2.16881 q -3.47502,-1.15834 -6.03816,-1.15834 -4.9291,0 -7.46759,3.05604 -2.53849,3.0314 -2.53849,8.74917 0,5.42201 2.53849,8.5027 2.53849,3.05605 7.09791,3.05605 3.64754,0 6.77752,-1.30621 l 0,2.26739 q -2.56313,1.25692 -6.72823,1.25692 z"
           inkscape:connector-curvature="0" />
        <path
           id="path3356"
           style="font-style:normal;font-variant:normal;font-weight:300;font-stretch:normal;font-size:50.47404861px;line-height:125%;font-family:'Open Sans';-inkscape-font-specification:'Open Sans, Light';text-align:start;writing-mode:lr-tb;text-anchor:start"
           d="m 163.63882,993.84418 0,-17.3751 q 0,-4.04187 -1.70055,-5.86564 -1.70054,-1.84841 -5.27414,-1.84841 -4.80588,0 -7.04862,2.4399 -2.2181,2.41527 -2.2181,7.86193 l 0,14.78732 -2.43991,0 0,-26.7897 2.07023,0 0.46826,3.67219 0.14788,0 q 2.61242,-4.18974 9.29136,-4.18974 9.11885,0 9.11885,9.78427 l 0,17.52298 -2.41526,0 z"
           inkscape:connector-curvature="0" />
        <path
           id="path3358"
           style="font-style:normal;font-variant:normal;font-weight:300;font-stretch:normal;font-size:50.47404861px;line-height:125%;font-family:'Open Sans';-inkscape-font-specification:'Open Sans, Light';text-align:start;writing-mode:lr-tb;text-anchor:start"
           d="m 177.16921,993.84418 -2.4399,0 0,-26.7897 2.4399,0 0,26.7897 z m -2.78494,-34.23265 q 0,-2.36597 1.55267,-2.36597 0.76401,0 1.18298,0.61614 0.44362,0.61614 0.44362,1.74983 0,1.10905 -0.44362,1.74984 -0.41897,0.64078 -1.18298,0.64078 -1.55267,0 -1.55267,-2.39062 z"
           inkscape:connector-curvature="0" />
        <path
           id="path3360"
           style="font-style:normal;font-variant:normal;font-weight:300;font-stretch:normal;font-size:50.47404861px;line-height:125%;font-family:'Open Sans';-inkscape-font-specification:'Open Sans, Light';text-align:start;writing-mode:lr-tb;text-anchor:start"
           d="m 196.86099,994.33709 q -5.74241,0 -8.99562,-3.6229 -3.25321,-3.62289 -3.25321,-10.10466 0,-6.6543 3.37644,-10.35113 3.37644,-3.72147 9.24207,-3.72147 3.47502,0 6.6543,1.20763 l -0.66543,2.16881 q -3.47502,-1.15834 -6.03816,-1.15834 -4.9291,0 -7.46759,3.05604 -2.53849,3.0314 -2.53849,8.74917 0,5.42201 2.53849,8.5027 2.53849,3.05605 7.09791,3.05605 3.64754,0 6.77752,-1.30621 l 0,2.26739 q -2.56313,1.25692 -6.72823,1.25692 z"
           inkscape:connector-curvature="0" />
        <path
           id="path3362"
           style="font-style:normal;font-variant:normal;font-weight:300;font-stretch:normal;font-size:50.47404861px;line-height:125%;font-family:'Open Sans';-inkscape-font-specification:'Open Sans, Light';text-align:start;writing-mode:lr-tb;text-anchor:start"
           d="m 232.27662,980.41236 q 0,6.55571 -3.17928,10.25254 -3.17927,3.67219 -8.77381,3.67219 -3.52431,0 -6.21067,-1.70054 -2.68636,-1.70055 -4.1158,-4.87982 -1.42945,-3.17927 -1.42945,-7.34437 0,-6.55571 3.17928,-10.20325 3.17927,-3.67218 8.72452,-3.67218 5.5206,0 8.65058,3.72147 3.15463,3.69683 3.15463,10.15396 z m -21.14587,0 q 0,5.5206 2.41526,8.62594 2.43991,3.08069 6.87611,3.08069 4.43619,0 6.85145,-3.08069 2.43991,-3.10534 2.43991,-8.62594 0,-5.54524 -2.46455,-8.60129 -2.43991,-3.05604 -6.87611,-3.05604 -4.43619,0 -6.85145,3.05604 -2.39062,3.0314 -2.39062,8.60129 z"
           inkscape:connector-curvature="0" />
        <path
           id="path3364"
           style="font-style:normal;font-variant:normal;font-weight:300;font-stretch:normal;font-size:50.47404861px;line-height:125%;font-family:'Open Sans';-inkscape-font-specification:'Open Sans, Light';text-align:start;writing-mode:lr-tb;text-anchor:start"
           d="m 263.62574,994.33709 q -5.84099,0 -9.11885,-3.59825 -3.25321,-3.59825 -3.25321,-10.08002 0,-6.40784 3.15463,-10.25254 3.15463,-3.86935 8.50271,-3.86935 4.73194,0 7.46759,3.3025 2.73566,3.3025 2.73566,8.97097 l 0,1.97165 -19.29745,0 q 0.0493,5.52059 2.56313,8.42877 2.53849,2.90817 7.24579,2.90817 2.29203,0 4.01722,-0.32039 1.74983,-0.32039 4.41155,-1.38015 l 0,2.2181 q -2.26739,0.98582 -4.18974,1.33085 -1.92235,0.36969 -4.23903,0.36969 z m -0.71472,-25.63135 q -3.86935,0 -6.21068,2.56313 -2.34132,2.53849 -2.73565,7.34437 l 16.5618,0 q 0,-4.65801 -2.02094,-7.27043 -2.02093,-2.63707 -5.59453,-2.63707 z"
           inkscape:connector-curvature="0" />
        <path
           id="path3366"
           style="font-style:normal;font-variant:normal;font-weight:300;font-stretch:normal;font-size:50.47404861px;line-height:125%;font-family:'Open Sans';-inkscape-font-specification:'Open Sans, Light';text-align:start;writing-mode:lr-tb;text-anchor:start"
           d="m 313.97656,993.84418 0,-17.57227 q 0,-3.91864 -1.52802,-5.71776 -1.52802,-1.79912 -4.68265,-1.79912 -4.1158,0 -6.08745,2.26739 -1.97164,2.26738 -1.97164,7.12255 l 0,15.69921 -2.4892,0 0,-18.31163 q 0,-6.77752 -6.21067,-6.77752 -4.21439,0 -6.13674,2.46455 -1.92235,2.43991 -1.92235,7.83728 l 0,14.78732 -2.43991,0 0,-26.7897 2.02094,0 0.51755,3.67219 0.14788,0 q 1.10904,-1.99629 3.15462,-3.08069 2.04558,-1.10905 4.51014,-1.10905 6.3339,0 8.13302,4.75659 l 0.0986,0 q 1.30622,-2.29204 3.49967,-3.52432 2.2181,-1.23227 5.02769,-1.23227 4.3869,0 6.58035,2.34132 2.19346,2.34133 2.19346,7.44295 l 0,17.52298 -2.41527,0 z"
           inkscape:connector-curvature="0" />
        <path
           id="path3368"
           style="font-style:normal;font-variant:normal;font-weight:600;font-stretch:normal;font-size:50.47435379px;line-height:125%;font-family:'Open Sans';-inkscape-font-specification:'Open Sans, Semi-Bold';text-align:start;writing-mode:lr-tb;text-anchor:start"
           d="m 338.44959,993.84418 0,-36.03199 5.89032,0 0,36.03199 -5.89032,0 z"
           inkscape:connector-curvature="0" />
        <path
           id="path3370"
           style="font-style:normal;font-variant:normal;font-weight:600;font-stretch:normal;font-size:50.47435379px;line-height:125%;font-family:'Open Sans';-inkscape-font-specification:'Open Sans, Semi-Bold';text-align:start;writing-mode:lr-tb;text-anchor:start"
           d="m 377.19261,993.84418 -5.81638,0 0,-16.75907 q 0,-3.15464 -1.28158,-4.70732 -1.25693,-1.55268 -4.01725,-1.55268 -3.6722,0 -5.37275,2.16882 -1.70056,2.16882 -1.70056,7.27048 l 0,13.57977 -5.79173,0 0,-27.25813 4.5348,0 0.81331,3.57363 0.29575,0 q 1.23228,-1.94701 3.49969,-3.00677 2.2674,-1.05977 5.02771,-1.05977 9.80899,0 9.80899,9.9815 l 0,17.76954 z"
           inkscape:connector-curvature="0" />
        <path
           id="path3372"
           style="font-style:normal;font-variant:normal;font-weight:600;font-stretch:normal;font-size:50.47435379px;line-height:125%;font-family:'Open Sans';-inkscape-font-specification:'Open Sans, Semi-Bold';text-align:start;writing-mode:lr-tb;text-anchor:start"
           d="m 398.93011,970.97299 -6.65433,0 0,22.87119 -5.81638,0 0,-22.87119 -4.48552,0 0,-2.71103 4.48552,-1.77449 0,-1.77449 q 0,-4.83055 2.2674,-7.14724 2.2674,-2.34134 6.92543,-2.34134 3.05607,0 6.01355,1.01047 l -1.52803,4.38693 q -2.14418,-0.69008 -4.09119,-0.69008 -1.97165,0 -2.88354,1.23228 -0.88724,1.20764 -0.88724,3.64757 l 0,1.77448 6.65433,0 0,4.38694 z"
           inkscape:connector-curvature="0" />
        <path
           id="path3374"
           style="font-style:normal;font-variant:normal;font-weight:600;font-stretch:normal;font-size:50.47435379px;line-height:125%;font-family:'Open Sans';-inkscape-font-specification:'Open Sans, Semi-Bold';text-align:start;writing-mode:lr-tb;text-anchor:start"
           d="m 427.76553,980.16582 q 0,6.67898 -3.42575,10.42513 -3.42575,3.74614 -9.53787,3.74614 -3.82008,0 -6.75292,-1.7252 -2.93284,-1.72519 -4.51016,-4.95378 -1.57732,-3.22858 -1.57732,-7.49229 0,-6.62968 3.4011,-10.35118 3.4011,-3.7215 9.58717,-3.7215 5.91496,0 9.36536,3.82008 3.45039,3.79544 3.45039,10.2526 z m -19.83977,0 q 0,9.4393 6.97473,9.4393 6.90079,0 6.90079,-9.4393 0,-9.34071 -6.95008,-9.34071 -3.64756,0 -5.29882,2.41528 -1.62662,2.41527 -1.62662,6.92543 z"
           inkscape:connector-curvature="0" />
        <path
           id="path3376"
           style="font-style:normal;font-variant:normal;font-weight:600;font-stretch:normal;font-size:50.47435379px;line-height:125%;font-family:'Open Sans';-inkscape-font-specification:'Open Sans, Semi-Bold';text-align:start;writing-mode:lr-tb;text-anchor:start"
           d="m 448.27076,966.09314 q 1.74985,0 2.88355,0.24646 l -0.56685,5.3974 q -1.23229,-0.29575 -2.56315,-0.29575 -3.47504,0 -5.64386,2.26741 -2.14418,2.2674 -2.14418,5.89031 l 0,14.24521 -5.79173,0 0,-27.25813 4.5348,0 0.76402,4.80591 0.29575,0 q 1.35551,-2.43992 3.52433,-3.86937 2.19346,-1.42945 4.70732,-1.42945 z"
           inkscape:connector-curvature="0" />
        <path
           id="path3378"
           style="font-style:normal;font-variant:normal;font-weight:600;font-stretch:normal;font-size:50.47435379px;line-height:125%;font-family:'Open Sans';-inkscape-font-specification:'Open Sans, Semi-Bold';text-align:start;writing-mode:lr-tb;text-anchor:start"
           d="m 479.20108,993.84418 -5.81638,0 0,-16.80836 q 0,-3.13 -1.18299,-4.65803 -1.18299,-1.55268 -3.69685,-1.55268 -3.35181,0 -4.92914,2.19347 -1.55268,2.16882 -1.55268,7.24583 l 0,13.57977 -5.79173,0 0,-27.25813 4.53481,0 0.8133,3.57363 0.29575,0 q 1.1337,-1.94701 3.27788,-3.00677 2.16882,-1.05977 4.75661,-1.05977 6.28465,0 8.33024,4.28835 l 0.39433,0 q 1.20764,-2.02095 3.40111,-3.15465 2.19346,-1.1337 5.02772,-1.1337 4.87984,0 7.09795,2.46457 2.24276,2.46457 2.24276,7.51693 l 0,17.76954 -5.79174,0 0,-16.80836 q 0,-3.13 -1.20763,-4.65803 -1.183,-1.55268 -3.69686,-1.55268 -3.37645,0 -4.95378,2.11953 -1.55268,2.09488 -1.55268,6.45717 l 0,14.44237 z"
           inkscape:connector-curvature="0" />
        <path
           id="path3380"
           style="font-style:normal;font-variant:normal;font-weight:600;font-stretch:normal;font-size:50.47435379px;line-height:125%;font-family:'Open Sans';-inkscape-font-specification:'Open Sans, Semi-Bold';text-align:start;writing-mode:lr-tb;text-anchor:start"
           d="m 521.59166,993.84418 -1.15834,-3.79544 -0.19717,0 q -1.97165,2.48922 -3.96795,3.40111 -1.9963,0.88724 -5.12631,0.88724 -4.01724,0 -6.28464,-2.16882 -2.24276,-2.16882 -2.24276,-6.13677 0,-4.21441 3.13,-6.35859 3.13,-2.14417 9.53788,-2.34134 l 4.70732,-0.14787 0,-1.4541 q 0,-2.61244 -1.23228,-3.89402 -1.20764,-1.30622 -3.77079,-1.30622 -2.09488,0 -4.01725,0.61615 -1.92236,0.61614 -3.69685,1.45409 l -1.87307,-4.14047 q 2.21811,-1.15835 4.8552,-1.74985 2.63709,-0.61614 4.97843,-0.61614 5.20024,0 7.83732,2.2674 2.66174,2.26741 2.66174,7.12261 l 0,18.36103 -4.14048,0 z m -8.62599,-3.94331 q 3.15465,0 5.05237,-1.74984 1.92236,-1.77449 1.92236,-4.95379 l 0,-2.36598 -3.49968,0.14787 q -4.09119,0.14788 -5.96426,1.38016 -1.84843,1.20764 -1.84843,3.7215 0,1.82378 1.08441,2.83425 1.08441,0.98583 3.25323,0.98583 z m -1.77448,-26.64198 0,-0.61614 q 1.4048,-1.7252 2.88354,-3.84473 1.50339,-2.11953 2.36599,-3.62292 l 6.72827,0 0,0.51756 q -1.28158,1.50339 -3.84473,3.89402 -2.5385,2.36599 -4.28835,3.67221 l -3.84472,0 z"
           inkscape:connector-curvature="0" />
        <path
           id="path3382"
           style="font-style:normal;font-variant:normal;font-weight:600;font-stretch:normal;font-size:50.47435379px;line-height:125%;font-family:'Open Sans';-inkscape-font-specification:'Open Sans, Semi-Bold';text-align:start;writing-mode:lr-tb;text-anchor:start"
           d="m 543.96993,989.65441 q 2.11952,0 4.23905,-0.66543 l 0,4.36228 q -0.96118,0.41898 -2.48921,0.69008 -1.50339,0.29575 -3.13,0.29575 -8.23166,0 -8.23166,-8.67528 l 0,-14.68882 -3.7215,0 0,-2.56316 3.9926,-2.11952 1.97166,-5.76709 3.57362,0 0,6.06283 7.76339,0 0,4.38694 -7.76339,0 0,14.59024 q 0,2.09488 1.03512,3.10535 1.05976,0.98583 2.76032,0.98583 z"
           inkscape:connector-curvature="0" />
        <path
           id="path3384"
           style="font-style:normal;font-variant:normal;font-weight:600;font-stretch:normal;font-size:50.47435379px;line-height:125%;font-family:'Open Sans';-inkscape-font-specification:'Open Sans, Semi-Bold';text-align:start;writing-mode:lr-tb;text-anchor:start"
           d="m 559.42276,993.84418 -5.79173,0 0,-27.25813 5.79173,0 0,27.25813 z m -6.13677,-34.47931 q 0,-1.55268 0.83795,-2.39063 0.8626,-0.83795 2.43993,-0.83795 1.52803,0 2.36598,0.83795 0.8626,0.83795 0.8626,2.39063 0,1.47874 -0.8626,2.34134 -0.83795,0.83795 -2.36598,0.83795 -1.57733,0 -2.43993,-0.83795 -0.83795,-0.8626 -0.83795,-2.34134 z"
           inkscape:connector-curvature="0" />
        <path
           id="path3386"
           style="font-style:normal;font-variant:normal;font-weight:600;font-stretch:normal;font-size:50.47435379px;line-height:125%;font-family:'Open Sans';-inkscape-font-specification:'Open Sans, Semi-Bold';text-align:start;writing-mode:lr-tb;text-anchor:start"
           d="m 578.72032,994.33709 q -6.18606,0 -9.41465,-3.59827 -3.20394,-3.62291 -3.20394,-10.37583 0,-6.87614 3.35182,-10.573 3.37646,-3.69685 9.73504,-3.69685 4.313,0 7.76339,1.60197 l -1.74984,4.65803 q -3.67221,-1.42945 -6.06284,-1.42945 -7.07331,0 -7.07331,9.39001 0,4.5841 1.74984,6.90079 1.77449,2.29205 5.1756,2.29205 3.86937,0 7.31976,-1.92237 l 0,5.05237 q -1.55268,0.91189 -3.32716,1.30622 -1.74985,0.39433 -4.26371,0.39433 z"
           inkscape:connector-curvature="0" />
        <path
           id="path3388"
           style="font-style:normal;font-variant:normal;font-weight:600;font-stretch:normal;font-size:50.47435379px;line-height:125%;font-family:'Open Sans';-inkscape-font-specification:'Open Sans, Semi-Bold';text-align:start;writing-mode:lr-tb;text-anchor:start"
           d="m 609.82317,993.84418 -1.15835,-3.79544 -0.19716,0 q -1.97166,2.48922 -3.96796,3.40111 -1.9963,0.88724 -5.1263,0.88724 -4.01725,0 -6.28465,-2.16882 -2.24275,-2.16882 -2.24275,-6.13677 0,-4.21441 3.13,-6.35859 3.13,-2.14417 9.53787,-2.34134 l 4.70733,-0.14787 0,-1.4541 q 0,-2.61244 -1.23228,-3.89402 -1.20764,-1.30622 -3.77079,-1.30622 -2.09489,0 -4.01725,0.61615 -1.92236,0.61614 -3.69685,1.45409 l -1.87307,-4.14047 q 2.21811,-1.15835 4.8552,-1.74985 2.63708,-0.61614 4.97842,-0.61614 5.20024,0 7.83733,2.2674 2.66173,2.26741 2.66173,7.12261 l 0,18.36103 -4.14047,0 z m -8.62599,-3.94331 q 3.15465,0 5.05237,-1.74984 1.92236,-1.77449 1.92236,-4.95379 l 0,-2.36598 -3.49969,0.14787 q -4.09118,0.14788 -5.96425,1.38016 -1.84843,1.20764 -1.84843,3.7215 0,1.82378 1.08441,2.83425 1.08441,0.98583 3.25323,0.98583 z"
           inkscape:connector-curvature="0" />
        <path
           id="path3390"
           style="font-style:normal;font-variant:normal;font-weight:600;font-stretch:normal;font-size:50.47435379px;line-height:125%;font-family:'Open Sans';-inkscape-font-specification:'Open Sans, Semi-Bold';text-align:start;writing-mode:lr-tb;text-anchor:start"
           d="m 648.98515,994.33709 q -5.17559,0 -8.03449,-3.7215 l -0.34504,0 q 0.34504,3.4504 0.34504,4.18977 l 0,11.16454 -5.79174,0 0,-39.38385 4.68268,0 q 0.19717,0.76402 0.81331,3.64757 l 0.29575,0 q 2.71102,-4.14048 8.13307,-4.14048 5.10166,0 7.93591,3.69685 2.8589,3.69686 2.8589,10.37583 0,6.67898 -2.90819,10.42513 -2.88355,3.74614 -7.9852,3.74614 z m -1.4048,-23.51198 q -3.4504,0 -5.05237,2.02095 -1.57732,2.02094 -1.57732,6.45717 l 0,0.86259 q 0,4.97843 1.57732,7.22119 1.57732,2.21811 5.15095,2.21811 3.00677,0 4.63339,-2.46457 1.62661,-2.46457 1.62661,-7.02402 0,-4.58409 -1.62661,-6.92543 -1.60197,-2.36599 -4.73197,-2.36599 z"
           inkscape:connector-curvature="0" />
        <path
           id="path3392"
           style="font-style:normal;font-variant:normal;font-weight:600;font-stretch:normal;font-size:50.47435379px;line-height:125%;font-family:'Open Sans';-inkscape-font-specification:'Open Sans, Semi-Bold';text-align:start;writing-mode:lr-tb;text-anchor:start"
           d="m 683.66167,993.84418 -1.15835,-3.79544 -0.19716,0 q -1.97166,2.48922 -3.96796,3.40111 -1.9963,0.88724 -5.1263,0.88724 -4.01724,0 -6.28465,-2.16882 -2.24275,-2.16882 -2.24275,-6.13677 0,-4.21441 3.13,-6.35859 3.13,-2.14417 9.53788,-2.34134 l 4.70732,-0.14787 0,-1.4541 q 0,-2.61244 -1.23228,-3.89402 -1.20764,-1.30622 -3.77079,-1.30622 -2.09489,0 -4.01725,0.61615 -1.92236,0.61614 -3.69685,1.45409 l -1.87307,-4.14047 q 2.21811,-1.15835 4.8552,-1.74985 2.63708,-0.61614 4.97842,-0.61614 5.20024,0 7.83733,2.2674 2.66173,2.26741 2.66173,7.12261 l 0,18.36103 -4.14047,0 z m -8.62599,-3.94331 q 3.15465,0 5.05237,-1.74984 1.92236,-1.77449 1.92236,-4.95379 l 0,-2.36598 -3.49969,0.14787 q -4.09118,0.14788 -5.96425,1.38016 -1.84843,1.20764 -1.84843,3.7215 0,1.82378 1.08441,2.83425 1.08441,0.98583 3.25323,0.98583 z"
           inkscape:connector-curvature="0" />
        <path
           id="path3394"
           style="font-style:normal;font-variant:normal;font-weight:600;font-stretch:normal;font-size:50.47435379px;line-height:125%;font-family:'Open Sans';-inkscape-font-specification:'Open Sans, Semi-Bold';text-align:start;writing-mode:lr-tb;text-anchor:start"
           d="m 709.71214,966.09314 q 1.74984,0 2.88354,0.24646 l -0.56685,5.3974 q -1.23228,-0.29575 -2.56315,-0.29575 -3.47504,0 -5.64386,2.26741 -2.14417,2.2674 -2.14417,5.89031 l 0,14.24521 -5.79174,0 0,-27.25813 4.53481,0 0.76401,4.80591 0.29575,0 q 1.35551,-2.43992 3.52433,-3.86937 2.19347,-1.42945 4.70733,-1.42945 z"
           inkscape:connector-curvature="0" />
        <path
           id="path3396"
           style="font-style:normal;font-variant:normal;font-weight:600;font-stretch:normal;font-size:50.47435379px;line-height:125%;font-family:'Open Sans';-inkscape-font-specification:'Open Sans, Semi-Bold';text-align:start;writing-mode:lr-tb;text-anchor:start"
           d="m 734.72747,993.84418 -1.15835,-3.79544 -0.19717,0 q -1.97165,2.48922 -3.96795,3.40111 -1.9963,0.88724 -5.1263,0.88724 -4.01725,0 -6.28465,-2.16882 -2.24276,-2.16882 -2.24276,-6.13677 0,-4.21441 3.13,-6.35859 3.13,-2.14417 9.53788,-2.34134 l 4.70733,-0.14787 0,-1.4541 q 0,-2.61244 -1.23229,-3.89402 -1.20764,-1.30622 -3.77079,-1.30622 -2.09488,0 -4.01724,0.61615 -1.92237,0.61614 -3.69685,1.45409 l -1.87308,-4.14047 q 2.21812,-1.15835 4.8552,-1.74985 2.63709,-0.61614 4.97843,-0.61614 5.20024,0 7.83733,2.2674 2.66173,2.26741 2.66173,7.12261 l 0,18.36103 -4.14047,0 z m -8.62599,-3.94331 q 3.15464,0 5.05236,-1.74984 1.92237,-1.77449 1.92237,-4.95379 l 0,-2.36598 -3.49969,0.14787 q -4.09118,0.14788 -5.96426,1.38016 -1.84842,1.20764 -1.84842,3.7215 0,1.82378 1.08441,2.83425 1.08441,0.98583 3.25323,0.98583 z"
           inkscape:connector-curvature="0" />
        <path
           id="path3398"
           style="font-style:normal;font-variant:normal;font-weight:600;font-stretch:normal;font-size:50.47435379px;line-height:125%;font-family:'Open Sans';-inkscape-font-specification:'Open Sans, Semi-Bold';text-align:start;writing-mode:lr-tb;text-anchor:start"
           d="m 760.67942,993.84418 0,-36.03199 5.89032,0 0,36.03199 -5.89032,0 z"
           inkscape:connector-curvature="0" />
        <path
           id="path3400"
           style="font-style:normal;font-variant:normal;font-weight:600;font-stretch:normal;font-size:50.47435379px;line-height:125%;font-family:'Open Sans';-inkscape-font-specification:'Open Sans, Semi-Bold';text-align:start;writing-mode:lr-tb;text-anchor:start"
           d="m 799.42243,993.84418 -5.81638,0 0,-16.75907 q 0,-3.15464 -1.28157,-4.70732 -1.25693,-1.55268 -4.01725,-1.55268 -3.6722,0 -5.37276,2.16882 -1.70055,2.16882 -1.70055,7.27048 l 0,13.57977 -5.79173,0 0,-27.25813 4.5348,0 0.81331,3.57363 0.29575,0 q 1.23228,-1.94701 3.49968,-3.00677 2.26741,-1.05977 5.02772,-1.05977 9.80898,0 9.80898,9.9815 l 0,17.76954 z"
           inkscape:connector-curvature="0" />
        <path
           id="path3402"
           style="font-style:normal;font-variant:normal;font-weight:600;font-stretch:normal;font-size:50.47435379px;line-height:125%;font-family:'Open Sans';-inkscape-font-specification:'Open Sans, Semi-Bold';text-align:start;writing-mode:lr-tb;text-anchor:start"
           d="m 817.63557,989.65441 q 2.11953,0 4.23906,-0.66543 l 0,4.36228 q -0.96118,0.41898 -2.48921,0.69008 -1.50339,0.29575 -3.13,0.29575 -8.23166,0 -8.23166,-8.67528 l 0,-14.68882 -3.7215,0 0,-2.56316 3.9926,-2.11952 1.97166,-5.76709 3.57362,0 0,6.06283 7.76339,0 0,4.38694 -7.76339,0 0,14.59024 q 0,2.09488 1.03512,3.10535 1.05976,0.98583 2.76031,0.98583 z"
           inkscape:connector-curvature="0" />
        <path
           id="path3404"
           style="font-style:normal;font-variant:normal;font-weight:600;font-stretch:normal;font-size:50.47435379px;line-height:125%;font-family:'Open Sans';-inkscape-font-specification:'Open Sans, Semi-Bold';text-align:start;writing-mode:lr-tb;text-anchor:start"
           d="m 839.20054,994.33709 q -6.35858,0 -9.95685,-3.69685 -3.57363,-3.7215 -3.57363,-10.22796 0,-6.67898 3.32717,-10.49906 3.32717,-3.82008 9.14355,-3.82008 5.3974,0 8.5274,3.27788 3.13,3.27787 3.13,9.02032 l 0,3.13 -18.16386,0 q 0.12323,3.96795 2.14417,6.11213 2.02095,2.11952 5.69315,2.11952 2.41528,0 4.48552,-0.44362 2.09488,-0.46827 4.48551,-1.52803 l 0,4.70732 q -2.11953,1.01048 -4.28835,1.42945 -2.16882,0.41898 -4.95378,0.41898 z m -1.05976,-23.85702 q -2.76032,0 -4.43622,1.74985 -1.65127,1.74984 -1.97166,5.10165 l 12.37213,0 q -0.0493,-3.37646 -1.62661,-5.10165 -1.57733,-1.74985 -4.33764,-1.74985 z"
           inkscape:connector-curvature="0" />
        <path
           id="path3406"
           style="font-style:normal;font-variant:normal;font-weight:600;font-stretch:normal;font-size:50.47435379px;line-height:125%;font-family:'Open Sans';-inkscape-font-specification:'Open Sans, Semi-Bold';text-align:start;writing-mode:lr-tb;text-anchor:start"
           d="m 870.20481,966.09314 q 1.74985,0 2.88355,0.24646 l -0.56685,5.3974 q -1.23229,-0.29575 -2.56315,-0.29575 -3.47504,0 -5.64386,2.26741 -2.14418,2.2674 -2.14418,5.89031 l 0,14.24521 -5.79173,0 0,-27.25813 4.5348,0 0.76402,4.80591 0.29575,0 q 1.35551,-2.43992 3.52433,-3.86937 2.19347,-1.42945 4.70732,-1.42945 z"
           inkscape:connector-curvature="0" />
        <path
           id="path3408"
           style="font-style:normal;font-variant:normal;font-weight:600;font-stretch:normal;font-size:50.47435379px;line-height:125%;font-family:'Open Sans';-inkscape-font-specification:'Open Sans, Semi-Bold';text-align:start;writing-mode:lr-tb;text-anchor:start"
           d="m 902.14558,993.84418 -5.81638,0 0,-16.75907 q 0,-3.15464 -1.28158,-4.70732 -1.25693,-1.55268 -4.01724,-1.55268 -3.67221,0 -5.37276,2.16882 -1.70055,2.16882 -1.70055,7.27048 l 0,13.57977 -5.79174,0 0,-27.25813 4.53481,0 0.8133,3.57363 0.29575,0 q 1.23229,-1.94701 3.49969,-3.00677 2.2674,-1.05977 5.02772,-1.05977 9.80898,0 9.80898,9.9815 l 0,17.76954 z"
           inkscape:connector-curvature="0" />
        <path
           id="path3410"
           style="font-style:normal;font-variant:normal;font-weight:600;font-stretch:normal;font-size:50.47435379px;line-height:125%;font-family:'Open Sans';-inkscape-font-specification:'Open Sans, Semi-Bold';text-align:start;writing-mode:lr-tb;text-anchor:start"
           d="m 922.10862,994.33709 q -6.35858,0 -9.95685,-3.69685 -3.57363,-3.7215 -3.57363,-10.22796 0,-6.67898 3.32717,-10.49906 3.32717,-3.82008 9.14355,-3.82008 5.3974,0 8.5274,3.27788 3.13001,3.27787 3.13001,9.02032 l 0,3.13 -18.16387,0 q 0.12323,3.96795 2.14417,6.11213 2.02095,2.11952 5.69316,2.11952 2.41527,0 4.48551,-0.44362 2.09488,-0.46827 4.48551,-1.52803 l 0,4.70732 q -2.11952,1.01048 -4.28834,1.42945 -2.16882,0.41898 -4.95379,0.41898 z m -1.05976,-23.85702 q -2.76032,0 -4.43622,1.74985 -1.65126,1.74984 -1.97166,5.10165 l 12.37213,0 q -0.0493,-3.37646 -1.62661,-5.10165 -1.57732,-1.74985 -4.33764,-1.74985 z"
           inkscape:connector-curvature="0" />
        <path
           id="path3412"
           style="font-style:normal;font-variant:normal;font-weight:600;font-stretch:normal;font-size:50.47435379px;line-height:125%;font-family:'Open Sans';-inkscape-font-specification:'Open Sans, Semi-Bold';text-align:start;writing-mode:lr-tb;text-anchor:start"
           d="m 949.44069,989.65441 q 2.11953,0 4.23906,-0.66543 l 0,4.36228 q -0.96119,0.41898 -2.48922,0.69008 -1.50338,0.29575 -3.13,0.29575 -8.23166,0 -8.23166,-8.67528 l 0,-14.68882 -3.72149,0 0,-2.56316 3.9926,-2.11952 1.97165,-5.76709 3.57362,0 0,6.06283 7.76339,0 0,4.38694 -7.76339,0 0,14.59024 q 0,2.09488 1.03512,3.10535 1.05977,0.98583 2.76032,0.98583 z"
           inkscape:connector-curvature="0" />
      </g>
    </g>
  </g>
</svg>
