<?xml version="1.0" encoding="UTF-8" standalone="no"?>
<!-- Created with Inkscape (http://www.inkscape.org/) -->

<svg
   xmlns:dc="http://purl.org/dc/elements/1.1/"
   xmlns:cc="http://creativecommons.org/ns#"
   xmlns:rdf="http://www.w3.org/1999/02/22-rdf-syntax-ns#"
   xmlns:svg="http://www.w3.org/2000/svg"
   xmlns="http://www.w3.org/2000/svg"
   xmlns:xlink="http://www.w3.org/1999/xlink"
   xmlns:sodipodi="http://sodipodi.sourceforge.net/DTD/sodipodi-0.dtd"
   xmlns:inkscape="http://www.inkscape.org/namespaces/inkscape"
   width="744.09003"
   height="1052.36"
   id="svg3684"
   version="1.1"
   inkscape:version="0.48.4 r9939"
   sodipodi:docname="camisetas-2016.svg"
   inkscape:export-filename="/home/jaspion/camisetas-2016.png"
   inkscape:export-xdpi="119.99201"
   inkscape:export-ydpi="119.99201">
  <defs
     id="defs3686">
    <path
       style="fill:#ffffff"
       inkscape:connector-curvature="0"
       d="m -744.1338,917.03908 c -10.6421,-29.9386 -12.60804,-62.62378 -5.34035,-93.49497 9.19663,-39.79193 33.46284,-76.27196 67.45339,-100.90018 22.77325,-16.85248 49.95614,-27.95923 78.23816,-32.87937 44.3423,-7.87217 91.59063,1.20555 129.55629,24.41537 33.04212,19.92546 59.22952,50.27895 72.77086,85.37256 9.28408,22.80352 13.07843,47.58333 11.65088,71.98473 -2.17364,36.06048 -16.52279,71.31919 -40.30579,99.371 -23.00619,27.51278 -55.07422,47.84598 -90.4065,57.71638 -35.55262,9.9147 -74.33774,9.2746 -109.37451,-2.3117 -53.05797,-16.8499 -96.85009,-58.39863 -114.24243,-109.27382 m 73.78648,59.49198 c -2.49384,6.91086 -5.2799,13.71769 -7.69487,20.64953 6.33828,-4.13591 12.66909,-8.29771 18.9467,-12.54298 5.95913,4.50164 12.01771,8.89351 18.13886,13.19925 -1.99245,-7.16285 -4.12014,-14.29004 -6.2885,-21.4065 6.40318,-4.26444 13.01169,-8.22089 19.22448,-12.74156 -7.80503,-0.5471 -15.6457,-0.20738 -23.45402,-0.61433 -1.99662,-6.92498 -3.88121,-13.86555 -6.22607,-20.6848 -2.72443,6.81844 -5.16647,13.75741 -7.60245,20.66693 -7.86627,-0.002 -15.74514,-0.0976 -23.60672,-0.18411 6.01649,4.75115 12.39996,9.05737 18.56259,13.65857 m -1.15176,-70.37895 c 9.0248,18.72143 24.17576,34.49101 42.45318,45.34174 21.24359,12.29729 46.87055,17.77062 71.52909,14.52986 28.67102,-3.2678 55.52645,-18.18795 73.08424,-40.04451 16.19302,-19.76979 24.39613,-45.27474 22.96938,-70.33044 -1.56335,-23.30662 -10.86141,-46.25965 -27.09639,-63.81869 -19.90314,-21.99605 -49.70692,-35.33777 -80.08801,-36.13176 -22.96248,-0.57677 -46.13906,5.78311 -65.07735,18.25425 -25.77417,16.59893 -43.42026,44.16123 -47.32358,73.61634 -2.80516,19.87595 0.71592,40.42416 9.54944,58.58321 m -12.53947,-120.63639 c 6.13511,4.45527 12.16097,9.03682 18.42495,13.33276 -2.31867,-7.13256 -4.23487,-14.38513 -6.37763,-21.56407 6.31919,-4.35372 12.76811,-8.56058 19.30241,-12.62282 -7.61733,-0.80549 -15.29927,-0.52152 -22.9466,-0.62274 -3.07677,-6.93273 -4.77176,-14.32717 -6.794,-21.59358 -2.67174,7.15273 -5.2436,14.34877 -7.94988,21.48275 -7.86575,-0.25254 -15.7512,-0.0682 -23.62539,-0.24884 6.20698,4.60344 12.4569,9.15379 18.78294,13.61443 -2.69597,6.86664 -5.14409,13.83508 -7.87086,20.69591 6.44701,-4.01137 12.66024,-8.37894 19.05406,-12.4738 m 220.55457,160.67977 c -2.75386,6.86796 -5.17723,13.87167 -7.89282,20.77133 6.42793,-4.22918 12.64678,-8.77929 19.39623,-12.55005 6.14163,4.57889 12.31641,9.12117 18.53041,13.59743 -2.13844,-7.41684 -4.25962,-14.82429 -6.42521,-22.23398 6.29722,-4.2783 12.72187,-8.36733 19.07229,-12.56215 -7.92505,-0.30657 -15.85197,-0.41764 -23.77614,-0.41802 -2.14319,-6.92812 -3.85691,-13.98337 -6.29793,-20.83298 -2.7305,6.84789 -5.19963,13.79401 -7.57634,20.75754 -7.90497,-0.1865 -15.81697,-0.24579 -23.72247,-0.18145 6.28541,4.47135 12.45551,9.09844 18.6919,13.65235 m -37.07263,-171.92734 c 6.46941,-3.93371 12.63456,-8.31647 18.97656,-12.43945 5.99645,4.63109 12.26043,8.92703 18.32924,13.45548 -2.13524,-7.15306 -4.04402,-14.37974 -6.83883,-21.34501 6.57593,-4.57459 13.59944,-8.55687 19.94297,-13.43233 -7.93212,0.22456 -15.87678,-0.0489 -23.81863,-0.21182 -1.83931,-7.03607 -4.05761,-13.97225 -6.2083,-20.92625 -2.65397,6.91127 -5.14269,13.89042 -7.60435,20.86243 -7.79347,0.0488 -15.58547,-0.25111 -23.38083,-0.007 5.95583,4.64179 12.19272,8.94488 18.23447,13.48045 -2.42617,6.89301 -5.14078,13.69493 -7.6323,20.56339 z"
       id="path3149" />
  </defs>
  <sodipodi:namedview
     id="base"
     pagecolor="#ffffff"
     bordercolor="#666666"
     borderopacity="1.0"
     inkscape:pageopacity="0.0"
     inkscape:pageshadow="2"
     inkscape:zoom="0.55209129"
     inkscape:cx="352.123"
     inkscape:cy="546.10533"
     inkscape:document-units="px"
     inkscape:current-layer="layer1"
     showgrid="false"
     inkscape:window-width="1366"
     inkscape:window-height="714"
     inkscape:window-x="0"
     inkscape:window-y="30"
     inkscape:window-maximized="1" />
  <metadata
     id="metadata3689">
    <rdf:RDF>
      <cc:Work
         rdf:about="">
        <dc:format>image/svg+xml</dc:format>
        <dc:type
           rdf:resource="http://purl.org/dc/dcmitype/StillImage" />
        <dc:title></dc:title>
      </cc:Work>
    </rdf:RDF>
  </metadata>
  <g
     inkscape:label="Camada 1"
     inkscape:groupmode="layer"
     id="layer1"
     transform="translate(0,-0.00218262)">
    <rect
       style="fill:#ffffff;stroke:none;fill-opacity:1"
       id="rect4756"
       width="744.09003"
       height="1052.36"
       x="0"
       y="0.0021826201" />
    <path
       inkscape:export-ydpi="72"
       inkscape:export-xdpi="72"
       inkscape:export-filename="/home/jaspion/camisetas.png"
       sodipodi:nodetypes="ccccccccccccc"
       inkscape:connector-curvature="0"
       id="path3635"
       d="m 192.561,546.62391 0,0.68725 -115.76591,63.04637 59.2484,96.79409 56.51751,-30.78168 0,324.47356 352.03607,0 0,-324.76292 57.0419,31.07104 59.2484,-96.79409 -116.2903,-63.33574 0,-0.39788 c -125.48856,0.66456 -258.35838,0.46698 -352.03607,0 z"
       style="fill:#000020;fill-opacity:1;stroke:#000000;stroke-width:0.57873893" />
    <g
       id="g3728"
       transform="matrix(0.60680038,0,0,0.60680038,335.8812,337.10052)">
      <rect
         style="fill:#d40000;fill-rule:evenodd;stroke:none"
         id="rect2997"
         width="12.342552"
         height="12.342552"
         x="39.316368"
         y="369.36652"
         ry="6.1712761"
         inkscape:export-filename="/home/jaspion/hub/ifrs-todo.png"
         inkscape:export-xdpi="100"
         inkscape:export-ydpi="100" />
      <rect
         ry="2.758527"
         y="369.36652"
         x="52.558056"
         height="12.342552"
         width="12.342552"
         id="rect2999"
         style="fill:#339900;fill-rule:evenodd;stroke:none"
         inkscape:export-filename="/home/jaspion/hub/ifrs-todo.png"
         inkscape:export-xdpi="100"
         inkscape:export-ydpi="100" />
      <rect
         style="fill:#339900;fill-rule:evenodd;stroke:none"
         id="rect3001"
         width="12.342552"
         height="12.342552"
         x="65.799744"
         y="369.36652"
         ry="2.758527"
         inkscape:export-filename="/home/jaspion/hub/ifrs-todo.png"
         inkscape:export-xdpi="100"
         inkscape:export-ydpi="100" />
      <rect
         ry="2.758527"
         y="382.60822"
         x="39.316368"
         height="12.342552"
         width="12.342552"
         id="rect3003"
         style="fill:#339900;fill-rule:evenodd;stroke:none"
         inkscape:export-filename="/home/jaspion/hub/ifrs-todo.png"
         inkscape:export-xdpi="100"
         inkscape:export-ydpi="100" />
      <rect
         style="fill:#339900;fill-rule:evenodd;stroke:none"
         id="rect3005"
         width="12.342552"
         height="12.342552"
         x="52.558056"
         y="382.60822"
         ry="2.758527"
         inkscape:export-filename="/home/jaspion/hub/ifrs-todo.png"
         inkscape:export-xdpi="100"
         inkscape:export-ydpi="100" />
      <rect
         ry="2.758527"
         y="395.84991"
         x="39.316368"
         height="12.342552"
         width="12.342552"
         id="rect3007"
         style="fill:#339900;fill-rule:evenodd;stroke:none"
         inkscape:export-filename="/home/jaspion/hub/ifrs-todo.png"
         inkscape:export-xdpi="100"
         inkscape:export-ydpi="100" />
      <rect
         style="fill:#339900;fill-rule:evenodd;stroke:none"
         id="rect3009"
         width="12.342552"
         height="12.342552"
         x="52.558056"
         y="395.84991"
         ry="2.758527"
         inkscape:export-filename="/home/jaspion/hub/ifrs-todo.png"
         inkscape:export-xdpi="100"
         inkscape:export-ydpi="100" />
      <rect
         ry="2.758527"
         y="395.84991"
         x="65.799744"
         height="12.342552"
         width="12.342552"
         id="rect3011"
         style="fill:#339900;fill-rule:evenodd;stroke:none"
         inkscape:export-filename="/home/jaspion/hub/ifrs-todo.png"
         inkscape:export-xdpi="100"
         inkscape:export-ydpi="100" />
      <rect
         style="fill:#339900;fill-rule:evenodd;stroke:none"
         id="rect3013"
         width="12.342552"
         height="12.342552"
         x="39.316368"
         y="409.09158"
         ry="2.758527"
         inkscape:export-filename="/home/jaspion/hub/ifrs-todo.png"
         inkscape:export-xdpi="100"
         inkscape:export-ydpi="100" />
      <rect
         ry="2.758527"
         y="409.09158"
         x="52.558056"
         height="12.342552"
         width="12.342552"
         id="rect3015"
         style="fill:#339900;fill-rule:evenodd;stroke:none"
         inkscape:export-filename="/home/jaspion/hub/ifrs-todo.png"
         inkscape:export-xdpi="100"
         inkscape:export-ydpi="100" />
      <text
         sodipodi:linespacing="125%"
         id="text3017"
         y="442.73102"
         x="37.419159"
         style="font-size:27.8803463px;font-style:normal;font-variant:normal;font-weight:normal;font-stretch:normal;text-align:start;line-height:125%;letter-spacing:0px;word-spacing:0px;writing-mode:lr-tb;text-anchor:start;fill:#d40000;fill-opacity:1;stroke:none;font-family:Arial Black;-inkscape-font-specification:'Arial Black,'"
         xml:space="preserve"><tspan
           y="442.73102"
           x="37.419159"
           id="tspan3019"
           sodipodi:role="line">RS</tspan></text>
    </g>
    <path
       style="fill:#000020;fill-opacity:1;stroke:#000000;stroke-width:0.57873893"
       d="m 434.92604,48.09961 c -6.38309,-0.006 -12.34612,0 -17.65154,0.0179 -53.85154,71.73203 -102.11131,1.0128 -102.11131,1.0128 l -122.60219,-0.5064 0,0.68725 -115.76591,63.04637 59.2484,96.79409 56.51751,-30.78168 0,324.47355 352.03607,0 0,-324.76291 57.0419,31.07104 59.2484,-96.79409 -116.2903,-63.33574 0,-0.39788 c 0,0 -64.98955,-0.48776 -109.67103,-0.52451 z"
       id="path3742"
       inkscape:connector-curvature="0"
       sodipodi:nodetypes="sccccccccccccccs"
       inkscape:export-filename="/home/jaspion/camisetas.png"
       inkscape:export-xdpi="72"
       inkscape:export-ydpi="72" />
    <g
       id="g4589"
       transform="matrix(0.18584363,-0.28546415,0.28546415,0.18584363,435.1932,286.84642)">
      <g
         style="font-size:144px;font-style:normal;font-variant:normal;font-stretch:normal;text-align:start;line-height:125%;letter-spacing:0px;word-spacing:0px;writing-mode:lr-tb;text-anchor:start;fill:#6699cc;fill-opacity:1;stroke:none;font-family:Source Code Pro;-inkscape-font-specification:Source Code Pro Semi-Light"
         transform="matrix(0.59908977,0,0,0.59908977,350.16441,-71.842408)"
         id="g3087">
        <path
           style="font-size:144px;font-style:normal;font-variant:normal;font-stretch:normal;text-align:start;line-height:125%;writing-mode:lr-tb;text-anchor:start;fill:#6699cc;fill-opacity:1;font-family:Source Code Pro;-inkscape-font-specification:Source Code Pro Semi-Light"
           d="m 409.91983,422.56601 c 0,-20.112 0,-40.224 0,-60.336 -10.848,0 -21.696,0 -32.544,0 0,-3.216 0,-6.432 0,-9.648 14.784,0 29.568,0 44.352,0 0,23.328 0,46.656 0,69.984 -3.936,0 -7.872,0 -11.808,0 z"
           id="path3089"
           inkscape:connector-curvature="0" />
        <path
           style="font-size:144px;font-style:normal;font-variant:normal;font-stretch:normal;text-align:start;line-height:125%;writing-mode:lr-tb;text-anchor:start;fill:#6699cc;fill-opacity:1;font-family:Source Code Pro;-inkscape-font-specification:Source Code Pro Semi-Light"
           d="m 414.52654,339.89087 c -5.66701,0.34775 -11.15724,-4.50031 -11.05204,-10.58355 -0.72964,-6.68351 5.3799,-12.47905 11.6329,-11.82622 6.11961,-0.046 11.40141,6.05432 10.43384,12.43865 -0.23996,5.93271 -5.50559,10.21116 -11.0147,9.97112 z"
           id="path3091"
           inkscape:connector-curvature="0" />
        <path
           d="m 444.15158,422.56601 0,-69.984 9.792,0 1.008,11.952 0.576,0 c 3.64797,-3.93594 7.58397,-7.19994 11.808,-9.792 4.22396,-2.59193 9.07196,-3.88793 14.544,-3.888 8.35194,7e-5 14.44794,2.40007 18.288,7.2 3.93593,4.70406 5.90393,11.71205 5.904,21.024 l 0,43.488 -11.808,0 0,-41.904 c -6e-5,-6.62395 -1.24806,-11.51995 -3.744,-14.688 -2.49605,-3.26394 -6.62405,-4.89594 -12.384,-4.896 -2.11204,6e-5 -4.08004,0.28806 -5.904,0.864 -1.72804,0.48006 -3.45604,1.24806 -5.184,2.304 -1.72803,1.05606 -3.50403,2.40006 -5.328,4.032 -1.82403,1.53605 -3.74402,3.36005 -5.76,5.472 l 0,48.816 -11.808,0"
           style="font-size:144px;font-style:normal;font-variant:normal;font-stretch:normal;text-align:start;line-height:125%;writing-mode:lr-tb;text-anchor:start;fill:#6699cc;fill-opacity:1;font-family:Source Code Pro;-inkscape-font-specification:Source Code Pro Semi-Light"
           id="path3093"
           inkscape:connector-curvature="0" />
        <path
           d="m 537.95133,422.56601 0,-60.336 -20.016,0 0,-8.928 20.016,-0.72 0,-5.904 c -3e-5,-8.54392 2.25597,-15.40791 6.768,-20.592 4.60796,-5.1839 11.75995,-7.7759 21.456,-7.776 6.91193,1e-4 13.63193,1.3441 20.16,4.032 l -2.736,8.928 c -2.88008,-1.34391 -5.56807,-2.20791 -8.064,-2.592 -2.40007,-0.47991 -5.13606,-0.71991 -8.208,-0.72 -6.33606,9e-5 -10.89605,1.63209 -13.68,4.896 -2.68805,3.16809 -4.03204,7.63208 -4.032,13.392 l 0,6.336 29.376,0 0,9.648 -29.376,0 0,60.336 -11.664,0"
           style="font-size:144px;font-style:normal;font-variant:normal;font-stretch:normal;text-align:start;line-height:125%;writing-mode:lr-tb;text-anchor:start;fill:#6699cc;fill-opacity:1;font-family:Source Code Pro;-inkscape-font-specification:Source Code Pro Semi-Light"
           id="path3095"
           inkscape:connector-curvature="0" />
        <path
           d="m 618.64708,424.29401 c -4.60804,0 -9.02403,-0.816 -13.248,-2.448 -4.12802,-1.632 -7.77602,-3.984 -10.944,-7.056 -3.16801,-3.16799 -5.71201,-7.00799 -7.632,-11.52 -1.82401,-4.60798 -2.73601,-9.79197 -2.736,-15.552 -10e-6,-5.85596 0.91199,-11.03995 2.736,-15.552 1.91999,-4.60795 4.46399,-8.49594 7.632,-11.664 3.16798,-3.16794 6.81598,-5.56793 10.944,-7.2 4.22397,-1.63193 8.63996,-2.44793 13.248,-2.448 4.60795,7e-5 8.97595,0.81607 13.104,2.448 4.22394,1.63207 7.91994,4.03206 11.088,7.2 3.16793,3.16806 5.66393,7.05605 7.488,11.664 1.91993,4.51205 2.87992,9.69604 2.88,15.552 -8e-5,5.76003 -0.96007,10.94402 -2.88,15.552 -1.82407,4.51201 -4.32007,8.35201 -7.488,11.52 -3.16806,3.072 -6.86406,5.424 -11.088,7.056 -4.12805,1.632 -8.49605,2.448 -13.104,2.448 m 0,-9.792 c 3.35996,1e-5 6.38395,-0.62399 9.072,-1.872 2.78395,-1.34399 5.13595,-3.16799 7.056,-5.472 2.01594,-2.39998 3.55194,-5.23198 4.608,-8.496 1.05594,-3.26397 1.58394,-6.91197 1.584,-10.944 -6e-5,-4.03196 -0.52806,-7.67996 -1.584,-10.944 -1.05606,-3.35995 -2.59206,-6.23995 -4.608,-8.64 -1.92005,-2.39994 -4.27205,-4.22394 -7.056,-5.472 -2.68805,-1.34394 -5.71204,-2.01594 -9.072,-2.016 -3.36004,6e-5 -6.43203,0.67206 -9.216,2.016 -2.68803,1.24806 -5.04003,3.07206 -7.056,5.472 -1.92002,2.40005 -3.40802,5.28005 -4.464,8.64 -1.05602,3.26404 -1.58402,6.91204 -1.584,10.944 -2e-5,4.03203 0.52798,7.68003 1.584,10.944 1.05598,3.26402 2.54398,6.09602 4.464,8.496 2.01597,2.30401 4.36797,4.12801 7.056,5.472 2.78397,1.24801 5.85596,1.87201 9.216,1.872"
           style="font-size:144px;font-style:normal;font-variant:normal;font-stretch:normal;text-align:start;line-height:125%;writing-mode:lr-tb;text-anchor:start;fill:#6699cc;fill-opacity:1;font-family:Source Code Pro;-inkscape-font-specification:Source Code Pro Semi-Light"
           id="path3097"
           inkscape:connector-curvature="0" />
      </g>
      <g
         style="fill:#6699cc"
         id="g3099"
         transform="matrix(0.46458004,0,0,0.46458004,-78.037801,125.23429)">
        <rect
           style="fill:#6699cc;fill-opacity:1;fill-rule:evenodd;stroke:none"
           id="rect3101"
           width="44.033901"
           height="44.033901"
           x="1293.2427"
           y="77.850952"
           ry="9.8414583" />
        <rect
           ry="9.8414583"
           y="31.85096"
           x="1340.4845"
           height="44.033901"
           width="44.033901"
           id="rect3103"
           style="fill:#6699cc;fill-opacity:1;fill-rule:evenodd;stroke:none" />
        <rect
           style="fill:#6699cc;fill-opacity:1;fill-rule:evenodd;stroke:none"
           id="rect3105"
           width="44.033901"
           height="44.033901"
           x="1340.4846"
           y="77.850952"
           ry="9.8414583" />
        <rect
           ry="9.8414583"
           y="-14.14904"
           x="1293.2427"
           height="44.033901"
           width="44.033901"
           id="rect3107"
           style="fill:#6699cc;fill-opacity:1;fill-rule:evenodd;stroke:none" />
        <rect
           style="fill:#6699cc;fill-opacity:1;fill-rule:evenodd;stroke:none"
           id="rect3109"
           width="44.033901"
           height="44.033901"
           x="1246.4845"
           y="77.850952"
           ry="9.8414583" />
      </g>
    </g>
    <g
       id="g4603"
       transform="matrix(0.13458273,0.22325353,-0.22325353,0.13458273,219.28527,150.49292)">
      <g
         style="font-size:172.36972046px;font-style:normal;font-variant:normal;font-weight:normal;font-stretch:normal;text-align:start;line-height:125%;letter-spacing:0px;word-spacing:0px;writing-mode:lr-tb;text-anchor:start;fill:#6699cc;fill-opacity:1;stroke:none;font-family:Sans;-inkscape-font-specification:Source Code Pro Semi-Light"
         id="text3706"
         transform="matrix(0.60031804,0,0,0.60031804,-749.88017,24.463226)">
        <path
           d="m 892.6771,412.32958 c -6.09046,-1e-5 -11.20409,-0.8044 -15.34091,-2.41318 -4.13692,-1.7237 -7.4694,-4.07941 -9.99744,-7.06716 -2.52813,-3.10264 -4.36674,-6.77986 -5.51583,-11.03166 -1.03426,-4.25176 -1.55137,-8.9632 -1.55133,-14.13432 l 0,-39.64503 -23.61465,0 0,-10.68693 24.13176,-0.86185 1.89607,-26.88967 11.72114,0 0,26.88967 41.19636,0 0,11.54878 -41.19636,0 0,39.8174 c -5e-5,3.79216 0.34469,7.12464 1.03422,9.99745 0.68942,2.75793 1.83855,5.11365 3.44739,7.06715 1.60873,1.95354 3.79208,3.44741 6.55005,4.48162 2.75785,0.91931 6.14779,1.37896 10.16981,1.37895 4.02189,10e-6 7.64165,-0.34473 10.8593,-1.03421 3.21748,-0.68947 6.32013,-1.60878 9.30796,-2.75792 l 3.10266,10.34218 c -3.79223,1.37896 -7.81419,2.52809 -12.06589,3.4474 -4.13695,1.03421 -8.84838,1.55132 -14.13431,1.55133"
           style="font-variant:normal;font-stretch:normal;fill:#6699cc;font-family:Source Code Pro;-inkscape-font-specification:Source Code Pro Semi-Light"
           id="path3711"
           inkscape:connector-curvature="0" />
        <path
           d="m 963.12568,412.32958 c -3.90709,-1e-5 -7.5843,-0.57457 -11.03166,-1.7237 -3.44743,-1.03422 -6.49262,-2.52809 -9.1356,-4.48161 -2.52811,-2.06843 -4.53909,-4.53907 -6.03294,-7.4119 -1.49388,-2.98773 -2.24082,-6.37766 -2.24081,-10.16982 -10e-6,-4.71141 1.09166,-8.79082 3.27503,-12.23825 2.29824,-3.56227 5.86055,-6.60746 10.68692,-9.13559 4.94123,-2.52804 11.26145,-4.59648 18.96067,-6.20531 7.69913,-1.60873 16.94963,-2.87278 27.75151,-3.79213 -0.115,-2.87278 -0.5746,-5.57323 -1.3789,-8.10138 -0.8045,-2.52803 -2.06855,-4.71137 -3.79218,-6.55005 -1.72376,-1.95346 -4.02202,-3.50478 -6.89478,-4.65398 -2.75798,-1.14906 -6.14791,-1.72363 -10.16982,-1.7237 -5.51588,7e-5 -10.80187,1.09175 -15.85801,3.27502 -5.05621,2.06851 -9.53782,4.30931 -13.44484,6.72242 l -5.51583,-9.6527 c 2.06842,-1.37888 4.48159,-2.75784 7.23953,-4.13687 2.8728,-1.4938 5.86054,-2.8153 8.96322,-3.96451 3.21753,-1.14905 6.60747,-2.06835 10.16982,-2.75791 3.56226,-0.80431 7.18202,-1.20651 10.85929,-1.20659 11.49125,8e-5 19.9948,3.16019 25.5107,9.48033 5.6307,6.20538 8.446,14.53658 8.4461,24.99361 l 0,51.36618 -11.5487,0 -1.2066,-11.3764 -0.5171,0 c -4.71154,3.67723 -9.94009,6.83733 -15.68568,9.48033 -5.6308,2.643 -11.43391,3.9645 -17.40934,3.96451 m 3.79213,-11.37641 c 4.8263,10e-6 9.53774,-1.0342 14.13432,-3.10265 4.71137,-2.18334 9.48026,-5.28599 14.30667,-9.30797 l 0,-22.06332 c -8.96327,0.68952 -16.49008,1.66628 -22.58042,2.93029 -5.97553,1.26408 -10.80187,2.81541 -14.47905,4.65398 -3.56234,1.72373 -6.09043,3.73471 -7.58427,6.03294 -1.4939,2.18338 -2.24084,4.65401 -2.24081,7.4119 -3e-5,2.41319 0.51708,4.48163 1.55133,6.20531 1.03419,1.60879 2.35569,2.98775 3.9645,4.13687 1.72367,1.03423 3.67719,1.83862 5.86057,2.41318 2.29823,0.45966 4.65394,0.68948 7.06716,0.68947"
           style="font-variant:normal;font-stretch:normal;fill:#6699cc;font-family:Source Code Pro;-inkscape-font-specification:Source Code Pro Semi-Light"
           id="path3713"
           inkscape:connector-curvature="0" />
        <path
           d="m 1063.3942,412.32958 c -5.5159,-1e-5 -10.5146,-0.97677 -14.9961,-2.93029 -4.3668,-1.95352 -8.1589,-4.76889 -11.3764,-8.44612 -3.2176,-3.79212 -5.6883,-8.38864 -7.4119,-13.78957 -1.7238,-5.40089 -2.5856,-11.6062 -2.5856,-18.61593 0,-6.77983 1.0342,-12.87022 3.1027,-18.27119 2.1833,-5.51577 4.9987,-10.16975 8.4461,-13.96195 3.5623,-3.79206 7.6417,-6.72234 12.2382,-8.79086 4.5965,-2.06835 9.3654,-3.10257 14.3067,-3.10265 5.0561,8e-5 9.5378,0.97684 13.4449,2.93028 4.0219,1.83869 7.8714,4.48169 11.5487,7.92901 l 0.5171,0 -0.6894,-15.51327 0,-32.23314 14.1343,0 0,122.72724 -11.7212,0 -1.2066,-11.03166 -0.5171,0 c -3.4474,3.56231 -7.5843,6.66496 -12.4106,9.30796 -4.7115,2.52809 -9.6527,3.79213 -14.8238,3.79214 m 2.9303,-11.89352 c 8.2737,10e-6 16.1452,-4.19431 23.6147,-12.58298 l 0,-41.71348 c -3.7922,-3.56224 -7.5269,-6.09032 -11.2041,-7.58426 -3.5623,-1.4938 -7.1821,-2.24074 -10.8593,-2.24081 -3.6772,7e-5 -7.1246,0.80446 -10.3421,2.41317 -3.1027,1.49395 -5.8607,3.67729 -8.2738,6.55005 -2.2983,2.75798 -4.1369,6.09046 -5.5158,9.99745 -1.379,3.9071 -2.0685,8.27379 -2.0685,13.1001 0,10.11239 2.1259,17.98393 6.3777,23.61465 4.3667,5.63076 10.4571,8.44612 18.2712,8.44611"
           style="font-variant:normal;font-stretch:normal;fill:#6699cc;font-family:Source Code Pro;-inkscape-font-specification:Source Code Pro Semi-Light"
           id="path3715"
           inkscape:connector-curvature="0" />
        <path
           d="m 1166.0759,412.32958 c -8.2737,-1e-5 -15.9155,-1.26405 -22.9251,-3.79214 -7.0098,-2.643 -13.1001,-5.74565 -18.2712,-9.30796 l 6.55,-9.30797 c 4.8264,3.44741 10.1124,6.20533 15.858,8.27375 5.8606,2.06845 12.6979,3.10266 20.512,3.10265 7.1246,10e-6 12.4106,-1.26403 15.8581,-3.79213 3.5622,-2.64299 5.3433,-5.74564 5.3434,-9.30797 -10e-5,-1.60876 -0.2873,-3.10263 -0.8618,-4.48161 -0.5747,-1.37893 -1.8387,-2.70043 -3.7922,-3.9645 -1.8386,-1.26401 -4.4816,-2.4706 -7.929,-3.61977 -3.4474,-1.14909 -7.9865,-2.29822 -13.6172,-3.44739 -10.9168,-2.29822 -19.133,-5.34342 -24.6488,-9.1356 -5.401,-3.90699 -8.1014,-9.02062 -8.1014,-15.3409 0,-3.33242 0.7469,-6.43507 2.2408,-9.30797 1.4938,-2.98766 3.6772,-5.51575 6.55,-7.58426 2.9877,-2.18327 6.6075,-3.84951 10.8593,-4.99872 4.3667,-1.26396 9.4229,-1.89599 15.1686,-1.89607 6.435,8e-5 12.6403,1.09176 18.6159,3.27502 5.9754,2.06852 11.0316,4.53915 15.1685,7.4119 l -6.8948,9.1356 c -3.9071,-2.64294 -8.2163,-4.76883 -12.9277,-6.37768 -4.7115,-1.60871 -9.7677,-2.4131 -15.1685,-2.41318 -7.1247,8e-5 -12.1234,1.20666 -14.9962,3.61976 -2.8729,2.41325 -4.3093,5.22862 -4.3092,8.44612 -1e-4,3.67728 1.896,6.49265 5.6882,8.44612 3.7921,1.83866 9.9974,3.67727 18.6159,5.51583 7.0096,1.49392 12.7553,3.1027 17.237,4.82635 4.4815,1.60883 7.9863,3.44744 10.5145,5.51583 2.6429,2.06847 4.4241,4.36673 5.3435,6.89479 1.0341,2.52812 1.5512,5.40094 1.5513,8.61849 -10e-5,3.44741 -0.8045,6.66497 -2.4132,9.6527 -1.6088,2.98775 -4.022,5.63075 -7.2395,7.92901 -3.1027,2.29826 -7.0098,4.07942 -11.7211,5.34346 -4.5966,1.37896 -9.8826,2.06843 -15.8581,2.06844"
           style="font-variant:normal;font-stretch:normal;fill:#6699cc;font-family:Source Code Pro;-inkscape-font-specification:Source Code Pro Semi-Light"
           id="path3717"
           inkscape:connector-curvature="0" />
      </g>
      <path
         sodipodi:nodetypes="ccccc"
         inkscape:connector-curvature="0"
         id="path4547"
         d="m -332.64509,201.58141 0,12.27792 72.2802,0 0,-12.27792 z"
         style="font-size:144px;font-style:normal;font-variant:normal;font-stretch:normal;text-align:start;line-height:125%;letter-spacing:0px;word-spacing:0px;writing-mode:lr-tb;text-anchor:start;fill:#6699cc;fill-opacity:1;stroke:none;font-family:Source Code Pro;-inkscape-font-specification:Source Code Pro Semi-Light" />
      <path
         id="rect3744"
         d="m -332.64509,239.87187 0,33.98972 72.2802,0 0,-33.98972 z"
         style="font-size:144px;font-style:normal;font-variant:normal;font-stretch:normal;text-align:start;line-height:125%;letter-spacing:0px;word-spacing:0px;writing-mode:lr-tb;text-anchor:start;fill:#6699cc;fill-opacity:1;stroke:none;font-family:Source Code Pro;-inkscape-font-specification:Source Code Pro Semi-Light"
         inkscape:connector-curvature="0" />
      <path
         sodipodi:nodetypes="ccccc"
         inkscape:connector-curvature="0"
         id="rect3746"
         d="m -332.69709,216.38875 0,20.9537 72.3842,0 0,-20.9537 z"
         style="font-size:144px;font-style:normal;font-variant:normal;font-stretch:normal;text-align:start;line-height:125%;letter-spacing:0px;word-spacing:0px;writing-mode:lr-tb;text-anchor:start;fill:#6699cc;fill-opacity:1;stroke:none;font-family:Source Code Pro;-inkscape-font-specification:Source Code Pro Semi-Light" />
    </g>
    <g
       transform="matrix(0.38723321,0,0,0.38723321,154.92874,119.80586)"
       id="g3077">
      <path
         inkscape:export-ydpi="99.971695"
         inkscape:export-xdpi="99.971695"
         inkscape:export-filename="/home/jaspion/IFRS/arte/dc-logo-fundos.png"
         style="fill:#336699"
         inkscape:connector-curvature="0"
         d="m 548.26571,85.040275 c 17.55981,-1.03073 35.3661,2.79344 50.89433,11.08412 20.03955,10.598625 36.17277,28.434795 44.57549,49.505075 5.81841,14.16885 7.93216,29.74936 6.57279,44.97882 -2.04653,23.90106 -13.59373,46.78633 -31.40749,62.82245 -15.35644,13.99706 -35.33624,22.93755 -56.07041,24.69279 -13.54145,1.38925 -27.36672,-0.32864 -40.25089,-4.66818 -19.03122,-6.44581 -35.91134,-19.01628 -47.59299,-35.35864 -11.50239,-15.86432 -17.87351,-35.31382 -18.17228,-54.89028 -0.2913,-19.69597 5.53459,-39.48905 16.70087,-55.74176 16.53655,-24.7152 45.00869,-41.027675 74.75058,-42.424395 m -42.33477,29.039785 c -3.35361,-2.30047 -6.61013,-4.73539 -9.98615,-6.99852 1.32202,3.86151 2.65899,7.72303 4.04824,11.5696 -3.25652,2.39011 -6.46823,4.84744 -9.64259,7.34958 4.12293,0.0373 8.24587,0 12.3688,-0.0598 1.38178,3.9138 2.56937,7.88736 4.11547,11.7414 1.39671,-3.92127 2.32288,-7.99192 3.64491,-11.93559 3.99596,0 7.98445,0.0598 11.97294,-0.13445 -3.27146,-2.40504 -6.64749,-4.68311 -10.00857,-6.95371 1.1129,-4.0333 2.27807,-8.05914 3.43577,-12.07751 -3.39843,2.38264 -6.61013,5.01922 -9.94882,7.49896 m 37.9056,9.81437 c -11.31566,1.8598 -21.91429,7.2973 -30.317,15.06514 -9.59777,9.07494 -16.15563,21.40639 -17.9034,34.52957 -2.30047,15.18465 1.90462,31.16101 11.14388,43.39537 8.31308,11.22604 20.83127,19.20302 34.46981,22.17571 12.71985,2.64406 26.34345,1.26974 38.05498,-4.45904 14.60953,-6.95372 25.97747,-20.26363 30.69793,-35.72463 3.55529,-11.68911 3.42084,-24.51353 -0.59005,-36.0682 -5.25824,-15.67013 -17.54488,-28.79331 -32.78928,-35.1495 -10.26252,-4.37688 -21.77985,-5.60928 -32.76687,-3.76442 m 66.46737,11.40529 c -3.25652,2.48721 -6.56532,4.89972 -9.75462,7.47656 4.1528,-0.13445 8.31309,-0.0448 12.4659,-0.0821 1.44153,3.88392 2.78597,7.81266 4.04078,11.76381 1.50875,-3.78683 2.44238,-7.76785 3.57768,-11.67418 4.15281,-0.55271 8.3579,-0.32864 12.5406,-0.29129 -3.45819,-2.42745 -6.95373,-4.81009 -10.39697,-7.25248 1.24734,-3.99596 2.26314,-8.06661 3.47312,-12.07751 -3.34615,2.50214 -6.66988,5.03417 -9.95629,7.61846 -3.30133,-2.39757 -6.6923,-4.68311 -9.98615,-7.09562 1.23986,3.89885 2.7038,7.73049 3.99595,11.61442 m -117.34676,89.3377 c -3.29386,-2.42745 -6.70724,-4.70552 -10.02351,-7.11804 1.35938,3.92127 2.92041,7.78279 3.98849,11.80116 -3.32374,2.47226 -6.63254,4.96693 -9.91147,7.49148 4.27978,0 8.5521,0.007 12.83188,-0.007 1.40419,3.86151 2.68887,7.76038 4.04078,11.63683 1.28468,-4.01837 2.4648,-8.06661 3.58516,-12.12979 4.01836,-0.0747 8.0442,0.0896 12.06257,-0.14938 -3.2864,-2.41252 -6.66243,-4.70552 -10.06086,-6.95372 1.21746,-4.02583 2.3677,-8.07408 3.45071,-12.13726 -3.28639,2.5619 -6.64,5.04164 -9.96375,7.56619 m 97.44165,6.40847 c 1.19506,3.89885 2.67393,7.70809 3.98849,11.56961 -3.33121,2.3901 -6.5205,4.96693 -9.8069,7.40933 4.13787,-0.0373 8.28322,0.0523 12.41362,-0.35105 1.52369,4.04824 2.66646,8.2384 4.38434,12.21195 1.00087,-4.10052 2.27061,-8.13384 3.4806,-12.18207 4.0333,0.0971 8.06661,-0.015 12.09992,-0.0896 -3.33122,-2.38264 -6.72218,-4.69058 -10.11314,-6.9836 1.07554,-4.00343 2.33782,-7.95457 3.3088,-11.98788 -3.33121,2.36771 -6.52051,4.9296 -9.80691,7.35705 -3.35361,-2.26313 -6.61761,-4.66071 -9.94882,-6.95371 z"
         id="path3288" />
      <path
         inkscape:export-ydpi="99.971695"
         inkscape:export-xdpi="99.971695"
         inkscape:export-filename="/home/jaspion/IFRS/arte/dc-logo-fundos.png"
         style="fill:#6699cc"
         inkscape:connector-curvature="0"
         d="m 543.77679,126.06048 c 10.78535,-1.69549 22.10849,-0.74691 32.17681,3.61503 13.68336,5.80348 24.88698,17.19383 30.3917,31.01164 4.86237,12.04762 5.34039,25.79821 1.39672,38.17448 -4.04825,12.78707 -12.83935,23.96081 -24.25959,30.98175 -9.67246,6.07983 -21.27941,8.92555 -32.65483,8.38031 -11.89825,-0.67968 -23.56496,-5.08645 -32.7818,-12.66756 -11.32313,-9.10482 -18.8669,-22.77324 -20.4877,-37.21844 -1.89714,-14.84854 2.64406,-30.34689 12.0551,-41.96131 8.44754,-10.59863 20.82381,-17.95568 34.16359,-20.3159 m -28.91281,16.56642 c -9.47081,9.12721 -15.222,21.86948 -16.2602,34.94783 0.1195,0.56019 0.28382,1.10543 0.49296,1.63574 1.14277,-1.12036 2.37517,-2.14363 3.66732,-3.08473 7.36451,-5.43003 14.47508,-11.18869 21.89188,-16.54402 4.96694,0.65728 9.93388,1.39672 14.91576,2.00171 9.36623,12.41362 18.88931,24.7152 28.21819,37.15869 -0.69462,5.18354 -1.52369,10.35214 -2.05399,15.5581 -8.41766,6.46075 -16.86519,12.89163 -25.33513,19.28517 -12.84683,-16.90253 -25.70859,-33.79013 -38.58528,-50.67773 -1.02327,-1.35937 -2.01666,-2.77103 -3.24159,-3.97355 -0.40333,8.39525 1.0382,16.90254 4.42169,24.61063 5.15368,12.07004 14.8112,22.12342 26.61235,27.84474 10.00857,4.81009 21.49602,6.69977 32.47557,4.89972 14.75891,-2.11375 28.41986,-10.63597 36.91968,-22.87034 7.60353,-10.62103 11.12146,-24.06538 9.81437,-37.04664 -1.23986,-13.33979 -7.6558,-26.0671 -17.47018,-35.15698 -8.81352,-8.08155 -20.26362,-13.39953 -32.21415,-14.37798 -16.11828,-1.73283 -32.93119,4.17522 -44.26925,15.78964 m 10.16541,18.29925 c -8.11889,6.0873 -16.17056,12.26424 -24.2297,18.42623 13.32484,17.44778 26.56005,34.97771 39.94465,52.38068 7.81266,-6.10224 15.81206,-11.96547 23.59483,-18.09759 0.86642,-4.81756 1.22494,-9.70234 2.10629,-14.51243 -9.20938,-12.01029 -18.22457,-24.18489 -27.5908,-36.06073 -4.49638,-1.20252 -9.26166,-1.17265 -13.82527,-2.13616 z"
         id="path3290" />
      <path
         inkscape:export-ydpi="99.971695"
         inkscape:export-xdpi="99.971695"
         inkscape:export-filename="/home/jaspion/IFRS/arte/dc-logo-fundos.png"
         style="fill:#6699cc"
         inkscape:connector-curvature="0"
         d="m 542.82822,146.4212 c 5.95286,-4.5935 11.89078,-9.22432 18.00049,-13.60121 5.09391,0.2913 10.16541,1.23987 15.22946,1.94196 3.7196,5.10138 7.65581,10.04592 11.38288,15.1473 -5.57193,4.04078 -10.94968,8.3355 -16.45439,12.48084 -1.94196,-2.41998 -3.65238,-5.01922 -5.76613,-7.29729 -0.51537,0.3137 -1.53864,0.9411 -2.04653,1.25481 5.30305,7.09562 10.7256,14.10909 16.09587,21.15991 0.63488,-0.53031 1.20252,-1.12036 1.69548,-1.77765 -1.59838,-2.59176 -3.65238,-4.8549 -5.46737,-7.28982 5.46737,-4.24991 10.97209,-8.455 16.55149,-12.563 3.95115,5.34039 8.2384,10.47166 11.95054,15.96143 -0.43321,5.19848 -1.4266,10.34468 -1.9569,15.53569 -5.19848,3.9885 -10.40444,7.96952 -15.60292,11.95054 -1.17264,1.00085 -2.83078,0.17179 -4.19016,0.2166 -4.04824,-0.67968 -8.22346,-0.95604 -12.18954,-1.81499 -9.8069,-12.48083 -19.20301,-25.29031 -28.97257,-37.80849 0.46308,-4.51133 1.24734,-8.98531 1.7403,-13.49663 m 18.22456,-12.19702 c -5.66904,4.07812 -11.03184,8.58945 -16.75316,12.60034 -0.71702,3.07726 -0.90375,6.24416 -1.43406,9.35876 -0.20166,1.54611 -0.64234,3.33869 0.61247,4.58602 9.02265,11.9356 18.21709,23.73675 27.14264,35.74703 4.83997,0.71704 9.6874,1.55357 14.57219,1.88221 5.37773,-3.66732 10.38949,-7.85747 15.61038,-11.74139 0.47055,-4.92213 1.44153,-9.7845 1.82245,-14.72157 -3.59262,-4.76527 -7.27488,-9.45586 -10.8451,-14.23608 -4.79516,3.65986 -9.64259,7.25249 -14.39293,10.97956 1.9345,2.47227 3.80924,4.98934 5.69144,7.49149 -1.449,0.98592 -2.84572,2.03906 -4.17522,3.17436 -5.72878,-7.75291 -11.73392,-15.31162 -17.42537,-23.08693 1.25481,-1.19506 2.67394,-2.18844 4.05571,-3.21171 1.86728,2.49468 3.71961,5.00429 5.66904,7.4392 4.75034,-3.61503 9.5903,-7.1255 14.24354,-10.87498 -2.91294,-4.30219 -6.2815,-8.29068 -9.33635,-12.49578 -1.0382,-1.73282 -3.30134,-1.44899 -5.01923,-1.75523 -3.34614,-0.25395 -6.74457,-1.23986 -10.03844,-1.1353 z"
         id="path3292" />
      <path
         inkscape:export-ydpi="99.971695"
         inkscape:export-xdpi="99.971695"
         inkscape:export-filename="/home/jaspion/IFRS/arte/dc-logo-fundos.png"
         style="fill:#336699"
         inkscape:connector-curvature="0"
         d="m 561.6279,135.32213 c 4.27978,0.73945 8.6492,1.06062 12.8991,1.89716 3.15196,3.97354 6.10224,8.11889 9.31395,12.04762 -4.07065,3.24906 -8.32802,6.2591 -12.40614,9.50067 -1.86727,-2.5096 -3.73454,-5.02669 -5.68398,-7.46907 -2.04653,1.56103 -4.08559,3.13701 -6.16946,4.6383 6.34872,8.3803 12.68997,16.76809 19.09844,25.10358 2.0316,-1.5685 4.0856,-3.0922 6.13212,-4.6383 -1.81499,-2.54696 -3.7196,-5.02669 -5.63916,-7.49896 4.108,-3.10714 8.14877,-6.30391 12.29411,-9.37369 3.34615,4.30218 6.92384,8.53716 9.81437,13.13064 -0.44067,4.46651 -1.11288,8.90315 -1.77763,13.34725 -4.78022,3.84658 -9.76209,7.44668 -14.63194,11.18869 -4.47398,-0.46308 -8.92555,-1.24733 -13.39953,-1.7403 -9.12722,-12.15967 -18.53079,-24.12514 -27.55344,-36.35949 0.17178,-3.80177 0.99338,-7.53631 1.35937,-11.32314 5.48231,-4.10052 10.86752,-8.34295 16.34982,-12.45096 z"
         id="path3294" />
      <path
         inkscape:export-ydpi="99.971695"
         inkscape:export-xdpi="99.971695"
         inkscape:export-filename="/home/jaspion/IFRS/arte/dc-logo-fundos.png"
         style="fill:#336699"
         inkscape:connector-curvature="0"
         d="m 525.17878,162.25565 c 4.27978,0.59753 8.54463,1.27721 12.84682,1.68801 9.11227,11.71152 17.91086,23.67699 27.06795,35.35117 -0.65728,4.30966 -1.18758,8.64173 -1.74029,12.9738 -0.0598,0.88135 -1.0158,1.27721 -1.58345,1.82992 -6.98359,5.22089 -13.84768,10.6061 -20.83127,15.82699 -12.90658,-16.67099 -25.40235,-33.66316 -38.45083,-50.21465 7.4616,-5.95286 15.25186,-11.4725 22.69107,-17.45524 m -1.37432,20.90596 c 6.37113,8.51476 12.94392,16.88013 19.27024,25.43223 2.08387,-1.57598 4.16775,-3.15943 6.22174,-4.77275 -6.43088,-8.44006 -12.92151,-16.84278 -19.2777,-25.34259 -2.13616,1.47888 -4.14534,3.1146 -6.21428,4.68311 z"
         id="path3296" />
      <path
         inkscape:export-ydpi="99.971695"
         inkscape:export-xdpi="99.971695"
         inkscape:export-filename="/home/jaspion/IFRS/arte/dc-logo-fundos.png"
         style="fill:#6699cc"
         inkscape:connector-curvature="0"
         d="m 525.48501,183.41556 c 1.41165,-1.08302 2.83825,-2.14362 4.26484,-3.20424 5.89311,7.82013 11.77874,15.64773 17.82123,23.35582 -1.38178,1.08302 -2.77849,2.14363 -4.18268,3.1893 -6.0873,-7.68568 -11.80115,-15.66266 -17.90339,-23.34088 m 1.91208,0.0373 c 5.22089,7.27488 10.85258,14.25847 16.19297,21.45121 0.69463,-0.53031 1.38925,-1.06062 2.08388,-1.58346 -5.41509,-6.96865 -10.76295,-13.98958 -16.00624,-21.07774 -0.76185,0.40332 -1.51623,0.80666 -2.27061,1.20999 z"
         id="path3298" />
      <text
         inkscape:export-ydpi="99.971695"
         inkscape:export-xdpi="99.971695"
         inkscape:export-filename="/home/jaspion/IFRS/arte/dc-logo-fundos.png"
         transform="matrix(0.58422441,-0.12537901,0.12537901,0.58422441,779.71683,-393.04538)"
         xml:space="preserve"
         style="font-size:62.40406036px;font-style:normal;font-variant:normal;font-weight:normal;font-stretch:normal;text-align:start;line-height:125%;letter-spacing:0px;word-spacing:0px;writing-mode:lr-tb;text-anchor:start;fill:#6699cc;fill-opacity:1;stroke:none;font-family:JACKPORT COLLEGE NCV;-inkscape-font-specification:JACKPORT COLLEGE NCV"
         id="text3300"
         sodipodi:linespacing="125%"><textPath
           dx="0"
           style="font-size:60px;font-style:normal;font-variant:normal;font-weight:normal;font-stretch:normal;text-align:start;line-height:125%;letter-spacing:0px;writing-mode:lr-tb;text-anchor:start;fill:#6699cc;font-family:JACKPORT COLLEGE NCV;-inkscape-font-specification:JACKPORT COLLEGE NCV"
           id="textPath3302"
           xlink:href="#path3149">DIVISÃO DE COMPUTAÇÃO    IFRS campus RIO GRANDE</textPath></text>
      <path
         inkscape:export-ydpi="99.971695"
         inkscape:export-xdpi="99.971695"
         inkscape:export-filename="/home/jaspion/IFRS/arte/dc-logo-fundos.png"
         inkscape:connector-curvature="0"
         id="path3304"
         d="m 698.12713,181.75114 c 0,77.51715 -64.47222,140.3572 -144.00275,140.3572 -79.53053,0 -144.00275,-62.84005 -144.00275,-140.3572 0,-77.51714 64.47222,-140.357197 144.00275,-140.357197 79.53053,0 144.00275,62.840057 144.00275,140.357197 z"
         style="fill:none;stroke:#6699cc;stroke-width:1.67546463;stroke-miterlimit:4" />
    </g>
  </g>
</svg>
