<?xml version="1.0" encoding="UTF-8" standalone="no"?>
<!-- Created with Inkscape (http://www.inkscape.org/) -->

<svg
   xmlns:dc="http://purl.org/dc/elements/1.1/"
   xmlns:cc="http://creativecommons.org/ns#"
   xmlns:rdf="http://www.w3.org/1999/02/22-rdf-syntax-ns#"
   xmlns:svg="http://www.w3.org/2000/svg"
   xmlns="http://www.w3.org/2000/svg"
   xmlns:xlink="http://www.w3.org/1999/xlink"
   xmlns:sodipodi="http://sodipodi.sourceforge.net/DTD/sodipodi-0.dtd"
   xmlns:inkscape="http://www.inkscape.org/namespaces/inkscape"
   width="744"
   height="744"
   id="svg3089"
   version="1.1"
   inkscape:version="0.48.4 r9939"
   sodipodi:docname="Novo documento 2">
  <defs
     id="defs3091">
    <path
       style="fill:#ffffff"
       inkscape:connector-curvature="0"
       d="m -744.1338,917.03908 c -10.6421,-29.9386 -12.60804,-62.62378 -5.34035,-93.49497 9.19663,-39.79193 33.46284,-76.27196 67.45339,-100.90018 22.77325,-16.85248 49.95614,-27.95923 78.23816,-32.87937 44.3423,-7.87217 91.59063,1.20555 129.55629,24.41537 33.04212,19.92546 59.22952,50.27895 72.77086,85.37256 9.28408,22.80352 13.07843,47.58333 11.65088,71.98473 -2.17364,36.06048 -16.52279,71.31919 -40.30579,99.371 -23.00619,27.51278 -55.07422,47.84598 -90.4065,57.71638 -35.55262,9.9147 -74.33774,9.2746 -109.37451,-2.3117 -53.05797,-16.8499 -96.85009,-58.39863 -114.24243,-109.27382 m 73.78648,59.49198 c -2.49384,6.91086 -5.2799,13.71769 -7.69487,20.64953 6.33828,-4.13591 12.66909,-8.29771 18.9467,-12.54298 5.95913,4.50164 12.01771,8.89351 18.13886,13.19925 -1.99245,-7.16285 -4.12014,-14.29004 -6.2885,-21.4065 6.40318,-4.26444 13.01169,-8.22089 19.22448,-12.74156 -7.80503,-0.5471 -15.6457,-0.20738 -23.45402,-0.61433 -1.99662,-6.92498 -3.88121,-13.86555 -6.22607,-20.6848 -2.72443,6.81844 -5.16647,13.75741 -7.60245,20.66693 -7.86627,-0.002 -15.74514,-0.0976 -23.60672,-0.18411 6.01649,4.75115 12.39996,9.05737 18.56259,13.65857 m -1.15176,-70.37895 c 9.0248,18.72143 24.17576,34.49101 42.45318,45.34174 21.24359,12.29729 46.87055,17.77062 71.52909,14.52986 28.67102,-3.2678 55.52645,-18.18795 73.08424,-40.04451 16.19302,-19.76979 24.39613,-45.27474 22.96938,-70.33044 -1.56335,-23.30662 -10.86141,-46.25965 -27.09639,-63.81869 -19.90314,-21.99605 -49.70692,-35.33777 -80.08801,-36.13176 -22.96248,-0.57677 -46.13906,5.78311 -65.07735,18.25425 -25.77417,16.59893 -43.42026,44.16123 -47.32358,73.61634 -2.80516,19.87595 0.71592,40.42416 9.54944,58.58321 m -12.53947,-120.63639 c 6.13511,4.45527 12.16097,9.03682 18.42495,13.33276 -2.31867,-7.13256 -4.23487,-14.38513 -6.37763,-21.56407 6.31919,-4.35372 12.76811,-8.56058 19.30241,-12.62282 -7.61733,-0.80549 -15.29927,-0.52152 -22.9466,-0.62274 -3.07677,-6.93273 -4.77176,-14.32717 -6.794,-21.59358 -2.67174,7.15273 -5.2436,14.34877 -7.94988,21.48275 -7.86575,-0.25254 -15.7512,-0.0682 -23.62539,-0.24884 6.20698,4.60344 12.4569,9.15379 18.78294,13.61443 -2.69597,6.86664 -5.14409,13.83508 -7.87086,20.69591 6.44701,-4.01137 12.66024,-8.37894 19.05406,-12.4738 m 220.55457,160.67977 c -2.75386,6.86796 -5.17723,13.87167 -7.89282,20.77133 6.42793,-4.22918 12.64678,-8.77929 19.39623,-12.55005 6.14163,4.57889 12.31641,9.12117 18.53041,13.59743 -2.13844,-7.41684 -4.25962,-14.82429 -6.42521,-22.23398 6.29722,-4.2783 12.72187,-8.36733 19.07229,-12.56215 -7.92505,-0.30657 -15.85197,-0.41764 -23.77614,-0.41802 -2.14319,-6.92812 -3.85691,-13.98337 -6.29793,-20.83298 -2.7305,6.84789 -5.19963,13.79401 -7.57634,20.75754 -7.90497,-0.1865 -15.81697,-0.24579 -23.72247,-0.18145 6.28541,4.47135 12.45551,9.09844 18.6919,13.65235 m -37.07263,-171.92734 c 6.46941,-3.93371 12.63456,-8.31647 18.97656,-12.43945 5.99645,4.63109 12.26043,8.92703 18.32924,13.45548 -2.13524,-7.15306 -4.04402,-14.37974 -6.83883,-21.34501 6.57593,-4.57459 13.59944,-8.55687 19.94297,-13.43233 -7.93212,0.22456 -15.87678,-0.0489 -23.81863,-0.21182 -1.83931,-7.03607 -4.05761,-13.97225 -6.2083,-20.92625 -2.65397,6.91127 -5.14269,13.89042 -7.60435,20.86243 -7.79347,0.0488 -15.58547,-0.25111 -23.38083,-0.007 5.95583,4.64179 12.19272,8.94488 18.23447,13.48045 -2.42617,6.89301 -5.14078,13.69493 -7.6323,20.56339 z"
       id="path3149" />
  </defs>
  <sodipodi:namedview
     id="base"
     pagecolor="#ffffff"
     bordercolor="#666666"
     borderopacity="1.0"
     inkscape:pageopacity="0.0"
     inkscape:pageshadow="2"
     inkscape:zoom="0.61969414"
     inkscape:cx="372.70935"
     inkscape:cy="364.76522"
     inkscape:document-units="px"
     inkscape:current-layer="layer1"
     showgrid="false"
     inkscape:window-width="1366"
     inkscape:window-height="714"
     inkscape:window-x="0"
     inkscape:window-y="30"
     inkscape:window-maximized="1" />
  <metadata
     id="metadata3094">
    <rdf:RDF>
      <cc:Work
         rdf:about="">
        <dc:format>image/svg+xml</dc:format>
        <dc:type
           rdf:resource="http://purl.org/dc/dcmitype/StillImage" />
        <dc:title></dc:title>
      </cc:Work>
    </rdf:RDF>
  </metadata>
  <g
     inkscape:label="Camada 1"
     inkscape:groupmode="layer"
     id="layer1"
     transform="translate(0,-308.36218)">
    <g
       id="g3275"
       transform="matrix(2.0838072,0,0,2.0838072,-37.442468,71.379871)"
       inkscape:export-filename="/home/jaspion/IFRS/arte/dc-logo-fundos.png"
       inkscape:export-xdpi="99.971695"
       inkscape:export-ydpi="99.971695">
      <path
         id="path3257"
         d="m 190.40938,186.8818 c 19.23841,-1.12926 38.74687,3.06048 55.75949,12.14369 21.9552,11.61179 39.63065,31.15298 48.83661,54.23744 6.37462,15.5233 8.69043,32.5932 7.20111,49.2785 -2.24217,26.18584 -14.8932,51.25879 -34.40984,68.82786 -16.82441,15.33509 -38.71415,25.13023 -61.43037,27.05326 -14.83592,1.52205 -29.9828,-0.36006 -44.09861,-5.11443 C 141.41729,386.24613 122.92354,372.47401 110.1252,354.56943 97.523264,337.18858 90.543104,315.87984 90.215774,294.432 c -0.31914,-21.57878 6.06367,-43.26394 18.297366,-61.07031 18.11733,-27.07781 49.31122,-44.94965 81.89624,-46.47989 m -46.38169,31.81581 c -3.6742,-2.52039 -7.24202,-5.18807 -10.94077,-7.66754 1.4484,4.23065 2.91318,8.4613 4.43523,12.67558 -3.56782,2.61859 -7.08655,5.31082 -10.56436,8.05215 4.51706,0.0409 9.03412,0 13.55118,-0.0655 1.51387,4.28793 2.81498,8.64133 4.50888,12.8638 1.53023,-4.29612 2.54493,-8.7559 3.99334,-13.07656 4.37795,0 8.74771,0.0655 13.11747,-0.1473 -3.58419,-2.63495 -7.28294,-5.13079 -10.96532,-7.61844 1.21928,-4.41886 2.49584,-8.82954 3.76421,-13.23204 -3.7233,2.6104 -7.24202,5.49903 -10.89986,8.21581 m 41.52912,10.75256 c -12.39736,2.03759 -24.00915,7.99487 -33.21511,16.50527 -10.51525,9.94244 -17.7,23.4527 -19.61484,37.83037 -2.52038,16.6362 2.08669,34.1398 12.20916,47.54368 9.10776,12.29917 22.8226,21.0387 37.7649,24.29556 13.93578,2.89681 28.86171,1.39112 41.69278,-4.8853 16.0061,-7.61844 28.46075,-22.20069 33.63245,-39.13966 3.89515,-12.80651 3.74785,-26.85686 -0.64646,-39.51608 -5.76089,-17.1681 -19.22205,-31.54577 -35.92371,-38.50956 -11.24355,-4.79529 -23.86186,-6.1455 -35.89917,-4.12428 m 72.82121,12.49556 c -3.56782,2.72497 -7.19292,5.3681 -10.6871,8.19127 4.54979,-0.1473 9.10777,-0.0491 13.65756,-0.09 1.57933,4.2552 3.05229,8.5595 4.42705,12.88835 1.65298,-4.14882 2.67586,-8.5104 3.91969,-12.79015 4.54979,-0.60555 9.15686,-0.36006 13.73939,-0.31914 -3.78877,-2.6595 -7.61845,-5.2699 -11.39085,-7.94577 1.36658,-4.37795 2.47948,-8.83772 3.80513,-13.23204 -3.66602,2.74133 -7.30748,5.5154 -10.90804,8.34674 -3.61692,-2.62677 -7.33204,-5.13079 -10.94077,-7.77392 1.35839,4.27156 2.96227,8.46948 4.37794,12.72468 m -128.56433,97.8778 c -3.60874,-2.6595 -7.34841,-5.15534 -10.98169,-7.79848 1.48932,4.29612 3.19958,8.52677 4.36976,12.92927 -3.64147,2.7086 -7.26657,5.44174 -10.85894,8.20762 4.6889,0 9.36962,0.008 14.05852,-0.008 1.53842,4.23065 2.94591,8.50222 4.42705,12.74924 1.40749,-4.4025 2.70042,-8.83773 3.92788,-13.28932 4.40249,-0.0818 8.81317,0.0982 13.21567,-0.16366 -3.60056,-2.64314 -7.29931,-5.15534 -11.02261,-7.61845 1.33384,-4.41068 2.59404,-8.84591 3.78058,-13.2975 -3.60055,2.8068 -7.27475,5.52358 -10.91622,8.28946 m 106.75643,7.02108 c 1.30929,4.27156 2.92954,8.44493 4.36976,12.67559 -3.64965,2.61858 -7.14382,5.44174 -10.74438,8.11761 4.53343,-0.0409 9.07504,0.0573 13.60028,-0.38461 1.66935,4.43523 2.92136,9.02594 4.80346,13.37934 1.09654,-4.49251 2.48766,-8.91138 3.81332,-13.3466 4.41886,0.10638 8.83772,-0.0164 13.25659,-0.0982 -3.64966,-2.6104 -7.36477,-5.13897 -11.07989,-7.65118 1.17836,-4.38613 2.5613,-8.71498 3.6251,-13.13384 -3.64965,2.59404 -7.14383,5.40083 -10.74438,8.06033 -3.6742,-2.47947 -7.25021,-5.10624 -10.89986,-7.61844 z"
         inkscape:connector-curvature="0"
         style="fill:#002b3d" />
      <path
         id="path3259"
         d="m 185.49135,231.82327 c 11.81636,-1.85756 24.22191,-0.81831 35.2527,3.96061 14.9914,6.35825 27.26601,18.83744 33.29694,33.97614 5.32719,13.1993 5.8509,28.26435 1.53024,41.82371 -4.43523,14.00943 -14.06671,26.25131 -26.57864,33.9434 -10.59709,6.66103 -23.31359,9.77878 -35.77642,9.18142 -13.03564,-0.74466 -25.81761,-5.57268 -35.91552,-13.8785 -12.40555,-9.97518 -20.67046,-24.95021 -22.44619,-40.77628 -2.0785,-16.26796 2.89681,-33.24785 13.20749,-45.97253 9.25506,-11.61179 22.81442,-19.67212 37.4294,-22.25797 m -31.67669,18.15006 c -10.37615,9.99972 -16.67712,23.96006 -17.81456,38.28862 0.13092,0.61374 0.31095,1.2111 0.54008,1.7921 1.25201,-1.22746 2.60222,-2.34854 4.01789,-3.37961 8.06851,-5.9491 15.8588,-12.25825 23.9846,-18.12552 5.44175,0.72011 10.88349,1.53024 16.34161,2.19306 10.26158,13.60028 20.695,27.07781 30.91566,40.71082 -0.76102,5.67905 -1.66934,11.34174 -2.25034,17.04535 -9.22233,7.07836 -18.47739,14.12399 -27.757,21.1287 -14.0749,-18.5183 -28.16616,-37.02024 -42.27378,-55.52218 -1.12108,-1.48932 -2.20943,-3.03592 -3.55146,-4.3534 -0.44188,9.19778 1.13745,18.51831 4.84438,26.96325 5.64633,13.22385 16.22705,24.23827 29.15631,30.50651 10.96532,5.2699 23.5509,7.34022 35.58002,5.3681 16.16976,-2.31581 31.13661,-11.6527 40.44896,-25.05659 8.33037,-11.63633 12.1846,-26.36587 10.75256,-40.58806 -1.35839,-14.61498 -8.38765,-28.55894 -19.14022,-38.51775 -9.65603,-8.85409 -22.20069,-14.68044 -35.29361,-15.75242 -17.65908,-1.89848 -36.07919,4.57434 -48.5011,17.29902 m 11.13716,20.04854 c -8.895,6.66921 -17.71636,13.43662 -26.5459,20.18766 14.59861,19.11567 29.09902,38.32135 43.7631,57.38792 8.5595,-6.68557 17.32358,-13.10929 25.85034,-19.8276 0.94924,-5.27808 1.34203,-10.62981 2.30763,-15.89972 -10.08973,-13.15839 -19.96671,-26.4968 -30.22829,-39.5079 -4.92621,-1.31747 -10.14702,-1.28474 -15.14688,-2.34036 z"
         inkscape:connector-curvature="0"
         style="fill:#002b3d" />
      <path
         id="path3261"
         d="m 184.4521,254.13034 c 6.52191,-5.0326 13.02746,-10.1061 19.72122,-14.90139 5.58085,0.31914 11.13716,1.35839 16.68529,2.1276 4.07517,5.58904 8.38766,11.00624 12.47101,16.59528 -6.10457,4.42705 -11.99639,9.13232 -18.02732,13.67393 -2.1276,-2.65132 -4.00152,-5.49903 -6.31733,-7.99487 -0.56464,0.34369 -1.68572,1.03107 -2.24217,1.37476 5.80999,7.77392 11.7509,15.45783 17.63453,23.18266 0.69557,-0.581 1.31748,-1.22746 1.85756,-1.94758 -1.75118,-2.83952 -4.00152,-5.319 -5.99001,-7.98668 5.99001,-4.65617 12.02094,-9.26324 18.1337,-13.76394 4.32885,5.8509 9.02594,11.47268 13.09293,17.48724 -0.47462,5.69542 -1.56297,11.33356 -2.14397,17.0208 -5.69542,4.36977 -11.39903,8.73135 -17.09445,13.09293 -1.28474,1.09653 -3.10139,0.18821 -4.59071,0.23731 -4.43523,-0.74466 -9.00957,-1.04744 -13.35478,-1.98849 -10.74438,-13.67392 -21.03869,-27.7079 -31.74216,-41.42274 0.50735,-4.94258 1.36658,-9.84424 1.90666,-14.78682 m 19.96671,-13.36297 c -6.21096,4.46796 -12.08641,9.41054 -18.35465,13.80485 -0.78557,3.37143 -0.99015,6.84106 -1.57115,10.2534 -0.22094,1.6939 -0.70374,3.65784 0.67102,5.02441 9.88515,13.07656 19.95852,26.00582 29.7373,39.16421 5.30264,0.78558 10.61345,1.70208 15.96519,2.06214 5.89181,-4.0179 11.38266,-8.6086 17.10263,-12.8638 0.51553,-5.39265 1.57933,-10.71983 1.99667,-16.12885 -3.93606,-5.2208 -7.97032,-10.35978 -11.88183,-15.59695 -5.25354,4.00971 -10.56435,7.94577 -15.76879,12.02913 2.11942,2.7086 4.17337,5.46629 6.2355,8.20763 -1.58751,1.08016 -3.11775,2.23398 -4.57434,3.4778 -6.27642,-8.49403 -12.85561,-16.77531 -19.09112,-25.29389 1.37476,-1.30929 2.92955,-2.39764 4.44341,-3.51872 2.04577,2.73315 4.07518,5.48266 6.21096,8.15034 5.20444,-3.96061 10.50707,-7.80665 15.60513,-11.91456 -3.1914,-4.71345 -6.88197,-9.08322 -10.22885,-13.69029 -1.13744,-1.89847 -3.61692,-1.58751 -5.49903,-1.92302 -3.66601,-0.27823 -7.38931,-1.35839 -10.99805,-1.24383 z"
         inkscape:connector-curvature="0"
         style="fill:#002b3d" />
      <path
         id="path3263"
         d="m 205.04891,241.97028 c 4.6889,0.81013 9.476,1.162 14.13217,2.07851 3.45326,4.35339 6.68557,8.895 10.2043,13.1993 -4.45978,3.55964 -9.12413,6.85742 -13.59209,10.40887 -2.04577,-2.74951 -4.09154,-5.50721 -6.22733,-8.18307 -2.24216,1.71026 -4.47614,3.43689 -6.75922,5.08169 6.95562,9.18141 13.90305,18.37101 20.92413,27.50332 2.2258,-1.71844 4.47615,-3.38779 6.71831,-5.08169 -1.98849,-2.79043 -4.07517,-5.50721 -6.17823,-8.21581 4.5007,-3.40416 8.92774,-6.90652 13.46935,-10.26976 3.66602,4.71345 7.58571,9.35326 10.75256,14.38585 -0.4828,4.89348 -1.21927,9.75423 -1.94757,14.62316 -5.23717,4.21428 -10.69528,8.15853 -16.03065,12.25825 -4.90166,-0.50735 -9.77877,-1.36657 -14.68044,-1.90666 -9.99972,-13.32205 -20.30221,-26.43134 -30.18737,-39.83522 0.18821,-4.16519 1.08835,-8.25673 1.48932,-12.40555 6.00638,-4.49251 11.90638,-9.14049 17.91276,-13.64119 z"
         inkscape:connector-curvature="0"
         style="fill:#336699" />
      <path
         id="path3265"
         d="m 165.11549,271.47846 c 4.6889,0.65465 9.36144,1.39931 14.07489,1.84938 9.98335,12.83106 19.62302,25.94035 29.65547,38.7305 -0.72011,4.72164 -1.30111,9.46783 -1.90665,14.21401 -0.0655,0.9656 -1.1129,1.39931 -1.73482,2.00485 -7.65117,5.71998 -15.17142,11.61998 -22.8226,17.33995 -14.14036,-18.26463 -27.83065,-36.88114 -42.12648,-55.01484 8.17489,-6.52191 16.70984,-12.5692 24.86019,-19.12385 m -1.50569,22.90444 c 6.98016,9.32871 14.18127,18.49375 21.11234,27.86338 2.28308,-1.72663 4.56616,-3.46145 6.8165,-5.22899 -7.04563,-9.24688 -14.15672,-18.45284 -21.12052,-27.76518 -2.34036,1.62025 -4.54161,3.41234 -6.80832,5.13079 z"
         inkscape:connector-curvature="0"
         style="fill:#336699" />
      <path
         id="path3267"
         d="m 165.45099,294.66112 c 1.5466,-1.18655 3.10957,-2.34854 4.67254,-3.51054 6.45645,8.56768 12.90471,17.14355 19.52482,25.58848 -1.51387,1.18655 -3.0441,2.34855 -4.58252,3.49418 -6.66921,-8.42039 -12.92926,-17.15991 -19.61484,-25.57212 m 2.09487,0.0409 c 5.71997,7.97031 11.89001,15.62149 17.74091,23.5018 0.76103,-0.581 1.52205,-1.162 2.28308,-1.73482 -5.93273,-7.63481 -11.79181,-15.3269 -17.53633,-23.09264 -0.83468,0.44188 -1.66117,0.88377 -2.48766,1.32566 z"
         inkscape:connector-curvature="0"
         style="fill:#002b3d" />
      <text
         sodipodi:linespacing="125%"
         id="text3269"
         style="font-size:62.40406036px;font-style:normal;font-variant:normal;font-weight:normal;font-stretch:normal;text-align:start;line-height:125%;letter-spacing:0px;word-spacing:0px;writing-mode:lr-tb;text-anchor:start;fill:#003366;fill-opacity:1;stroke:none;font-family:JACKPORT COLLEGE NCV;-inkscape-font-specification:JACKPORT COLLEGE NCV"
         xml:space="preserve"
         transform="matrix(0.64007241,-0.13736442,0.13736442,0.64007241,443.9857,-336.90568)"><textPath
           xlink:href="#path3149"
           id="textPath3271"
           style="font-size:60px;font-style:normal;font-variant:normal;font-weight:normal;font-stretch:normal;text-align:start;line-height:125%;letter-spacing:0px;writing-mode:lr-tb;text-anchor:start;font-family:JACKPORT COLLEGE NCV;-inkscape-font-specification:JACKPORT COLLEGE NCV"
           dx="0">DIVISÃO DE COMPUTAÇÃO    IFRS campus RIO GRANDE</textPath></text>
      <path
         sodipodi:type="arc"
         style="fill:none;stroke:#002b3d;stroke-width:2.79306388;stroke-miterlimit:4;stroke-dasharray:none"
         id="path3273"
         sodipodi:cx="-567"
         sodipodi:cy="725.36218"
         sodipodi:rx="237"
         sodipodi:ry="237"
         d="m -330,725.36218 c 0,130.89149 -106.10851,237 -237,237 -130.89149,0 -237,-106.10851 -237,-237 0,-130.89148 106.10851,-237 237,-237 130.89149,0 237,106.10852 237,237 z"
         transform="matrix(0.66568971,0,0,0.64883724,574.27417,-177.8044)" />
    </g>
  </g>
</svg>
