<?xml version="1.0" encoding="UTF-8" standalone="no"?>
<!-- Created with Inkscape (http://www.inkscape.org/) -->

<svg
   xmlns:dc="http://purl.org/dc/elements/1.1/"
   xmlns:cc="http://creativecommons.org/ns#"
   xmlns:rdf="http://www.w3.org/1999/02/22-rdf-syntax-ns#"
   xmlns:svg="http://www.w3.org/2000/svg"
   xmlns="http://www.w3.org/2000/svg"
   xmlns:sodipodi="http://sodipodi.sourceforge.net/DTD/sodipodi-0.dtd"
   xmlns:inkscape="http://www.inkscape.org/namespaces/inkscape"
   width="210mm"
   height="297mm"
   id="svg3154"
   version="1.1"
   inkscape:version="0.48.4 r9939"
   sodipodi:docname="info-logo.svg">
  <defs
     id="defs3156" />
  <sodipodi:namedview
     id="base"
     pagecolor="#ffffff"
     bordercolor="#666666"
     borderopacity="1.0"
     inkscape:pageopacity="0.0"
     inkscape:pageshadow="2"
     inkscape:zoom="0.62446949"
     inkscape:cx="384.57384"
     inkscape:cy="783.9377"
     inkscape:document-units="px"
     inkscape:current-layer="layer1"
     showgrid="false"
     showguides="true"
     inkscape:guide-bbox="true"
     inkscape:window-width="1280"
     inkscape:window-height="970"
     inkscape:window-x="0"
     inkscape:window-y="30"
     inkscape:window-maximized="1" />
  <metadata
     id="metadata3159">
    <rdf:RDF>
      <cc:Work
         rdf:about="">
        <dc:format>image/svg+xml</dc:format>
        <dc:type
           rdf:resource="http://purl.org/dc/dcmitype/StillImage" />
        <dc:title></dc:title>
      </cc:Work>
    </rdf:RDF>
  </metadata>
  <g
     inkscape:label="Camada 1"
     inkscape:groupmode="layer"
     id="layer1">
    <rect
       style="fill:#ffffff;fill-opacity:1;stroke:none"
       id="rect3135"
       width="627.31189"
       height="1329.3578"
       x="-1250.0946"
       y="85.350647"
       inkscape:export-filename="/home/jaspion/IFRS/arte/info-logo-fundos.png"
       inkscape:export-xdpi="100"
       inkscape:export-ydpi="100" />
    <rect
       style="fill:#003366;fill-opacity:1;stroke:none"
       id="rect4196"
       width="400"
       height="400"
       x="-460.87292"
       y="-142.41643"
       ry="65.147545"
       transform="matrix(0.96592583,-0.25881905,0.25881905,0.96592583,0,0)" />
    <rect
       style="fill:#000000;stroke:none"
       id="rect3231"
       width="571.68524"
       height="236.20049"
       x="-1218.9347"
       y="373.47202"
       ry="21.618351"
       inkscape:export-filename="/home/jaspion/IFRS/arte/info-logo-fundos.png"
       inkscape:export-xdpi="100"
       inkscape:export-ydpi="100" />
    <g
       id="g3199"
       transform="translate(191.80458,294.4226)"
       inkscape:export-filename="/home/jaspion/IFRS/arte/info-logo-fundos.png"
       inkscape:export-xdpi="100"
       inkscape:export-ydpi="100">
      <g
         style="font-size:144px;font-style:normal;font-variant:normal;font-stretch:normal;text-align:start;line-height:125%;letter-spacing:0px;word-spacing:0px;writing-mode:lr-tb;text-anchor:start;fill:#000000;fill-opacity:1;stroke:none;font-family:Source Code Pro;-inkscape-font-specification:Source Code Pro Semi-Light"
         transform="matrix(1.0817824,0,0,1.0817824,-1585.476,-219.62186)"
         id="g3201">
        <path
           style="font-size:144px;font-style:normal;font-variant:normal;font-stretch:normal;text-align:start;line-height:125%;writing-mode:lr-tb;text-anchor:start;fill:#85f611;fill-opacity:1;font-family:Source Code Pro;-inkscape-font-specification:Source Code Pro Semi-Light"
           d="m 409.91983,422.56601 c 0,-20.112 0,-40.224 0,-60.336 -10.848,0 -21.696,0 -32.544,0 0,-3.216 0,-6.432 0,-9.648 14.784,0 29.568,0 44.352,0 0,23.328 0,46.656 0,69.984 -3.936,0 -7.872,0 -11.808,0 z"
           id="path3203"
           inkscape:connector-curvature="0" />
        <path
           style="font-size:144px;font-style:normal;font-variant:normal;font-stretch:normal;text-align:start;line-height:125%;writing-mode:lr-tb;text-anchor:start;fill:#d9bb7a;fill-opacity:1;font-family:Source Code Pro;-inkscape-font-specification:Source Code Pro Semi-Light"
           d="m 414.52654,339.89087 c -5.66701,0.34775 -11.15724,-4.50031 -11.05204,-10.58355 -0.72964,-6.68351 5.3799,-12.47905 11.6329,-11.82622 6.11961,-0.046 11.40141,6.05432 10.43384,12.43865 -0.23996,5.93271 -5.50559,10.21116 -11.0147,9.97112 z"
           id="path3205"
           inkscape:connector-curvature="0" />
        <path
           d="m 444.15158,422.56601 0,-69.984 9.792,0 1.008,11.952 0.576,0 c 3.64797,-3.93594 7.58397,-7.19994 11.808,-9.792 4.22396,-2.59193 9.07196,-3.88793 14.544,-3.888 8.35194,7e-5 14.44794,2.40007 18.288,7.2 3.93593,4.70406 5.90393,11.71205 5.904,21.024 l 0,43.488 -11.808,0 0,-41.904 c -6e-5,-6.62395 -1.24806,-11.51995 -3.744,-14.688 -2.49605,-3.26394 -6.62405,-4.89594 -12.384,-4.896 -2.11204,6e-5 -4.08004,0.28806 -5.904,0.864 -1.72804,0.48006 -3.45604,1.24806 -5.184,2.304 -1.72803,1.05606 -3.50403,2.40006 -5.328,4.032 -1.82403,1.53605 -3.74402,3.36005 -5.76,5.472 l 0,48.816 -11.808,0"
           style="font-size:144px;font-style:normal;font-variant:normal;font-stretch:normal;text-align:start;line-height:125%;writing-mode:lr-tb;text-anchor:start;fill:#18a6dc;fill-opacity:1;font-family:Source Code Pro;-inkscape-font-specification:Source Code Pro Semi-Light"
           id="path3207"
           inkscape:connector-curvature="0" />
        <path
           d="m 537.95133,422.56601 0,-60.336 -20.016,0 0,-8.928 20.016,-0.72 0,-5.904 c -3e-5,-8.54392 2.25597,-15.40791 6.768,-20.592 4.60796,-5.1839 11.75995,-7.7759 21.456,-7.776 6.91193,1e-4 13.63193,1.3441 20.16,4.032 l -2.736,8.928 c -2.88008,-1.34391 -5.56807,-2.20791 -8.064,-2.592 -2.40007,-0.47991 -5.13606,-0.71991 -8.208,-0.72 -6.33606,9e-5 -10.89605,1.63209 -13.68,4.896 -2.68805,3.16809 -4.03204,7.63208 -4.032,13.392 l 0,6.336 29.376,0 0,9.648 -29.376,0 0,60.336 -11.664,0"
           style="font-size:144px;font-style:normal;font-variant:normal;font-stretch:normal;text-align:start;line-height:125%;writing-mode:lr-tb;text-anchor:start;fill:#f31161;fill-opacity:1;font-family:Source Code Pro;-inkscape-font-specification:Source Code Pro Semi-Light"
           id="path3209"
           inkscape:connector-curvature="0" />
        <path
           d="m 618.64708,424.29401 c -4.60804,0 -9.02403,-0.816 -13.248,-2.448 -4.12802,-1.632 -7.77602,-3.984 -10.944,-7.056 -3.16801,-3.16799 -5.71201,-7.00799 -7.632,-11.52 -1.82401,-4.60798 -2.73601,-9.79197 -2.736,-15.552 -10e-6,-5.85596 0.91199,-11.03995 2.736,-15.552 1.91999,-4.60795 4.46399,-8.49594 7.632,-11.664 3.16798,-3.16794 6.81598,-5.56793 10.944,-7.2 4.22397,-1.63193 8.63996,-2.44793 13.248,-2.448 4.60795,7e-5 8.97595,0.81607 13.104,2.448 4.22394,1.63207 7.91994,4.03206 11.088,7.2 3.16793,3.16806 5.66393,7.05605 7.488,11.664 1.91993,4.51205 2.87992,9.69604 2.88,15.552 -8e-5,5.76003 -0.96007,10.94402 -2.88,15.552 -1.82407,4.51201 -4.32007,8.35201 -7.488,11.52 -3.16806,3.072 -6.86406,5.424 -11.088,7.056 -4.12805,1.632 -8.49605,2.448 -13.104,2.448 m 0,-9.792 c 3.35996,1e-5 6.38395,-0.62399 9.072,-1.872 2.78395,-1.34399 5.13595,-3.16799 7.056,-5.472 2.01594,-2.39998 3.55194,-5.23198 4.608,-8.496 1.05594,-3.26397 1.58394,-6.91197 1.584,-10.944 -6e-5,-4.03196 -0.52806,-7.67996 -1.584,-10.944 -1.05606,-3.35995 -2.59206,-6.23995 -4.608,-8.64 -1.92005,-2.39994 -4.27205,-4.22394 -7.056,-5.472 -2.68805,-1.34394 -5.71204,-2.01594 -9.072,-2.016 -3.36004,6e-5 -6.43203,0.67206 -9.216,2.016 -2.68803,1.24806 -5.04003,3.07206 -7.056,5.472 -1.92002,2.40005 -3.40802,5.28005 -4.464,8.64 -1.05602,3.26404 -1.58402,6.91204 -1.584,10.944 -2e-5,4.03203 0.52798,7.68003 1.584,10.944 1.05598,3.26402 2.54398,6.09602 4.464,8.496 2.01597,2.30401 4.36797,4.12801 7.056,5.472 2.78397,1.24801 5.85596,1.87201 9.216,1.872"
           style="font-size:144px;font-style:normal;font-variant:normal;font-stretch:normal;text-align:start;line-height:125%;writing-mode:lr-tb;text-anchor:start;fill:#ff8d12;fill-opacity:1;font-family:Source Code Pro;-inkscape-font-specification:Source Code Pro Semi-Light"
           id="path3211"
           inkscape:connector-curvature="0" />
      </g>
      <g
         id="g3213"
         transform="matrix(1.1089824,0,0,1.1089824,-2746.8173,118.54366)">
        <rect
           style="fill:#ff8d12;fill-opacity:1;fill-rule:evenodd;stroke:none"
           id="rect3215"
           width="44.033901"
           height="44.033901"
           x="1293.2427"
           y="77.850952"
           ry="9.8414583" />
        <rect
           ry="9.8414583"
           y="31.85096"
           x="1340.4845"
           height="44.033901"
           width="44.033901"
           id="rect3217"
           style="fill:#18a6dc;fill-opacity:1;fill-rule:evenodd;stroke:none" />
        <rect
           style="fill:#f31161;fill-opacity:1;fill-rule:evenodd;stroke:none"
           id="rect3219"
           width="44.033901"
           height="44.033901"
           x="1340.4846"
           y="77.850952"
           ry="9.8414583" />
        <rect
           ry="9.8414583"
           y="-14.14904"
           x="1293.2427"
           height="44.033901"
           width="44.033901"
           id="rect3221"
           style="fill:#85f611;fill-opacity:1;fill-rule:evenodd;stroke:none" />
        <rect
           style="fill:#d9bb7a;fill-opacity:1;fill-rule:evenodd;stroke:none"
           id="rect3223"
           width="44.033901"
           height="44.033901"
           x="1246.4845"
           y="77.850952"
           ry="9.8414583" />
      </g>
      <text
         xml:space="preserve"
         style="font-size:115.88349152px;font-style:normal;font-variant:normal;font-stretch:normal;text-align:start;line-height:125%;letter-spacing:0px;word-spacing:0px;writing-mode:lr-tb;text-anchor:start;fill:#ffffff;fill-opacity:1;stroke:none;font-family:Source Code Pro;-inkscape-font-specification:Source Code Pro Semi-Light"
         x="-1125.4125"
         y="291.51529"
         id="text3225"
         sodipodi:linespacing="125%"><tspan
           sodipodi:role="line"
           x="-1125.4125"
           y="291.51529"
           style="font-size:22.53290176px;font-style:normal;font-variant:normal;font-weight:bold;font-stretch:normal;text-align:center;line-height:125%;writing-mode:lr-tb;text-anchor:middle;fill:#ffffff;fill-opacity:1;font-family:Source Code Pro;-inkscape-font-specification:Source Code Pro Semi-Light"
           id="tspan3227"><tspan
   id="tspan3229"
   style="font-weight:normal;fill:#ffffff">Técnico em</tspan> Informática para Internet</tspan></text>
    </g>
    <rect
       ry="21.618351"
       y="633.47205"
       x="-1218.9347"
       height="236.20049"
       width="571.68524"
       id="rect3233"
       style="fill:#003366;stroke:none"
       inkscape:export-filename="/home/jaspion/IFRS/arte/info-logo-fundos.png"
       inkscape:export-xdpi="100"
       inkscape:export-ydpi="100" />
    <g
       transform="translate(191.80458,554.4226)"
       id="g3235"
       inkscape:export-filename="/home/jaspion/IFRS/arte/info-logo-fundos.png"
       inkscape:export-xdpi="100"
       inkscape:export-ydpi="100">
      <g
         id="g3237"
         transform="matrix(1.0817824,0,0,1.0817824,-1585.476,-219.62186)"
         style="font-size:144px;font-style:normal;font-variant:normal;font-stretch:normal;text-align:start;line-height:125%;letter-spacing:0px;word-spacing:0px;writing-mode:lr-tb;text-anchor:start;fill:#000000;fill-opacity:1;stroke:none;font-family:Source Code Pro;-inkscape-font-specification:Source Code Pro Semi-Light">
        <path
           inkscape:connector-curvature="0"
           id="path3239"
           d="m 409.91983,422.56601 c 0,-20.112 0,-40.224 0,-60.336 -10.848,0 -21.696,0 -32.544,0 0,-3.216 0,-6.432 0,-9.648 14.784,0 29.568,0 44.352,0 0,23.328 0,46.656 0,69.984 -3.936,0 -7.872,0 -11.808,0 z"
           style="font-size:144px;font-style:normal;font-variant:normal;font-stretch:normal;text-align:start;line-height:125%;writing-mode:lr-tb;text-anchor:start;fill:#85f611;fill-opacity:1;font-family:Source Code Pro;-inkscape-font-specification:Source Code Pro Semi-Light" />
        <path
           inkscape:connector-curvature="0"
           id="path3241"
           d="m 414.52654,339.89087 c -5.66701,0.34775 -11.15724,-4.50031 -11.05204,-10.58355 -0.72964,-6.68351 5.3799,-12.47905 11.6329,-11.82622 6.11961,-0.046 11.40141,6.05432 10.43384,12.43865 -0.23996,5.93271 -5.50559,10.21116 -11.0147,9.97112 z"
           style="font-size:144px;font-style:normal;font-variant:normal;font-stretch:normal;text-align:start;line-height:125%;writing-mode:lr-tb;text-anchor:start;fill:#d9bb7a;fill-opacity:1;font-family:Source Code Pro;-inkscape-font-specification:Source Code Pro Semi-Light" />
        <path
           inkscape:connector-curvature="0"
           id="path3243"
           style="font-size:144px;font-style:normal;font-variant:normal;font-stretch:normal;text-align:start;line-height:125%;writing-mode:lr-tb;text-anchor:start;fill:#18a6dc;fill-opacity:1;font-family:Source Code Pro;-inkscape-font-specification:Source Code Pro Semi-Light"
           d="m 444.15158,422.56601 0,-69.984 9.792,0 1.008,11.952 0.576,0 c 3.64797,-3.93594 7.58397,-7.19994 11.808,-9.792 4.22396,-2.59193 9.07196,-3.88793 14.544,-3.888 8.35194,7e-5 14.44794,2.40007 18.288,7.2 3.93593,4.70406 5.90393,11.71205 5.904,21.024 l 0,43.488 -11.808,0 0,-41.904 c -6e-5,-6.62395 -1.24806,-11.51995 -3.744,-14.688 -2.49605,-3.26394 -6.62405,-4.89594 -12.384,-4.896 -2.11204,6e-5 -4.08004,0.28806 -5.904,0.864 -1.72804,0.48006 -3.45604,1.24806 -5.184,2.304 -1.72803,1.05606 -3.50403,2.40006 -5.328,4.032 -1.82403,1.53605 -3.74402,3.36005 -5.76,5.472 l 0,48.816 -11.808,0" />
        <path
           inkscape:connector-curvature="0"
           id="path3245"
           style="font-size:144px;font-style:normal;font-variant:normal;font-stretch:normal;text-align:start;line-height:125%;writing-mode:lr-tb;text-anchor:start;fill:#f31161;fill-opacity:1;font-family:Source Code Pro;-inkscape-font-specification:Source Code Pro Semi-Light"
           d="m 537.95133,422.56601 0,-60.336 -20.016,0 0,-8.928 20.016,-0.72 0,-5.904 c -3e-5,-8.54392 2.25597,-15.40791 6.768,-20.592 4.60796,-5.1839 11.75995,-7.7759 21.456,-7.776 6.91193,1e-4 13.63193,1.3441 20.16,4.032 l -2.736,8.928 c -2.88008,-1.34391 -5.56807,-2.20791 -8.064,-2.592 -2.40007,-0.47991 -5.13606,-0.71991 -8.208,-0.72 -6.33606,9e-5 -10.89605,1.63209 -13.68,4.896 -2.68805,3.16809 -4.03204,7.63208 -4.032,13.392 l 0,6.336 29.376,0 0,9.648 -29.376,0 0,60.336 -11.664,0" />
        <path
           inkscape:connector-curvature="0"
           id="path3247"
           style="font-size:144px;font-style:normal;font-variant:normal;font-stretch:normal;text-align:start;line-height:125%;writing-mode:lr-tb;text-anchor:start;fill:#ff8d12;fill-opacity:1;font-family:Source Code Pro;-inkscape-font-specification:Source Code Pro Semi-Light"
           d="m 618.64708,424.29401 c -4.60804,0 -9.02403,-0.816 -13.248,-2.448 -4.12802,-1.632 -7.77602,-3.984 -10.944,-7.056 -3.16801,-3.16799 -5.71201,-7.00799 -7.632,-11.52 -1.82401,-4.60798 -2.73601,-9.79197 -2.736,-15.552 -10e-6,-5.85596 0.91199,-11.03995 2.736,-15.552 1.91999,-4.60795 4.46399,-8.49594 7.632,-11.664 3.16798,-3.16794 6.81598,-5.56793 10.944,-7.2 4.22397,-1.63193 8.63996,-2.44793 13.248,-2.448 4.60795,7e-5 8.97595,0.81607 13.104,2.448 4.22394,1.63207 7.91994,4.03206 11.088,7.2 3.16793,3.16806 5.66393,7.05605 7.488,11.664 1.91993,4.51205 2.87992,9.69604 2.88,15.552 -8e-5,5.76003 -0.96007,10.94402 -2.88,15.552 -1.82407,4.51201 -4.32007,8.35201 -7.488,11.52 -3.16806,3.072 -6.86406,5.424 -11.088,7.056 -4.12805,1.632 -8.49605,2.448 -13.104,2.448 m 0,-9.792 c 3.35996,1e-5 6.38395,-0.62399 9.072,-1.872 2.78395,-1.34399 5.13595,-3.16799 7.056,-5.472 2.01594,-2.39998 3.55194,-5.23198 4.608,-8.496 1.05594,-3.26397 1.58394,-6.91197 1.584,-10.944 -6e-5,-4.03196 -0.52806,-7.67996 -1.584,-10.944 -1.05606,-3.35995 -2.59206,-6.23995 -4.608,-8.64 -1.92005,-2.39994 -4.27205,-4.22394 -7.056,-5.472 -2.68805,-1.34394 -5.71204,-2.01594 -9.072,-2.016 -3.36004,6e-5 -6.43203,0.67206 -9.216,2.016 -2.68803,1.24806 -5.04003,3.07206 -7.056,5.472 -1.92002,2.40005 -3.40802,5.28005 -4.464,8.64 -1.05602,3.26404 -1.58402,6.91204 -1.584,10.944 -2e-5,4.03203 0.52798,7.68003 1.584,10.944 1.05598,3.26402 2.54398,6.09602 4.464,8.496 2.01597,2.30401 4.36797,4.12801 7.056,5.472 2.78397,1.24801 5.85596,1.87201 9.216,1.872" />
      </g>
      <g
         transform="matrix(1.1089824,0,0,1.1089824,-2746.8173,118.54366)"
         id="g3249">
        <rect
           ry="9.8414583"
           y="77.850952"
           x="1293.2427"
           height="44.033901"
           width="44.033901"
           id="rect3251"
           style="fill:#ff8d12;fill-opacity:1;fill-rule:evenodd;stroke:none" />
        <rect
           style="fill:#18a6dc;fill-opacity:1;fill-rule:evenodd;stroke:none"
           id="rect3253"
           width="44.033901"
           height="44.033901"
           x="1340.4845"
           y="31.85096"
           ry="9.8414583" />
        <rect
           ry="9.8414583"
           y="77.850952"
           x="1340.4846"
           height="44.033901"
           width="44.033901"
           id="rect3255"
           style="fill:#f31161;fill-opacity:1;fill-rule:evenodd;stroke:none" />
        <rect
           style="fill:#85f611;fill-opacity:1;fill-rule:evenodd;stroke:none"
           id="rect3257"
           width="44.033901"
           height="44.033901"
           x="1293.2427"
           y="-14.14904"
           ry="9.8414583" />
        <rect
           ry="9.8414583"
           y="77.850952"
           x="1246.4845"
           height="44.033901"
           width="44.033901"
           id="rect3259"
           style="fill:#d9bb7a;fill-opacity:1;fill-rule:evenodd;stroke:none" />
      </g>
      <text
         sodipodi:linespacing="125%"
         id="text3261"
         y="291.51529"
         x="-1125.4125"
         style="font-size:115.88349152px;font-style:normal;font-variant:normal;font-stretch:normal;text-align:start;line-height:125%;letter-spacing:0px;word-spacing:0px;writing-mode:lr-tb;text-anchor:start;fill:#ffffff;fill-opacity:1;stroke:none;font-family:Source Code Pro;-inkscape-font-specification:Source Code Pro Semi-Light"
         xml:space="preserve"><tspan
           id="tspan3263"
           style="font-size:22.53290176px;font-style:normal;font-variant:normal;font-weight:bold;font-stretch:normal;text-align:center;line-height:125%;writing-mode:lr-tb;text-anchor:middle;fill:#ffffff;fill-opacity:1;font-family:Source Code Pro;-inkscape-font-specification:Source Code Pro Semi-Light"
           y="291.51529"
           x="-1125.4125"
           sodipodi:role="line"><tspan
   style="font-weight:normal;fill:#ffffff"
   id="tspan3265">Técnico em</tspan> Informática para Internet</tspan></text>
    </g>
    <rect
       ry="21.618351"
       y="113.47204"
       x="-1218.9347"
       height="236.20049"
       width="571.68524"
       id="rect3267"
       style="fill:none;stroke:#000000"
       inkscape:export-filename="/home/jaspion/IFRS/arte/info-logo-fundos.png"
       inkscape:export-xdpi="100"
       inkscape:export-ydpi="100" />
    <g
       style="font-size:144px;font-style:normal;font-variant:normal;font-stretch:normal;text-align:start;line-height:125%;letter-spacing:0px;word-spacing:0px;writing-mode:lr-tb;text-anchor:start;fill:#000000;fill-opacity:1;stroke:none;font-family:Source Code Pro;-inkscape-font-specification:Source Code Pro Semi-Light"
       transform="matrix(1.0817824,0,0,1.0817824,-1393.6714,-185.19926)"
       id="g3271"
       inkscape:export-filename="/home/jaspion/IFRS/arte/info-logo-fundos.png"
       inkscape:export-xdpi="100"
       inkscape:export-ydpi="100">
      <path
         style="font-size:144px;font-style:normal;font-variant:normal;font-stretch:normal;text-align:start;line-height:125%;writing-mode:lr-tb;text-anchor:start;fill:#85f611;fill-opacity:1;font-family:Source Code Pro;-inkscape-font-specification:Source Code Pro Semi-Light"
         d="m 409.91983,422.56601 c 0,-20.112 0,-40.224 0,-60.336 -10.848,0 -21.696,0 -32.544,0 0,-3.216 0,-6.432 0,-9.648 14.784,0 29.568,0 44.352,0 0,23.328 0,46.656 0,69.984 -3.936,0 -7.872,0 -11.808,0 z"
         id="path3273"
         inkscape:connector-curvature="0" />
      <path
         style="font-size:144px;font-style:normal;font-variant:normal;font-stretch:normal;text-align:start;line-height:125%;writing-mode:lr-tb;text-anchor:start;fill:#d9bb7a;fill-opacity:1;font-family:Source Code Pro;-inkscape-font-specification:Source Code Pro Semi-Light"
         d="m 414.52654,339.89087 c -5.66701,0.34775 -11.15724,-4.50031 -11.05204,-10.58355 -0.72964,-6.68351 5.3799,-12.47905 11.6329,-11.82622 6.11961,-0.046 11.40141,6.05432 10.43384,12.43865 -0.23996,5.93271 -5.50559,10.21116 -11.0147,9.97112 z"
         id="path3275"
         inkscape:connector-curvature="0" />
      <path
         d="m 444.15158,422.56601 0,-69.984 9.792,0 1.008,11.952 0.576,0 c 3.64797,-3.93594 7.58397,-7.19994 11.808,-9.792 4.22396,-2.59193 9.07196,-3.88793 14.544,-3.888 8.35194,7e-5 14.44794,2.40007 18.288,7.2 3.93593,4.70406 5.90393,11.71205 5.904,21.024 l 0,43.488 -11.808,0 0,-41.904 c -6e-5,-6.62395 -1.24806,-11.51995 -3.744,-14.688 -2.49605,-3.26394 -6.62405,-4.89594 -12.384,-4.896 -2.11204,6e-5 -4.08004,0.28806 -5.904,0.864 -1.72804,0.48006 -3.45604,1.24806 -5.184,2.304 -1.72803,1.05606 -3.50403,2.40006 -5.328,4.032 -1.82403,1.53605 -3.74402,3.36005 -5.76,5.472 l 0,48.816 -11.808,0"
         style="font-size:144px;font-style:normal;font-variant:normal;font-stretch:normal;text-align:start;line-height:125%;writing-mode:lr-tb;text-anchor:start;fill:#18a6dc;fill-opacity:1;font-family:Source Code Pro;-inkscape-font-specification:Source Code Pro Semi-Light"
         id="path3277"
         inkscape:connector-curvature="0" />
      <path
         d="m 537.95133,422.56601 0,-60.336 -20.016,0 0,-8.928 20.016,-0.72 0,-5.904 c -3e-5,-8.54392 2.25597,-15.40791 6.768,-20.592 4.60796,-5.1839 11.75995,-7.7759 21.456,-7.776 6.91193,1e-4 13.63193,1.3441 20.16,4.032 l -2.736,8.928 c -2.88008,-1.34391 -5.56807,-2.20791 -8.064,-2.592 -2.40007,-0.47991 -5.13606,-0.71991 -8.208,-0.72 -6.33606,9e-5 -10.89605,1.63209 -13.68,4.896 -2.68805,3.16809 -4.03204,7.63208 -4.032,13.392 l 0,6.336 29.376,0 0,9.648 -29.376,0 0,60.336 -11.664,0"
         style="font-size:144px;font-style:normal;font-variant:normal;font-stretch:normal;text-align:start;line-height:125%;writing-mode:lr-tb;text-anchor:start;fill:#f31161;fill-opacity:1;font-family:Source Code Pro;-inkscape-font-specification:Source Code Pro Semi-Light"
         id="path3279"
         inkscape:connector-curvature="0" />
      <path
         d="m 618.64708,424.29401 c -4.60804,0 -9.02403,-0.816 -13.248,-2.448 -4.12802,-1.632 -7.77602,-3.984 -10.944,-7.056 -3.16801,-3.16799 -5.71201,-7.00799 -7.632,-11.52 -1.82401,-4.60798 -2.73601,-9.79197 -2.736,-15.552 -10e-6,-5.85596 0.91199,-11.03995 2.736,-15.552 1.91999,-4.60795 4.46399,-8.49594 7.632,-11.664 3.16798,-3.16794 6.81598,-5.56793 10.944,-7.2 4.22397,-1.63193 8.63996,-2.44793 13.248,-2.448 4.60795,7e-5 8.97595,0.81607 13.104,2.448 4.22394,1.63207 7.91994,4.03206 11.088,7.2 3.16793,3.16806 5.66393,7.05605 7.488,11.664 1.91993,4.51205 2.87992,9.69604 2.88,15.552 -8e-5,5.76003 -0.96007,10.94402 -2.88,15.552 -1.82407,4.51201 -4.32007,8.35201 -7.488,11.52 -3.16806,3.072 -6.86406,5.424 -11.088,7.056 -4.12805,1.632 -8.49605,2.448 -13.104,2.448 m 0,-9.792 c 3.35996,1e-5 6.38395,-0.62399 9.072,-1.872 2.78395,-1.34399 5.13595,-3.16799 7.056,-5.472 2.01594,-2.39998 3.55194,-5.23198 4.608,-8.496 1.05594,-3.26397 1.58394,-6.91197 1.584,-10.944 -6e-5,-4.03196 -0.52806,-7.67996 -1.584,-10.944 -1.05606,-3.35995 -2.59206,-6.23995 -4.608,-8.64 -1.92005,-2.39994 -4.27205,-4.22394 -7.056,-5.472 -2.68805,-1.34394 -5.71204,-2.01594 -9.072,-2.016 -3.36004,6e-5 -6.43203,0.67206 -9.216,2.016 -2.68803,1.24806 -5.04003,3.07206 -7.056,5.472 -1.92002,2.40005 -3.40802,5.28005 -4.464,8.64 -1.05602,3.26404 -1.58402,6.91204 -1.584,10.944 -2e-5,4.03203 0.52798,7.68003 1.584,10.944 1.05598,3.26402 2.54398,6.09602 4.464,8.496 2.01597,2.30401 4.36797,4.12801 7.056,5.472 2.78397,1.24801 5.85596,1.87201 9.216,1.872"
         style="font-size:144px;font-style:normal;font-variant:normal;font-stretch:normal;text-align:start;line-height:125%;writing-mode:lr-tb;text-anchor:start;fill:#ff8d12;fill-opacity:1;font-family:Source Code Pro;-inkscape-font-specification:Source Code Pro Semi-Light"
         id="path3281"
         inkscape:connector-curvature="0" />
    </g>
    <g
       id="g3283"
       transform="matrix(1.1089824,0,0,1.1089824,-2555.0127,152.96626)"
       inkscape:export-filename="/home/jaspion/IFRS/arte/info-logo-fundos.png"
       inkscape:export-xdpi="100"
       inkscape:export-ydpi="100">
      <rect
         style="fill:#ff8d12;fill-opacity:1;fill-rule:evenodd;stroke:none"
         id="rect3285"
         width="44.033901"
         height="44.033901"
         x="1293.2427"
         y="77.850952"
         ry="9.8414583" />
      <rect
         ry="9.8414583"
         y="31.85096"
         x="1340.4845"
         height="44.033901"
         width="44.033901"
         id="rect3287"
         style="fill:#18a6dc;fill-opacity:1;fill-rule:evenodd;stroke:none" />
      <rect
         style="fill:#f31161;fill-opacity:1;fill-rule:evenodd;stroke:none"
         id="rect3289"
         width="44.033901"
         height="44.033901"
         x="1340.4846"
         y="77.850952"
         ry="9.8414583" />
      <rect
         ry="9.8414583"
         y="-14.14904"
         x="1293.2427"
         height="44.033901"
         width="44.033901"
         id="rect3291"
         style="fill:#85f611;fill-opacity:1;fill-rule:evenodd;stroke:none" />
      <rect
         style="fill:#d9bb7a;fill-opacity:1;fill-rule:evenodd;stroke:none"
         id="rect3293"
         width="44.033901"
         height="44.033901"
         x="1246.4845"
         y="77.850952"
         ry="9.8414583" />
    </g>
    <text
       xml:space="preserve"
       style="font-size:115.88349152px;font-style:normal;font-variant:normal;font-stretch:normal;text-align:start;line-height:125%;letter-spacing:0px;word-spacing:0px;writing-mode:lr-tb;text-anchor:start;fill:#000000;fill-opacity:1;stroke:none;font-family:Source Code Pro;-inkscape-font-specification:Source Code Pro Semi-Light"
       x="-933.60791"
       y="325.9379"
       id="text3295"
       sodipodi:linespacing="125%"
       inkscape:export-filename="/home/jaspion/IFRS/arte/info-logo-fundos.png"
       inkscape:export-xdpi="100"
       inkscape:export-ydpi="100"><tspan
         sodipodi:role="line"
         x="-933.60791"
         y="325.9379"
         style="font-size:22.53290176px;font-style:normal;font-variant:normal;font-weight:bold;font-stretch:normal;text-align:center;line-height:125%;writing-mode:lr-tb;text-anchor:middle;fill:#000000;fill-opacity:1;font-family:Source Code Pro;-inkscape-font-specification:Source Code Pro Semi-Light"
         id="tspan3297"><tspan
   id="tspan3299"
   style="font-weight:normal;fill:#000000">Técnico em</tspan> Informática para Internet</tspan></text>
    <rect
       style="fill:#000031;fill-opacity:1;stroke:none"
       id="rect3301"
       width="571.68524"
       height="236.20049"
       x="-1218.9347"
       y="893.47205"
       ry="21.618351"
       inkscape:export-filename="/home/jaspion/IFRS/arte/info-logo-fundos.png"
       inkscape:export-xdpi="100"
       inkscape:export-ydpi="100" />
    <g
       id="g3303"
       transform="translate(191.80458,814.4226)"
       inkscape:export-filename="/home/jaspion/IFRS/arte/info-logo-fundos.png"
       inkscape:export-xdpi="100"
       inkscape:export-ydpi="100">
      <g
         style="font-size:144px;font-style:normal;font-variant:normal;font-stretch:normal;text-align:start;line-height:125%;letter-spacing:0px;word-spacing:0px;writing-mode:lr-tb;text-anchor:start;fill:#000000;fill-opacity:1;stroke:none;font-family:Source Code Pro;-inkscape-font-specification:Source Code Pro Semi-Light"
         transform="matrix(1.0817824,0,0,1.0817824,-1585.476,-219.62186)"
         id="g3305">
        <path
           style="font-size:144px;font-style:normal;font-variant:normal;font-stretch:normal;text-align:start;line-height:125%;writing-mode:lr-tb;text-anchor:start;fill:#85f611;fill-opacity:1;font-family:Source Code Pro;-inkscape-font-specification:Source Code Pro Semi-Light"
           d="m 409.91983,422.56601 c 0,-20.112 0,-40.224 0,-60.336 -10.848,0 -21.696,0 -32.544,0 0,-3.216 0,-6.432 0,-9.648 14.784,0 29.568,0 44.352,0 0,23.328 0,46.656 0,69.984 -3.936,0 -7.872,0 -11.808,0 z"
           id="path3307"
           inkscape:connector-curvature="0" />
        <path
           style="font-size:144px;font-style:normal;font-variant:normal;font-stretch:normal;text-align:start;line-height:125%;writing-mode:lr-tb;text-anchor:start;fill:#d9bb7a;fill-opacity:1;font-family:Source Code Pro;-inkscape-font-specification:Source Code Pro Semi-Light"
           d="m 414.52654,339.89087 c -5.66701,0.34775 -11.15724,-4.50031 -11.05204,-10.58355 -0.72964,-6.68351 5.3799,-12.47905 11.6329,-11.82622 6.11961,-0.046 11.40141,6.05432 10.43384,12.43865 -0.23996,5.93271 -5.50559,10.21116 -11.0147,9.97112 z"
           id="path3309"
           inkscape:connector-curvature="0" />
        <path
           d="m 444.15158,422.56601 0,-69.984 9.792,0 1.008,11.952 0.576,0 c 3.64797,-3.93594 7.58397,-7.19994 11.808,-9.792 4.22396,-2.59193 9.07196,-3.88793 14.544,-3.888 8.35194,7e-5 14.44794,2.40007 18.288,7.2 3.93593,4.70406 5.90393,11.71205 5.904,21.024 l 0,43.488 -11.808,0 0,-41.904 c -6e-5,-6.62395 -1.24806,-11.51995 -3.744,-14.688 -2.49605,-3.26394 -6.62405,-4.89594 -12.384,-4.896 -2.11204,6e-5 -4.08004,0.28806 -5.904,0.864 -1.72804,0.48006 -3.45604,1.24806 -5.184,2.304 -1.72803,1.05606 -3.50403,2.40006 -5.328,4.032 -1.82403,1.53605 -3.74402,3.36005 -5.76,5.472 l 0,48.816 -11.808,0"
           style="font-size:144px;font-style:normal;font-variant:normal;font-stretch:normal;text-align:start;line-height:125%;writing-mode:lr-tb;text-anchor:start;fill:#18a6dc;fill-opacity:1;font-family:Source Code Pro;-inkscape-font-specification:Source Code Pro Semi-Light"
           id="path3311"
           inkscape:connector-curvature="0" />
        <path
           d="m 537.95133,422.56601 0,-60.336 -20.016,0 0,-8.928 20.016,-0.72 0,-5.904 c -3e-5,-8.54392 2.25597,-15.40791 6.768,-20.592 4.60796,-5.1839 11.75995,-7.7759 21.456,-7.776 6.91193,1e-4 13.63193,1.3441 20.16,4.032 l -2.736,8.928 c -2.88008,-1.34391 -5.56807,-2.20791 -8.064,-2.592 -2.40007,-0.47991 -5.13606,-0.71991 -8.208,-0.72 -6.33606,9e-5 -10.89605,1.63209 -13.68,4.896 -2.68805,3.16809 -4.03204,7.63208 -4.032,13.392 l 0,6.336 29.376,0 0,9.648 -29.376,0 0,60.336 -11.664,0"
           style="font-size:144px;font-style:normal;font-variant:normal;font-stretch:normal;text-align:start;line-height:125%;writing-mode:lr-tb;text-anchor:start;fill:#f31161;fill-opacity:1;font-family:Source Code Pro;-inkscape-font-specification:Source Code Pro Semi-Light"
           id="path3313"
           inkscape:connector-curvature="0" />
        <path
           d="m 618.64708,424.29401 c -4.60804,0 -9.02403,-0.816 -13.248,-2.448 -4.12802,-1.632 -7.77602,-3.984 -10.944,-7.056 -3.16801,-3.16799 -5.71201,-7.00799 -7.632,-11.52 -1.82401,-4.60798 -2.73601,-9.79197 -2.736,-15.552 -10e-6,-5.85596 0.91199,-11.03995 2.736,-15.552 1.91999,-4.60795 4.46399,-8.49594 7.632,-11.664 3.16798,-3.16794 6.81598,-5.56793 10.944,-7.2 4.22397,-1.63193 8.63996,-2.44793 13.248,-2.448 4.60795,7e-5 8.97595,0.81607 13.104,2.448 4.22394,1.63207 7.91994,4.03206 11.088,7.2 3.16793,3.16806 5.66393,7.05605 7.488,11.664 1.91993,4.51205 2.87992,9.69604 2.88,15.552 -8e-5,5.76003 -0.96007,10.94402 -2.88,15.552 -1.82407,4.51201 -4.32007,8.35201 -7.488,11.52 -3.16806,3.072 -6.86406,5.424 -11.088,7.056 -4.12805,1.632 -8.49605,2.448 -13.104,2.448 m 0,-9.792 c 3.35996,1e-5 6.38395,-0.62399 9.072,-1.872 2.78395,-1.34399 5.13595,-3.16799 7.056,-5.472 2.01594,-2.39998 3.55194,-5.23198 4.608,-8.496 1.05594,-3.26397 1.58394,-6.91197 1.584,-10.944 -6e-5,-4.03196 -0.52806,-7.67996 -1.584,-10.944 -1.05606,-3.35995 -2.59206,-6.23995 -4.608,-8.64 -1.92005,-2.39994 -4.27205,-4.22394 -7.056,-5.472 -2.68805,-1.34394 -5.71204,-2.01594 -9.072,-2.016 -3.36004,6e-5 -6.43203,0.67206 -9.216,2.016 -2.68803,1.24806 -5.04003,3.07206 -7.056,5.472 -1.92002,2.40005 -3.40802,5.28005 -4.464,8.64 -1.05602,3.26404 -1.58402,6.91204 -1.584,10.944 -2e-5,4.03203 0.52798,7.68003 1.584,10.944 1.05598,3.26402 2.54398,6.09602 4.464,8.496 2.01597,2.30401 4.36797,4.12801 7.056,5.472 2.78397,1.24801 5.85596,1.87201 9.216,1.872"
           style="font-size:144px;font-style:normal;font-variant:normal;font-stretch:normal;text-align:start;line-height:125%;writing-mode:lr-tb;text-anchor:start;fill:#ff8d12;fill-opacity:1;font-family:Source Code Pro;-inkscape-font-specification:Source Code Pro Semi-Light"
           id="path3315"
           inkscape:connector-curvature="0" />
      </g>
      <g
         id="g3317"
         transform="matrix(1.1089824,0,0,1.1089824,-2746.8173,118.54366)">
        <rect
           style="fill:#ff8d12;fill-opacity:1;fill-rule:evenodd;stroke:none"
           id="rect3319"
           width="44.033901"
           height="44.033901"
           x="1293.2427"
           y="77.850952"
           ry="9.8414583" />
        <rect
           ry="9.8414583"
           y="31.85096"
           x="1340.4845"
           height="44.033901"
           width="44.033901"
           id="rect3321"
           style="fill:#18a6dc;fill-opacity:1;fill-rule:evenodd;stroke:none" />
        <rect
           style="fill:#f31161;fill-opacity:1;fill-rule:evenodd;stroke:none"
           id="rect3323"
           width="44.033901"
           height="44.033901"
           x="1340.4846"
           y="77.850952"
           ry="9.8414583" />
        <rect
           ry="9.8414583"
           y="-14.14904"
           x="1293.2427"
           height="44.033901"
           width="44.033901"
           id="rect3325"
           style="fill:#85f611;fill-opacity:1;fill-rule:evenodd;stroke:none" />
        <rect
           style="fill:#d9bb7a;fill-opacity:1;fill-rule:evenodd;stroke:none"
           id="rect3327"
           width="44.033901"
           height="44.033901"
           x="1246.4845"
           y="77.850952"
           ry="9.8414583" />
      </g>
      <text
         xml:space="preserve"
         style="font-size:115.88349152px;font-style:normal;font-variant:normal;font-stretch:normal;text-align:start;line-height:125%;letter-spacing:0px;word-spacing:0px;writing-mode:lr-tb;text-anchor:start;fill:#ffffff;fill-opacity:1;stroke:none;font-family:Source Code Pro;-inkscape-font-specification:Source Code Pro Semi-Light"
         x="-1125.4125"
         y="291.51529"
         id="text3329"
         sodipodi:linespacing="125%"><tspan
           sodipodi:role="line"
           x="-1125.4125"
           y="291.51529"
           style="font-size:22.53290176px;font-style:normal;font-variant:normal;font-weight:bold;font-stretch:normal;text-align:center;line-height:125%;writing-mode:lr-tb;text-anchor:middle;fill:#ffffff;fill-opacity:1;font-family:Source Code Pro;-inkscape-font-specification:Source Code Pro Semi-Light"
           id="tspan3331"><tspan
   id="tspan3333"
   style="font-weight:normal;fill:#ffffff">Técnico em</tspan> Informática para Internet</tspan></text>
    </g>
    <rect
       ry="21.618351"
       y="1153.472"
       x="-1218.9347"
       height="236.20049"
       width="571.68524"
       id="rect4103"
       style="fill:#3d0000;fill-opacity:1;stroke:none"
       inkscape:export-filename="/home/jaspion/IFRS/arte/info-logo-fundos.png"
       inkscape:export-xdpi="100"
       inkscape:export-ydpi="100" />
    <g
       transform="translate(191.80458,1074.4226)"
       id="g4105"
       inkscape:export-filename="/home/jaspion/IFRS/arte/info-logo-fundos.png"
       inkscape:export-xdpi="100"
       inkscape:export-ydpi="100">
      <g
         id="g4107"
         transform="matrix(1.0817824,0,0,1.0817824,-1585.476,-219.62186)"
         style="font-size:144px;font-style:normal;font-variant:normal;font-stretch:normal;text-align:start;line-height:125%;letter-spacing:0px;word-spacing:0px;writing-mode:lr-tb;text-anchor:start;fill:#000000;fill-opacity:1;stroke:none;font-family:Source Code Pro;-inkscape-font-specification:Source Code Pro Semi-Light">
        <path
           inkscape:connector-curvature="0"
           id="path4109"
           d="m 409.91983,422.56601 c 0,-20.112 0,-40.224 0,-60.336 -10.848,0 -21.696,0 -32.544,0 0,-3.216 0,-6.432 0,-9.648 14.784,0 29.568,0 44.352,0 0,23.328 0,46.656 0,69.984 -3.936,0 -7.872,0 -11.808,0 z"
           style="font-size:144px;font-style:normal;font-variant:normal;font-stretch:normal;text-align:start;line-height:125%;writing-mode:lr-tb;text-anchor:start;fill:#85f611;fill-opacity:1;font-family:Source Code Pro;-inkscape-font-specification:Source Code Pro Semi-Light" />
        <path
           inkscape:connector-curvature="0"
           id="path4111"
           d="m 414.52654,339.89087 c -5.66701,0.34775 -11.15724,-4.50031 -11.05204,-10.58355 -0.72964,-6.68351 5.3799,-12.47905 11.6329,-11.82622 6.11961,-0.046 11.40141,6.05432 10.43384,12.43865 -0.23996,5.93271 -5.50559,10.21116 -11.0147,9.97112 z"
           style="font-size:144px;font-style:normal;font-variant:normal;font-stretch:normal;text-align:start;line-height:125%;writing-mode:lr-tb;text-anchor:start;fill:#d9bb7a;fill-opacity:1;font-family:Source Code Pro;-inkscape-font-specification:Source Code Pro Semi-Light" />
        <path
           inkscape:connector-curvature="0"
           id="path4113"
           style="font-size:144px;font-style:normal;font-variant:normal;font-stretch:normal;text-align:start;line-height:125%;writing-mode:lr-tb;text-anchor:start;fill:#18a6dc;fill-opacity:1;font-family:Source Code Pro;-inkscape-font-specification:Source Code Pro Semi-Light"
           d="m 444.15158,422.56601 0,-69.984 9.792,0 1.008,11.952 0.576,0 c 3.64797,-3.93594 7.58397,-7.19994 11.808,-9.792 4.22396,-2.59193 9.07196,-3.88793 14.544,-3.888 8.35194,7e-5 14.44794,2.40007 18.288,7.2 3.93593,4.70406 5.90393,11.71205 5.904,21.024 l 0,43.488 -11.808,0 0,-41.904 c -6e-5,-6.62395 -1.24806,-11.51995 -3.744,-14.688 -2.49605,-3.26394 -6.62405,-4.89594 -12.384,-4.896 -2.11204,6e-5 -4.08004,0.28806 -5.904,0.864 -1.72804,0.48006 -3.45604,1.24806 -5.184,2.304 -1.72803,1.05606 -3.50403,2.40006 -5.328,4.032 -1.82403,1.53605 -3.74402,3.36005 -5.76,5.472 l 0,48.816 -11.808,0" />
        <path
           inkscape:connector-curvature="0"
           id="path4115"
           style="font-size:144px;font-style:normal;font-variant:normal;font-stretch:normal;text-align:start;line-height:125%;writing-mode:lr-tb;text-anchor:start;fill:#f31161;fill-opacity:1;font-family:Source Code Pro;-inkscape-font-specification:Source Code Pro Semi-Light"
           d="m 537.95133,422.56601 0,-60.336 -20.016,0 0,-8.928 20.016,-0.72 0,-5.904 c -3e-5,-8.54392 2.25597,-15.40791 6.768,-20.592 4.60796,-5.1839 11.75995,-7.7759 21.456,-7.776 6.91193,1e-4 13.63193,1.3441 20.16,4.032 l -2.736,8.928 c -2.88008,-1.34391 -5.56807,-2.20791 -8.064,-2.592 -2.40007,-0.47991 -5.13606,-0.71991 -8.208,-0.72 -6.33606,9e-5 -10.89605,1.63209 -13.68,4.896 -2.68805,3.16809 -4.03204,7.63208 -4.032,13.392 l 0,6.336 29.376,0 0,9.648 -29.376,0 0,60.336 -11.664,0" />
        <path
           inkscape:connector-curvature="0"
           id="path4117"
           style="font-size:144px;font-style:normal;font-variant:normal;font-stretch:normal;text-align:start;line-height:125%;writing-mode:lr-tb;text-anchor:start;fill:#ff8d12;fill-opacity:1;font-family:Source Code Pro;-inkscape-font-specification:Source Code Pro Semi-Light"
           d="m 618.64708,424.29401 c -4.60804,0 -9.02403,-0.816 -13.248,-2.448 -4.12802,-1.632 -7.77602,-3.984 -10.944,-7.056 -3.16801,-3.16799 -5.71201,-7.00799 -7.632,-11.52 -1.82401,-4.60798 -2.73601,-9.79197 -2.736,-15.552 -10e-6,-5.85596 0.91199,-11.03995 2.736,-15.552 1.91999,-4.60795 4.46399,-8.49594 7.632,-11.664 3.16798,-3.16794 6.81598,-5.56793 10.944,-7.2 4.22397,-1.63193 8.63996,-2.44793 13.248,-2.448 4.60795,7e-5 8.97595,0.81607 13.104,2.448 4.22394,1.63207 7.91994,4.03206 11.088,7.2 3.16793,3.16806 5.66393,7.05605 7.488,11.664 1.91993,4.51205 2.87992,9.69604 2.88,15.552 -8e-5,5.76003 -0.96007,10.94402 -2.88,15.552 -1.82407,4.51201 -4.32007,8.35201 -7.488,11.52 -3.16806,3.072 -6.86406,5.424 -11.088,7.056 -4.12805,1.632 -8.49605,2.448 -13.104,2.448 m 0,-9.792 c 3.35996,1e-5 6.38395,-0.62399 9.072,-1.872 2.78395,-1.34399 5.13595,-3.16799 7.056,-5.472 2.01594,-2.39998 3.55194,-5.23198 4.608,-8.496 1.05594,-3.26397 1.58394,-6.91197 1.584,-10.944 -6e-5,-4.03196 -0.52806,-7.67996 -1.584,-10.944 -1.05606,-3.35995 -2.59206,-6.23995 -4.608,-8.64 -1.92005,-2.39994 -4.27205,-4.22394 -7.056,-5.472 -2.68805,-1.34394 -5.71204,-2.01594 -9.072,-2.016 -3.36004,6e-5 -6.43203,0.67206 -9.216,2.016 -2.68803,1.24806 -5.04003,3.07206 -7.056,5.472 -1.92002,2.40005 -3.40802,5.28005 -4.464,8.64 -1.05602,3.26404 -1.58402,6.91204 -1.584,10.944 -2e-5,4.03203 0.52798,7.68003 1.584,10.944 1.05598,3.26402 2.54398,6.09602 4.464,8.496 2.01597,2.30401 4.36797,4.12801 7.056,5.472 2.78397,1.24801 5.85596,1.87201 9.216,1.872" />
      </g>
      <g
         transform="matrix(1.1089824,0,0,1.1089824,-2746.8173,118.54366)"
         id="g4119">
        <rect
           ry="9.8414583"
           y="77.850952"
           x="1293.2427"
           height="44.033901"
           width="44.033901"
           id="rect4121"
           style="fill:#ff8d12;fill-opacity:1;fill-rule:evenodd;stroke:none" />
        <rect
           style="fill:#18a6dc;fill-opacity:1;fill-rule:evenodd;stroke:none"
           id="rect4123"
           width="44.033901"
           height="44.033901"
           x="1340.4845"
           y="31.85096"
           ry="9.8414583" />
        <rect
           ry="9.8414583"
           y="77.850952"
           x="1340.4846"
           height="44.033901"
           width="44.033901"
           id="rect4125"
           style="fill:#f31161;fill-opacity:1;fill-rule:evenodd;stroke:none" />
        <rect
           style="fill:#85f611;fill-opacity:1;fill-rule:evenodd;stroke:none"
           id="rect4127"
           width="44.033901"
           height="44.033901"
           x="1293.2427"
           y="-14.14904"
           ry="9.8414583" />
        <rect
           ry="9.8414583"
           y="77.850952"
           x="1246.4845"
           height="44.033901"
           width="44.033901"
           id="rect4129"
           style="fill:#d9bb7a;fill-opacity:1;fill-rule:evenodd;stroke:none" />
      </g>
      <text
         sodipodi:linespacing="125%"
         id="text4131"
         y="291.51529"
         x="-1125.4125"
         style="font-size:115.88349152px;font-style:normal;font-variant:normal;font-stretch:normal;text-align:start;line-height:125%;letter-spacing:0px;word-spacing:0px;writing-mode:lr-tb;text-anchor:start;fill:#ffffff;fill-opacity:1;stroke:none;font-family:Source Code Pro;-inkscape-font-specification:Source Code Pro Semi-Light"
         xml:space="preserve"><tspan
           id="tspan4133"
           style="font-size:22.53290176px;font-style:normal;font-variant:normal;font-weight:bold;font-stretch:normal;text-align:center;line-height:125%;writing-mode:lr-tb;text-anchor:middle;fill:#ffffff;fill-opacity:1;font-family:Source Code Pro;-inkscape-font-specification:Source Code Pro Semi-Light"
           y="291.51529"
           x="-1125.4125"
           sodipodi:role="line"><tspan
   style="font-weight:normal;fill:#ffffff"
   id="tspan4135">Técnico em</tspan> Informática para Internet</tspan></text>
    </g>
    <g
       id="g4184"
       transform="matrix(1.0817824,0,0,1.0817824,-785.0776,-289.3738)"
       style="font-size:144px;font-style:normal;font-variant:normal;font-stretch:normal;text-align:start;line-height:125%;letter-spacing:0px;word-spacing:0px;writing-mode:lr-tb;text-anchor:start;fill:#000000;fill-opacity:1;stroke:none;font-family:Source Code Pro;-inkscape-font-specification:Source Code Pro Semi-Light">
      <path
         inkscape:connector-curvature="0"
         id="path4186"
         d="m 409.91983,422.56601 c 0,-20.112 0,-40.224 0,-60.336 -10.848,0 -21.696,0 -32.544,0 0,-3.216 0,-6.432 0,-9.648 14.784,0 29.568,0 44.352,0 0,23.328 0,46.656 0,69.984 -3.936,0 -7.872,0 -11.808,0 z"
         style="font-size:144px;font-style:normal;font-variant:normal;font-stretch:normal;text-align:start;line-height:125%;writing-mode:lr-tb;text-anchor:start;fill:#85f611;fill-opacity:1;font-family:Source Code Pro;-inkscape-font-specification:Source Code Pro Semi-Light" />
      <path
         inkscape:connector-curvature="0"
         id="path4188"
         d="m 414.52654,339.89087 c -5.66701,0.34775 -11.15724,-4.50031 -11.05204,-10.58355 -0.72964,-6.68351 5.3799,-12.47905 11.6329,-11.82622 6.11961,-0.046 11.40141,6.05432 10.43384,12.43865 -0.23996,5.93271 -5.50559,10.21116 -11.0147,9.97112 z"
         style="font-size:144px;font-style:normal;font-variant:normal;font-stretch:normal;text-align:start;line-height:125%;writing-mode:lr-tb;text-anchor:start;fill:#d9bb7a;fill-opacity:1;font-family:Source Code Pro;-inkscape-font-specification:Source Code Pro Semi-Light" />
      <path
         inkscape:connector-curvature="0"
         id="path4190"
         style="font-size:144px;font-style:normal;font-variant:normal;font-stretch:normal;text-align:start;line-height:125%;writing-mode:lr-tb;text-anchor:start;fill:#18a6dc;fill-opacity:1;font-family:Source Code Pro;-inkscape-font-specification:Source Code Pro Semi-Light"
         d="m 444.15158,422.56601 0,-69.984 9.792,0 1.008,11.952 0.576,0 c 3.64797,-3.93594 7.58397,-7.19994 11.808,-9.792 4.22396,-2.59193 9.07196,-3.88793 14.544,-3.888 8.35194,7e-5 14.44794,2.40007 18.288,7.2 3.93593,4.70406 5.90393,11.71205 5.904,21.024 l 0,43.488 -11.808,0 0,-41.904 c -6e-5,-6.62395 -1.24806,-11.51995 -3.744,-14.688 -2.49605,-3.26394 -6.62405,-4.89594 -12.384,-4.896 -2.11204,6e-5 -4.08004,0.28806 -5.904,0.864 -1.72804,0.48006 -3.45604,1.24806 -5.184,2.304 -1.72803,1.05606 -3.50403,2.40006 -5.328,4.032 -1.82403,1.53605 -3.74402,3.36005 -5.76,5.472 l 0,48.816 -11.808,0" />
      <path
         inkscape:connector-curvature="0"
         id="path4192"
         style="font-size:144px;font-style:normal;font-variant:normal;font-stretch:normal;text-align:start;line-height:125%;writing-mode:lr-tb;text-anchor:start;fill:#f31161;fill-opacity:1;font-family:Source Code Pro;-inkscape-font-specification:Source Code Pro Semi-Light"
         d="m 537.95133,422.56601 0,-60.336 -20.016,0 0,-8.928 20.016,-0.72 0,-5.904 c -3e-5,-8.54392 2.25597,-15.40791 6.768,-20.592 4.60796,-5.1839 11.75995,-7.7759 21.456,-7.776 6.91193,1e-4 13.63193,1.3441 20.16,4.032 l -2.736,8.928 c -2.88008,-1.34391 -5.56807,-2.20791 -8.064,-2.592 -2.40007,-0.47991 -5.13606,-0.71991 -8.208,-0.72 -6.33606,9e-5 -10.89605,1.63209 -13.68,4.896 -2.68805,3.16809 -4.03204,7.63208 -4.032,13.392 l 0,6.336 29.376,0 0,9.648 -29.376,0 0,60.336 -11.664,0" />
      <path
         inkscape:connector-curvature="0"
         id="path4194"
         style="font-size:144px;font-style:normal;font-variant:normal;font-stretch:normal;text-align:start;line-height:125%;writing-mode:lr-tb;text-anchor:start;fill:#ff8d12;fill-opacity:1;font-family:Source Code Pro;-inkscape-font-specification:Source Code Pro Semi-Light"
         d="m 618.64708,424.29401 c -4.60804,0 -9.02403,-0.816 -13.248,-2.448 -4.12802,-1.632 -7.77602,-3.984 -10.944,-7.056 -3.16801,-3.16799 -5.71201,-7.00799 -7.632,-11.52 -1.82401,-4.60798 -2.73601,-9.79197 -2.736,-15.552 -10e-6,-5.85596 0.91199,-11.03995 2.736,-15.552 1.91999,-4.60795 4.46399,-8.49594 7.632,-11.664 3.16798,-3.16794 6.81598,-5.56793 10.944,-7.2 4.22397,-1.63193 8.63996,-2.44793 13.248,-2.448 4.60795,7e-5 8.97595,0.81607 13.104,2.448 4.22394,1.63207 7.91994,4.03206 11.088,7.2 3.16793,3.16806 5.66393,7.05605 7.488,11.664 1.91993,4.51205 2.87992,9.69604 2.88,15.552 -8e-5,5.76003 -0.96007,10.94402 -2.88,15.552 -1.82407,4.51201 -4.32007,8.35201 -7.488,11.52 -3.16806,3.072 -6.86406,5.424 -11.088,7.056 -4.12805,1.632 -8.49605,2.448 -13.104,2.448 m 0,-9.792 c 3.35996,1e-5 6.38395,-0.62399 9.072,-1.872 2.78395,-1.34399 5.13595,-3.16799 7.056,-5.472 2.01594,-2.39998 3.55194,-5.23198 4.608,-8.496 1.05594,-3.26397 1.58394,-6.91197 1.584,-10.944 -6e-5,-4.03196 -0.52806,-7.67996 -1.584,-10.944 -1.05606,-3.35995 -2.59206,-6.23995 -4.608,-8.64 -1.92005,-2.39994 -4.27205,-4.22394 -7.056,-5.472 -2.68805,-1.34394 -5.71204,-2.01594 -9.072,-2.016 -3.36004,6e-5 -6.43203,0.67206 -9.216,2.016 -2.68803,1.24806 -5.04003,3.07206 -7.056,5.472 -1.92002,2.40005 -3.40802,5.28005 -4.464,8.64 -1.05602,3.26404 -1.58402,6.91204 -1.584,10.944 -2e-5,4.03203 0.52798,7.68003 1.584,10.944 1.05598,3.26402 2.54398,6.09602 4.464,8.496 2.01597,2.30401 4.36797,4.12801 7.056,5.472 2.78397,1.24801 5.85596,1.87201 9.216,1.872" />
    </g>
    <g
       style="font-size:144px;font-style:normal;font-variant:normal;font-stretch:normal;text-align:start;line-height:125%;letter-spacing:0px;word-spacing:0px;writing-mode:lr-tb;text-anchor:start;fill:#000000;fill-opacity:1;stroke:none;font-family:Source Code Pro;-inkscape-font-specification:Source Code Pro Semi-Light"
       transform="matrix(1.0817824,0,0,1.0817824,-785.0776,130.6262)"
       id="g4200">
      <path
         style="font-size:144px;font-style:normal;font-variant:normal;font-stretch:normal;text-align:start;line-height:125%;writing-mode:lr-tb;text-anchor:start;fill:#85f611;fill-opacity:1;font-family:Source Code Pro;-inkscape-font-specification:Source Code Pro Semi-Light"
         d="m 409.91983,422.56601 c 0,-20.112 0,-40.224 0,-60.336 -10.848,0 -21.696,0 -32.544,0 0,-3.216 0,-6.432 0,-9.648 14.784,0 29.568,0 44.352,0 0,23.328 0,46.656 0,69.984 -3.936,0 -7.872,0 -11.808,0 z"
         id="path4202"
         inkscape:connector-curvature="0" />
      <path
         style="font-size:144px;font-style:normal;font-variant:normal;font-stretch:normal;text-align:start;line-height:125%;writing-mode:lr-tb;text-anchor:start;fill:#d9bb7a;fill-opacity:1;font-family:Source Code Pro;-inkscape-font-specification:Source Code Pro Semi-Light"
         d="m 414.52654,339.89087 c -5.66701,0.34775 -11.15724,-4.50031 -11.05204,-10.58355 -0.72964,-6.68351 5.3799,-12.47905 11.6329,-11.82622 6.11961,-0.046 11.40141,6.05432 10.43384,12.43865 -0.23996,5.93271 -5.50559,10.21116 -11.0147,9.97112 z"
         id="path4204"
         inkscape:connector-curvature="0" />
      <path
         d="m 444.15158,422.56601 0,-69.984 9.792,0 1.008,11.952 0.576,0 c 3.64797,-3.93594 7.58397,-7.19994 11.808,-9.792 4.22396,-2.59193 9.07196,-3.88793 14.544,-3.888 8.35194,7e-5 14.44794,2.40007 18.288,7.2 3.93593,4.70406 5.90393,11.71205 5.904,21.024 l 0,43.488 -11.808,0 0,-41.904 c -6e-5,-6.62395 -1.24806,-11.51995 -3.744,-14.688 -2.49605,-3.26394 -6.62405,-4.89594 -12.384,-4.896 -2.11204,6e-5 -4.08004,0.28806 -5.904,0.864 -1.72804,0.48006 -3.45604,1.24806 -5.184,2.304 -1.72803,1.05606 -3.50403,2.40006 -5.328,4.032 -1.82403,1.53605 -3.74402,3.36005 -5.76,5.472 l 0,48.816 -11.808,0"
         style="font-size:144px;font-style:normal;font-variant:normal;font-stretch:normal;text-align:start;line-height:125%;writing-mode:lr-tb;text-anchor:start;fill:#18a6dc;fill-opacity:1;font-family:Source Code Pro;-inkscape-font-specification:Source Code Pro Semi-Light"
         id="path4206"
         inkscape:connector-curvature="0" />
      <path
         d="m 537.95133,422.56601 0,-60.336 -20.016,0 0,-8.928 20.016,-0.72 0,-5.904 c -3e-5,-8.54392 2.25597,-15.40791 6.768,-20.592 4.60796,-5.1839 11.75995,-7.7759 21.456,-7.776 6.91193,1e-4 13.63193,1.3441 20.16,4.032 l -2.736,8.928 c -2.88008,-1.34391 -5.56807,-2.20791 -8.064,-2.592 -2.40007,-0.47991 -5.13606,-0.71991 -8.208,-0.72 -6.33606,9e-5 -10.89605,1.63209 -13.68,4.896 -2.68805,3.16809 -4.03204,7.63208 -4.032,13.392 l 0,6.336 29.376,0 0,9.648 -29.376,0 0,60.336 -11.664,0"
         style="font-size:144px;font-style:normal;font-variant:normal;font-stretch:normal;text-align:start;line-height:125%;writing-mode:lr-tb;text-anchor:start;fill:#f31161;fill-opacity:1;font-family:Source Code Pro;-inkscape-font-specification:Source Code Pro Semi-Light"
         id="path4208"
         inkscape:connector-curvature="0" />
      <path
         d="m 618.64708,424.29401 c -4.60804,0 -9.02403,-0.816 -13.248,-2.448 -4.12802,-1.632 -7.77602,-3.984 -10.944,-7.056 -3.16801,-3.16799 -5.71201,-7.00799 -7.632,-11.52 -1.82401,-4.60798 -2.73601,-9.79197 -2.736,-15.552 -10e-6,-5.85596 0.91199,-11.03995 2.736,-15.552 1.91999,-4.60795 4.46399,-8.49594 7.632,-11.664 3.16798,-3.16794 6.81598,-5.56793 10.944,-7.2 4.22397,-1.63193 8.63996,-2.44793 13.248,-2.448 4.60795,7e-5 8.97595,0.81607 13.104,2.448 4.22394,1.63207 7.91994,4.03206 11.088,7.2 3.16793,3.16806 5.66393,7.05605 7.488,11.664 1.91993,4.51205 2.87992,9.69604 2.88,15.552 -8e-5,5.76003 -0.96007,10.94402 -2.88,15.552 -1.82407,4.51201 -4.32007,8.35201 -7.488,11.52 -3.16806,3.072 -6.86406,5.424 -11.088,7.056 -4.12805,1.632 -8.49605,2.448 -13.104,2.448 m 0,-9.792 c 3.35996,1e-5 6.38395,-0.62399 9.072,-1.872 2.78395,-1.34399 5.13595,-3.16799 7.056,-5.472 2.01594,-2.39998 3.55194,-5.23198 4.608,-8.496 1.05594,-3.26397 1.58394,-6.91197 1.584,-10.944 -6e-5,-4.03196 -0.52806,-7.67996 -1.584,-10.944 -1.05606,-3.35995 -2.59206,-6.23995 -4.608,-8.64 -1.92005,-2.39994 -4.27205,-4.22394 -7.056,-5.472 -2.68805,-1.34394 -5.71204,-2.01594 -9.072,-2.016 -3.36004,6e-5 -6.43203,0.67206 -9.216,2.016 -2.68803,1.24806 -5.04003,3.07206 -7.056,5.472 -1.92002,2.40005 -3.40802,5.28005 -4.464,8.64 -1.05602,3.26404 -1.58402,6.91204 -1.584,10.944 -2e-5,4.03203 0.52798,7.68003 1.584,10.944 1.05598,3.26402 2.54398,6.09602 4.464,8.496 2.01597,2.30401 4.36797,4.12801 7.056,5.472 2.78397,1.24801 5.85596,1.87201 9.216,1.872"
         style="font-size:144px;font-style:normal;font-variant:normal;font-stretch:normal;text-align:start;line-height:125%;writing-mode:lr-tb;text-anchor:start;fill:#ff8d12;fill-opacity:1;font-family:Source Code Pro;-inkscape-font-specification:Source Code Pro Semi-Light"
         id="path4210"
         inkscape:connector-curvature="0" />
    </g>
    <g
       transform="matrix(1.9080764,0,0,1.9080764,-2737.6283,725.7462)"
       id="g4212">
      <rect
         ry="9.8414583"
         y="77.850952"
         x="1293.2427"
         height="44.033901"
         width="44.033901"
         id="rect4214"
         style="fill:#ff8d12;fill-opacity:1;fill-rule:evenodd;stroke:none" />
      <rect
         style="fill:#18a6dc;fill-opacity:1;fill-rule:evenodd;stroke:none"
         id="rect4216"
         width="44.033901"
         height="44.033901"
         x="1340.4845"
         y="31.85096"
         ry="9.8414583" />
      <rect
         ry="9.8414583"
         y="77.850952"
         x="1340.4846"
         height="44.033901"
         width="44.033901"
         id="rect4218"
         style="fill:#f31161;fill-opacity:1;fill-rule:evenodd;stroke:none" />
      <rect
         style="fill:#85f611;fill-opacity:1;fill-rule:evenodd;stroke:none"
         id="rect4220"
         width="44.033901"
         height="44.033901"
         x="1293.2427"
         y="-14.14904"
         ry="9.8414583" />
      <rect
         ry="9.8414583"
         y="77.850952"
         x="1246.4845"
         height="44.033901"
         width="44.033901"
         id="rect4222"
         style="fill:#d9bb7a;fill-opacity:1;fill-rule:evenodd;stroke:none" />
    </g>
    <g
       id="g3119"
       inkscape:export-filename="/home/jaspion/IFRS/arte/info-logo.png"
       inkscape:export-xdpi="100"
       inkscape:export-ydpi="100">
      <rect
         ry="0"
         y="54.590775"
         x="108.15842"
         height="236.20049"
         width="571.68524"
         id="rect3085"
         style="fill:#ffffff;stroke:none" />
      <g
         style="font-size:144px;font-style:normal;font-variant:normal;font-stretch:normal;text-align:start;line-height:125%;letter-spacing:0px;word-spacing:0px;writing-mode:lr-tb;text-anchor:start;fill:#000000;fill-opacity:1;stroke:none;font-family:Source Code Pro;-inkscape-font-specification:Source Code Pro Semi-Light"
         transform="matrix(1.0817824,0,0,1.0817824,-66.578289,-244.08052)"
         id="g3087">
        <path
           style="font-size:144px;font-style:normal;font-variant:normal;font-stretch:normal;text-align:start;line-height:125%;writing-mode:lr-tb;text-anchor:start;fill:#85f611;fill-opacity:1;font-family:Source Code Pro;-inkscape-font-specification:Source Code Pro Semi-Light"
           d="m 409.91983,422.56601 c 0,-20.112 0,-40.224 0,-60.336 -10.848,0 -21.696,0 -32.544,0 0,-3.216 0,-6.432 0,-9.648 14.784,0 29.568,0 44.352,0 0,23.328 0,46.656 0,69.984 -3.936,0 -7.872,0 -11.808,0 z"
           id="path3089"
           inkscape:connector-curvature="0" />
        <path
           style="font-size:144px;font-style:normal;font-variant:normal;font-stretch:normal;text-align:start;line-height:125%;writing-mode:lr-tb;text-anchor:start;fill:#d9bb7a;fill-opacity:1;font-family:Source Code Pro;-inkscape-font-specification:Source Code Pro Semi-Light"
           d="m 414.52654,339.89087 c -5.66701,0.34775 -11.15724,-4.50031 -11.05204,-10.58355 -0.72964,-6.68351 5.3799,-12.47905 11.6329,-11.82622 6.11961,-0.046 11.40141,6.05432 10.43384,12.43865 -0.23996,5.93271 -5.50559,10.21116 -11.0147,9.97112 z"
           id="path3091"
           inkscape:connector-curvature="0" />
        <path
           d="m 444.15158,422.56601 0,-69.984 9.792,0 1.008,11.952 0.576,0 c 3.64797,-3.93594 7.58397,-7.19994 11.808,-9.792 4.22396,-2.59193 9.07196,-3.88793 14.544,-3.888 8.35194,7e-5 14.44794,2.40007 18.288,7.2 3.93593,4.70406 5.90393,11.71205 5.904,21.024 l 0,43.488 -11.808,0 0,-41.904 c -6e-5,-6.62395 -1.24806,-11.51995 -3.744,-14.688 -2.49605,-3.26394 -6.62405,-4.89594 -12.384,-4.896 -2.11204,6e-5 -4.08004,0.28806 -5.904,0.864 -1.72804,0.48006 -3.45604,1.24806 -5.184,2.304 -1.72803,1.05606 -3.50403,2.40006 -5.328,4.032 -1.82403,1.53605 -3.74402,3.36005 -5.76,5.472 l 0,48.816 -11.808,0"
           style="font-size:144px;font-style:normal;font-variant:normal;font-stretch:normal;text-align:start;line-height:125%;writing-mode:lr-tb;text-anchor:start;fill:#18a6dc;fill-opacity:1;font-family:Source Code Pro;-inkscape-font-specification:Source Code Pro Semi-Light"
           id="path3093"
           inkscape:connector-curvature="0" />
        <path
           d="m 537.95133,422.56601 0,-60.336 -20.016,0 0,-8.928 20.016,-0.72 0,-5.904 c -3e-5,-8.54392 2.25597,-15.40791 6.768,-20.592 4.60796,-5.1839 11.75995,-7.7759 21.456,-7.776 6.91193,1e-4 13.63193,1.3441 20.16,4.032 l -2.736,8.928 c -2.88008,-1.34391 -5.56807,-2.20791 -8.064,-2.592 -2.40007,-0.47991 -5.13606,-0.71991 -8.208,-0.72 -6.33606,9e-5 -10.89605,1.63209 -13.68,4.896 -2.68805,3.16809 -4.03204,7.63208 -4.032,13.392 l 0,6.336 29.376,0 0,9.648 -29.376,0 0,60.336 -11.664,0"
           style="font-size:144px;font-style:normal;font-variant:normal;font-stretch:normal;text-align:start;line-height:125%;writing-mode:lr-tb;text-anchor:start;fill:#f31161;fill-opacity:1;font-family:Source Code Pro;-inkscape-font-specification:Source Code Pro Semi-Light"
           id="path3095"
           inkscape:connector-curvature="0" />
        <path
           d="m 618.64708,424.29401 c -4.60804,0 -9.02403,-0.816 -13.248,-2.448 -4.12802,-1.632 -7.77602,-3.984 -10.944,-7.056 -3.16801,-3.16799 -5.71201,-7.00799 -7.632,-11.52 -1.82401,-4.60798 -2.73601,-9.79197 -2.736,-15.552 -10e-6,-5.85596 0.91199,-11.03995 2.736,-15.552 1.91999,-4.60795 4.46399,-8.49594 7.632,-11.664 3.16798,-3.16794 6.81598,-5.56793 10.944,-7.2 4.22397,-1.63193 8.63996,-2.44793 13.248,-2.448 4.60795,7e-5 8.97595,0.81607 13.104,2.448 4.22394,1.63207 7.91994,4.03206 11.088,7.2 3.16793,3.16806 5.66393,7.05605 7.488,11.664 1.91993,4.51205 2.87992,9.69604 2.88,15.552 -8e-5,5.76003 -0.96007,10.94402 -2.88,15.552 -1.82407,4.51201 -4.32007,8.35201 -7.488,11.52 -3.16806,3.072 -6.86406,5.424 -11.088,7.056 -4.12805,1.632 -8.49605,2.448 -13.104,2.448 m 0,-9.792 c 3.35996,1e-5 6.38395,-0.62399 9.072,-1.872 2.78395,-1.34399 5.13595,-3.16799 7.056,-5.472 2.01594,-2.39998 3.55194,-5.23198 4.608,-8.496 1.05594,-3.26397 1.58394,-6.91197 1.584,-10.944 -6e-5,-4.03196 -0.52806,-7.67996 -1.584,-10.944 -1.05606,-3.35995 -2.59206,-6.23995 -4.608,-8.64 -1.92005,-2.39994 -4.27205,-4.22394 -7.056,-5.472 -2.68805,-1.34394 -5.71204,-2.01594 -9.072,-2.016 -3.36004,6e-5 -6.43203,0.67206 -9.216,2.016 -2.68803,1.24806 -5.04003,3.07206 -7.056,5.472 -1.92002,2.40005 -3.40802,5.28005 -4.464,8.64 -1.05602,3.26404 -1.58402,6.91204 -1.584,10.944 -2e-5,4.03203 0.52798,7.68003 1.584,10.944 1.05598,3.26402 2.54398,6.09602 4.464,8.496 2.01597,2.30401 4.36797,4.12801 7.056,5.472 2.78397,1.24801 5.85596,1.87201 9.216,1.872"
           style="font-size:144px;font-style:normal;font-variant:normal;font-stretch:normal;text-align:start;line-height:125%;writing-mode:lr-tb;text-anchor:start;fill:#ff8d12;fill-opacity:1;font-family:Source Code Pro;-inkscape-font-specification:Source Code Pro Semi-Light"
           id="path3097"
           inkscape:connector-curvature="0" />
      </g>
      <g
         id="g3099"
         transform="matrix(1.1089824,0,0,1.1089824,-1227.9196,94.084996)">
        <rect
           style="fill:#ff8d12;fill-opacity:1;fill-rule:evenodd;stroke:none"
           id="rect3101"
           width="44.033901"
           height="44.033901"
           x="1293.2427"
           y="77.850952"
           ry="9.8414583" />
        <rect
           ry="9.8414583"
           y="31.85096"
           x="1340.4845"
           height="44.033901"
           width="44.033901"
           id="rect3103"
           style="fill:#18a6dc;fill-opacity:1;fill-rule:evenodd;stroke:none" />
        <rect
           style="fill:#f31161;fill-opacity:1;fill-rule:evenodd;stroke:none"
           id="rect3105"
           width="44.033901"
           height="44.033901"
           x="1340.4846"
           y="77.850952"
           ry="9.8414583" />
        <rect
           ry="9.8414583"
           y="-14.14904"
           x="1293.2427"
           height="44.033901"
           width="44.033901"
           id="rect3107"
           style="fill:#85f611;fill-opacity:1;fill-rule:evenodd;stroke:none" />
        <rect
           style="fill:#d9bb7a;fill-opacity:1;fill-rule:evenodd;stroke:none"
           id="rect3109"
           width="44.033901"
           height="44.033901"
           x="1246.4845"
           y="77.850952"
           ry="9.8414583" />
      </g>
      <text
         xml:space="preserve"
         style="font-size:115.88349152px;font-style:normal;font-variant:normal;font-stretch:normal;text-align:start;line-height:125%;letter-spacing:0px;word-spacing:0px;writing-mode:lr-tb;text-anchor:start;fill:#002b3d;fill-opacity:1;stroke:none;font-family:Source Code Pro;-inkscape-font-specification:Source Code Pro Semi-Light"
         x="393.4852"
         y="267.05664"
         id="text3111"
         sodipodi:linespacing="125%"><tspan
           sodipodi:role="line"
           x="393.4852"
           y="267.05664"
           style="font-size:22.53290176px;font-style:normal;font-variant:normal;font-weight:bold;font-stretch:normal;text-align:center;line-height:125%;writing-mode:lr-tb;text-anchor:middle;fill:#002b3d;fill-opacity:1;font-family:Source Code Pro;-inkscape-font-specification:Source Code Pro Semi-Light"
           id="tspan3113"><tspan
   id="tspan3115"
   style="font-weight:normal;fill:#002b3d">Técnico em</tspan> Informática para Internet</tspan></text>
    </g>
  </g>
</svg>
