<?xml version="1.0" encoding="UTF-8" standalone="no"?>
<!-- Created with Inkscape (http://www.inkscape.org/) -->

<svg
   xmlns:dc="http://purl.org/dc/elements/1.1/"
   xmlns:cc="http://creativecommons.org/ns#"
   xmlns:rdf="http://www.w3.org/1999/02/22-rdf-syntax-ns#"
   xmlns:svg="http://www.w3.org/2000/svg"
   xmlns="http://www.w3.org/2000/svg"
   xmlns:sodipodi="http://sodipodi.sourceforge.net/DTD/sodipodi-0.dtd"
   xmlns:inkscape="http://www.inkscape.org/namespaces/inkscape"
   width="1052.3622"
   height="744.09448"
   id="svg3172"
   version="1.1"
   inkscape:version="0.48.4 r9939"
   sodipodi:docname="desenho.svg">
  <defs
     id="defs3174" />
  <sodipodi:namedview
     id="base"
     pagecolor="#ffffff"
     bordercolor="#666666"
     borderopacity="1.0"
     inkscape:pageopacity="0.0"
     inkscape:pageshadow="2"
     inkscape:zoom="0.7"
     inkscape:cx="362.25809"
     inkscape:cy="364.80653"
     inkscape:document-units="px"
     inkscape:current-layer="text3111"
     showgrid="false"
     inkscape:window-width="1366"
     inkscape:window-height="714"
     inkscape:window-x="0"
     inkscape:window-y="30"
     inkscape:window-maximized="1" />
  <metadata
     id="metadata3177">
    <rdf:RDF>
      <cc:Work
         rdf:about="">
        <dc:format>image/svg+xml</dc:format>
        <dc:type
           rdf:resource="http://purl.org/dc/dcmitype/StillImage" />
        <dc:title />
      </cc:Work>
    </rdf:RDF>
  </metadata>
  <g
     inkscape:label="Camada 1"
     inkscape:groupmode="layer"
     id="layer1"
     transform="translate(0,-308.2677)">
    <g
       id="g3087"
       transform="matrix(2.2262565,0,0,2.2262565,-425.30078,-219.85766)"
       style="font-size:144px;font-style:normal;font-variant:normal;font-stretch:normal;text-align:start;line-height:125%;letter-spacing:0px;word-spacing:0px;writing-mode:lr-tb;text-anchor:start;fill:#000000;fill-opacity:1;stroke:none;font-family:Source Code Pro;-inkscape-font-specification:Source Code Pro Semi-Light">
      <path
         inkscape:connector-curvature="0"
         id="path3089"
         d="m 409.91983,422.56601 c 0,-20.112 0,-40.224 0,-60.336 -10.848,0 -21.696,0 -32.544,0 0,-3.216 0,-6.432 0,-9.648 14.784,0 29.568,0 44.352,0 0,23.328 0,46.656 0,69.984 -3.936,0 -7.872,0 -11.808,0 z"
         style="font-size:144px;font-style:normal;font-variant:normal;font-stretch:normal;text-align:start;line-height:125%;writing-mode:lr-tb;text-anchor:start;fill:#85f611;fill-opacity:1;font-family:Source Code Pro;-inkscape-font-specification:Source Code Pro Semi-Light" />
      <path
         inkscape:connector-curvature="0"
         id="path3091"
         d="m 414.52654,339.89087 c -5.66701,0.34775 -11.15724,-4.50031 -11.05204,-10.58355 -0.72964,-6.68351 5.3799,-12.47905 11.6329,-11.82622 6.11961,-0.046 11.40141,6.05432 10.43384,12.43865 -0.23996,5.93271 -5.50559,10.21116 -11.0147,9.97112 z"
         style="font-size:144px;font-style:normal;font-variant:normal;font-stretch:normal;text-align:start;line-height:125%;writing-mode:lr-tb;text-anchor:start;fill:#d9bb7a;fill-opacity:1;font-family:Source Code Pro;-inkscape-font-specification:Source Code Pro Semi-Light" />
      <path
         inkscape:connector-curvature="0"
         id="path3093"
         style="font-size:144px;font-style:normal;font-variant:normal;font-stretch:normal;text-align:start;line-height:125%;writing-mode:lr-tb;text-anchor:start;fill:#18a6dc;fill-opacity:1;font-family:Source Code Pro;-inkscape-font-specification:Source Code Pro Semi-Light"
         d="m 444.15158,422.56601 0,-69.984 9.792,0 1.008,11.952 0.576,0 c 3.64797,-3.93594 7.58397,-7.19994 11.808,-9.792 4.22396,-2.59193 9.07196,-3.88793 14.544,-3.888 8.35194,7e-5 14.44794,2.40007 18.288,7.2 3.93593,4.70406 5.90393,11.71205 5.904,21.024 l 0,43.488 -11.808,0 0,-41.904 c -6e-5,-6.62395 -1.24806,-11.51995 -3.744,-14.688 -2.49605,-3.26394 -6.62405,-4.89594 -12.384,-4.896 -2.11204,6e-5 -4.08004,0.28806 -5.904,0.864 -1.72804,0.48006 -3.45604,1.24806 -5.184,2.304 -1.72803,1.05606 -3.50403,2.40006 -5.328,4.032 -1.82403,1.53605 -3.74402,3.36005 -5.76,5.472 l 0,48.816 -11.808,0" />
      <path
         inkscape:connector-curvature="0"
         id="path3095"
         style="font-size:144px;font-style:normal;font-variant:normal;font-stretch:normal;text-align:start;line-height:125%;writing-mode:lr-tb;text-anchor:start;fill:#f31161;fill-opacity:1;font-family:Source Code Pro;-inkscape-font-specification:Source Code Pro Semi-Light"
         d="m 537.95133,422.56601 0,-60.336 -20.016,0 0,-8.928 20.016,-0.72 0,-5.904 c -3e-5,-8.54392 2.25597,-15.40791 6.768,-20.592 4.60796,-5.1839 11.75995,-7.7759 21.456,-7.776 6.91193,1e-4 13.63193,1.3441 20.16,4.032 l -2.736,8.928 c -2.88008,-1.34391 -5.56807,-2.20791 -8.064,-2.592 -2.40007,-0.47991 -5.13606,-0.71991 -8.208,-0.72 -6.33606,9e-5 -10.89605,1.63209 -13.68,4.896 -2.68805,3.16809 -4.03204,7.63208 -4.032,13.392 l 0,6.336 29.376,0 0,9.648 -29.376,0 0,60.336 -11.664,0" />
      <path
         inkscape:connector-curvature="0"
         id="path3097"
         style="font-size:144px;font-style:normal;font-variant:normal;font-stretch:normal;text-align:start;line-height:125%;writing-mode:lr-tb;text-anchor:start;fill:#ff8d12;fill-opacity:1;font-family:Source Code Pro;-inkscape-font-specification:Source Code Pro Semi-Light"
         d="m 618.64708,424.29401 c -4.60804,0 -9.02403,-0.816 -13.248,-2.448 -4.12802,-1.632 -7.77602,-3.984 -10.944,-7.056 -3.16801,-3.16799 -5.71201,-7.00799 -7.632,-11.52 -1.82401,-4.60798 -2.73601,-9.79197 -2.736,-15.552 -10e-6,-5.85596 0.91199,-11.03995 2.736,-15.552 1.91999,-4.60795 4.46399,-8.49594 7.632,-11.664 3.16798,-3.16794 6.81598,-5.56793 10.944,-7.2 4.22397,-1.63193 8.63996,-2.44793 13.248,-2.448 4.60795,7e-5 8.97595,0.81607 13.104,2.448 4.22394,1.63207 7.91994,4.03206 11.088,7.2 3.16793,3.16806 5.66393,7.05605 7.488,11.664 1.91993,4.51205 2.87992,9.69604 2.88,15.552 -8e-5,5.76003 -0.96007,10.94402 -2.88,15.552 -1.82407,4.51201 -4.32007,8.35201 -7.488,11.52 -3.16806,3.072 -6.86406,5.424 -11.088,7.056 -4.12805,1.632 -8.49605,2.448 -13.104,2.448 m 0,-9.792 c 3.35996,1e-5 6.38395,-0.62399 9.072,-1.872 2.78395,-1.34399 5.13595,-3.16799 7.056,-5.472 2.01594,-2.39998 3.55194,-5.23198 4.608,-8.496 1.05594,-3.26397 1.58394,-6.91197 1.584,-10.944 -6e-5,-4.03196 -0.52806,-7.67996 -1.584,-10.944 -1.05606,-3.35995 -2.59206,-6.23995 -4.608,-8.64 -1.92005,-2.39994 -4.27205,-4.22394 -7.056,-5.472 -2.68805,-1.34394 -5.71204,-2.01594 -9.072,-2.016 -3.36004,6e-5 -6.43203,0.67206 -9.216,2.016 -2.68803,1.24806 -5.04003,3.07206 -7.056,5.472 -1.92002,2.40005 -3.40802,5.28005 -4.464,8.64 -1.05602,3.26404 -1.58402,6.91204 -1.584,10.944 -2e-5,4.03203 0.52798,7.68003 1.584,10.944 1.05598,3.26402 2.54398,6.09602 4.464,8.496 2.01597,2.30401 4.36797,4.12801 7.056,5.472 2.78397,1.24801 5.85596,1.87201 9.216,1.872" />
    </g>
    <g
       transform="matrix(2.2822328,0,0,2.2822328,-2815.2858,476.07082)"
       id="g3099">
      <rect
         ry="9.8414583"
         y="77.850952"
         x="1293.2427"
         height="44.033901"
         width="44.033901"
         id="rect3101"
         style="fill:#ff8d12;fill-opacity:1;fill-rule:evenodd;stroke:none" />
      <rect
         style="fill:#18a6dc;fill-opacity:1;fill-rule:evenodd;stroke:none"
         id="rect3103"
         width="44.033901"
         height="44.033901"
         x="1340.4845"
         y="31.85096"
         ry="9.8414583" />
      <rect
         ry="9.8414583"
         y="77.850952"
         x="1340.4846"
         height="44.033901"
         width="44.033901"
         id="rect3105"
         style="fill:#f31161;fill-opacity:1;fill-rule:evenodd;stroke:none" />
      <rect
         style="fill:#85f611;fill-opacity:1;fill-rule:evenodd;stroke:none"
         id="rect3107"
         width="44.033901"
         height="44.033901"
         x="1293.2427"
         y="-14.14904"
         ry="9.8414583" />
      <rect
         ry="9.8414583"
         y="77.850952"
         x="1246.4845"
         height="44.033901"
         width="44.033901"
         id="rect3109"
         style="fill:#d9bb7a;fill-opacity:1;fill-rule:evenodd;stroke:none" />
    </g>
    <g
       style="font-size:238.48269653px;font-style:normal;font-variant:normal;font-stretch:normal;text-align:start;line-height:125%;letter-spacing:0px;word-spacing:0px;writing-mode:lr-tb;text-anchor:start;fill:#002b3d;fill-opacity:1;stroke:none;font-family:Source Code Pro;-inkscape-font-specification:Source Code Pro Semi-Light"
       id="text3111">
      <path
         d="m 32.964185,832.03815 0,-27.17378 -10.016273,0 0,-3.24602 23.927763,0 0,3.24602 -10.016273,0 0,27.17378 -3.895217,0"
         style="font-weight:normal;fill:#002b3d"
         id="path2998" />
      <path
         d="m 64.107809,832.59461 c -1.700307,0 -3.292398,-0.26278 -4.776278,-0.78832 -1.452987,-0.52555 -2.735934,-1.29841 -3.848846,-2.31858 -1.08201,-1.02018 -1.947613,-2.25675 -2.596811,-3.70973 -0.618292,-1.48389 -0.927436,-3.16872 -0.927433,-5.05451 -3e-6,-1.82394 0.309141,-3.4624 0.927433,-4.9154 0.649198,-1.45296 1.499344,-2.68953 2.55044,-3.70973 1.081997,-1.02015 2.303115,-1.79301 3.663359,-2.31858 1.391137,-0.55643 2.844114,-0.83466 4.358933,-0.83469 1.607534,3e-5 3.045053,0.2628 4.312563,0.78832 1.298385,0.49465 2.380389,1.20568 3.246014,2.1331 0.896495,0.92745 1.576612,2.04037 2.040352,3.33875 0.463692,1.29842 0.69555,2.73594 0.695575,4.31257 -2.5e-5,0.43281 -0.01548,0.85015 -0.04637,1.25203 -0.03094,0.4019 -0.07731,0.75741 -0.139115,1.06655 l -17.760336,0 c 0.247308,2.5659 1.17474,4.49805 2.782298,5.79645 1.638453,1.2675 3.632431,1.90124 5.981941,1.90124 1.360217,0 2.581336,-0.18549 3.663359,-0.55646 1.112899,-0.40189 2.179445,-0.92743 3.199643,-1.57664 l 1.391149,2.50407 c -1.112942,0.74195 -2.39589,1.37569 -3.848846,1.90124 -1.422082,0.52554 -3.045088,0.78832 -4.869022,0.78832 M 63.55135,811.95923 c -0.927447,2e-5 -1.823964,0.15459 -2.689555,0.46372 -0.834701,0.30916 -1.592103,0.75742 -2.27221,1.34477 -0.680127,0.55648 -1.252043,1.26751 -1.715751,2.1331 -0.463724,0.86562 -0.788325,1.85488 -0.973804,2.96778 l 14.375207,0 c -0.154594,-2.31856 -0.83471,-4.04977 -2.040352,-5.19362 -1.174766,-1.14381 -2.735943,-1.71573 -4.683535,-1.71575 m -1.066548,-6.26017 -1.99398,-1.90124 6.584772,-7.79043 2.689555,2.59681 -7.280347,7.09486"
         style="font-weight:normal;fill:#002b3d"
         id="path3000" />
      <path
         d="m 92.654622,832.59461 c -1.762136,0 -3.400599,-0.26278 -4.915393,-0.78832 -1.483902,-0.52555 -2.782307,-1.28295 -3.895217,-2.27221 -1.112926,-1.02017 -1.978529,-2.25675 -2.596812,-3.70973 -0.618292,-1.48389 -0.927436,-3.15326 -0.927433,-5.00814 -3e-6,-1.88577 0.324598,-3.55514 0.973805,-5.00814 0.680112,-1.48387 1.592086,-2.7359 2.735926,-3.7561 1.143825,-1.02015 2.473144,-1.79301 3.987961,-2.31858 1.545708,-0.52552 3.168714,-0.78829 4.869022,-0.78832 1.854847,3e-5 3.446938,0.32463 4.776278,0.97381 1.360212,0.64922 2.504041,1.42208 3.431501,2.31858 l -1.901237,2.4577 c -0.927454,-0.80376 -1.901258,-1.43751 -2.921413,-1.90124 -0.98928,-0.4637 -2.071284,-0.69556 -3.246015,-0.69558 -1.298421,2e-5 -2.488625,0.21642 -3.570616,0.64921 -1.082016,0.4019 -2.009448,0.98928 -2.782298,1.76212 -0.741955,0.77288 -1.329329,1.70031 -1.762122,2.7823 -0.43281,1.0511 -0.64921,2.22585 -0.649203,3.52424 -7e-6,1.29842 0.200936,2.47316 0.602832,3.52425 0.432793,1.05109 1.020166,1.96307 1.762122,2.73592 0.77285,0.74195 1.684824,1.32933 2.735926,1.76212 1.081991,0.40189 2.272195,0.60284 3.570616,0.60284 1.391131,0 2.658622,-0.26277 3.802474,-0.78832 1.174727,-0.55646 2.225816,-1.23657 3.153271,-2.04035 l 1.715753,2.45769 c -1.26752,1.11292 -2.658665,1.97853 -4.173449,2.59681 -1.514826,0.61829 -3.106918,0.92744 -4.776279,0.92744"
         style="font-weight:normal;fill:#002b3d"
         id="path3002" />
      <path
         d="m 108.72746,832.03815 0,-22.53662 3.15327,0 0.3246,3.84885 0.18549,0 c 1.17474,-1.26747 2.44223,-2.31856 3.80247,-3.15327 1.36023,-0.83467 2.9214,-1.25201 4.68354,-1.25204 2.68954,3e-5 4.6526,0.77289 5.8892,2.31858 1.26747,1.51483 1.90121,3.77158 1.90123,6.77026 l 0,14.00424 -3.80247,0 0,-13.49415 c -2e-5,-2.13308 -0.40191,-3.70971 -1.20566,-4.72991 -0.8038,-1.05107 -2.13311,-1.57661 -3.98796,-1.57663 -0.68013,2e-5 -1.31388,0.0928 -1.90124,0.27823 -0.55647,0.15459 -1.11293,0.40191 -1.66938,0.74194 -0.55647,0.34008 -1.12839,0.77288 -1.71575,1.29841 -0.58738,0.49465 -1.20567,1.08202 -1.85486,1.76212 l 0,15.71999 -3.80248,0"
         style="font-weight:normal;fill:#002b3d"
         id="path3004" />
      <path
         d="m 146.87321,832.03815 0,-19.42972 -10.47999,0 0,-3.1069 14.28246,0 0,22.53662 -3.80247,0 m 1.48389,-27.26652 c -0.86562,2e-5 -1.59211,-0.26275 -2.17947,-0.78832 -0.58739,-0.55643 -0.88107,-1.28292 -0.88106,-2.17947 -1e-5,-0.89649 0.29367,-1.60752 0.88106,-2.13309 0.58736,-0.55643 1.31385,-0.83466 2.17947,-0.83469 0.86559,3e-5 1.59207,0.27826 2.17947,0.83469 0.58735,0.52557 0.88104,1.2366 0.88106,2.13309 -2e-5,0.89655 -0.29371,1.62304 -0.88106,2.17947 -0.5874,0.52557 -1.31388,0.78834 -2.17947,0.78832"
         style="font-weight:normal;fill:#002b3d"
         id="path3006" />
      <path
         d="m 176.06923,832.59461 c -1.76214,0 -3.4006,-0.26278 -4.9154,-0.78832 -1.4839,-0.52555 -2.7823,-1.28295 -3.89521,-2.27221 -1.11293,-1.02017 -1.97853,-2.25675 -2.59682,-3.70973 -0.61829,-1.48389 -0.92743,-3.15326 -0.92743,-5.00814 0,-1.88577 0.3246,-3.55514 0.97381,-5.00814 0.68011,-1.48387 1.59208,-2.7359 2.73592,-3.7561 1.14383,-1.02015 2.47315,-1.79301 3.98796,-2.31858 1.54571,-0.52552 3.16872,-0.78829 4.86902,-0.78832 1.85485,3e-5 3.44694,0.32463 4.77628,0.97381 1.36022,0.64922 2.50405,1.42208 3.4315,2.31858 l -1.90123,2.4577 c -0.92746,-0.80376 -1.90126,-1.43751 -2.92142,-1.90124 -0.98928,-0.4637 -2.07128,-0.69556 -3.24601,-0.69558 -1.29842,2e-5 -2.48863,0.21642 -3.57062,0.64921 -1.08201,0.4019 -2.00944,0.98928 -2.78229,1.76212 -0.74196,0.77288 -1.32933,1.70031 -1.76213,2.7823 -0.43281,1.0511 -0.64921,2.22585 -0.6492,3.52424 -1e-5,1.29842 0.20094,2.47316 0.60283,3.52425 0.4328,1.05109 1.02017,1.96307 1.76212,2.73592 0.77285,0.74195 1.68483,1.32933 2.73593,1.76212 1.08199,0.40189 2.2722,0.60284 3.57062,0.60284 1.39113,0 2.65862,-0.26277 3.80247,-0.78832 1.17473,-0.55646 2.22582,-1.23657 3.15327,-2.04035 l 1.71575,2.45769 c -1.26751,1.11292 -2.65866,1.97853 -4.17345,2.59681 -1.51482,0.61829 -3.10691,0.92744 -4.77627,0.92744"
         style="font-weight:normal;fill:#002b3d"
         id="path3008" />
      <path
         d="m 201.74099,832.59461 c -1.48391,0 -2.90597,-0.26278 -4.26619,-0.78832 -1.32933,-0.52555 -2.50408,-1.28295 -3.52425,-2.27221 -1.02018,-1.02017 -1.83941,-2.25675 -2.45769,-3.70973 -0.58738,-1.48389 -0.88107,-3.15326 -0.88107,-5.00814 0,-1.88577 0.29369,-3.55514 0.88107,-5.00814 0.61828,-1.48387 1.43751,-2.7359 2.45769,-3.7561 1.02017,-1.02015 2.19492,-1.79301 3.52425,-2.31858 1.36022,-0.52552 2.78228,-0.78829 4.26619,-0.78832 1.48387,3e-5 2.89048,0.2628 4.21982,0.78832 1.36021,0.52557 2.55041,1.29843 3.57061,2.31858 1.02015,1.0202 1.82393,2.27223 2.41133,3.7561 0.61826,1.453 0.9274,3.12237 0.92743,5.00814 -3e-5,1.85488 -0.30917,3.52425 -0.92743,5.00814 -0.5874,1.45298 -1.39118,2.68956 -2.41133,3.70973 -1.0202,0.98926 -2.2104,1.74666 -3.57061,2.27221 -1.32934,0.52554 -2.73595,0.78832 -4.21982,0.78832 m 0,-3.15327 c 1.08199,0 2.05579,-0.20095 2.92141,-0.60284 0.8965,-0.43279 1.6539,-1.02017 2.27221,-1.76212 0.64918,-0.77285 1.14381,-1.68483 1.48389,-2.73592 0.34004,-1.05109 0.51007,-2.22583 0.51009,-3.52425 -2e-5,-1.29839 -0.17005,-2.47314 -0.51009,-3.52424 -0.34008,-1.08199 -0.83471,-2.00942 -1.48389,-2.7823 -0.61831,-0.77284 -1.37571,-1.36022 -2.27221,-1.76212 -0.86562,-0.43279 -1.83942,-0.64919 -2.92141,-0.64921 -1.08202,2e-5 -2.07128,0.21642 -2.96779,0.64921 -0.86561,0.4019 -1.62301,0.98928 -2.27221,1.76212 -0.61829,0.77288 -1.09747,1.70031 -1.43752,2.7823 -0.34006,1.0511 -0.51009,2.22585 -0.51009,3.52424 0,1.29842 0.17003,2.47316 0.51009,3.52425 0.34005,1.05109 0.81923,1.96307 1.43752,2.73592 0.6492,0.74195 1.4066,1.32933 2.27221,1.76212 0.89651,0.40189 1.88577,0.60284 2.96779,0.60284"
         style="font-weight:normal;fill:#002b3d"
         id="path3010" />
      <path
         d="m 258.74188,832.59461 c -1.70031,0 -3.2924,-0.26278 -4.77628,-0.78832 -1.45299,-0.52555 -2.73594,-1.29841 -3.84885,-2.31858 -1.08201,-1.02018 -1.94761,-2.25675 -2.59681,-3.70973 -0.61829,-1.48389 -0.92743,-3.16872 -0.92743,-5.05451 0,-1.82394 0.30914,-3.4624 0.92743,-4.9154 0.6492,-1.45296 1.49935,-2.68953 2.55044,-3.70973 1.082,-1.02015 2.30312,-1.79301 3.66336,-2.31858 1.39114,-0.55643 2.84411,-0.83466 4.35893,-0.83469 1.60754,3e-5 3.04506,0.2628 4.31257,0.78832 1.29838,0.49465 2.38039,1.20568 3.24601,2.1331 0.8965,0.92745 1.57661,2.04037 2.04035,3.33875 0.46369,1.29842 0.69555,2.73594 0.69558,4.31257 -3e-5,0.43281 -0.0155,0.85015 -0.0464,1.25203 -0.0309,0.4019 -0.0773,0.75741 -0.13912,1.06655 l -17.76034,0 c 0.24731,2.5659 1.17474,4.49805 2.7823,5.79645 1.63846,1.2675 3.63243,1.90124 5.98194,1.90124 1.36022,0 2.58134,-0.18549 3.66336,-0.55646 1.1129,-0.40189 2.17945,-0.92743 3.19965,-1.57664 l 1.39114,2.50407 c -1.11294,0.74195 -2.39589,1.37569 -3.84884,1.90124 -1.42208,0.52554 -3.04509,0.78832 -4.86902,0.78832 m -0.55646,-20.63538 c -0.92745,2e-5 -1.82397,0.15459 -2.68956,0.46372 -0.8347,0.30916 -1.5921,0.75742 -2.27221,1.34477 -0.68012,0.55648 -1.25204,1.26751 -1.71575,2.1331 -0.46372,0.86562 -0.78832,1.85488 -0.9738,2.96778 l 14.3752,0 c -0.15459,-2.31856 -0.83471,-4.04977 -2.04035,-5.19362 -1.17476,-1.14381 -2.73594,-1.71573 -4.68353,-1.71575"
         style="font-weight:normal;fill:#002b3d"
         id="path3012" />
      <path
         d="m 273.93366,832.03815 0,-22.53662 3.06053,0 0.3246,2.96779 0.0928,0 c 0.58736,-1.05107 1.26748,-1.90122 2.04035,-2.55044 0.77285,-0.64918 1.80848,-0.97378 3.1069,-0.97381 2.19491,3e-5 3.61697,1.29843 4.26619,3.89522 0.64918,-1.20564 1.36022,-2.14853 2.13309,-2.82867 0.80376,-0.71101 1.85485,-1.06652 3.15327,-1.06655 1.57662,3e-5 2.79774,0.60286 3.66336,1.8085 0.8965,1.17476 1.34475,2.89051 1.34478,5.14725 l 0,16.13733 -3.80247,0 0,-15.8591 c -3e-5,-2.62771 -0.8038,-3.94157 -2.41133,-3.94159 -0.80379,2e-5 -1.45299,0.29371 -1.94761,0.88106 -0.49465,0.55648 -1.0511,1.42208 -1.66938,2.59681 l 0,16.32282 -3.52424,0 0,-15.8591 c -1e-5,-1.29839 -0.1855,-2.27219 -0.55646,-2.92142 -0.34007,-0.68009 -0.92744,-1.02015 -1.76212,-1.02017 -0.80379,2e-5 -1.4839,0.29371 -2.04035,0.88106 -0.55647,0.55648 -1.11293,1.42208 -1.66938,2.59681 l 0,16.32282 -3.80248,0"
         style="font-weight:normal;fill:#002b3d"
         id="path3014" />
      <path
         d="m 330.28535,832.03815 0,-5.75009 7.04849,0 0,-18.73414 -7.04849,0 0,-5.75008 20.95998,0 0,5.75008 -7.04849,0 0,18.73414 7.04849,0 0,5.75009 -20.95998,0"
         style="font-size:46.37163544px;font-weight:bold;text-align:center;line-height:125%;text-anchor:middle;fill:#002b3d;font-family:Source Code Pro;-inkscape-font-specification:Source Code Pro Semi-Light"
         id="path3016" />
      <path
         d="m 357.99745,832.03815 0,-23.00033 5.56459,0 0.51009,3.06052 0.18549,0 c 0.98925,-0.98924 2.11762,-1.83938 3.38513,-2.55044 1.29839,-0.711 2.81319,-1.06652 4.54442,-1.06654 2.59679,2e-5 4.49802,0.83471 5.70371,2.50406 1.20564,1.6694 1.80847,3.95707 1.80849,6.86301 l 0,14.18972 -6.81663,0 0,-13.30866 c -2e-5,-1.54571 -0.24733,-2.67408 -0.74194,-3.38513 -0.49465,-0.71102 -1.37571,-1.06653 -2.64319,-1.06655 -0.92744,2e-5 -1.74668,0.20096 -2.45769,0.60283 -0.68013,0.40191 -1.42208,1.00474 -2.22584,1.8085 l 0,15.34901 -6.81663,0"
         style="font-size:46.37163544px;font-weight:bold;text-align:center;line-height:125%;text-anchor:middle;fill:#002b3d;font-family:Source Code Pro;-inkscape-font-specification:Source Code Pro Semi-Light"
         id="path3018" />
      <path
         d="m 392.34072,832.03815 0,-17.6676 -6.07469,0 0,-5.0545 6.07469,-0.27823 0,-0.60284 c -10e-6,-1.32929 0.20093,-2.56587 0.60283,-3.70973 0.40188,-1.1438 1.02016,-2.13306 1.85486,-2.96778 0.83468,-0.86557 1.90123,-1.54569 3.19965,-2.04035 1.29839,-0.4946 2.84411,-0.74192 4.63716,-0.74195 1.3293,3e-5 2.56588,0.12369 3.70973,0.37097 1.17473,0.24735 2.25673,0.54104 3.24602,0.88107 l -1.29841,5.00813 c -1.51483,-0.58734 -3.12238,-0.88103 -4.82265,-0.88106 -1.48391,3e-5 -2.58137,0.32463 -3.29239,0.9738 -0.68013,0.64923 -1.02019,1.66941 -1.02017,3.06053 l 0,0.64921 7.92955,0 0,5.33273 -7.92955,0 0,17.6676 -6.81663,0"
         style="font-size:46.37163544px;font-weight:bold;text-align:center;line-height:125%;text-anchor:middle;fill:#002b3d;font-family:Source Code Pro;-inkscape-font-specification:Source Code Pro Semi-Light"
         id="path3020" />
      <path
         d="m 424.17992,832.59461 c -1.51482,0 -2.98325,-0.26278 -4.4053,-0.78832 -1.39116,-0.55646 -2.64319,-1.34478 -3.75611,-2.36495 -1.08201,-1.02018 -1.94761,-2.27221 -2.59681,-3.75611 -0.6492,-1.5148 -0.9738,-3.23054 -0.9738,-5.14725 0,-1.91668 0.3246,-3.61697 0.9738,-5.10088 0.6492,-1.51479 1.5148,-2.78228 2.59681,-3.80247 1.11292,-1.02016 2.36495,-1.79302 3.75611,-2.31858 1.42205,-0.55644 2.89048,-0.83467 4.4053,-0.83469 1.51479,2e-5 2.96777,0.27825 4.35893,0.83469 1.42205,0.52556 2.67408,1.29842 3.75611,2.31858 1.11289,1.02019 1.99395,2.28768 2.64318,3.80247 0.64918,1.48391 0.97378,3.1842 0.9738,5.10088 -2e-5,1.91671 -0.32462,3.63245 -0.9738,5.14725 -0.64923,1.4839 -1.53029,2.73593 -2.64318,3.75611 -1.08203,1.02017 -2.33406,1.80849 -3.75611,2.36495 -1.39116,0.52554 -2.84414,0.78832 -4.35893,0.78832 m 0,-5.51823 c 1.57662,10e-6 2.75137,-0.58737 3.52425,-1.76212 0.80375,-1.17474 1.20564,-2.76683 1.20566,-4.77628 -2e-5,-2.00942 -0.40191,-3.60151 -1.20566,-4.77628 -0.77288,-1.17473 -1.94763,-1.7621 -3.52425,-1.76212 -1.57665,2e-5 -2.76685,0.58739 -3.57061,1.76212 -0.77288,1.17477 -1.15931,2.76686 -1.1593,4.77628 -1e-5,2.00945 0.38642,3.60154 1.1593,4.77628 0.80376,1.17475 1.99396,1.76213 3.57061,1.76212"
         style="font-size:46.37163544px;font-weight:bold;text-align:center;line-height:125%;text-anchor:middle;fill:#002b3d;font-family:Source Code Pro;-inkscape-font-specification:Source Code Pro Semi-Light"
         id="path3022" />
      <path
         d="m 443.45241,832.03815 0,-23.00033 5.5646,0 0.55646,5.00813 0.13911,0 c 1.14382,-1.88576 2.51951,-3.27691 4.12708,-4.17344 1.60753,-0.92741 3.33874,-1.39113 5.19362,-1.39115 1.02015,2e-5 1.83939,0.0773 2.4577,0.23185 0.64918,0.1546 1.31384,0.38646 1.99398,0.69558 l -1.39115,5.70371 c -0.71106,-0.21638 -1.36026,-0.37096 -1.94761,-0.46372 -0.55648,-0.12364 -1.26751,-0.18547 -2.1331,-0.18548 -1.42208,10e-6 -2.82868,0.41736 -4.21981,1.25203 -1.36025,0.83471 -2.535,2.28768 -3.52425,4.35894 l 0,11.96388 -6.81663,0"
         style="font-size:46.37163544px;font-weight:bold;text-align:center;line-height:125%;text-anchor:middle;fill:#002b3d;font-family:Source Code Pro;-inkscape-font-specification:Source Code Pro Semi-Light"
         id="path3024" />
      <path
         d="m 467.50118,832.03815 0,-23.00033 5.14725,0 0.46372,2.82867 0.18548,0 c 0.4328,-0.92742 1.03563,-1.71573 1.8085,-2.36496 0.77285,-0.68009 1.82394,-1.02015 3.15327,-1.02017 0.98925,2e-5 1.82393,0.32462 2.50407,0.9738 0.71101,0.61831 1.20564,1.54574 1.48389,2.7823 0.43278,-1.05107 1.05107,-1.93213 1.85486,-2.64318 0.83467,-0.74193 1.91668,-1.1129 3.24602,-1.11292 1.66935,2e-5 2.93684,0.66468 3.80247,1.99398 0.89649,1.29842 1.34475,3.10691 1.34478,5.42548 l 0,16.13733 -6.49203,0 0,-15.67362 c -2e-5,-0.71101 -0.0928,-1.23656 -0.27823,-1.57663 -0.1855,-0.34004 -0.51011,-0.51007 -0.9738,-0.51009 -0.43282,2e-5 -0.8038,0.1855 -1.11292,0.55646 -0.30916,0.37099 -0.63376,0.92745 -0.97381,1.66938 l 0,15.5345 -5.33273,0 0,-15.67362 c -2e-5,-1.39113 -0.43282,-2.0867 -1.29841,-2.08672 -0.43281,2e-5 -0.80378,0.1855 -1.11292,0.55646 -0.30915,0.37099 -0.6183,0.92745 -0.92743,1.66938 l 0,15.5345 -6.49203,0"
         style="font-size:46.37163544px;font-weight:bold;text-align:center;line-height:125%;text-anchor:middle;fill:#002b3d;font-family:Source Code Pro;-inkscape-font-specification:Source Code Pro Semi-Light"
         id="path3026" />
      <path
         d="m 504.07029,832.59461 c -1.17476,0 -2.22585,-0.18549 -3.15327,-0.55646 -0.92744,-0.34006 -1.71576,-0.81923 -2.36496,-1.43752 -0.6492,-0.6492 -1.15929,-1.39115 -1.53026,-2.22584 -0.34006,-0.83469 -0.51009,-1.74666 -0.51009,-2.73593 0,-1.2984 0.27823,-2.42677 0.83469,-3.38513 0.55646,-0.98925 1.43752,-1.82394 2.64318,-2.50407 1.23657,-0.6801 2.81321,-1.2211 4.72991,-1.623 1.91668,-0.43279 4.23526,-0.72648 6.95575,-0.88106 -0.12368,-1.05108 -0.58739,-1.87031 -1.39115,-2.4577 -0.77288,-0.58736 -1.94763,-0.88104 -3.52425,-0.88106 -1.11293,2e-5 -2.2413,0.20096 -3.38513,0.60283 -1.11292,0.37099 -2.31859,0.88108 -3.61698,1.53026 l -2.41133,-4.45167 c 1.57663,-0.8965 3.26147,-1.63845 5.05451,-2.22584 1.82394,-0.58735 3.72518,-0.88104 5.70371,-0.88106 3.21508,2e-5 5.75006,0.85017 7.60495,2.55044 1.85484,1.70031 2.78227,4.31257 2.7823,7.8368 l 0,13.16955 -5.5646,0 -0.51009,-2.59681 -0.18548,0 c -1.17477,0.89652 -2.45772,1.65392 -3.84885,2.27221 -1.39116,0.58737 -2.82868,0.88106 -4.31256,0.88106 m 2.17947,-5.28637 c 1.02016,0 1.9785,-0.20094 2.87504,-0.60283 0.8965,-0.4328 1.74664,-0.95834 2.55044,-1.57664 l 0,-3.80247 c -1.70031,0.0928 -3.10692,0.24733 -4.21982,0.46372 -1.11293,0.21641 -1.99399,0.49464 -2.64319,0.83468 -0.64921,0.30916 -1.11292,0.68013 -1.39114,1.11292 -0.24733,0.43281 -0.37099,0.89653 -0.37098,1.39115 -1e-5,0.74196 0.27822,1.29841 0.83469,1.66938 0.58737,0.34007 1.37568,0.51009 2.36496,0.51009 m 1.99398,-21.28458 -3.33876,-3.33876 7.09486,-8.43964 4.63716,4.54442 -8.39326,7.23398"
         style="font-size:46.37163544px;font-weight:bold;text-align:center;line-height:125%;text-anchor:middle;fill:#002b3d;font-family:Source Code Pro;-inkscape-font-specification:Source Code Pro Semi-Light"
         id="path3028" />
      <path
         d="m 539.48011,832.59461 c -1.82397,0 -3.36969,-0.24732 -4.63717,-0.74195 -1.2675,-0.49463 -2.30313,-1.17475 -3.1069,-2.04035 -0.77287,-0.89652 -1.32932,-1.96306 -1.66937,-3.19964 -0.34007,-1.23657 -0.5101,-2.61227 -0.51009,-4.12708 l 0,-8.11504 -5.79646,0 0,-5.0545 6.12106,-0.27823 0.88106,-7.04849 5.61097,0 0,7.04849 9.73804,0 0,5.33273 -9.73804,0 0,8.06867 c -2e-5,1.76213 0.38641,3.01416 1.15929,3.7561 0.77284,0.71104 2.00942,1.06655 3.70973,1.06655 0.86558,0 1.6539,-0.0773 2.36495,-0.23186 0.74193,-0.15457 1.46841,-0.35551 2.17947,-0.60283 l 1.20566,4.91539 c -1.0202,0.30915 -2.14857,0.58738 -3.38513,0.83469 -1.20568,0.27823 -2.58137,0.41735 -4.12707,0.41735"
         style="font-size:46.37163544px;font-weight:bold;text-align:center;line-height:125%;text-anchor:middle;fill:#002b3d;font-family:Source Code Pro;-inkscape-font-specification:Source Code Pro Semi-Light"
         id="path3030" />
      <path
         d="m 562.1841,832.03815 0,-17.6676 -9.22796,0 0,-5.33273 16.04459,0 0,23.00033 -6.81663,0 m 3.1069,-26.61732 c -1.32934,2e-5 -2.4268,-0.37095 -3.29239,-1.11292 -0.8347,-0.74192 -1.25204,-1.74664 -1.25203,-3.01416 -10e-6,-1.26746 0.41733,-2.28763 1.25203,-3.06053 0.86559,-0.80374 1.96305,-1.20562 3.29239,-1.20566 1.3293,4e-5 2.4113,0.40192 3.24601,1.20566 0.86559,0.7729 1.29839,1.79307 1.29841,3.06053 -2e-5,1.26752 -0.43282,2.27224 -1.29841,3.01416 -0.83471,0.74197 -1.91671,1.11294 -3.24601,1.11292"
         style="font-size:46.37163544px;font-weight:bold;text-align:center;line-height:125%;text-anchor:middle;fill:#002b3d;font-family:Source Code Pro;-inkscape-font-specification:Source Code Pro Semi-Light"
         id="path3032" />
      <path
         d="m 593.00312,832.59461 c -1.82396,0 -3.50879,-0.26278 -5.0545,-0.78832 -1.54573,-0.55646 -2.90597,-1.34478 -4.08071,-2.36495 -1.14384,-1.02018 -2.04035,-2.27221 -2.68955,-3.75611 -0.64921,-1.5148 -0.97381,-3.23054 -0.97381,-5.14725 0,-1.91668 0.35552,-3.61697 1.06655,-5.10088 0.74194,-1.51479 1.71575,-2.78228 2.92141,-3.80247 1.23657,-1.02016 2.65863,-1.79302 4.26619,-2.31858 1.60754,-0.55644 3.29238,-0.83467 5.05451,-0.83469 1.82394,2e-5 3.4624,0.29371 4.9154,0.88106 1.48387,0.58739 2.72044,1.32934 3.70973,2.22584 l -3.15327,4.21981 c -1.70032,-1.20564 -3.40061,-1.80847 -5.10088,-1.80849 -1.97854,2e-5 -3.58609,0.58739 -4.82265,1.76212 -1.23659,1.17477 -1.85488,2.76686 -1.85487,4.77628 -10e-6,2.00945 0.58736,3.60154 1.76212,4.77628 1.20565,1.17475 2.76683,1.76213 4.68354,1.76212 1.20564,10e-6 2.3031,-0.21639 3.29238,-0.6492 1.02016,-0.4328 1.94759,-0.94288 2.7823,-1.53026 l 2.73593,4.31256 c -1.39117,1.17475 -2.92144,2.04035 -4.59079,2.59681 -1.6694,0.52554 -3.29241,0.78832 -4.86903,0.78832"
         style="font-size:46.37163544px;font-weight:bold;text-align:center;line-height:125%;text-anchor:middle;fill:#002b3d;font-family:Source Code Pro;-inkscape-font-specification:Source Code Pro Semi-Light"
         id="path3034" />
      <path
         d="m 615.28977,832.59461 c -1.17476,0 -2.22585,-0.18549 -3.15327,-0.55646 -0.92744,-0.34006 -1.71576,-0.81923 -2.36495,-1.43752 -0.64921,-0.6492 -1.1593,-1.39115 -1.53027,-2.22584 -0.34006,-0.83469 -0.51009,-1.74666 -0.51009,-2.73593 0,-1.2984 0.27823,-2.42677 0.83469,-3.38513 0.55646,-0.98925 1.43752,-1.82394 2.64319,-2.50407 1.23657,-0.6801 2.8132,-1.2211 4.7299,-1.623 1.91669,-0.43279 4.23526,-0.72648 6.95575,-0.88106 -0.12368,-1.05108 -0.58739,-1.87031 -1.39115,-2.4577 -0.77288,-0.58736 -1.94762,-0.88104 -3.52424,-0.88106 -1.11294,2e-5 -2.24131,0.20096 -3.38513,0.60283 -1.11293,0.37099 -2.31859,0.88108 -3.61699,1.53026 l -2.41133,-4.45167 c 1.57663,-0.8965 3.26147,-1.63845 5.05451,-2.22584 1.82394,-0.58735 3.72518,-0.88104 5.70371,-0.88106 3.21509,2e-5 5.75007,0.85017 7.60495,2.55044 1.85484,1.70031 2.78227,4.31257 2.7823,7.8368 l 0,13.16955 -5.5646,0 -0.51008,-2.59681 -0.18549,0 c -1.17477,0.89652 -2.45771,1.65392 -3.84885,2.27221 -1.39116,0.58737 -2.82868,0.88106 -4.31256,0.88106 m 2.17947,-5.28637 c 1.02016,0 1.97851,-0.20094 2.87504,-0.60283 0.8965,-0.4328 1.74665,-0.95834 2.55044,-1.57664 l 0,-3.80247 c -1.70031,0.0928 -3.10692,0.24733 -4.21982,0.46372 -1.11293,0.21641 -1.99399,0.49464 -2.64318,0.83468 -0.64922,0.30916 -1.11293,0.68013 -1.39115,1.11292 -0.24733,0.43281 -0.37098,0.89653 -0.37098,1.39115 0,0.74196 0.27823,1.29841 0.83469,1.66938 0.58737,0.34007 1.37568,0.51009 2.36496,0.51009"
         style="font-size:46.37163544px;font-weight:bold;text-align:center;line-height:125%;text-anchor:middle;fill:#002b3d;font-family:Source Code Pro;-inkscape-font-specification:Source Code Pro Semi-Light"
         id="path3036" />
      <path
         d="m 663.85102,840.57053 0,-31.53271 5.5646,0 0.51009,2.31858 0.13911,0 c 0.92742,-0.83467 1.99397,-1.51479 3.19965,-2.04035 1.20564,-0.55644 2.42676,-0.83467 3.66335,-0.83469 1.42205,2e-5 2.705,0.27825 3.84885,0.83469 1.14381,0.55648 2.11762,1.34479 2.92141,2.36495 0.80375,1.02019 1.40659,2.25677 1.8085,3.70973 0.43277,1.42208 0.64917,3.01417 0.6492,4.77628 -3e-5,1.97853 -0.27826,3.74065 -0.83469,5.28636 -0.55648,1.51482 -1.29843,2.81322 -2.22584,3.89522 -0.92745,1.05109 -1.994,1.85487 -3.19964,2.41133 -1.17477,0.55646 -2.41134,0.83469 -3.70973,0.83469 -2.1022,0 -3.98797,-0.83469 -5.65734,-2.50407 l -0.18549,0 0.3246,3.7561 0,6.72389 -6.81663,0 m 10.75822,-13.54052 c 1.29839,1e-5 2.3804,-0.52554 3.24602,-1.57664 0.86558,-1.08199 1.29838,-2.8132 1.2984,-5.19362 -2e-5,-4.14252 -1.40662,-6.21378 -4.21982,-6.2138 -1.45299,2e-5 -2.87505,0.71105 -4.26619,2.1331 l 0,9.3207 c 0.6492,0.55646 1.31386,0.95835 1.99398,1.20566 0.71102,0.2164 1.36023,0.32461 1.94761,0.3246"
         style="font-size:46.37163544px;font-weight:bold;text-align:center;line-height:125%;text-anchor:middle;fill:#002b3d;font-family:Source Code Pro;-inkscape-font-specification:Source Code Pro Semi-Light"
         id="path3038" />
      <path
         d="m 698.70432,832.59461 c -1.17476,0 -2.22584,-0.18549 -3.15327,-0.55646 -0.92744,-0.34006 -1.71576,-0.81923 -2.36495,-1.43752 -0.64921,-0.6492 -1.1593,-1.39115 -1.53027,-2.22584 -0.34006,-0.83469 -0.51009,-1.74666 -0.51008,-2.73593 -10e-6,-1.2984 0.27822,-2.42677 0.83468,-3.38513 0.55646,-0.98925 1.43752,-1.82394 2.64319,-2.50407 1.23657,-0.6801 2.8132,-1.2211 4.7299,-1.623 1.91669,-0.43279 4.23527,-0.72648 6.95575,-0.88106 -0.12368,-1.05108 -0.58739,-1.87031 -1.39115,-2.4577 -0.77288,-0.58736 -1.94762,-0.88104 -3.52424,-0.88106 -1.11293,2e-5 -2.24131,0.20096 -3.38513,0.60283 -1.11293,0.37099 -2.31859,0.88108 -3.61699,1.53026 l -2.41133,-4.45167 c 1.57663,-0.8965 3.26147,-1.63845 5.05451,-2.22584 1.82394,-0.58735 3.72518,-0.88104 5.70371,-0.88106 3.21509,2e-5 5.75007,0.85017 7.60495,2.55044 1.85484,1.70031 2.78228,4.31257 2.7823,7.8368 l 0,13.16955 -5.5646,0 -0.51008,-2.59681 -0.18549,0 c -1.17477,0.89652 -2.45771,1.65392 -3.84885,2.27221 -1.39116,0.58737 -2.82868,0.88106 -4.31256,0.88106 m 2.17947,-5.28637 c 1.02016,0 1.97851,-0.20094 2.87504,-0.60283 0.8965,-0.4328 1.74665,-0.95834 2.55044,-1.57664 l 0,-3.80247 c -1.70031,0.0928 -3.10691,0.24733 -4.21982,0.46372 -1.11293,0.21641 -1.99399,0.49464 -2.64318,0.83468 -0.64922,0.30916 -1.11293,0.68013 -1.39115,1.11292 -0.24733,0.43281 -0.37098,0.89653 -0.37097,1.39115 -1e-5,0.74196 0.27822,1.29841 0.83469,1.66938 0.58736,0.34007 1.37568,0.51009 2.36495,0.51009"
         style="font-size:46.37163544px;font-weight:bold;text-align:center;line-height:125%;text-anchor:middle;fill:#002b3d;font-family:Source Code Pro;-inkscape-font-specification:Source Code Pro Semi-Light"
         id="path3040" />
      <path
         d="m 721.50106,832.03815 0,-23.00033 5.56459,0 0.55646,5.00813 0.13912,0 c 1.14382,-1.88576 2.51951,-3.27691 4.12707,-4.17344 1.60753,-0.92741 3.33874,-1.39113 5.19363,-1.39115 1.02015,2e-5 1.83938,0.0773 2.45769,0.23185 0.64918,0.1546 1.31384,0.38646 1.99398,0.69558 l -1.39115,5.70371 c -0.71105,-0.21638 -1.36025,-0.37096 -1.94761,-0.46372 -0.55648,-0.12364 -1.26751,-0.18547 -2.13309,-0.18548 -1.42208,10e-6 -2.82869,0.41736 -4.21982,1.25203 -1.36025,0.83471 -2.535,2.28768 -3.52424,4.35894 l 0,11.96388 -6.81663,0"
         style="font-size:46.37163544px;font-weight:bold;text-align:center;line-height:125%;text-anchor:middle;fill:#002b3d;font-family:Source Code Pro;-inkscape-font-specification:Source Code Pro Semi-Light"
         id="path3042" />
      <path
         d="m 754.31406,832.59461 c -1.17475,0 -2.22584,-0.18549 -3.15327,-0.55646 -0.92744,-0.34006 -1.71575,-0.81923 -2.36495,-1.43752 -0.64921,-0.6492 -1.1593,-1.39115 -1.53027,-2.22584 -0.34006,-0.83469 -0.51009,-1.74666 -0.51008,-2.73593 -10e-6,-1.2984 0.27822,-2.42677 0.83469,-3.38513 0.55645,-0.98925 1.43751,-1.82394 2.64318,-2.50407 1.23657,-0.6801 2.8132,-1.2211 4.72991,-1.623 1.91668,-0.43279 4.23526,-0.72648 6.95574,-0.88106 -0.12367,-1.05108 -0.58739,-1.87031 -1.39115,-2.4577 -0.77287,-0.58736 -1.94762,-0.88104 -3.52424,-0.88106 -1.11293,2e-5 -2.24131,0.20096 -3.38513,0.60283 -1.11293,0.37099 -2.31859,0.88108 -3.61699,1.53026 l -2.41132,-4.45167 c 1.57663,-0.8965 3.26146,-1.63845 5.0545,-2.22584 1.82394,-0.58735 3.72518,-0.88104 5.70372,-0.88106 3.21508,2e-5 5.75006,0.85017 7.60494,2.55044 1.85484,1.70031 2.78228,4.31257 2.7823,7.8368 l 0,13.16955 -5.56459,0 -0.51009,-2.59681 -0.18549,0 c -1.17476,0.89652 -2.45771,1.65392 -3.84885,2.27221 -1.39116,0.58737 -2.82868,0.88106 -4.31256,0.88106 m 2.17947,-5.28637 c 1.02016,0 1.97851,-0.20094 2.87504,-0.60283 0.8965,-0.4328 1.74665,-0.95834 2.55044,-1.57664 l 0,-3.80247 c -1.70031,0.0928 -3.10691,0.24733 -4.21982,0.46372 -1.11293,0.21641 -1.99399,0.49464 -2.64318,0.83468 -0.64921,0.30916 -1.11293,0.68013 -1.39115,1.11292 -0.24732,0.43281 -0.37098,0.89653 -0.37097,1.39115 -1e-5,0.74196 0.27822,1.29841 0.83469,1.66938 0.58736,0.34007 1.37568,0.51009 2.36495,0.51009"
         style="font-size:46.37163544px;font-weight:bold;text-align:center;line-height:125%;text-anchor:middle;fill:#002b3d;font-family:Source Code Pro;-inkscape-font-specification:Source Code Pro Semi-Light"
         id="path3044" />
      <path
         d="m 802.96806,832.03815 0,-5.75009 7.04849,0 0,-18.73414 -7.04849,0 0,-5.75008 20.95998,0 0,5.75008 -7.04849,0 0,18.73414 7.04849,0 0,5.75009 -20.95998,0"
         style="font-size:46.37163544px;font-weight:bold;text-align:center;line-height:125%;text-anchor:middle;fill:#002b3d;font-family:Source Code Pro;-inkscape-font-specification:Source Code Pro Semi-Light"
         id="path3046" />
      <path
         d="m 830.68019,832.03815 0,-23.00033 5.56459,0 0.51009,3.06052 0.18549,0 c 0.98925,-0.98924 2.11762,-1.83938 3.38513,-2.55044 1.29839,-0.711 2.81319,-1.06652 4.54442,-1.06654 2.59679,2e-5 4.49802,0.83471 5.70371,2.50406 1.20564,1.6694 1.80847,3.95707 1.80849,6.86301 l 0,14.18972 -6.81663,0 0,-13.30866 c -2e-5,-1.54571 -0.24733,-2.67408 -0.74195,-3.38513 -0.49464,-0.71102 -1.3757,-1.06653 -2.64318,-1.06655 -0.92744,2e-5 -1.74668,0.20096 -2.45769,0.60283 -0.68013,0.40191 -1.42208,1.00474 -2.22584,1.8085 l 0,15.34901 -6.81663,0"
         style="font-size:46.37163544px;font-weight:bold;text-align:center;line-height:125%;text-anchor:middle;fill:#002b3d;font-family:Source Code Pro;-inkscape-font-specification:Source Code Pro Semi-Light"
         id="path3048" />
      <path
         d="m 873.13849,832.59461 c -1.82396,0 -3.36968,-0.24732 -4.63716,-0.74195 -1.2675,-0.49463 -2.30314,-1.17475 -3.1069,-2.04035 -0.77287,-0.89652 -1.32933,-1.96306 -1.66938,-3.19964 -0.34007,-1.23657 -0.51009,-2.61227 -0.51009,-4.12708 l 0,-8.11504 -5.79645,0 0,-5.0545 6.12105,-0.27823 0.88107,-7.04849 5.61096,0 0,7.04849 9.73805,0 0,5.33273 -9.73805,0 0,8.06867 c -1e-5,1.76213 0.38642,3.01416 1.15929,3.7561 0.77285,0.71104 2.00942,1.06655 3.70974,1.06655 0.86558,0 1.6539,-0.0773 2.36495,-0.23186 0.74192,-0.15457 1.46841,-0.35551 2.17947,-0.60283 l 1.20566,4.91539 c -1.0202,0.30915 -2.14858,0.58738 -3.38513,0.83469 -1.20568,0.27823 -2.58137,0.41735 -4.12708,0.41735"
         style="font-size:46.37163544px;font-weight:bold;text-align:center;line-height:125%;text-anchor:middle;fill:#002b3d;font-family:Source Code Pro;-inkscape-font-specification:Source Code Pro Semi-Light"
         id="path3050" />
      <path
         d="m 898.25381,832.59461 c -1.79305,0 -3.47789,-0.26278 -5.05451,-0.78832 -1.54573,-0.55646 -2.8905,-1.34478 -4.03433,-2.36495 -1.14384,-1.02018 -2.04036,-2.27221 -2.68956,-3.75611 -0.6492,-1.5148 -0.9738,-3.23054 -0.9738,-5.14725 0,-1.88577 0.3246,-3.5706 0.9738,-5.05451 0.68012,-1.51479 1.57663,-2.78228 2.68956,-3.80247 1.11291,-1.05107 2.3804,-1.83939 3.80247,-2.36495 1.45297,-0.55644 2.95232,-0.83467 4.49805,-0.83469 1.76211,2e-5 3.32328,0.27825 4.68354,0.83469 1.36021,0.55648 2.48859,1.32934 3.38513,2.31858 0.92741,0.98928 1.62298,2.16403 2.08672,3.52424 0.46369,1.32934 0.69555,2.78231 0.69557,4.35894 -2e-5,0.6183 -0.0464,1.22113 -0.13911,1.80849 -0.0618,0.55647 -0.12368,0.97381 -0.18549,1.25203 l -15.67361,0 c 0.34005,1.66939 1.09745,2.89051 2.27221,3.66336 1.17474,0.77287 2.705,1.1593 4.59079,1.15929 1.05108,10e-6 2.04034,-0.13911 2.96779,-0.41734 0.95832,-0.27823 1.94758,-0.68011 2.96778,-1.20566 l 2.27221,4.12707 c -1.32934,0.83469 -2.79778,1.49935 -4.4053,1.99398 -1.60757,0.46372 -3.18421,0.69558 -4.72991,0.69558 m -0.55646,-18.91963 c -1.36025,2e-5 -2.50408,0.35553 -3.4315,1.06655 -0.89653,0.71105 -1.51482,1.79305 -1.85487,3.24601 l 9.83079,0 c -0.34008,-2.87502 -1.85488,-4.31254 -4.54442,-4.31256"
         style="font-size:46.37163544px;font-weight:bold;text-align:center;line-height:125%;text-anchor:middle;fill:#002b3d;font-family:Source Code Pro;-inkscape-font-specification:Source Code Pro Semi-Light"
         id="path3052" />
      <path
         d="m 916.13515,832.03815 0,-23.00033 5.5646,0 0.55646,5.00813 0.13911,0 c 1.14382,-1.88576 2.51951,-3.27691 4.12708,-4.17344 1.60753,-0.92741 3.33873,-1.39113 5.19362,-1.39115 1.02015,2e-5 1.83938,0.0773 2.4577,0.23185 0.64917,0.1546 1.31383,0.38646 1.99398,0.69558 l -1.39115,5.70371 c -0.71106,-0.21638 -1.36026,-0.37096 -1.94761,-0.46372 -0.55648,-0.12364 -1.26751,-0.18547 -2.1331,-0.18548 -1.42208,10e-6 -2.82868,0.41736 -4.21982,1.25203 -1.36024,0.83471 -2.53499,2.28768 -3.52424,4.35894 l 0,11.96388 -6.81663,0"
         style="font-size:46.37163544px;font-weight:bold;text-align:center;line-height:125%;text-anchor:middle;fill:#002b3d;font-family:Source Code Pro;-inkscape-font-specification:Source Code Pro Semi-Light"
         id="path3054" />
      <path
         d="m 941.89967,832.03815 0,-23.00033 5.56459,0 0.51009,3.06052 0.18549,0 c 0.98925,-0.98924 2.11763,-1.83938 3.38513,-2.55044 1.29839,-0.711 2.8132,-1.06652 4.54442,-1.06654 2.59679,2e-5 4.49803,0.83471 5.70371,2.50406 1.20564,1.6694 1.80847,3.95707 1.80849,6.86301 l 0,14.18972 -6.81663,0 0,-13.30866 c -10e-6,-1.54571 -0.24733,-2.67408 -0.74194,-3.38513 -0.49465,-0.71102 -1.37571,-1.06653 -2.64319,-1.06655 -0.92744,2e-5 -1.74667,0.20096 -2.45769,0.60283 -0.68013,0.40191 -1.42208,1.00474 -2.22584,1.8085 l 0,15.34901 -6.81663,0"
         style="font-size:46.37163544px;font-weight:bold;text-align:center;line-height:125%;text-anchor:middle;fill:#002b3d;font-family:Source Code Pro;-inkscape-font-specification:Source Code Pro Semi-Light"
         id="path3056" />
      <path
         d="m 981.66842,832.59461 c -1.79305,0 -3.47788,-0.26278 -5.05451,-0.78832 -1.54573,-0.55646 -2.8905,-1.34478 -4.03433,-2.36495 -1.14384,-1.02018 -2.04036,-2.27221 -2.68955,-3.75611 -0.64921,-1.5148 -0.97381,-3.23054 -0.97381,-5.14725 0,-1.88577 0.3246,-3.5706 0.97381,-5.05451 0.68011,-1.51479 1.57663,-2.78228 2.68955,-3.80247 1.11291,-1.05107 2.3804,-1.83939 3.80247,-2.36495 1.45297,-0.55644 2.95232,-0.83467 4.49805,-0.83469 1.76211,2e-5 3.32329,0.27825 4.68354,0.83469 1.36021,0.55648 2.48859,1.32934 3.38513,2.31858 0.92741,0.98928 1.62298,2.16403 2.08672,3.52424 0.46369,1.32934 0.69555,2.78231 0.69558,4.35894 -3e-5,0.6183 -0.0464,1.22113 -0.13912,1.80849 -0.0619,0.55647 -0.12368,0.97381 -0.18549,1.25203 l -15.67361,0 c 0.34005,1.66939 1.09745,2.89051 2.27221,3.66336 1.17474,0.77287 2.705,1.1593 4.59079,1.15929 1.05108,10e-6 2.04034,-0.13911 2.96779,-0.41734 0.95833,-0.27823 1.94759,-0.68011 2.96778,-1.20566 l 2.27221,4.12707 c -1.32934,0.83469 -2.79777,1.49935 -4.4053,1.99398 -1.60757,0.46372 -3.1842,0.69558 -4.72991,0.69558 m -0.55646,-18.91963 c -1.36025,2e-5 -2.50408,0.35553 -3.4315,1.06655 -0.89653,0.71105 -1.51482,1.79305 -1.85486,3.24601 l 9.83078,0 c -0.34008,-2.87502 -1.85488,-4.31254 -4.54442,-4.31256"
         style="font-size:46.37163544px;font-weight:bold;text-align:center;line-height:125%;text-anchor:middle;fill:#002b3d;font-family:Source Code Pro;-inkscape-font-specification:Source Code Pro Semi-Light"
         id="path3058" />
      <path
         d="m 1012.1628,832.59461 c -1.8239,0 -3.3696,-0.24732 -4.6371,-0.74195 -1.2675,-0.49463 -2.3032,-1.17475 -3.1069,-2.04035 -0.7729,-0.89652 -1.3293,-1.96306 -1.6694,-3.19964 -0.3401,-1.23657 -0.5101,-2.61227 -0.5101,-4.12708 l 0,-8.11504 -5.79644,0 0,-5.0545 6.12104,-0.27823 0.8811,-7.04849 5.6109,0 0,7.04849 9.7381,0 0,5.33273 -9.7381,0 0,8.06867 c 0,1.76213 0.3865,3.01416 1.1593,3.7561 0.7729,0.71104 2.0095,1.06655 3.7098,1.06655 0.8656,0 1.6539,-0.0773 2.3649,-0.23186 0.7419,-0.15457 1.4684,-0.35551 2.1795,-0.60283 l 1.2057,4.91539 c -1.0202,0.30915 -2.1486,0.58738 -3.3852,0.83469 -1.2057,0.27823 -2.5814,0.41735 -4.1271,0.41735"
         style="font-size:46.37163544px;font-weight:bold;text-align:center;line-height:125%;text-anchor:middle;fill:#002b3d;font-family:Source Code Pro;-inkscape-font-specification:Source Code Pro Semi-Light"
         id="path3060" />
    </g>
  </g>
</svg>
