<?xml version="1.0" encoding="UTF-8" standalone="no"?>
<!-- Created with Inkscape (http://www.inkscape.org/) -->

<svg
   xmlns:dc="http://purl.org/dc/elements/1.1/"
   xmlns:cc="http://creativecommons.org/ns#"
   xmlns:rdf="http://www.w3.org/1999/02/22-rdf-syntax-ns#"
   xmlns:svg="http://www.w3.org/2000/svg"
   xmlns="http://www.w3.org/2000/svg"
   xmlns:sodipodi="http://sodipodi.sourceforge.net/DTD/sodipodi-0.dtd"
   xmlns:inkscape="http://www.inkscape.org/namespaces/inkscape"
   width="1018.3622"
   height="405.09448"
   id="svg3172"
   version="1.1"
   inkscape:version="0.91 r13725"
   sodipodi:docname="info-logo.svg"
   inkscape:export-filename="/home/marcio/github/info-cultura-e-identidade-visual/arte/info-logo-rectangle.png"
   inkscape:export-xdpi="18.025753"
   inkscape:export-ydpi="18.025753">
  <defs
     id="defs3174" />
  <sodipodi:namedview
     id="base"
     pagecolor="#ffffff"
     bordercolor="#666666"
     borderopacity="1.0"
     inkscape:pageopacity="0.0"
     inkscape:pageshadow="2"
     inkscape:zoom="0.7"
     inkscape:cx="704.84634"
     inkscape:cy="0.75158099"
     inkscape:document-units="px"
     inkscape:current-layer="g3476"
     showgrid="false"
     inkscape:window-width="1280"
     inkscape:window-height="1000"
     inkscape:window-x="0"
     inkscape:window-y="24"
     inkscape:window-maximized="1"
     showguides="true"
     inkscape:guide-bbox="true" />
  <metadata
     id="metadata3177">
    <rdf:RDF>
      <cc:Work
         rdf:about="">
        <dc:format>image/svg+xml</dc:format>
        <dc:type
           rdf:resource="http://purl.org/dc/dcmitype/StillImage" />
        <dc:title />
      </cc:Work>
    </rdf:RDF>
  </metadata>
  <g
     inkscape:label="Camada 1"
     inkscape:groupmode="layer"
     id="layer1"
     transform="translate(0,-647.2677)">
    <g
       id="g3476">
      <g
         style="font-style:normal;font-variant:normal;font-stretch:normal;font-size:144px;line-height:125%;font-family:'Source Code Pro';-inkscape-font-specification:'Source Code Pro Semi-Light';text-align:start;letter-spacing:0px;word-spacing:0px;writing-mode:lr-tb;text-anchor:start;fill:#000000;fill-opacity:1;stroke:none"
         transform="matrix(2.2262565,0,0,2.2262565,-480.11968,-23.69064)"
         id="g3087" />
      <path
         style="font-style:normal;font-variant:normal;font-stretch:normal;font-size:144px;line-height:125%;font-family:'Source Code Pro';-inkscape-font-specification:'Source Code Pro Semi-Light';text-align:start;letter-spacing:0px;word-spacing:0px;writing-mode:lr-tb;text-anchor:start;fill:#85f611;fill-opacity:1;stroke:none"
         d="m 414.10094,927.71802 c 0,-44.77447 0,-89.54894 0,-134.32341 -24.15043,0 -48.30087,0 -72.4513,0 0,-7.15964 0,-14.31928 0,-21.47893 32.91298,0 65.82596,0 98.73893,0 0,51.93412 0,103.86823 0,155.80234 -8.76254,0 -17.52509,0 -26.28763,0 z"
         id="path3089"
         inkscape:connector-curvature="0"
         inkscape:export-filename="/home/marcio/info.png"
         inkscape:export-xdpi="599.98749"
         inkscape:export-ydpi="599.98749" />
      <path
         style="font-style:normal;font-variant:normal;font-stretch:normal;font-size:144px;line-height:125%;font-family:'Source Code Pro';-inkscape-font-specification:'Source Code Pro Semi-Light';text-align:start;letter-spacing:0px;word-spacing:0px;writing-mode:lr-tb;text-anchor:start;fill:#d40000;fill-opacity:1;stroke:none"
         d="m 424.35665,743.66195 c -12.61621,0.77418 -24.83887,-10.01884 -24.60467,-23.5617 -1.62437,-14.8792 11.97704,-27.78156 25.89782,-26.32819 13.62382,-0.10241 25.38246,13.47847 23.2284,27.69162 -0.53421,13.20774 -12.25685,22.73266 -24.52155,22.19827 z"
         id="path3091"
         inkscape:connector-curvature="0"
         inkscape:export-filename="/home/marcio/info.png"
         inkscape:export-xdpi="599.98749"
         inkscape:export-ydpi="599.98749" />
      <path
         d="m 490.30959,927.71802 0,-155.80234 21.79951,0 2.24406,26.60822 1.28233,0 c 8.12131,-8.76241 16.88386,-16.02891 26.28763,-21.7995 9.40362,-5.7703 20.19651,-8.65553 32.37868,-8.65569 18.59356,1.6e-4 32.16482,5.34318 40.71378,16.02905 8.76239,10.47244 13.14366,26.07403 13.14381,46.80482 l 0,96.81544 -26.28763,0 0,-93.28905 c -1.4e-4,-14.74661 -2.7785,-25.64637 -8.33511,-32.69926 -5.55684,-7.26637 -14.74683,-10.89962 -27.56996,-10.89975 -4.70194,1.3e-4 -9.08321,0.6413 -13.14382,1.92349 -3.84706,1.06873 -7.69403,2.7785 -11.54091,5.12929 -3.84704,2.35106 -7.80087,5.34315 -11.86149,8.97627 -4.06076,3.41964 -8.33515,7.48033 -12.82324,12.18207 l 0,108.67694 -26.28764,0"
         style="font-style:normal;font-variant:normal;font-stretch:normal;font-size:144px;line-height:125%;font-family:'Source Code Pro';-inkscape-font-specification:'Source Code Pro Semi-Light';text-align:start;letter-spacing:0px;word-spacing:0px;writing-mode:lr-tb;text-anchor:start;fill:#18a6dc;fill-opacity:1;stroke:none"
         id="path3093"
         inkscape:connector-curvature="0"
         inkscape:export-filename="/home/marcio/info.png"
         inkscape:export-xdpi="599.98749"
         inkscape:export-ydpi="599.98749" />
      <path
         d="m 699.1319,927.71802 0,-134.32341 -44.56076,0 0,-19.87602 44.56076,-1.60291 0,-13.14381 c -7e-5,-19.02096 5.02236,-34.30196 15.0673,-45.84308 10.2585,-11.54069 26.18066,-17.31115 47.76656,-17.31137 15.38773,2.2e-4 30.34817,2.99231 44.88133,8.97627 l -6.09104,19.87602 c -6.4118,-2.99189 -12.39595,-4.91538 -17.95253,-5.77046 -5.34317,-1.0684 -11.43419,-1.6027 -18.27311,-1.60291 -14.1057,2.1e-4 -24.25741,3.63346 -30.45519,10.89976 -5.98429,7.05298 -8.97636,16.99096 -8.97627,29.81402 l 0,14.10556 65.39851,0 0,21.47893 -65.39851,0 0,134.32341 -25.96705,0"
         style="font-style:normal;font-variant:normal;font-stretch:normal;font-size:144px;line-height:125%;font-family:'Source Code Pro';-inkscape-font-specification:'Source Code Pro Semi-Light';text-align:start;letter-spacing:0px;word-spacing:0px;writing-mode:lr-tb;text-anchor:start;fill:#f31161;fill-opacity:1;stroke:none"
         id="path3095"
         inkscape:connector-curvature="0"
         inkscape:export-filename="/home/marcio/info.png"
         inkscape:export-xdpi="599.98749"
         inkscape:export-ydpi="599.98749" />
      <path
         d="m 878.78133,931.56499 c -10.25868,0 -20.0898,-1.81662 -29.49344,-5.44987 -9.19003,-3.63326 -17.31142,-8.86941 -24.36415,-15.70847 -7.05281,-7.05276 -12.7164,-15.60158 -16.99079,-25.64648 -4.06072,-10.25854 -6.09106,-21.79943 -6.09104,-34.62274 -2e-5,-13.03687 2.03032,-24.57776 6.09104,-34.62274 4.27439,-10.25848 9.93798,-18.91414 16.99079,-25.96705 7.05273,-7.05265 15.17412,-12.39564 24.36415,-16.02905 9.40364,-3.6331 19.23476,-5.44972 29.49344,-5.44988 10.25848,1.6e-4 19.98277,1.81678 29.17287,5.44988 9.40357,3.63341 17.63182,8.9764 24.68473,16.02905 7.05263,7.05291 12.60936,15.70857 16.67021,25.96705 4.27426,10.04498 6.41144,21.58587 6.41162,34.62274 -1.8e-4,12.82331 -2.13736,24.3642 -6.41162,34.62274 -4.06085,10.0449 -9.61758,18.59372 -16.67021,25.64648 -7.05291,6.83906 -15.28116,12.07521 -24.68473,15.70847 -9.1901,3.63325 -18.91439,5.44987 -29.17287,5.44987 m 0,-21.7995 c 7.48014,2e-5 14.21231,-1.38916 20.1966,-4.16755 6.19779,-2.99207 11.43394,-7.05276 15.70847,-12.18208 4.488,-5.34297 7.90753,-11.64773 10.25859,-18.91428 2.35079,-7.26643 3.52625,-15.38781 3.52639,-24.36415 -1.4e-4,-8.97617 -1.1756,-17.09756 -3.52639,-24.36415 -2.35106,-7.48011 -5.77059,-13.89173 -10.25859,-19.23485 -4.27453,-5.34289 -9.51068,-9.40358 -15.70847,-12.18208 -5.98429,-2.99195 -12.71646,-4.488 -20.1966,-4.48813 -7.48031,1.3e-4 -14.31935,1.49618 -20.51718,4.48813 -5.98424,2.7785 -11.2204,6.83919 -15.70846,12.18208 -4.27446,5.34312 -7.58713,11.75474 -9.93801,19.23485 -2.35097,7.26659 -3.52644,15.38798 -3.52639,24.36415 -5e-5,8.97634 1.17542,17.09772 3.52639,24.36415 2.35088,7.26655 5.66355,13.57131 9.93801,18.91428 4.48806,5.12932 9.72422,9.19001 15.70846,12.18208 6.19783,2.77839 13.03687,4.16757 20.51718,4.16755"
         style="font-style:normal;font-variant:normal;font-stretch:normal;font-size:144px;line-height:125%;font-family:'Source Code Pro';-inkscape-font-specification:'Source Code Pro Semi-Light';text-align:start;letter-spacing:0px;word-spacing:0px;writing-mode:lr-tb;text-anchor:start;fill:#ff8d12;fill-opacity:1;stroke:none"
         id="path3097"
         inkscape:connector-curvature="0"
         inkscape:export-filename="/home/marcio/info.png"
         inkscape:export-xdpi="599.98749"
         inkscape:export-ydpi="599.98749" />
      <g
         id="g3099"
         transform="matrix(1.7264096,0,0,1.7264096,-2089.7132,719.32751)"
         inkscape:export-filename="/home/marcio/info.png"
         inkscape:export-xdpi="599.98749"
         inkscape:export-ydpi="599.98749">
        <rect
           style="fill:#ff8d12;fill-opacity:1;fill-rule:evenodd;stroke:none"
           id="rect3101"
           width="44.033901"
           height="44.033901"
           x="1293.2427"
           y="77.850952"
           ry="5" />
        <rect
           ry="5"
           y="31.85096"
           x="1339.326"
           height="44.033901"
           width="44.033901"
           id="rect3103"
           style="fill:#18a6dc;fill-opacity:1;fill-rule:evenodd;stroke:none" />
        <rect
           style="fill:#f31161;fill-opacity:1;fill-rule:evenodd;stroke:none"
           id="rect3105"
           width="44.033901"
           height="44.033901"
           x="1339.3262"
           y="77.850952"
           ry="5" />
        <rect
           ry="5"
           y="-14.14904"
           x="1293.2427"
           height="44.033901"
           width="44.033901"
           id="rect3107"
           style="fill:#85f611;fill-opacity:1;fill-rule:evenodd;stroke:none" />
        <rect
           style="fill:#d40000;fill-opacity:1;fill-rule:evenodd;stroke:none"
           id="rect3109"
           width="44.033901"
           height="44.033901"
           x="1247.1051"
           y="77.850952"
           ry="5" />
      </g>
      <text
         xml:space="preserve"
         style="font-style:normal;font-weight:normal;font-size:50.47404861px;line-height:125%;font-family:sans-serif;letter-spacing:0px;word-spacing:0px;fill:#000000;fill-opacity:1;stroke:none;stroke-width:1px;stroke-linecap:butt;stroke-linejoin:miter;stroke-opacity:1"
         x="62.394974"
         y="993.84418"
         id="text4324"
         sodipodi:linespacing="125%"><tspan
           sodipodi:role="line"
           id="tspan4326"
           x="62.394974"
           y="993.84418"
           style="font-style:normal;font-variant:normal;font-weight:300;font-stretch:normal;font-size:50.47404861px;line-height:125%;font-family:'Open Sans';-inkscape-font-specification:'Open Sans, Light';text-align:start;writing-mode:lr-tb;text-anchor:start">Técnico em <tspan
   style="font-style:normal;font-variant:normal;font-weight:600;font-stretch:normal;font-size:50.47435379px;line-height:125%;font-family:'Open Sans';-inkscape-font-specification:'Open Sans, Semi-Bold';text-align:start;writing-mode:lr-tb;text-anchor:start"
   id="tspan4328">Informática para Internet</tspan></tspan></text>
    </g>
  </g>
</svg>
