<?xml version="1.0" encoding="UTF-8" standalone="no"?>
<!-- Created with Inkscape (http://www.inkscape.org/) -->

<svg
   xmlns:dc="http://purl.org/dc/elements/1.1/"
   xmlns:cc="http://creativecommons.org/ns#"
   xmlns:rdf="http://www.w3.org/1999/02/22-rdf-syntax-ns#"
   xmlns:svg="http://www.w3.org/2000/svg"
   xmlns="http://www.w3.org/2000/svg"
   xmlns:sodipodi="http://sodipodi.sourceforge.net/DTD/sodipodi-0.dtd"
   xmlns:inkscape="http://www.inkscape.org/namespaces/inkscape"
   width="432.172"
   height="432.172"
   viewBox="0 0 432.17199 432.172"
   id="svg4198"
   version="1.1"
   inkscape:version="0.91 r13725"
   sodipodi:docname="info-avatar.svg"
   inkscape:export-filename="/home/torres/github/info-cultura-e-identidade-visual/arte/export/info-avatar.png"
   inkscape:export-xdpi="149.94044"
   inkscape:export-ydpi="149.94044">
  <defs
     id="defs4200" />
  <sodipodi:namedview
     id="base"
     pagecolor="#ffffff"
     bordercolor="#666666"
     borderopacity="1.0"
     inkscape:pageopacity="0.0"
     inkscape:pageshadow="2"
     inkscape:zoom="1.2564453"
     inkscape:cx="478.45887"
     inkscape:cy="142.93855"
     inkscape:document-units="px"
     inkscape:current-layer="layer1"
     showgrid="false"
     units="px"
     inkscape:window-width="2560"
     inkscape:window-height="1056"
     inkscape:window-x="0"
     inkscape:window-y="24"
     inkscape:window-maximized="1" />
  <metadata
     id="metadata4203">
    <rdf:RDF>
      <cc:Work
         rdf:about="">
        <dc:format>image/svg+xml</dc:format>
        <dc:type
           rdf:resource="http://purl.org/dc/dcmitype/StillImage" />
        <dc:title></dc:title>
      </cc:Work>
    </rdf:RDF>
  </metadata>
  <g
     inkscape:label="Camada 1"
     inkscape:groupmode="layer"
     id="layer1"
     transform="translate(0,-620.19016)">
    <rect
       style="opacity:1;fill:#ffffff;fill-opacity:1;stroke:none;stroke-width:0.5;stroke-linecap:round;stroke-linejoin:round;stroke-miterlimit:4;stroke-dasharray:none;stroke-dashoffset:0;stroke-opacity:1"
       id="rect4772"
       width="432.1716"
       height="432.1716"
       x="0.00019836426"
       y="620.19037"
       ry="0" />
    <g
       id="g4774"
       transform="translate(-178.14983,251.32631)">
      <path
         inkscape:export-ydpi="599.98749"
         inkscape:export-xdpi="599.98749"
         inkscape:export-filename="/home/marcio/info.png"
         inkscape:connector-curvature="0"
         id="path3089"
         d="m 349.7079,644.06676 c 0,-22.56423 0,-45.12846 0,-67.6927 -12.17067,0 -24.34138,0 -36.51204,0 0,-3.60813 0,-7.21625 0,-10.82437 16.58658,0 33.17318,0 49.75979,0 0,26.17236 0,52.34472 0,78.51707 -4.41592,0 -8.83184,0 -13.24775,0 z"
         style="font-style:normal;font-variant:normal;font-stretch:normal;font-size:144px;line-height:125%;font-family:'Source Code Pro';-inkscape-font-specification:'Source Code Pro Semi-Light';text-align:start;letter-spacing:0px;word-spacing:0px;writing-mode:lr-tb;text-anchor:start;fill:#85f611;fill-opacity:1;stroke:none" />
      <path
         inkscape:export-ydpi="599.98749"
         inkscape:export-xdpi="599.98749"
         inkscape:export-filename="/home/marcio/info.png"
         inkscape:connector-curvature="0"
         id="path3091"
         d="m 354.87631,551.31113 c -6.35798,0.39015 -12.51762,-5.04902 -12.39961,-11.87399 -0.8186,-7.49841 6.03587,-14.0006 13.05129,-13.26818 6.86578,-0.0516 12.79158,6.79253 11.70603,13.95529 -0.26922,6.65609 -6.17688,11.45619 -12.35771,11.18688 z"
         style="font-style:normal;font-variant:normal;font-stretch:normal;font-size:144px;line-height:125%;font-family:'Source Code Pro';-inkscape-font-specification:'Source Code Pro Semi-Light';text-align:start;letter-spacing:0px;word-spacing:0px;writing-mode:lr-tb;text-anchor:start;fill:#d40000;fill-opacity:1;stroke:none" />
      <path
         inkscape:export-ydpi="599.98749"
         inkscape:export-xdpi="599.98749"
         inkscape:export-filename="/home/marcio/info.png"
         inkscape:connector-curvature="0"
         id="path3093"
         style="font-style:normal;font-variant:normal;font-stretch:normal;font-size:144px;line-height:125%;font-family:'Source Code Pro';-inkscape-font-specification:'Source Code Pro Semi-Light';text-align:start;letter-spacing:0px;word-spacing:0px;writing-mode:lr-tb;text-anchor:start;fill:#18a6dc;fill-opacity:1;stroke:none"
         d="m 378.16168,644.06676 0,-78.51707 10.98592,0 1.1309,13.4093 0.6463,0 c 4.0927,-4.41585 8.5087,-8.07782 13.2477,-10.98593 4.7389,-2.90796 10.1781,-4.36198 16.3172,-4.36206 9.3705,8e-5 16.2097,2.69271 20.518,8.07788 4.4158,5.27762 6.6237,13.1401 6.6238,23.58744 l 0,48.79044 -13.2477,0 0,-47.0133 c -1e-4,-7.43161 -1.4003,-12.92457 -4.2006,-16.4789 -2.8004,-3.6619 -7.4316,-5.49289 -13.8939,-5.49296 -2.3696,7e-5 -4.5775,0.32319 -6.6239,0.96936 -1.9387,0.53858 -3.8774,1.40022 -5.8161,2.5849 -1.9387,1.18483 -3.9312,2.6927 -5.9776,4.52364 -2.0465,1.72332 -4.2005,3.76973 -6.4623,6.13918 l 0,54.76808 -13.24772,0" />
      <path
         inkscape:export-ydpi="599.98749"
         inkscape:export-xdpi="599.98749"
         inkscape:export-filename="/home/marcio/info.png"
         inkscape:connector-curvature="0"
         id="path3095"
         style="font-style:normal;font-variant:normal;font-stretch:normal;font-size:144px;line-height:125%;font-family:'Source Code Pro';-inkscape-font-specification:'Source Code Pro Semi-Light';text-align:start;letter-spacing:0px;word-spacing:0px;writing-mode:lr-tb;text-anchor:start;fill:#f31161;fill-opacity:1;stroke:none"
         d="m 477.7115,644.06676 0,-67.6927 -22.4565,0 0,-10.01659 22.4565,-0.80778 0,-6.62387 c -10e-5,-9.58566 2.5311,-17.28657 7.5932,-23.10276 5.1699,-5.81596 13.1938,-8.72401 24.0722,-8.72411 7.7547,1e-4 15.294,1.50799 22.618,4.52362 l -3.0696,10.01658 c -3.2312,-1.50778 -6.2469,-2.47713 -9.0472,-2.90805 -2.6926,-0.53842 -5.7623,-0.80768 -9.2089,-0.8078 -7.1084,1.2e-4 -12.2246,1.8311 -15.3479,5.49298 -3.0157,3.55438 -4.5237,8.56265 -4.5237,15.02486 l 0,7.10855 32.9579,0 0,10.82437 -32.9579,0 0,67.6927 -13.0861,0" />
      <path
         inkscape:export-ydpi="599.98749"
         inkscape:export-xdpi="599.98749"
         inkscape:export-filename="/home/marcio/info.png"
         inkscape:connector-curvature="0"
         id="path3097"
         style="font-style:normal;font-variant:normal;font-stretch:normal;font-size:144px;line-height:125%;font-family:'Source Code Pro';-inkscape-font-specification:'Source Code Pro Semi-Light';text-align:start;letter-spacing:0px;word-spacing:0px;writing-mode:lr-tb;text-anchor:start;fill:#ff8d12;fill-opacity:1;stroke:none"
         d="m 563.9813,646.00546 c -5.1698,0 -10.1243,-0.9155 -14.8633,-2.74648 -4.6313,-1.83099 -8.7242,-4.46977 -12.2784,-7.91634 -3.5543,-3.55425 -6.4084,-7.86246 -8.5625,-12.92461 -2.0464,-5.16983 -3.0697,-10.98591 -3.0697,-17.44824 0,-6.56997 1.0233,-12.38605 3.0697,-17.44824 2.1541,-5.16979 5.0082,-9.53184 8.5625,-13.08618 3.5542,-3.5542 7.6471,-6.24682 12.2784,-8.0779 4.739,-1.83089 9.6935,-2.74639 14.8633,-2.74647 5.1698,8e-5 10.0705,0.91558 14.7018,2.74647 4.7389,1.83108 8.8856,4.5237 12.44,8.0779 3.5541,3.55434 6.3544,7.91639 8.4009,13.08618 2.154,5.06219 3.2311,10.87827 3.2311,17.44824 0,6.46233 -1.0771,12.27841 -3.2311,17.44824 -2.0465,5.06215 -4.8468,9.37036 -8.4009,12.92461 -3.5544,3.44657 -7.7011,6.08535 -12.44,7.91634 -4.6313,1.83098 -9.532,2.74648 -14.7018,2.74648 m 0,-10.98593 c 3.7697,2e-5 7.1625,-0.70007 10.1781,-2.10025 3.1235,-1.50787 5.7622,-3.55426 7.9164,-6.13919 2.2618,-2.69262 3.9851,-5.86991 5.1699,-9.53192 1.1845,-3.66194 1.7771,-7.75473 1.7772,-12.27838 -1e-4,-4.52358 -0.5927,-8.61636 -1.7772,-12.2784 -1.1848,-3.76962 -2.9081,-7.00077 -5.1699,-9.69347 -2.1542,-2.69256 -4.7929,-4.73894 -7.9164,-6.13918 -3.0156,-1.50781 -6.4084,-2.26176 -10.1781,-2.26182 -3.7698,6e-5 -7.2162,0.75401 -10.3397,2.26182 -3.0157,1.40024 -5.6545,3.44662 -7.9164,6.13918 -2.1539,2.6927 -3.8235,5.92385 -5.0082,9.69347 -1.1847,3.66204 -1.7772,7.75482 -1.7772,12.2784 0,4.52365 0.5925,8.61644 1.7772,12.27838 1.1847,3.66201 2.8543,6.8393 5.0082,9.53192 2.2619,2.58493 4.9007,4.63132 7.9164,6.13919 3.1235,1.40018 6.5699,2.10027 10.3397,2.10025" />
      <g
         inkscape:export-ydpi="599.98749"
         inkscape:export-xdpi="599.98749"
         inkscape:export-filename="/home/marcio/info.png"
         transform="matrix(0.87002953,0,0,0.87002953,-897.88006,539.04772)"
         id="g3099">
        <rect
           ry="5"
           y="77.850952"
           x="1293.2427"
           height="44.033901"
           width="44.033901"
           id="rect3101"
           style="fill:#ff8d12;fill-opacity:1;fill-rule:evenodd;stroke:none" />
        <rect
           style="fill:#18a6dc;fill-opacity:1;fill-rule:evenodd;stroke:none"
           id="rect3103"
           width="44.033901"
           height="44.033901"
           x="1340.9601"
           y="30.216883"
           ry="5" />
        <rect
           ry="5"
           y="77.850952"
           x="1340.9602"
           height="44.033901"
           width="44.033901"
           id="rect3105"
           style="fill:#f31161;fill-opacity:1;fill-rule:evenodd;stroke:none" />
        <rect
           style="fill:#85f611;fill-opacity:1;fill-rule:evenodd;stroke:none"
           id="rect3107"
           width="44.033901"
           height="44.033901"
           x="1293.2427"
           y="-17.417194"
           ry="5" />
        <rect
           ry="5"
           y="77.850952"
           x="1245.4711"
           height="44.033901"
           width="44.033901"
           id="rect3109"
           style="fill:#d40000;fill-opacity:1;fill-rule:evenodd;stroke:none" />
      </g>
    </g>
  </g>
</svg>
