<?xml version="1.0" encoding="UTF-8" standalone="no"?>
<!-- Created with Inkscape (http://www.inkscape.org/) -->

<svg
   xmlns:dc="http://purl.org/dc/elements/1.1/"
   xmlns:cc="http://creativecommons.org/ns#"
   xmlns:rdf="http://www.w3.org/1999/02/22-rdf-syntax-ns#"
   xmlns:svg="http://www.w3.org/2000/svg"
   xmlns="http://www.w3.org/2000/svg"
   xmlns:sodipodi="http://sodipodi.sourceforge.net/DTD/sodipodi-0.dtd"
   xmlns:inkscape="http://www.inkscape.org/namespaces/inkscape"
   width="1052.3622"
   height="744.09448"
   id="svg3172"
   version="1.1"
   inkscape:version="0.91 r13725"
   sodipodi:docname="info-logo.svg"
   inkscape:export-filename="/home/marcio/github/info-cultura-e-identidade-visual/arte/info-logo-rectangle.png"
   inkscape:export-xdpi="18.025753"
   inkscape:export-ydpi="18.025753">
  <defs
     id="defs3174" />
  <sodipodi:namedview
     id="base"
     pagecolor="#ffffff"
     bordercolor="#666666"
     borderopacity="1.0"
     inkscape:pageopacity="0.0"
     inkscape:pageshadow="2"
     inkscape:zoom="0.7"
     inkscape:cx="312.25809"
     inkscape:cy="410.52082"
     inkscape:document-units="px"
     inkscape:current-layer="layer1"
     showgrid="false"
     inkscape:window-width="1366"
     inkscape:window-height="744"
     inkscape:window-x="0"
     inkscape:window-y="24"
     inkscape:window-maximized="1" />
  <metadata
     id="metadata3177">
    <rdf:RDF>
      <cc:Work
         rdf:about="">
        <dc:format>image/svg+xml</dc:format>
        <dc:type
           rdf:resource="http://purl.org/dc/dcmitype/StillImage" />
        <dc:title />
      </cc:Work>
    </rdf:RDF>
  </metadata>
  <g
     inkscape:label="Camada 1"
     inkscape:groupmode="layer"
     id="layer1"
     transform="translate(0,-308.2677)">
    <rect
       style="fill:#ffffff;fill-rule:evenodd;stroke:none;stroke-width:1px;stroke-linecap:butt;stroke-linejoin:miter;stroke-opacity:1"
       id="rect3379"
       width="998.57141"
       height="395.71429"
       x="35.714287"
       y="433.79077" />
    <g
       id="g3087"
       transform="matrix(2.2262565,0,0,2.2262565,-471.30078,-219.85766)"
       style="font-style:normal;font-variant:normal;font-stretch:normal;font-size:144px;line-height:125%;font-family:'Source Code Pro';-inkscape-font-specification:'Source Code Pro Semi-Light';text-align:start;letter-spacing:0px;word-spacing:0px;writing-mode:lr-tb;text-anchor:start;fill:#000000;fill-opacity:1;stroke:none">
      <path
         inkscape:connector-curvature="0"
         id="path3089"
         d="m 409.91983,422.56601 c 0,-20.112 0,-40.224 0,-60.336 -10.848,0 -21.696,0 -32.544,0 0,-3.216 0,-6.432 0,-9.648 14.784,0 29.568,0 44.352,0 0,23.328 0,46.656 0,69.984 -3.936,0 -7.872,0 -11.808,0 z"
         style="font-style:normal;font-variant:normal;font-stretch:normal;font-size:144px;line-height:125%;font-family:'Source Code Pro';-inkscape-font-specification:'Source Code Pro Semi-Light';text-align:start;writing-mode:lr-tb;text-anchor:start;fill:#85f611;fill-opacity:1" />
      <path
         inkscape:connector-curvature="0"
         id="path3091"
         d="m 414.52654,339.89087 c -5.66701,0.34775 -11.15724,-4.50031 -11.05204,-10.58355 -0.72964,-6.68351 5.3799,-12.47905 11.6329,-11.82622 6.11961,-0.046 11.40141,6.05432 10.43384,12.43865 -0.23996,5.93271 -5.50559,10.21116 -11.0147,9.97112 z"
         style="font-style:normal;font-variant:normal;font-stretch:normal;font-size:144px;line-height:125%;font-family:'Source Code Pro';-inkscape-font-specification:'Source Code Pro Semi-Light';text-align:start;writing-mode:lr-tb;text-anchor:start;fill:#d40000;fill-opacity:1" />
      <path
         inkscape:connector-curvature="0"
         id="path3093"
         style="font-style:normal;font-variant:normal;font-stretch:normal;font-size:144px;line-height:125%;font-family:'Source Code Pro';-inkscape-font-specification:'Source Code Pro Semi-Light';text-align:start;writing-mode:lr-tb;text-anchor:start;fill:#18a6dc;fill-opacity:1"
         d="m 444.15158,422.56601 0,-69.984 9.792,0 1.008,11.952 0.576,0 c 3.64797,-3.93594 7.58397,-7.19994 11.808,-9.792 4.22396,-2.59193 9.07196,-3.88793 14.544,-3.888 8.35194,7e-5 14.44794,2.40007 18.288,7.2 3.93593,4.70406 5.90393,11.71205 5.904,21.024 l 0,43.488 -11.808,0 0,-41.904 c -6e-5,-6.62395 -1.24806,-11.51995 -3.744,-14.688 -2.49605,-3.26394 -6.62405,-4.89594 -12.384,-4.896 -2.11204,6e-5 -4.08004,0.28806 -5.904,0.864 -1.72804,0.48006 -3.45604,1.24806 -5.184,2.304 -1.72803,1.05606 -3.50403,2.40006 -5.328,4.032 -1.82403,1.53605 -3.74402,3.36005 -5.76,5.472 l 0,48.816 -11.808,0" />
      <path
         inkscape:connector-curvature="0"
         id="path3095"
         style="font-style:normal;font-variant:normal;font-stretch:normal;font-size:144px;line-height:125%;font-family:'Source Code Pro';-inkscape-font-specification:'Source Code Pro Semi-Light';text-align:start;writing-mode:lr-tb;text-anchor:start;fill:#f31161;fill-opacity:1"
         d="m 537.95133,422.56601 0,-60.336 -20.016,0 0,-8.928 20.016,-0.72 0,-5.904 c -3e-5,-8.54392 2.25597,-15.40791 6.768,-20.592 4.60796,-5.1839 11.75995,-7.7759 21.456,-7.776 6.91193,1e-4 13.63193,1.3441 20.16,4.032 l -2.736,8.928 c -2.88008,-1.34391 -5.56807,-2.20791 -8.064,-2.592 -2.40007,-0.47991 -5.13606,-0.71991 -8.208,-0.72 -6.33606,9e-5 -10.89605,1.63209 -13.68,4.896 -2.68805,3.16809 -4.03204,7.63208 -4.032,13.392 l 0,6.336 29.376,0 0,9.648 -29.376,0 0,60.336 -11.664,0" />
      <path
         inkscape:connector-curvature="0"
         id="path3097"
         style="font-style:normal;font-variant:normal;font-stretch:normal;font-size:144px;line-height:125%;font-family:'Source Code Pro';-inkscape-font-specification:'Source Code Pro Semi-Light';text-align:start;writing-mode:lr-tb;text-anchor:start;fill:#ff8d12;fill-opacity:1"
         d="m 618.64708,424.29401 c -4.60804,0 -9.02403,-0.816 -13.248,-2.448 -4.12802,-1.632 -7.77602,-3.984 -10.944,-7.056 -3.16801,-3.16799 -5.71201,-7.00799 -7.632,-11.52 -1.82401,-4.60798 -2.73601,-9.79197 -2.736,-15.552 -10e-6,-5.85596 0.91199,-11.03995 2.736,-15.552 1.91999,-4.60795 4.46399,-8.49594 7.632,-11.664 3.16798,-3.16794 6.81598,-5.56793 10.944,-7.2 4.22397,-1.63193 8.63996,-2.44793 13.248,-2.448 4.60795,7e-5 8.97595,0.81607 13.104,2.448 4.22394,1.63207 7.91994,4.03206 11.088,7.2 3.16793,3.16806 5.66393,7.05605 7.488,11.664 1.91993,4.51205 2.87992,9.69604 2.88,15.552 -8e-5,5.76003 -0.96007,10.94402 -2.88,15.552 -1.82407,4.51201 -4.32007,8.35201 -7.488,11.52 -3.16806,3.072 -6.86406,5.424 -11.088,7.056 -4.12805,1.632 -8.49605,2.448 -13.104,2.448 m 0,-9.792 c 3.35996,1e-5 6.38395,-0.62399 9.072,-1.872 2.78395,-1.34399 5.13595,-3.16799 7.056,-5.472 2.01594,-2.39998 3.55194,-5.23198 4.608,-8.496 1.05594,-3.26397 1.58394,-6.91197 1.584,-10.944 -6e-5,-4.03196 -0.52806,-7.67996 -1.584,-10.944 -1.05606,-3.35995 -2.59206,-6.23995 -4.608,-8.64 -1.92005,-2.39994 -4.27205,-4.22394 -7.056,-5.472 -2.68805,-1.34394 -5.71204,-2.01594 -9.072,-2.016 -3.36004,6e-5 -6.43203,0.67206 -9.216,2.016 -2.68803,1.24806 -5.04003,3.07206 -7.056,5.472 -1.92002,2.40005 -3.40802,5.28005 -4.464,8.64 -1.05602,3.26404 -1.58402,6.91204 -1.584,10.944 -2e-5,4.03203 0.52798,7.68003 1.584,10.944 1.05598,3.26402 2.54398,6.09602 4.464,8.496 2.01597,2.30401 4.36797,4.12801 7.056,5.472 2.78397,1.24801 5.85596,1.87201 9.216,1.872" />
    </g>
    <g
       transform="matrix(1.7264096,0,0,1.7264096,-2062.5282,512.49217)"
       id="g3099">
      <rect
         ry="9.8414583"
         y="77.850952"
         x="1293.2427"
         height="44.033901"
         width="44.033901"
         id="rect3101"
         style="fill:#ff8d12;fill-opacity:1;fill-rule:evenodd;stroke:none" />
      <rect
         style="fill:#18a6dc;fill-opacity:1;fill-rule:evenodd;stroke:none"
         id="rect3103"
         width="44.033901"
         height="44.033901"
         x="1340.4845"
         y="31.85096"
         ry="9.8414583" />
      <rect
         ry="9.8414583"
         y="77.850952"
         x="1340.4846"
         height="44.033901"
         width="44.033901"
         id="rect3105"
         style="fill:#f31161;fill-opacity:1;fill-rule:evenodd;stroke:none" />
      <rect
         style="fill:#85f611;fill-opacity:1;fill-rule:evenodd;stroke:none"
         id="rect3107"
         width="44.033901"
         height="44.033901"
         x="1293.2427"
         y="-14.14904"
         ry="9.8414583" />
      <rect
         ry="9.8414583"
         y="77.850952"
         x="1246.4845"
         height="44.033901"
         width="44.033901"
         id="rect3109"
         style="fill:#d40000;fill-opacity:1;fill-rule:evenodd;stroke:none" />
    </g>
    <g
       style="font-style:normal;font-variant:normal;font-stretch:normal;font-size:238.48269653px;line-height:125%;font-family:'Source Code Pro';-inkscape-font-specification:'Source Code Pro Semi-Light';text-align:start;letter-spacing:0px;word-spacing:0px;writing-mode:lr-tb;text-anchor:start;fill:#002b3d;fill-opacity:1;stroke:none"
       id="text3111"
       transform="matrix(1.0163493,0,0,1.0163493,-62.736407,-12.167915)">
      <g
         id="g3063"
         style="fill:#000000">
        <path
           inkscape:connector-curvature="0"
           id="path2998"
           style="font-weight:normal;fill:#000000"
           d="m 158.67633,777.37635 0,-23.82186 -8.78075,0 0,-2.84562 20.97624,0 0,2.84562 -8.78075,0 0,23.82186 -3.41474,0" />
        <path
           inkscape:connector-curvature="0"
           id="path3000"
           style="font-weight:normal;fill:#000000"
           d="m 185.97835,777.86416 c -1.49057,0 -2.88628,-0.23036 -4.18712,-0.69107 -1.27376,-0.46073 -2.39845,-1.13825 -3.37409,-2.03258 -0.94854,-0.89434 -1.70737,-1.97838 -2.27649,-3.25213 -0.54202,-1.30085 -0.81303,-2.77786 -0.81303,-4.43103 0,-1.59896 0.27101,-3.03531 0.81303,-4.30908 0.56912,-1.27374 1.3144,-2.35778 2.23584,-3.25213 0.94853,-0.89432 2.01903,-1.57184 3.21148,-2.03258 1.21954,-0.4878 2.49329,-0.73171 3.82125,-0.73173 1.40925,2e-5 2.66945,0.23038 3.78061,0.69108 1.13822,0.43363 2.08676,1.05696 2.84561,1.86998 0.78591,0.81304 1.38214,1.78868 1.78867,2.92691 0.4065,1.13826 0.60976,2.39846 0.60978,3.78061 -2e-5,0.37942 -0.0136,0.74528 -0.0406,1.09759 -0.0271,0.35232 -0.0678,0.66398 -0.12196,0.93499 l -15.56957,0 c 0.2168,2.24939 1.02983,3.94321 2.4391,5.08145 1.43634,1.11115 3.18436,1.66672 5.24406,1.66672 1.19243,0 2.26292,-0.16261 3.21147,-0.48782 0.97563,-0.35232 1.91061,-0.81303 2.80497,-1.38216 l 1.21955,2.19519 c -0.97566,0.65043 -2.10036,1.20599 -3.37409,1.66672 -1.24667,0.46071 -2.66947,0.69107 -4.26842,0.69107 m -0.48782,-18.08997 c -0.81305,10e-6 -1.59898,0.13552 -2.3578,0.40652 -0.73174,0.27102 -1.39571,0.66399 -1.99193,1.17889 -0.59623,0.48784 -1.0976,1.11116 -1.50411,1.86998 -0.40652,0.75884 -0.69108,1.62607 -0.85368,2.6017 l 12.602,0 c -0.13552,-2.03257 -0.73174,-3.55023 -1.78867,-4.55298 -1.02985,-1.00272 -2.39846,-1.5041 -4.10581,-1.50411 m -0.93499,-5.48797 -1.74802,-1.66672 5.77253,-6.82947 2.3578,2.27649 -6.38231,6.2197" />
        <path
           inkscape:connector-curvature="0"
           id="path3002"
           style="font-weight:normal;fill:#000000"
           d="m 211.00387,777.86416 c -1.54477,0 -2.98113,-0.23036 -4.30907,-0.69107 -1.30086,-0.46073 -2.43911,-1.1247 -3.41474,-1.99193 -0.97564,-0.89434 -1.73447,-1.97838 -2.27649,-3.25213 -0.54202,-1.30085 -0.81303,-2.76431 -0.81303,-4.39038 0,-1.65316 0.28456,-3.11661 0.85368,-4.39038 0.59622,-1.30083 1.3957,-2.39843 2.39845,-3.29278 1.00273,-0.89432 2.16808,-1.57184 3.49604,-2.03258 1.35504,-0.4607 2.77785,-0.69106 4.26842,-0.69108 1.62605,2e-5 3.02175,0.28458 4.18712,0.85369 1.19243,0.56914 2.19516,1.24666 3.00822,2.03258 l -1.66672,2.15454 c -0.81305,-0.70462 -1.66673,-1.26019 -2.56105,-1.66672 -0.86725,-0.4065 -1.81579,-0.60976 -2.84562,-0.60978 -1.13825,2e-5 -2.18164,0.18972 -3.13017,0.56913 -0.94855,0.35232 -1.76158,0.86725 -2.4391,1.54476 -0.65043,0.67754 -1.16535,1.49057 -1.54476,2.4391 -0.37942,0.92144 -0.56913,1.95128 -0.56912,3.08952 -1e-5,1.13825 0.17615,2.16809 0.52847,3.08953 0.37941,0.92143 0.89433,1.72092 1.54476,2.39844 0.67752,0.65043 1.477,1.16535 2.39845,1.54476 0.94852,0.35231 1.99191,0.52848 3.13017,0.52848 1.21953,0 2.33068,-0.23036 3.33344,-0.69108 1.02982,-0.48782 1.95125,-1.08404 2.76431,-1.78867 l 1.50411,2.15453 c -1.11117,0.97564 -2.33072,1.73447 -3.65865,2.27649 -1.32797,0.54202 -2.72368,0.81303 -4.18712,0.81303" />
        <path
           inkscape:connector-curvature="0"
           id="path3004"
           style="font-weight:normal;fill:#000000"
           d="m 225.0941,777.37635 0,-19.7567 2.76431,0 0.28456,3.37409 0.16261,0 c 1.02984,-1.11113 2.14098,-2.03257 3.33343,-2.76431 1.19245,-0.73171 2.56104,-1.09758 4.10582,-1.0976 2.35778,2e-5 4.0787,0.67755 5.16276,2.03258 1.11113,1.32797 1.66669,3.30635 1.66671,5.93514 l 0,12.2768 -3.33343,0 0,-11.82963 c -2e-5,-1.86996 -0.35233,-3.25212 -1.05694,-4.14647 -0.70465,-0.92142 -1.86999,-1.38214 -3.49604,-1.38215 -0.59623,10e-6 -1.15181,0.0814 -1.66672,0.24391 -0.48783,0.13552 -0.97565,0.35233 -1.46346,0.65042 -0.48783,0.29813 -0.9892,0.67754 -1.50411,1.13825 -0.51492,0.43363 -1.05695,0.94855 -1.62606,1.54476 l 0,13.78091 -3.33344,0" />
        <path
           inkscape:connector-curvature="0"
           id="path3006"
           style="font-weight:normal;fill:#000000"
           d="m 258.53452,777.37635 0,-17.03304 -9.18727,0 0,-2.72366 12.5207,0 0,19.7567 -3.33343,0 m 1.30085,-23.90316 c -0.75884,2e-5 -1.39572,-0.23034 -1.91063,-0.69108 -0.51493,-0.4878 -0.77239,-1.12467 -0.77238,-1.91063 -10e-6,-0.78591 0.25745,-1.40923 0.77238,-1.86997 0.51491,-0.4878 1.15179,-0.73171 1.91063,-0.73173 0.75882,2e-5 1.39569,0.24393 1.91063,0.73173 0.5149,0.46074 0.77236,1.08406 0.77238,1.86997 -2e-5,0.78596 -0.25748,1.42283 -0.77238,1.91063 -0.51494,0.46074 -1.15181,0.6911 -1.91063,0.69108" />
        <path
           inkscape:connector-curvature="0"
           id="path3008"
           style="font-weight:normal;fill:#000000"
           d="m 284.12917,777.86416 c -1.54477,0 -2.98113,-0.23036 -4.30908,-0.69107 -1.30085,-0.46073 -2.43909,-1.1247 -3.41473,-1.99193 -0.97564,-0.89434 -1.73447,-1.97838 -2.27649,-3.25213 -0.54203,-1.30085 -0.81303,-2.76431 -0.81303,-4.39038 0,-1.65316 0.28456,-3.11661 0.85368,-4.39038 0.59622,-1.30083 1.3957,-2.39843 2.39844,-3.29278 1.00274,-0.89432 2.16809,-1.57184 3.49604,-2.03258 1.35505,-0.4607 2.77786,-0.69106 4.26842,-0.69108 1.62606,2e-5 3.02176,0.28458 4.18712,0.85369 1.19244,0.56914 2.19518,1.24666 3.00822,2.03258 l -1.66671,2.15454 c -0.81305,-0.70462 -1.66673,-1.26019 -2.56106,-1.66672 -0.86725,-0.4065 -1.81578,-0.60976 -2.84561,-0.60978 -1.13825,2e-5 -2.18165,0.18972 -3.13018,0.56913 -0.94854,0.35232 -1.76157,0.86725 -2.43909,1.54476 -0.65043,0.67754 -1.16535,1.49057 -1.54476,2.4391 -0.37943,0.92144 -0.56913,1.95128 -0.56913,3.08952 0,1.13825 0.17616,2.16809 0.52847,3.08953 0.37942,0.92143 0.89434,1.72092 1.54476,2.39844 0.67752,0.65043 1.47701,1.16535 2.39845,1.54476 0.94853,0.35231 1.99193,0.52848 3.13018,0.52848 1.21954,0 2.33068,-0.23036 3.33343,-0.69108 1.02983,-0.48782 1.95127,-1.08404 2.76431,-1.78867 l 1.50411,2.15453 c -1.11116,0.97564 -2.33071,1.73447 -3.65865,2.27649 -1.32796,0.54202 -2.72366,0.81303 -4.18711,0.81303" />
        <path
           inkscape:connector-curvature="0"
           id="path3010"
           style="font-weight:normal;fill:#000000"
           d="m 306.63429,777.86416 c -1.30087,0 -2.54752,-0.23036 -3.73995,-0.69107 -1.16536,-0.46073 -2.1952,-1.1247 -3.08953,-1.99193 -0.89434,-0.89434 -1.61252,-1.97838 -2.15453,-3.25213 -0.51493,-1.30085 -0.77239,-2.76431 -0.77239,-4.39038 0,-1.65316 0.25746,-3.11661 0.77239,-4.39038 0.54201,-1.30083 1.26019,-2.39843 2.15453,-3.29278 0.89433,-0.89432 1.92417,-1.57184 3.08953,-2.03258 1.19243,-0.4607 2.43908,-0.69106 3.73995,-0.69108 1.30083,2e-5 2.53393,0.23038 3.6993,0.69108 1.19242,0.46074 2.23581,1.13826 3.13017,2.03258 0.89431,0.89435 1.59894,1.99195 2.11389,3.29278 0.54199,1.27377 0.813,2.73722 0.81303,4.39038 -3e-5,1.62607 -0.27104,3.08953 -0.81303,4.39038 -0.51495,1.27375 -1.21958,2.35779 -2.11389,3.25213 -0.89436,0.86723 -1.93775,1.5312 -3.13017,1.99193 -1.16537,0.46071 -2.39847,0.69107 -3.6993,0.69107 m 0,-2.7643 c 0.94852,0 1.8022,-0.17617 2.56105,-0.52848 0.78591,-0.37941 1.44989,-0.89433 1.99193,-1.54476 0.5691,-0.67752 1.00272,-1.47701 1.30085,-2.39844 0.29809,-0.92144 0.44715,-1.95128 0.44717,-3.08953 -2e-5,-1.13824 -0.14908,-2.16808 -0.44717,-3.08952 -0.29813,-0.94853 -0.73175,-1.76156 -1.30085,-2.4391 -0.54204,-0.67751 -1.20602,-1.19244 -1.99193,-1.54476 -0.75885,-0.37941 -1.61253,-0.56911 -2.56105,-0.56913 -0.94855,2e-5 -1.81579,0.18972 -2.60171,0.56913 -0.75884,0.35232 -1.42281,0.86725 -1.99193,1.54476 -0.54203,0.67754 -0.9621,1.49057 -1.2602,2.4391 -0.29812,0.92144 -0.44717,1.95128 -0.44717,3.08952 0,1.13825 0.14905,2.16809 0.44717,3.08953 0.2981,0.92143 0.71817,1.72092 1.2602,2.39844 0.56912,0.65043 1.23309,1.16535 1.99193,1.54476 0.78592,0.35231 1.65316,0.52848 2.60171,0.52848" />
        <path
           inkscape:connector-curvature="0"
           id="path3012"
           style="font-weight:normal;fill:#000000"
           d="m 356.60404,777.86416 c -1.49058,0 -2.88628,-0.23036 -4.18712,-0.69107 -1.27376,-0.46073 -2.39846,-1.13825 -3.37409,-2.03258 -0.94854,-0.89434 -1.70737,-1.97838 -2.27649,-3.25213 -0.54202,-1.30085 -0.81303,-2.77786 -0.81303,-4.43103 0,-1.59896 0.27101,-3.03531 0.81303,-4.30908 0.56912,-1.27374 1.3144,-2.35778 2.23584,-3.25213 0.94853,-0.89432 2.01903,-1.57184 3.21148,-2.03258 1.21954,-0.4878 2.49328,-0.73171 3.82125,-0.73173 1.40925,2e-5 2.66945,0.23038 3.78061,0.69108 1.13822,0.43363 2.08676,1.05696 2.84561,1.86998 0.78591,0.81304 1.38213,1.78868 1.78867,2.92691 0.40649,1.13826 0.60975,2.39846 0.60978,3.78061 -3e-5,0.37942 -0.0136,0.74528 -0.0407,1.09759 -0.0271,0.35232 -0.0678,0.66398 -0.12196,0.93499 l -15.56958,0 c 0.21681,2.24939 1.02984,3.94321 2.4391,5.08145 1.43636,1.11115 3.18437,1.66672 5.24406,1.66672 1.19244,0 2.26293,-0.16261 3.21148,-0.48782 0.97562,-0.35232 1.91061,-0.81303 2.80497,-1.38216 l 1.21954,2.19519 c -0.97566,0.65043 -2.10035,1.20599 -3.37408,1.66672 -1.24666,0.46071 -2.66947,0.69107 -4.26842,0.69107 m -0.48782,-18.08997 c -0.81305,10e-6 -1.59898,0.13552 -2.3578,0.40652 -0.73174,0.27102 -1.39571,0.66399 -1.99193,1.17889 -0.59622,0.48784 -1.0976,1.11116 -1.50411,1.86998 -0.40652,0.75884 -0.69108,1.62607 -0.85368,2.6017 l 12.602,0 c -0.13552,-2.03257 -0.73175,-3.55023 -1.78867,-4.55298 -1.02985,-1.00272 -2.39846,-1.5041 -4.10581,-1.50411" />
        <path
           inkscape:connector-curvature="0"
           id="path3014"
           style="font-weight:normal;fill:#000000"
           d="m 369.92189,777.37635 0,-19.7567 2.68301,0 0.28456,2.60171 0.0813,0 c 0.51491,-0.92142 1.11114,-1.6667 1.78867,-2.23584 0.67752,-0.56911 1.58541,-0.85367 2.72366,-0.85369 1.92417,2e-5 3.17082,1.13827 3.73995,3.41474 0.56911,-1.05693 1.19244,-1.88351 1.86997,-2.47975 0.70462,-0.62331 1.62606,-0.93497 2.76431,-0.93499 1.38215,2e-5 2.45264,0.52849 3.21148,1.58542 0.78592,1.02985 1.17888,2.53396 1.1789,4.51233 l 0,14.14677 -3.33343,0 0,-13.90286 c -2e-5,-2.30358 -0.70465,-3.45538 -2.11389,-3.45539 -0.70464,10e-6 -1.27376,0.25748 -1.70737,0.77238 -0.43363,0.48783 -0.92144,1.24666 -1.46346,2.27649 l 0,14.30938 -3.08952,0 0,-13.90286 c 0,-1.13823 -0.16261,-1.99192 -0.48782,-2.56106 -0.29812,-0.5962 -0.81304,-0.89432 -1.54476,-0.89433 -0.70464,10e-6 -1.30086,0.25748 -1.78867,0.77238 -0.48782,0.48783 -0.97564,1.24666 -1.46346,2.27649 l 0,14.30938 -3.33343,0" />
        <path
           inkscape:connector-curvature="0"
           id="path3016"
           style="font-weight:bold;font-size:46.37163544px;line-height:125%;font-family:'Source Code Pro';-inkscape-font-specification:'Source Code Pro Semi-Light';text-align:center;text-anchor:middle;fill:#000000"
           d="m 419.32252,777.37635 0,-5.04081 6.17905,0 0,-16.42326 -6.17905,0 0,-5.0408 18.37454,0 0,5.0408 -6.17905,0 0,16.42326 6.17905,0 0,5.04081 -18.37454,0" />
        <path
           inkscape:connector-curvature="0"
           id="path3018"
           style="font-weight:bold;font-size:46.37163544px;line-height:125%;font-family:'Source Code Pro';-inkscape-font-specification:'Source Code Pro Semi-Light';text-align:center;text-anchor:middle;fill:#000000"
           d="m 443.6163,777.37635 0,-20.16321 4.87819,0 0.44717,2.683 0.16261,0 c 0.86722,-0.86722 1.85641,-1.61249 2.96757,-2.23584 1.13823,-0.6233 2.46618,-0.93496 3.98386,-0.93498 2.27647,2e-5 3.94318,0.73174 5.00015,2.19518 1.05692,1.46348 1.58539,3.46896 1.58541,6.01645 l 0,12.4394 -5.97579,0 0,-11.66702 c -2e-5,-1.35505 -0.21683,-2.34423 -0.65042,-2.96757 -0.43364,-0.62332 -1.20602,-0.93498 -2.31715,-0.93499 -0.81304,10e-6 -1.53123,0.17617 -2.15453,0.52847 -0.59624,0.35233 -1.24667,0.8808 -1.95128,1.58542 l 0,13.45569 -5.97579,0" />
        <path
           inkscape:connector-curvature="0"
           id="path3020"
           style="font-weight:bold;font-size:46.37163544px;line-height:125%;font-family:'Source Code Pro';-inkscape-font-specification:'Source Code Pro Semi-Light';text-align:center;text-anchor:middle;fill:#000000"
           d="m 473.72328,777.37635 0,-15.48828 -5.32537,0 0,-4.43102 5.32537,-0.24391 0,-0.52848 c -10e-6,-1.16532 0.17614,-2.24937 0.52847,-3.25213 0.35231,-1.00271 0.89432,-1.86995 1.62606,-2.6017 0.73172,-0.7588 1.66671,-1.35503 2.80497,-1.78867 1.13823,-0.43359 2.49328,-0.6504 4.06516,-0.65043 1.16533,3e-5 2.24937,0.10843 3.25213,0.32521 1.02982,0.21684 1.97836,0.4743 2.84562,0.77239 l -1.13825,4.39037 c -1.32798,-0.51489 -2.73723,-0.77236 -4.22777,-0.77238 -1.30087,2e-5 -2.26296,0.28458 -2.88627,0.85368 -0.59624,0.56915 -0.89435,1.46348 -0.89433,2.68301 l 0,0.56913 6.95143,0 0,4.67493 -6.95143,0 0,15.48828 -5.97579,0" />
        <path
           inkscape:connector-curvature="0"
           id="path3022"
           style="font-weight:bold;font-size:46.37163544px;line-height:125%;font-family:'Source Code Pro';-inkscape-font-specification:'Source Code Pro Semi-Light';text-align:center;text-anchor:middle;fill:#000000"
           d="m 501.63507,777.86416 c -1.32797,0 -2.61526,-0.23036 -3.8619,-0.69107 -1.21956,-0.48782 -2.31715,-1.1789 -3.29279,-2.07323 -0.94854,-0.89434 -1.70737,-1.99193 -2.27649,-3.29279 -0.56912,-1.32795 -0.85368,-2.83205 -0.85368,-4.51233 0,-1.68026 0.28456,-3.17081 0.85368,-4.47168 0.56912,-1.32794 1.32795,-2.43908 2.27649,-3.33343 0.97564,-0.89432 2.07323,-1.57185 3.29279,-2.03258 1.24664,-0.48781 2.53393,-0.73171 3.8619,-0.73173 1.32794,2e-5 2.60169,0.24392 3.82125,0.73173 1.24664,0.46073 2.34423,1.13826 3.29279,2.03258 0.97561,0.89435 1.74799,2.00549 2.31714,3.33343 0.5691,1.30087 0.85366,2.79142 0.85368,4.47168 -2e-5,1.68028 -0.28458,3.18438 -0.85368,4.51233 -0.56915,1.30086 -1.34153,2.39845 -2.31714,3.29279 -0.94856,0.89433 -2.04615,1.58541 -3.29279,2.07323 -1.21956,0.46071 -2.49331,0.69107 -3.82125,0.69107 m 0,-4.83754 c 1.38214,0 2.41198,-0.51492 3.08953,-1.54476 0.7046,-1.02984 1.05692,-2.42554 1.05694,-4.18712 -2e-5,-1.76156 -0.35234,-3.15726 -1.05694,-4.18712 -0.67755,-1.02983 -1.70739,-1.54474 -3.08953,-1.54476 -1.38217,2e-5 -2.42556,0.51493 -3.13017,1.54476 -0.67755,1.02986 -1.01631,2.42556 -1.0163,4.18712 -1e-5,1.76158 0.33875,3.15728 1.0163,4.18712 0.70461,1.02984 1.748,1.54476 3.13017,1.54476" />
        <path
           inkscape:connector-curvature="0"
           id="path3024"
           style="font-weight:bold;font-size:46.37163544px;line-height:125%;font-family:'Source Code Pro';-inkscape-font-specification:'Source Code Pro Semi-Light';text-align:center;text-anchor:middle;fill:#000000"
           d="m 518.53027,777.37635 0,-20.16321 4.8782,0 0.48782,4.39037 0.12195,0 c 1.00273,-1.65315 2.20873,-2.8727 3.618,-3.65864 1.40924,-0.81302 2.9269,-1.21953 4.55298,-1.21955 0.89431,2e-5 1.6125,0.0678 2.15454,0.20325 0.5691,0.13553 1.15177,0.33879 1.74802,0.60978 l -1.21955,5.00015 c -0.62335,-0.18969 -1.19247,-0.3252 -1.70737,-0.40652 -0.48784,-0.10839 -1.11116,-0.16259 -1.86998,-0.1626 -1.24666,10e-6 -2.47976,0.36588 -3.69929,1.09759 -1.19246,0.73174 -2.22231,2.00549 -3.08953,3.82126 l 0,10.48812 -5.97579,0" />
        <path
           inkscape:connector-curvature="0"
           id="path3026"
           style="font-weight:bold;font-size:46.37163544px;line-height:125%;font-family:'Source Code Pro';-inkscape-font-specification:'Source Code Pro Semi-Light';text-align:center;text-anchor:middle;fill:#000000"
           d="m 539.61259,777.37635 0,-20.16321 4.51233,0 0.40652,2.47975 0.1626,0 c 0.37942,-0.81302 0.90789,-1.5041 1.58542,-2.07324 0.67752,-0.5962 1.59896,-0.89431 2.76431,-0.89433 0.86723,2e-5 1.59895,0.28458 2.19519,0.85368 0.62331,0.54204 1.05692,1.35507 1.30085,2.4391 0.3794,-0.92142 0.92142,-1.6938 1.62606,-2.31714 0.73171,-0.65041 1.68026,-0.97562 2.84562,-0.97564 1.46343,2e-5 2.57458,0.58269 3.33343,1.74802 0.78591,1.13826 1.17887,2.72367 1.1789,4.75624 l 0,14.14677 -5.69123,0 0,-13.74026 c -2e-5,-0.62331 -0.0813,-1.08403 -0.24391,-1.38215 -0.16262,-0.2981 -0.44719,-0.44716 -0.85368,-0.44717 -0.37943,10e-6 -0.70465,0.16262 -0.97564,0.48782 -0.27102,0.32523 -0.55558,0.81305 -0.85369,1.46346 l 0,13.6183 -4.67493,0 0,-13.74026 c -2e-5,-1.21953 -0.37943,-1.82931 -1.13825,-1.82932 -0.37942,10e-6 -0.70463,0.16262 -0.97564,0.48782 -0.27101,0.32523 -0.54203,0.81305 -0.81303,1.46346 l 0,13.6183 -5.69123,0" />
        <path
           inkscape:connector-curvature="0"
           id="path3028"
           style="font-weight:bold;font-size:46.37163544px;line-height:125%;font-family:'Source Code Pro';-inkscape-font-specification:'Source Code Pro Semi-Light';text-align:center;text-anchor:middle;fill:#000000"
           d="m 571.67085,777.86416 c -1.02985,0 -1.95129,-0.1626 -2.76431,-0.48781 -0.81304,-0.29812 -1.50412,-0.71818 -2.07324,-1.2602 -0.56912,-0.56913 -1.01629,-1.21955 -1.3415,-1.95128 -0.29811,-0.73173 -0.44717,-1.53121 -0.44717,-2.39845 0,-1.13824 0.24391,-2.12743 0.73173,-2.96757 0.48782,-0.86723 1.2602,-1.59896 2.31714,-2.19519 1.08404,-0.59621 2.4662,-1.07048 4.14647,-1.4228 1.68026,-0.37941 3.71284,-0.63687 6.09775,-0.77238 -0.10842,-0.92143 -0.51493,-1.63961 -1.21955,-2.15454 -0.67754,-0.51491 -1.70739,-0.77237 -3.08953,-0.77238 -0.97565,1e-5 -1.96483,0.17617 -2.96757,0.52847 -0.97564,0.32523 -2.03259,0.77239 -3.17082,1.3415 l -2.11389,-3.90255 c 1.38215,-0.78592 2.85917,-1.43635 4.43103,-1.95128 1.59896,-0.5149 3.26568,-0.77236 5.00015,-0.77238 2.8185,2e-5 5.04078,0.7453 6.66687,2.23584 1.62604,1.49057 2.43907,3.78061 2.4391,6.87012 l 0,11.54507 -4.8782,0 -0.44717,-2.27649 -0.1626,0 c -1.02986,0.78593 -2.15456,1.4499 -3.37409,1.99192 -1.21956,0.51492 -2.47976,0.77238 -3.7806,0.77238 m 1.91063,-4.63428 c 0.89432,0 1.73445,-0.17616 2.5204,-0.52847 0.78592,-0.37942 1.53119,-0.84013 2.23584,-1.38216 l 0,-3.33343 c -1.49057,0.0814 -2.72368,0.21682 -3.6993,0.40652 -0.97565,0.18971 -1.74803,0.43362 -2.31715,0.73172 -0.56913,0.27102 -0.97564,0.59623 -1.21954,0.97564 -0.21682,0.37942 -0.32523,0.78594 -0.32522,1.21955 -10e-6,0.65043 0.2439,1.13825 0.73173,1.46346 0.51492,0.29812 1.20599,0.44717 2.07324,0.44717 m 1.74802,-18.6591 -2.92692,-2.92692 6.2197,-7.3986 4.06516,3.98386 -7.35794,6.34166" />
        <path
           inkscape:connector-curvature="0"
           id="path3030"
           style="font-weight:bold;font-size:46.37163544px;line-height:125%;font-family:'Source Code Pro';-inkscape-font-specification:'Source Code Pro Semi-Light';text-align:center;text-anchor:middle;fill:#000000"
           d="m 602.71282,777.86416 c -1.59898,0 -2.95403,-0.21681 -4.06517,-0.65042 -1.11115,-0.43362 -2.01903,-1.02985 -2.72366,-1.78867 -0.67753,-0.78594 -1.16534,-1.72092 -1.46345,-2.80496 -0.29812,-1.08404 -0.44718,-2.29005 -0.44717,-3.618 l 0,-7.11404 -5.08146,0 0,-4.43102 5.36602,-0.24391 0.77238,-6.17905 4.91885,0 0,6.17905 8.53684,0 0,4.67493 -8.53684,0 0,7.07339 c -2e-5,1.54477 0.33875,2.64236 1.01629,3.29278 0.67751,0.62333 1.76156,0.93499 3.25213,0.93499 0.75881,0 1.44989,-0.0678 2.07323,-0.20326 0.65041,-0.13551 1.28728,-0.31166 1.91063,-0.52847 l 1.05694,4.30907 c -0.89436,0.27101 -1.88354,0.51492 -2.96757,0.73173 -1.05696,0.24391 -2.26295,0.36586 -3.61799,0.36586" />
        <path
           inkscape:connector-curvature="0"
           id="path3032"
           style="font-weight:bold;font-size:46.37163544px;line-height:125%;font-family:'Source Code Pro';-inkscape-font-specification:'Source Code Pro Semi-Light';text-align:center;text-anchor:middle;fill:#000000"
           d="m 622.61624,777.37635 0,-15.48828 -8.08967,0 0,-4.67493 14.06546,0 0,20.16321 -5.97579,0 m 2.72366,-23.33404 c -1.16536,2e-5 -2.12745,-0.32519 -2.88627,-0.97564 -0.73173,-0.6504 -1.0976,-1.53119 -1.09759,-2.64236 -10e-6,-1.11112 0.36586,-2.00545 1.09759,-2.68301 0.75882,-0.7046 1.72091,-1.05691 2.88627,-1.05694 1.16533,3e-5 2.11387,0.35234 2.84561,1.05694 0.75882,0.67756 1.13824,1.57189 1.13825,2.68301 -10e-6,1.11117 -0.37943,1.99196 -1.13825,2.64236 -0.73174,0.65045 -1.68028,0.97566 -2.84561,0.97564" />
        <path
           inkscape:connector-curvature="0"
           id="path3034"
           style="font-weight:bold;font-size:46.37163544px;line-height:125%;font-family:'Source Code Pro';-inkscape-font-specification:'Source Code Pro Semi-Light';text-align:center;text-anchor:middle;fill:#000000"
           d="m 649.6337,777.86416 c -1.59898,0 -3.07598,-0.23036 -4.43103,-0.69107 -1.35506,-0.48782 -2.54751,-1.1789 -3.57734,-2.07323 -1.00275,-0.89434 -1.78867,-1.99193 -2.35779,-3.29279 -0.56913,-1.32795 -0.85369,-2.83205 -0.85369,-4.51233 0,-1.68026 0.31166,-3.17081 0.93499,-4.47168 0.65042,-1.32794 1.50411,-2.43908 2.56105,-3.33343 1.08403,-0.89432 2.33068,-1.57185 3.73995,-2.03258 1.40924,-0.48781 2.88626,-0.73171 4.43102,-0.73173 1.59896,2e-5 3.03531,0.25748 4.30908,0.77238 1.30084,0.51493 2.38487,1.16536 3.25213,1.95128 l -2.76431,3.69929 c -1.49058,-1.05692 -2.98114,-1.58539 -4.47168,-1.58541 -1.73448,2e-5 -3.14374,0.51493 -4.22777,1.54476 -1.08405,1.02986 -1.62607,2.42556 -1.62606,4.18712 -10e-6,1.76158 0.5149,3.15728 1.54476,4.18712 1.05693,1.02984 2.42553,1.54476 4.10581,1.54476 1.05693,0 2.01901,-0.1897 2.88626,-0.56912 0.89433,-0.37942 1.70736,-0.82658 2.4391,-1.3415 l 2.39845,3.7806 c -1.21956,1.02984 -2.56107,1.78867 -4.02451,2.27649 -1.46347,0.46071 -2.88628,0.69107 -4.26842,0.69107" />
        <path
           inkscape:connector-curvature="0"
           id="path3036"
           style="font-weight:bold;font-size:46.37163544px;line-height:125%;font-family:'Source Code Pro';-inkscape-font-specification:'Source Code Pro Semi-Light';text-align:center;text-anchor:middle;fill:#000000"
           d="m 669.17126,777.86416 c -1.02986,0 -1.95129,-0.1626 -2.76431,-0.48781 -0.81304,-0.29812 -1.50412,-0.71818 -2.07323,-1.2602 -0.56913,-0.56913 -1.0163,-1.21955 -1.34151,-1.95128 -0.29812,-0.73173 -0.44717,-1.53121 -0.44717,-2.39845 0,-1.13824 0.24391,-2.12743 0.73173,-2.96757 0.48782,-0.86723 1.2602,-1.59896 2.31715,-2.19519 1.08403,-0.59621 2.46618,-1.07048 4.14646,-1.4228 1.68026,-0.37941 3.71283,-0.63687 6.09775,-0.77238 -0.10843,-0.92143 -0.51494,-1.63961 -1.21955,-2.15454 -0.67755,-0.51491 -1.70738,-0.77237 -3.08952,-0.77238 -0.97566,1e-5 -1.96485,0.17617 -2.96757,0.52847 -0.97565,0.32523 -2.03259,0.77239 -3.17083,1.3415 l -2.11389,-3.90255 c 1.38215,-0.78592 2.85916,-1.43635 4.43103,-1.95128 1.59895,-0.5149 3.26567,-0.77236 5.00015,-0.77238 2.8185,2e-5 5.04079,0.7453 6.66686,2.23584 1.62605,1.49057 2.43908,3.78061 2.4391,6.87012 l 0,11.54507 -4.87819,0 -0.44717,-2.27649 -0.1626,0 c -1.02987,0.78593 -2.15455,1.4499 -3.37409,1.99192 -1.21956,0.51492 -2.47976,0.77238 -3.7806,0.77238 m 1.91063,-4.63428 c 0.89432,0 1.73445,-0.17616 2.5204,-0.52847 0.78591,-0.37942 1.53119,-0.84013 2.23584,-1.38216 l 0,-3.33343 c -1.49058,0.0814 -2.72368,0.21682 -3.6993,0.40652 -0.97565,0.18971 -1.74803,0.43362 -2.31714,0.73172 -0.56914,0.27102 -0.97565,0.59623 -1.21955,0.97564 -0.21683,0.37942 -0.32522,0.78594 -0.32522,1.21955 0,0.65043 0.24391,1.13825 0.73173,1.46346 0.51491,0.29812 1.20598,0.44717 2.07324,0.44717" />
        <path
           inkscape:connector-curvature="0"
           id="path3038"
           style="font-weight:bold;font-size:46.37163544px;line-height:125%;font-family:'Source Code Pro';-inkscape-font-specification:'Source Code Pro Semi-Light';text-align:center;text-anchor:middle;fill:#000000"
           d="m 711.74241,784.85624 0,-27.6431 4.8782,0 0.44717,2.03258 0.12195,0 c 0.81302,-0.73171 1.74801,-1.32794 2.80497,-1.78867 1.05692,-0.48781 2.12741,-0.73171 3.21147,-0.73173 1.24664,2e-5 2.37133,0.24392 3.37409,0.73173 1.00272,0.48783 1.85641,1.17891 2.56105,2.07323 0.7046,0.89435 1.23308,1.97839 1.58542,3.25213 0.37938,1.24666 0.56909,2.64237 0.56912,4.18712 -3e-5,1.73447 -0.24394,3.27923 -0.73173,4.63428 -0.48784,1.32796 -1.13827,2.4662 -1.95128,3.41474 -0.81305,0.92143 -1.74804,1.62607 -2.80496,2.11389 -1.02986,0.48782 -2.1139,0.73172 -3.25213,0.73172 -1.84289,0 -3.49605,-0.73172 -4.9595,-2.19518 l -0.16261,0 0.28456,3.29278 0,5.89448 -5.97579,0 m 9.43118,-11.87027 c 1.13823,0 2.08677,-0.46072 2.84562,-1.38216 0.75881,-0.94853 1.13822,-2.46619 1.13824,-4.55298 -2e-5,-3.63154 -1.23311,-5.4473 -3.6993,-5.44732 -1.27376,2e-5 -2.52041,0.62334 -3.73995,1.86998 l 0,8.17098 c 0.56912,0.48782 1.15179,0.84013 1.74802,1.05694 0.62331,0.1897 1.19244,0.28456 1.70737,0.28456" />
        <path
           inkscape:connector-curvature="0"
           id="path3040"
           style="font-weight:bold;font-size:46.37163544px;line-height:125%;font-family:'Source Code Pro';-inkscape-font-specification:'Source Code Pro Semi-Light';text-align:center;text-anchor:middle;fill:#000000"
           d="m 742.29651,777.86416 c -1.02985,0 -1.95128,-0.1626 -2.76431,-0.48781 -0.81304,-0.29812 -1.50412,-0.71818 -2.07323,-1.2602 -0.56913,-0.56913 -1.0163,-1.21955 -1.34151,-1.95128 -0.29812,-0.73173 -0.44717,-1.53121 -0.44716,-2.39845 -10e-6,-1.13824 0.2439,-2.12743 0.73172,-2.96757 0.48782,-0.86723 1.2602,-1.59896 2.31715,-2.19519 1.08403,-0.59621 2.46618,-1.07048 4.14646,-1.4228 1.68026,-0.37941 3.71284,-0.63687 6.09775,-0.77238 -0.10843,-0.92143 -0.51494,-1.63961 -1.21955,-2.15454 -0.67755,-0.51491 -1.70738,-0.77237 -3.08952,-0.77238 -0.97565,1e-5 -1.96485,0.17617 -2.96757,0.52847 -0.97565,0.32523 -2.03259,0.77239 -3.17083,1.3415 l -2.11389,-3.90255 c 1.38215,-0.78592 2.85916,-1.43635 4.43103,-1.95128 1.59895,-0.5149 3.26567,-0.77236 5.00015,-0.77238 2.8185,2e-5 5.04079,0.7453 6.66687,2.23584 1.62604,1.49057 2.43908,3.78061 2.4391,6.87012 l 0,11.54507 -4.8782,0 -0.44716,-2.27649 -0.16261,0 c -1.02986,0.78593 -2.15455,1.4499 -3.37409,1.99192 -1.21956,0.51492 -2.47976,0.77238 -3.7806,0.77238 m 1.91063,-4.63428 c 0.89432,0 1.73445,-0.17616 2.5204,-0.52847 0.78591,-0.37942 1.53119,-0.84013 2.23584,-1.38216 l 0,-3.33343 c -1.49058,0.0814 -2.72367,0.21682 -3.6993,0.40652 -0.97565,0.18971 -1.74803,0.43362 -2.31714,0.73172 -0.56914,0.27102 -0.97565,0.59623 -1.21955,0.97564 -0.21683,0.37942 -0.32522,0.78594 -0.32521,1.21955 -1e-5,0.65043 0.2439,1.13825 0.73173,1.46346 0.5149,0.29812 1.20598,0.44717 2.07323,0.44717" />
        <path
           inkscape:connector-curvature="0"
           id="path3042"
           style="font-weight:bold;font-size:46.37163544px;line-height:125%;font-family:'Source Code Pro';-inkscape-font-specification:'Source Code Pro Semi-Light';text-align:center;text-anchor:middle;fill:#000000"
           d="m 762.28124,777.37635 0,-20.16321 4.87819,0 0.48782,4.39037 0.12196,0 c 1.00273,-1.65315 2.20872,-2.8727 3.61799,-3.65864 1.40924,-0.81302 2.9269,-1.21953 4.55299,-1.21955 0.89431,2e-5 1.61249,0.0678 2.15453,0.20325 0.5691,0.13553 1.15177,0.33879 1.74802,0.60978 l -1.21955,5.00015 c -0.62334,-0.18969 -1.19246,-0.3252 -1.70737,-0.40652 -0.48784,-0.10839 -1.11116,-0.16259 -1.86997,-0.1626 -1.24667,10e-6 -2.47977,0.36588 -3.6993,1.09759 -1.19246,0.73174 -2.22231,2.00549 -3.08952,3.82126 l 0,10.48812 -5.97579,0" />
        <path
           inkscape:connector-curvature="0"
           id="path3044"
           style="font-weight:bold;font-size:46.37163544px;line-height:125%;font-family:'Source Code Pro';-inkscape-font-specification:'Source Code Pro Semi-Light';text-align:center;text-anchor:middle;fill:#000000"
           d="m 791.04671,777.86416 c -1.02984,0 -1.95128,-0.1626 -2.76431,-0.48781 -0.81304,-0.29812 -1.50411,-0.71818 -2.07323,-1.2602 -0.56913,-0.56913 -1.0163,-1.21955 -1.34151,-1.95128 -0.29811,-0.73173 -0.44717,-1.53121 -0.44716,-2.39845 -10e-6,-1.13824 0.2439,-2.12743 0.73173,-2.96757 0.48781,-0.86723 1.26019,-1.59896 2.31714,-2.19519 1.08404,-0.59621 2.46619,-1.07048 4.14647,-1.4228 1.68025,-0.37941 3.71283,-0.63687 6.09774,-0.77238 -0.10842,-0.92143 -0.51494,-1.63961 -1.21955,-2.15454 -0.67754,-0.51491 -1.70738,-0.77237 -3.08952,-0.77238 -0.97565,1e-5 -1.96484,0.17617 -2.96757,0.52847 -0.97565,0.32523 -2.03259,0.77239 -3.17083,1.3415 l -2.11388,-3.90255 c 1.38215,-0.78592 2.85915,-1.43635 4.43102,-1.95128 1.59895,-0.5149 3.26567,-0.77236 5.00016,-0.77238 2.81849,2e-5 5.04078,0.7453 6.66686,2.23584 1.62604,1.49057 2.43908,3.78061 2.4391,6.87012 l 0,11.54507 -4.87819,0 -0.44717,-2.27649 -0.16261,0 c -1.02985,0.78593 -2.15455,1.4499 -3.37409,1.99192 -1.21956,0.51492 -2.47976,0.77238 -3.7806,0.77238 m 1.91063,-4.63428 c 0.89432,0 1.73446,-0.17616 2.5204,-0.52847 0.78591,-0.37942 1.5312,-0.84013 2.23584,-1.38216 l 0,-3.33343 c -1.49058,0.0814 -2.72367,0.21682 -3.6993,0.40652 -0.97565,0.18971 -1.74803,0.43362 -2.31714,0.73172 -0.56913,0.27102 -0.97565,0.59623 -1.21955,0.97564 -0.21681,0.37942 -0.32522,0.78594 -0.32521,1.21955 -10e-6,0.65043 0.2439,1.13825 0.73173,1.46346 0.51491,0.29812 1.20599,0.44717 2.07323,0.44717" />
        <path
           inkscape:connector-curvature="0"
           id="path3046"
           style="font-weight:bold;font-size:46.37163544px;line-height:125%;font-family:'Source Code Pro';-inkscape-font-specification:'Source Code Pro Semi-Light';text-align:center;text-anchor:middle;fill:#000000"
           d="m 833.69917,777.37635 0,-5.04081 6.17905,0 0,-16.42326 -6.17905,0 0,-5.0408 18.37454,0 0,5.0408 -6.17905,0 0,16.42326 6.17905,0 0,5.04081 -18.37454,0" />
        <path
           inkscape:connector-curvature="0"
           id="path3048"
           style="font-weight:bold;font-size:46.37163544px;line-height:125%;font-family:'Source Code Pro';-inkscape-font-specification:'Source Code Pro Semi-Light';text-align:center;text-anchor:middle;fill:#000000"
           d="m 857.99297,777.37635 0,-20.16321 4.87819,0 0.44717,2.683 0.16261,0 c 0.86723,-0.86722 1.85641,-1.61249 2.96757,-2.23584 1.13823,-0.6233 2.46618,-0.93496 3.98386,-0.93498 2.27647,2e-5 3.94318,0.73174 5.00015,2.19518 1.05692,1.46348 1.58539,3.46896 1.58541,6.01645 l 0,12.4394 -5.97579,0 0,-11.66702 c -2e-5,-1.35505 -0.21682,-2.34423 -0.65043,-2.96757 -0.43362,-0.62332 -1.206,-0.93498 -2.31714,-0.93499 -0.81304,10e-6 -1.53122,0.17617 -2.15453,0.52847 -0.59623,0.35233 -1.24666,0.8808 -1.95128,1.58542 l 0,13.45569 -5.97579,0" />
        <path
           inkscape:connector-curvature="0"
           id="path3050"
           style="font-weight:bold;font-size:46.37163544px;line-height:125%;font-family:'Source Code Pro';-inkscape-font-specification:'Source Code Pro Semi-Light';text-align:center;text-anchor:middle;fill:#000000"
           d="m 895.21398,777.86416 c -1.59897,0 -2.95402,-0.21681 -4.06516,-0.65042 -1.11115,-0.43362 -2.01904,-1.02985 -2.72366,-1.78867 -0.67753,-0.78594 -1.16535,-1.72092 -1.46346,-2.80496 -0.29812,-1.08404 -0.44717,-2.29005 -0.44717,-3.618 l 0,-7.11404 -5.08145,0 0,-4.43102 5.36601,-0.24391 0.77239,-6.17905 4.91884,0 0,6.17905 8.53685,0 0,4.67493 -8.53685,0 0,7.07339 c -10e-6,1.54477 0.33876,2.64236 1.01629,3.29278 0.67752,0.62333 1.76156,0.93499 3.25214,0.93499 0.75881,0 1.44989,-0.0678 2.07323,-0.20326 0.6504,-0.13551 1.28728,-0.31166 1.91063,-0.52847 l 1.05694,4.30907 c -0.89436,0.27101 -1.88355,0.51492 -2.96757,0.73173 -1.05696,0.24391 -2.26295,0.36586 -3.618,0.36586" />
        <path
           inkscape:connector-curvature="0"
           id="path3052"
           style="font-weight:bold;font-size:46.37163544px;line-height:125%;font-family:'Source Code Pro';-inkscape-font-specification:'Source Code Pro Semi-Light';text-align:center;text-anchor:middle;fill:#000000"
           d="m 917.23129,777.86416 c -1.57187,0 -3.04888,-0.23036 -4.43103,-0.69107 -1.35506,-0.48782 -2.53395,-1.1789 -3.53669,-2.07323 -1.00274,-0.89434 -1.78867,-1.99193 -2.3578,-3.29279 -0.56912,-1.32795 -0.85368,-2.83205 -0.85368,-4.51233 0,-1.65316 0.28456,-3.13016 0.85368,-4.43103 0.59623,-1.32794 1.38216,-2.43908 2.3578,-3.33343 0.97563,-0.92142 2.08678,-1.6125 3.33343,-2.07323 1.27375,-0.48781 2.58815,-0.73171 3.94321,-0.73173 1.54475,2e-5 2.91335,0.24392 4.10582,0.73173 1.19243,0.48783 2.18162,1.16536 2.96757,2.03258 0.81301,0.86725 1.42278,1.89709 1.82932,3.08952 0.4065,1.16536 0.60975,2.43911 0.60977,3.82126 -2e-5,0.54203 -0.0407,1.0705 -0.12195,1.58541 -0.0542,0.48783 -0.10842,0.85369 -0.16261,1.09759 l -13.74025,0 c 0.29811,1.46347 0.96208,2.53396 1.99193,3.21148 1.02984,0.67753 2.37134,1.0163 4.02451,1.01629 0.92143,10e-6 1.78866,-0.12195 2.60171,-0.36586 0.84011,-0.24391 1.70735,-0.59622 2.6017,-1.05694 l 1.99193,3.61799 c -1.16536,0.73173 -2.45267,1.3144 -3.8619,1.74802 -1.40927,0.40652 -2.79143,0.60977 -4.14647,0.60977 m -0.48782,-16.58586 c -1.19246,1e-5 -2.1952,0.31167 -3.00822,0.93499 -0.78594,0.62334 -1.32796,1.57187 -1.62607,2.84561 l 8.61815,0 c -0.29813,-2.52039 -1.62608,-3.78059 -3.98386,-3.7806" />
        <path
           inkscape:connector-curvature="0"
           id="path3054"
           style="font-weight:bold;font-size:46.37163544px;line-height:125%;font-family:'Source Code Pro';-inkscape-font-specification:'Source Code Pro Semi-Light';text-align:center;text-anchor:middle;fill:#000000"
           d="m 932.90695,777.37635 0,-20.16321 4.87819,0 0.48782,4.39037 0.12195,0 c 1.00273,-1.65315 2.20873,-2.8727 3.618,-3.65864 1.40924,-0.81302 2.9269,-1.21953 4.55298,-1.21955 0.89432,2e-5 1.61249,0.0678 2.15454,0.20325 0.5691,0.13553 1.15177,0.33879 1.74802,0.60978 l -1.21955,5.00015 c -0.62335,-0.18969 -1.19247,-0.3252 -1.70737,-0.40652 -0.48783,-0.10839 -1.11116,-0.16259 -1.86998,-0.1626 -1.24666,10e-6 -2.47975,0.36588 -3.6993,1.09759 -1.19245,0.73174 -2.22229,2.00549 -3.08952,3.82126 l 0,10.48812 -5.97578,0" />
        <path
           inkscape:connector-curvature="0"
           id="path3056"
           style="font-weight:bold;font-size:46.37163544px;line-height:125%;font-family:'Source Code Pro';-inkscape-font-specification:'Source Code Pro Semi-Light';text-align:center;text-anchor:middle;fill:#000000"
           d="m 955.49338,777.37635 0,-20.16321 4.87819,0 0.44717,2.683 0.16261,0 c 0.86722,-0.86722 1.85641,-1.61249 2.96757,-2.23584 1.13823,-0.6233 2.46618,-0.93496 3.98385,-0.93498 2.27648,2e-5 3.9432,0.73174 5.00015,2.19518 1.05693,1.46348 1.5854,3.46896 1.58541,6.01645 l 0,12.4394 -5.97578,0 0,-11.66702 c -10e-6,-1.35505 -0.21683,-2.34423 -0.65043,-2.96757 -0.43363,-0.62332 -1.20601,-0.93498 -2.31714,-0.93499 -0.81304,10e-6 -1.53122,0.17617 -2.15453,0.52847 -0.59624,0.35233 -1.24667,0.8808 -1.95128,1.58542 l 0,13.45569 -5.97579,0" />
        <path
           inkscape:connector-curvature="0"
           id="path3058"
           style="font-weight:bold;font-size:46.37163544px;line-height:125%;font-family:'Source Code Pro';-inkscape-font-specification:'Source Code Pro Semi-Light';text-align:center;text-anchor:middle;fill:#000000"
           d="m 990.3566,777.86416 c -1.57188,0 -3.04888,-0.23036 -4.43103,-0.69107 -1.35507,-0.48782 -2.53396,-1.1789 -3.53669,-2.07323 -1.00275,-0.89434 -1.78868,-1.99193 -2.35779,-3.29279 -0.56913,-1.32795 -0.85369,-2.83205 -0.85369,-4.51233 0,-1.65316 0.28456,-3.13016 0.85369,-4.43103 0.59621,-1.32794 1.38215,-2.43908 2.35779,-3.33343 0.97563,-0.92142 2.08677,-1.6125 3.33343,-2.07323 1.27374,-0.48781 2.58814,-0.73171 3.94321,-0.73173 1.54475,2e-5 2.91335,0.24392 4.10582,0.73173 1.19242,0.48783 2.18161,1.16536 2.96757,2.03258 0.81301,0.86725 1.42278,1.89709 1.82932,3.08952 0.40649,1.16536 0.60975,2.43911 0.60977,3.82126 -2e-5,0.54203 -0.0407,1.0705 -0.12195,1.58541 -0.0543,0.48783 -0.10843,0.85369 -0.16261,1.09759 l -13.74025,0 c 0.2981,1.46347 0.96207,2.53396 1.99193,3.21148 1.02983,0.67753 2.37133,1.0163 4.02451,1.01629 0.92142,10e-6 1.78866,-0.12195 2.60171,-0.36586 0.84011,-0.24391 1.70735,-0.59622 2.6017,-1.05694 l 1.99193,3.61799 c -1.16537,0.73173 -2.45267,1.3144 -3.8619,1.74802 -1.40928,0.40652 -2.79143,0.60977 -4.14647,0.60977 m -0.48782,-16.58586 c -1.19246,1e-5 -2.1952,0.31167 -3.00822,0.93499 -0.78595,0.62334 -1.32797,1.57187 -1.62606,2.84561 l 8.61814,0 c -0.29813,-2.52039 -1.62608,-3.78059 -3.98386,-3.7806" />
        <path
           inkscape:connector-curvature="0"
           id="path3060"
           style="font-weight:bold;font-size:46.37163544px;line-height:125%;font-family:'Source Code Pro';-inkscape-font-specification:'Source Code Pro Semi-Light';text-align:center;text-anchor:middle;fill:#000000"
           d="m 1017.0895,777.86416 c -1.599,0 -2.954,-0.21681 -4.0652,-0.65042 -1.1111,-0.43362 -2.0191,-1.02985 -2.7236,-1.78867 -0.6776,-0.78594 -1.1653,-1.72092 -1.4635,-2.80496 -0.2981,-1.08404 -0.4472,-2.29005 -0.4472,-3.618 l 0,-7.11404 -5.0814,0 0,-4.43102 5.366,-0.24391 0.7724,-6.17905 4.9188,0 0,6.17905 8.5369,0 0,4.67493 -8.5369,0 0,7.07339 c 0,1.54477 0.3388,2.64236 1.0163,3.29278 0.6776,0.62333 1.7616,0.93499 3.2522,0.93499 0.7588,0 1.4499,-0.0678 2.0732,-0.20326 0.6504,-0.13551 1.2872,-0.31166 1.9106,-0.52847 l 1.057,4.30907 c -0.8944,0.27101 -1.8836,0.51492 -2.9676,0.73173 -1.057,0.24391 -2.263,0.36586 -3.618,0.36586" />
      </g>
    </g>
  </g>
</svg>
