<?xml version="1.0" encoding="UTF-8" standalone="no"?>
<!-- Created with Inkscape (http://www.inkscape.org/) -->

<svg
   xmlns:dc="http://purl.org/dc/elements/1.1/"
   xmlns:cc="http://creativecommons.org/ns#"
   xmlns:rdf="http://www.w3.org/1999/02/22-rdf-syntax-ns#"
   xmlns:svg="http://www.w3.org/2000/svg"
   xmlns="http://www.w3.org/2000/svg"
   xmlns:sodipodi="http://sodipodi.sourceforge.net/DTD/sodipodi-0.dtd"
   xmlns:inkscape="http://www.inkscape.org/namespaces/inkscape"
   width="744"
   height="744"
   id="svg3089"
   version="1.1"
   inkscape:version="0.91 r13725"
   sodipodi:docname="dc.svg">
  <defs
     id="defs3091">
    <path
       style="fill:#ffffff"
       inkscape:connector-curvature="0"
       d="m -744.1338,917.03908 c -10.6421,-29.9386 -12.60804,-62.62378 -5.34035,-93.49497 9.19663,-39.79193 33.46284,-76.27196 67.45339,-100.90018 22.77325,-16.85248 49.95614,-27.95923 78.23816,-32.87937 44.3423,-7.87217 91.59063,1.20555 129.55629,24.41537 33.04212,19.92546 59.22952,50.27895 72.77086,85.37256 9.28408,22.80352 13.07843,47.58333 11.65088,71.98473 -2.17364,36.06048 -16.52279,71.31919 -40.30579,99.371 -23.00619,27.51278 -55.07422,47.84598 -90.4065,57.71638 -35.55262,9.9147 -74.33774,9.2746 -109.37451,-2.3117 -53.05797,-16.8499 -96.85009,-58.39863 -114.24243,-109.27382 m 73.78648,59.49198 c -2.49384,6.91086 -5.2799,13.71769 -7.69487,20.64953 6.33828,-4.13591 12.66909,-8.29771 18.9467,-12.54298 5.95913,4.50164 12.01771,8.89351 18.13886,13.19925 -1.99245,-7.16285 -4.12014,-14.29004 -6.2885,-21.4065 6.40318,-4.26444 13.01169,-8.22089 19.22448,-12.74156 -7.80503,-0.5471 -15.6457,-0.20738 -23.45402,-0.61433 -1.99662,-6.92498 -3.88121,-13.86555 -6.22607,-20.6848 -2.72443,6.81844 -5.16647,13.75741 -7.60245,20.66693 -7.86627,-0.002 -15.74514,-0.0976 -23.60672,-0.18411 6.01649,4.75115 12.39996,9.05737 18.56259,13.65857 m -1.15176,-70.37895 c 9.0248,18.72143 24.17576,34.49101 42.45318,45.34174 21.24359,12.29729 46.87055,17.77062 71.52909,14.52986 28.67102,-3.2678 55.52645,-18.18795 73.08424,-40.04451 16.19302,-19.76979 24.39613,-45.27474 22.96938,-70.33044 -1.56335,-23.30662 -10.86141,-46.25965 -27.09639,-63.81869 -19.90314,-21.99605 -49.70692,-35.33777 -80.08801,-36.13176 -22.96248,-0.57677 -46.13906,5.78311 -65.07735,18.25425 -25.77417,16.59893 -43.42026,44.16123 -47.32358,73.61634 -2.80516,19.87595 0.71592,40.42416 9.54944,58.58321 m -12.53947,-120.63639 c 6.13511,4.45527 12.16097,9.03682 18.42495,13.33276 -2.31867,-7.13256 -4.23487,-14.38513 -6.37763,-21.56407 6.31919,-4.35372 12.76811,-8.56058 19.30241,-12.62282 -7.61733,-0.80549 -15.29927,-0.52152 -22.9466,-0.62274 -3.07677,-6.93273 -4.77176,-14.32717 -6.794,-21.59358 -2.67174,7.15273 -5.2436,14.34877 -7.94988,21.48275 -7.86575,-0.25254 -15.7512,-0.0682 -23.62539,-0.24884 6.20698,4.60344 12.4569,9.15379 18.78294,13.61443 -2.69597,6.86664 -5.14409,13.83508 -7.87086,20.69591 6.44701,-4.01137 12.66024,-8.37894 19.05406,-12.4738 m 220.55457,160.67977 c -2.75386,6.86796 -5.17723,13.87167 -7.89282,20.77133 6.42793,-4.22918 12.64678,-8.77929 19.39623,-12.55005 6.14163,4.57889 12.31641,9.12117 18.53041,13.59743 -2.13844,-7.41684 -4.25962,-14.82429 -6.42521,-22.23398 6.29722,-4.2783 12.72187,-8.36733 19.07229,-12.56215 -7.92505,-0.30657 -15.85197,-0.41764 -23.77614,-0.41802 -2.14319,-6.92812 -3.85691,-13.98337 -6.29793,-20.83298 -2.7305,6.84789 -5.19963,13.79401 -7.57634,20.75754 -7.90497,-0.1865 -15.81697,-0.24579 -23.72247,-0.18145 6.28541,4.47135 12.45551,9.09844 18.6919,13.65235 m -37.07263,-171.92734 c 6.46941,-3.93371 12.63456,-8.31647 18.97656,-12.43945 5.99645,4.63109 12.26043,8.92703 18.32924,13.45548 -2.13524,-7.15306 -4.04402,-14.37974 -6.83883,-21.34501 6.57593,-4.57459 13.59944,-8.55687 19.94297,-13.43233 -7.93212,0.22456 -15.87678,-0.0489 -23.81863,-0.21182 -1.83931,-7.03607 -4.05761,-13.97225 -6.2083,-20.92625 -2.65397,6.91127 -5.14269,13.89042 -7.60435,20.86243 -7.79347,0.0488 -15.58547,-0.25111 -23.38083,-0.007 5.95583,4.64179 12.19272,8.94488 18.23447,13.48045 -2.42617,6.89301 -5.14078,13.69493 -7.6323,20.56339 z"
       id="path3149" />
  </defs>
  <sodipodi:namedview
     id="base"
     pagecolor="#ffffff"
     bordercolor="#666666"
     borderopacity="1.0"
     inkscape:pageopacity="0.0"
     inkscape:pageshadow="2"
     inkscape:zoom="0.61969414"
     inkscape:cx="372.70935"
     inkscape:cy="364.76522"
     inkscape:document-units="px"
     inkscape:current-layer="layer1"
     showgrid="false"
     inkscape:window-width="1366"
     inkscape:window-height="744"
     inkscape:window-x="0"
     inkscape:window-y="24"
     inkscape:window-maximized="1" />
  <metadata
     id="metadata3094">
    <rdf:RDF>
      <cc:Work
         rdf:about="">
        <dc:format>image/svg+xml</dc:format>
        <dc:type
           rdf:resource="http://purl.org/dc/dcmitype/StillImage" />
        <dc:title></dc:title>
      </cc:Work>
    </rdf:RDF>
  </metadata>
  <g
     inkscape:label="Camada 1"
     inkscape:groupmode="layer"
     id="layer1"
     transform="translate(0,-308.36218)">
    <path
       style="fill:#002b3d"
       inkscape:connector-curvature="0"
       d="m 359.33397,460.80551 c 40.08914,-2.35316 80.74101,6.37745 116.19203,25.30511 45.7504,24.19673 82.58263,64.9168 101.76608,113.02037 13.28347,32.34756 18.10918,67.91794 15.00572,102.68689 -4.67225,54.56624 -31.03456,106.81344 -71.70347,143.42399 -35.05883,31.95537 -80.67283,52.36656 -128.00905,56.37378 -30.9152,3.17166 -62.47837,-0.7503 -91.893,-10.65749 C 257.2439,876.24234 218.70649,847.54389 192.03722,810.2342 165.77721,774.01586 151.2319,729.61256 150.54981,684.91939 c -0.66502,-44.96601 12.63552,-90.15371 38.12818,-127.25875 37.75303,-56.42493 102.75508,-93.6664 170.65598,-96.85513 m -96.6505,66.29802 c -7.65632,-5.25201 -15.09097,-10.81094 -22.79846,-15.97768 3.01819,8.81586 6.07051,17.63172 9.24217,26.41347 -7.43465,5.45663 -14.76701,11.06672 -22.01409,16.77912 9.41268,0.0852 18.82536,0 28.23805,-0.13649 3.15461,8.93522 5.86587,18.00687 9.39563,26.80568 3.18871,-8.95228 5.30315,-18.2456 8.32135,-27.24903 9.12281,0 18.22854,0.13649 27.33428,-0.30694 -7.46876,-5.49073 -15.17624,-10.69158 -22.84961,-15.87536 2.54074,-9.20805 5.20085,-18.39906 7.84389,-27.57302 -7.75864,5.43957 -15.09098,11.45892 -22.71321,17.12016 m 86.53868,22.40626 c -25.83371,4.24595 -50.03044,16.65977 -69.21389,34.3938 -21.91175,20.71813 -36.88338,48.87091 -40.87354,78.8312 -5.25199,34.66664 4.34826,71.14076 25.44153,99.07186 18.97882,25.6291 47.5579,43.8406 78.69477,50.62727 29.03948,6.03639 60.14224,2.89882 86.87972,-10.18003 33.35363,-15.87536 59.30672,-46.26195 70.08354,-81.5595 8.11674,-26.6863 7.8098,-55.96452 -1.3471,-82.34389 -12.00458,-35.77501 -40.05504,-65.73531 -74.85808,-80.2465 -23.42939,-9.99246 -49.72352,-12.80604 -74.80695,-8.59421 m 151.74536,26.03834 c -7.43465,5.67831 -14.98866,11.18609 -22.26986,17.06903 9.48089,-0.30695 18.97884,-0.10232 28.45973,-0.18754 3.29102,8.86701 6.36038,17.83634 9.22511,26.85683 3.4445,-8.64534 5.57598,-17.73403 8.16788,-26.6522 9.48089,-1.26185 19.08113,-0.7503 28.63024,-0.66503 -7.89506,-5.54189 -15.87538,-10.98146 -23.73633,-16.55745 2.84769,-9.12281 5.16676,-18.41611 7.92916,-27.57302 -7.63928,5.7124 -15.22738,11.49303 -22.73026,17.39299 -7.53696,-5.47368 -15.27855,-10.69157 -22.79845,-16.19935 2.83062,8.90111 6.1728,17.64877 9.12278,26.51578 M 233.06423,779.50655 c -7.51991,-5.54189 -15.31267,-10.74274 -22.88372,-16.25053 3.10345,8.95228 6.66731,17.76814 9.10574,26.94211 -7.58812,5.6442 -15.14213,11.33953 -22.62794,17.10309 9.77076,0 19.52448,0.0167 29.29524,-0.0167 3.20578,8.81586 6.13871,17.71699 9.22512,26.56696 2.93294,-9.17396 5.62716,-18.41613 8.18495,-27.69238 9.17394,-0.17046 18.36494,0.20463 27.53891,-0.34104 -7.50288,-5.50779 -15.21036,-10.74273 -22.969,-15.87538 2.77947,-9.191 5.40548,-18.43317 7.878,-27.70942 -7.50285,5.84883 -15.15917,11.51007 -22.7473,17.27363 m 222.45982,14.63058 c 2.72831,8.90111 6.1046,17.59761 9.10574,26.41349 -7.60517,5.45661 -14.88634,11.33953 -22.38922,16.91553 9.4468,-0.0852 18.91064,0.1194 28.34036,-0.80145 3.47861,9.24216 6.08755,18.80832 10.00949,27.87996 2.28498,-9.36152 5.1838,-18.5696 7.94622,-27.81174 9.20805,0.22168 18.41611,-0.0342 27.62418,-0.20463 -7.60519,-5.43957 -15.34676,-10.70862 -23.08835,-15.94358 2.45547,-9.13985 5.33725,-18.16034 7.554,-27.36839 -7.60516,5.40548 -14.88636,11.25428 -22.38921,16.79617 -7.65633,-5.16674 -15.10804,-10.64042 -22.71321,-15.87536 z"
       id="path3257" />
    <path
       style="fill:#002b3d"
       inkscape:connector-curvature="0"
       d="m 349.08574,554.45487 c 24.62302,-3.8708 50.47379,-1.7052 73.45983,8.25315 31.23919,13.24936 56.81711,39.25359 69.38441,70.79972 11.10083,27.5048 12.19214,58.89746 3.18872,87.15255 -9.24216,29.19295 -29.31231,54.70267 -55.38476,70.7315 -22.08229,13.8803 -48.58103,20.37709 -74.55116,19.13231 -27.16376,-1.55173 -53.79892,-11.61239 -74.84102,-28.92012 -25.85078,-20.78635 -43.07325,-51.99142 -46.77353,-84.9699 -4.3312,-33.89929 6.03639,-69.28211 27.52186,-95.79789 19.28576,-24.19673 47.54085,-40.99291 77.99565,-46.38132 m -66.00811,37.82123 c -21.6219,20.83748 -34.7519,49.92814 -37.12211,79.7861 0.27281,1.27891 0.64796,2.5237 1.12542,3.73439 2.60895,-2.55779 5.42253,-4.89391 8.37251,-7.04246 16.81322,-12.39677 33.04668,-25.54383 49.97928,-37.77009 11.33956,1.50057 22.6791,3.18873 34.05277,4.56992 21.38315,28.34036 43.12439,56.42493 64.42227,84.8335 -1.58582,11.83404 -3.47858,23.634 -4.68927,35.51922 -19.21756,14.74994 -38.50332,29.43167 -57.84024,44.02814 -29.32938,-38.58857 -58.69285,-77.14304 -88.09041,-115.69752 -2.33611,-3.10346 -4.60402,-6.32627 -7.40055,-9.07165 -0.9208,19.1664 2.37022,38.58859 10.09475,56.18622 11.76586,27.55595 33.81404,50.50788 60.75613,63.56968 22.84961,10.98146 49.07553,15.29561 74.1419,11.18609 33.69466,-4.8257 64.88269,-24.28198 84.28783,-52.2131 17.35889,-24.24787 25.39036,-54.94139 22.40627,-84.5777 -2.83063,-30.4548 -17.47825,-59.51132 -39.88453,-80.26356 -20.12131,-18.45022 -46.26196,-30.59121 -73.54508,-32.82501 -36.79812,-3.95606 -75.18208,9.53205 -101.06694,36.04783 m 23.20769,41.77729 c -18.53546,13.89735 -36.91748,27.99932 -55.31654,42.06719 30.42069,39.83337 60.63675,79.8543 91.19387,119.58536 17.83635,-13.93144 36.099,-27.31723 53.86712,-41.3169 1.97804,-10.9985 2.79653,-22.15047 4.80866,-33.13195 -21.02505,-27.41954 -41.60678,-55.21422 -62.98993,-82.32684 -10.26527,-2.74536 -21.14443,-2.67715 -31.56318,-4.87686 z"
       id="path3259" />
    <path
       style="fill:#002b3d"
       inkscape:connector-curvature="0"
       d="m 346.92015,600.9385 c 13.5904,-10.48696 27.14671,-21.05916 41.09522,-31.05162 11.62941,0.66503 23.20769,2.83062 34.76892,4.43351 8.49187,11.64648 17.47827,22.93488 25.98718,34.58136 -12.72074,9.22512 -24.99816,19.03 -37.56546,28.49384 -4.4335,-5.52484 -8.33839,-11.45892 -13.16409,-16.65977 -1.1766,0.71618 -3.51272,2.14855 -4.67225,2.86473 12.1069,16.19935 24.48661,32.21114 36.74696,48.3082 1.44943,-1.2107 2.74537,-2.55779 3.87079,-4.05838 -3.64912,-5.91702 -8.33839,-11.08378 -12.48202,-16.64271 12.48202,-9.70256 25.04932,-19.3028 37.78713,-28.68139 9.02049,12.19214 18.80832,23.90685 27.28315,36.44003 -0.98902,11.86816 -3.25693,23.61696 -4.46762,35.46807 -11.86816,9.10576 -23.75339,18.19445 -35.62154,27.28314 -2.67715,2.28496 -6.4627,0.39219 -9.56616,0.49451 -9.24216,-1.55173 -18.7742,-2.18266 -27.82878,-4.14363 -22.38922,-28.49381 -43.84058,-57.73792 -66.14455,-86.317 1.05722,-10.29939 2.84769,-20.5135 3.97312,-30.81289 m 41.60677,-27.84585 c -12.94244,9.31037 -25.18575,19.60975 -38.24755,28.76665 -1.63698,7.02541 -2.06328,14.25545 -3.27398,21.3661 -0.46039,3.52977 -1.46645,7.62224 1.39828,10.46991 20.59875,27.24903 41.58971,54.19111 61.9668,81.61066 11.04968,1.637 22.11638,3.54681 33.26838,4.2971 12.27739,-8.37253 23.71927,-17.93866 35.63858,-26.80568 1.07427,-11.23724 3.29102,-22.33806 4.16068,-33.60941 -8.20199,-10.87914 -16.60861,-21.58779 -24.75945,-32.50104 -10.94736,8.35546 -22.01406,16.55745 -32.85911,25.06639 4.41646,5.6442 8.69649,11.39069 12.99358,17.10312 -3.30807,2.25084 -6.49679,4.65518 -9.53205,7.24706 -13.07885,-17.69992 -26.78861,-34.95651 -39.78221,-52.70759 2.86474,-2.72831 6.10462,-4.99622 9.25921,-7.33233 4.26299,5.69536 8.49189,11.4248 12.94244,16.98374 10.84505,-8.25315 21.89471,-16.26756 32.51809,-24.82765 -6.65027,-9.82192 -14.3407,-18.92768 -21.31496,-28.52793 -2.3702,-3.95604 -7.53696,-3.30806 -11.45891,-4.0072 -7.63926,-0.57978 -15.3979,-2.83062 -22.91782,-2.5919 z"
       id="path3261" />
    <path
       style="fill:#336699"
       inkscape:connector-curvature="0"
       d="m 389.83993,575.59928 c 9.77076,1.68816 19.74615,2.42139 29.44871,4.33122 7.19593,9.07162 13.93144,18.53546 21.2638,27.50479 -9.29332,7.41761 -19.01293,14.28954 -28.3233,21.69008 -4.26299,-5.72945 -8.52598,-11.47596 -12.97655,-17.05194 -4.67223,3.56385 -9.32741,7.16182 -14.08491,10.58926 14.49417,19.13229 28.97127,38.28165 43.60185,57.31162 4.63814,-3.5809 9.32743,-7.0595 13.99966,-10.58926 -4.14363,-5.81472 -8.49187,-11.47597 -12.87424,-17.12017 9.37859,-7.09361 18.60369,-14.39185 28.06753,-21.4002 7.63928,9.82192 15.80716,19.49039 22.40626,29.97734 -1.00606,10.19707 -2.54072,20.32594 -4.05836,30.47185 -10.91325,8.78174 -22.2869,17.0008 -33.40478,25.54383 -10.21412,-1.05722 -20.37707,-2.84767 -30.59121,-3.97311 -20.83749,-27.76059 -42.30589,-55.07782 -62.90466,-83.00892 0.3922,-8.67946 2.26791,-17.20544 3.10346,-25.85078 12.51614,-9.36152 24.8106,-19.04702 37.32674,-28.42561 z"
       id="path3263" />
    <path
       style="fill:#336699"
       inkscape:connector-curvature="0"
       d="m 306.62638,637.08864 c 9.77076,1.36416 19.50743,2.91589 29.32936,3.85375 20.80337,26.73746 40.89059,54.05469 61.79628,80.7069 -1.50057,9.83898 -2.71126,19.72913 -3.97309,29.61925 -0.13649,2.01213 -2.31907,2.9159 -3.61503,4.17772 -15.94357,11.91934 -31.61432,24.2138 -47.5579,36.13312 -29.46579,-38.05997 -57.99371,-76.85319 -87.78346,-114.64032 17.03489,-13.59041 34.82008,-26.19179 51.80384,-39.85042 m -3.13757,47.72844 c 14.54531,19.43923 29.55103,38.53741 43.99405,58.06191 4.7575,-3.59796 9.51499,-7.21299 14.20427,-10.89621 -14.68174,-19.26871 -29.49988,-38.45216 -44.01109,-57.85728 -4.87686,3.37629 -9.46384,7.11066 -14.18723,10.69158 z"
       id="path3265" />
    <path
       style="fill:#002b3d"
       inkscape:connector-curvature="0"
       d="m 307.3255,685.39683 c 3.22281,-2.47254 6.47974,-4.8939 9.73667,-7.31528 13.454,17.85339 26.89093,35.72385 40.68596,53.32145 -3.15461,2.47255 -6.34332,4.89393 -9.54909,7.2812 -13.89735,-17.54647 -26.94208,-35.75794 -40.87354,-53.28737 m 4.3653,0.0852 c 11.91932,16.60859 24.77649,32.55218 36.96864,48.97322 1.58584,-1.21069 3.17166,-2.42138 4.7575,-3.61503 -12.36267,-15.90947 -24.57186,-31.9383 -36.54233,-48.12061 -1.73932,0.9208 -3.46156,1.84161 -5.18381,2.76242 z"
       id="path3267" />
    <g
       id="text3269"
       style="font-style:normal;font-variant:normal;font-weight:normal;font-stretch:normal;font-size:62.40406036px;line-height:125%;font-family:'JACKPORT COLLEGE NCV';-inkscape-font-specification:'JACKPORT COLLEGE NCV';text-align:start;letter-spacing:0px;word-spacing:0px;writing-mode:lr-tb;text-anchor:start;fill:#003366;fill-opacity:1;stroke:none"
       transform="matrix(1.3337875,-0.28624097,0.28624097,1.3337875,887.73813,-630.66661)">
      <path
         inkscape:connector-curvature="0"
         id="path3354"
         style="font-style:normal;font-variant:normal;font-weight:normal;font-stretch:normal;font-size:60px;line-height:125%;font-family:'JACKPORT COLLEGE NCV';-inkscape-font-specification:'JACKPORT COLLEGE NCV';text-align:start;letter-spacing:0px;writing-mode:lr-tb;text-anchor:start"
         d="m -778.61762,908.16004 q -1.15906,0.31075 -1.96621,0.77563 -0.88064,0.42246 -1.01798,1.76378 l 1.16531,4.34649 23.587,-6.32378 -1.16532,-4.34649 q -0.73196,-1.10826 -1.58992,-1.06459 -0.93145,0.001 -2.09052,0.312 l -16.92236,4.53696 z m 30.88223,6.75313 -6.9544,1.8645 -0.59042,-2.20222 -23.58699,6.32378 0.59042,2.20222 -6.95439,1.86451 -4.07084,-15.18377 q 0.0513,-2.12578 0.95752,-3.61114 0.83278,-1.52777 2.76792,-2.4193 l 27.52782,-7.38033 q 2.12159,-0.1961 3.6649,0.69463 1.46981,0.84832 2.57762,2.66335 l 4.07084,15.18377 z m -31.3463,-4.08183 0.34182,1.27497 18.95073,-5.08078 -0.34182,-1.27497 -18.95073,5.08078 z m 34.28593,5.77846 -11.59066,3.10751 -0.59042,-2.20223 -18.95073,5.08078 0.59043,2.20222 -11.59066,3.10751 -4.78557,-17.84961 q 0.0656,-2.99929 1.35356,-5.14606 1.23005,-2.13123 4.04583,-3.44523 l 27.75963,-7.44248 q 3.09546,-0.27084 5.28465,0.94368 2.13123,1.23006 3.68838,3.79429 l 4.78556,17.84962 z m -16.44596,-11.99018 q 0.75339,-0.20198 1.30605,-0.22592 0.4947,-0.008 0.95538,0.55141 l 0.80795,3.01357 -21.50067,5.76443 -0.80796,-3.01357 q 0.11886,-0.71518 0.60936,-0.97092 0.43255,-0.24021 1.18595,-0.4422 l 17.44394,-4.6768 z m 10.43204,-5.34375 q -1.33248,-2.18964 -3.08072,-3.14966 -1.76378,-1.01798 -4.26417,-0.84457 l -27.87553,7.47356 q -2.25179,1.10067 -3.26977,2.86445 -1.03351,1.70582 -1.09191,4.26836 l 4.39712,16.40078 9.04072,-2.42385 -0.59043,-2.20223 21.50067,-5.76443 0.59043,2.20223 9.04072,-2.42386 -4.39713,-16.40078 z" />
      <path
         inkscape:connector-curvature="0"
         id="path3356"
         style="font-style:normal;font-variant:normal;font-weight:normal;font-stretch:normal;font-size:60px;line-height:125%;font-family:'JACKPORT COLLEGE NCV';-inkscape-font-specification:'JACKPORT COLLEGE NCV';text-align:start;letter-spacing:0px;writing-mode:lr-tb;text-anchor:start"
         d="m -786.78374,882.09088 0.31647,2.37904 24.20676,-3.22007 -0.31646,-2.37904 7.13713,-0.94941 1.43993,10.82465 -7.13713,0.9494 -0.31647,-2.37904 -24.20677,3.22007 0.31647,2.37905 -7.13713,0.9494 -1.43993,-10.82464 7.13713,-0.94941 z m 2.06257,-2.69551 0.31647,2.37904 19.44868,-2.58713 -0.31647,-2.37905 11.89522,-1.58234 2.07287,15.58273 -11.89521,1.58235 -0.31647,-2.37905 -19.44868,2.58714 0.31647,2.37904 -11.89522,1.58235 -2.07287,-15.58274 11.89521,-1.58234 z m -10.41268,2.71676 1.72475,12.96578 9.27827,-1.23423 -0.31647,-2.37904 22.06563,-2.93525 0.31647,2.37904 9.27827,-1.23423 -1.72476,-12.96578 -9.27827,1.23423 0.31647,2.37904 -22.06562,2.93525 -0.31647,-2.37904 -9.27827,1.23423 z" />
      <path
         inkscape:connector-curvature="0"
         id="path3358"
         style="font-style:normal;font-variant:normal;font-weight:normal;font-stretch:normal;font-size:60px;line-height:125%;font-family:'JACKPORT COLLEGE NCV';-inkscape-font-specification:'JACKPORT COLLEGE NCV';text-align:start;letter-spacing:0px;writing-mode:lr-tb;text-anchor:start"
         d="m -756.15567,854.36943 -0.0784,10.91971 -4.67988,-0.0336 -26.96903,3.94643 -0.0159,2.21994 -7.19981,-0.0517 0.0737,-10.25974 7.19982,0.0517 -0.0134,1.85995 18.55719,-2.32679 q 1.26126,-0.17095 2.22252,-0.34405 0.96127,-0.1731 1.86427,-0.58663 -0.89697,-0.42645 -1.79565,-0.61291 -0.95868,-0.18689 -2.27736,-0.37636 l -18.52185,-2.59308 -0.0134,1.85995 -7.19981,-0.0517 0.0737,-10.25973 7.19981,0.0517 -0.0159,2.21995 26.90957,4.33336 4.67988,0.0336 z m -29.25414,4.65003 -0.009,1.25997 5.94458,-0.61733 -5.93553,-0.64264 z m 31.67132,-7.03274 -0.11289,15.7196 -6.77983,-0.0487 -24.86737,3.72151 -0.0177,2.45994 -11.99969,-0.0862 0.20424,-28.43927 11.99969,0.0862 -0.0181,2.51994 24.81178,4.01828 6.77983,0.0487 z m -6.9693,1.26999 -25.95046,-4.20647 0.0168,-2.33994 -9.35976,-0.0672 -0.0892,12.41968 9.35976,0.0672 0.0121,-1.67996 16.42407,2.27801 -16.45509,2.04188 0.0121,-1.67996 -9.35975,-0.0672 -0.0892,12.41968 9.35976,0.0672 0.0168,-2.33994 26.00819,-3.83332 5.63986,0.0405 0.0939,-13.07966 -5.63985,-0.0405 z" />
      <path
         inkscape:connector-curvature="0"
         id="path3360"
         style="font-style:normal;font-variant:normal;font-weight:normal;font-stretch:normal;font-size:60px;line-height:125%;font-family:'JACKPORT COLLEGE NCV';-inkscape-font-specification:'JACKPORT COLLEGE NCV';text-align:start;letter-spacing:0px;writing-mode:lr-tb;text-anchor:start"
         d="m -784.82892,826.21248 -0.3552,2.37357 24.15106,3.61422 0.3552,-2.37357 7.12071,1.06562 -1.61619,10.79973 -7.1207,-1.06561 0.3552,-2.37357 -24.15106,-3.61422 -0.3552,2.37357 -7.12071,-1.06562 1.61619,-10.79974 7.1207,1.06562 z m 2.72878,-2.01836 -0.35521,2.37356 19.40393,2.90381 0.3552,-2.37357 11.86785,1.77603 -2.3266,15.54688 -11.86785,-1.77603 0.35521,-2.37357 -19.40393,-2.90381 -0.3552,2.37357 -11.86785,-1.77603 2.3266,-15.54687 11.86785,1.77603 z m -10.75775,-0.27521 -1.93587,12.93595 9.25692,1.3853 0.3552,-2.37356 22.01486,3.29453 -0.35521,2.37357 9.25692,1.3853 1.93587,-12.93595 -9.25692,-1.3853 -0.3552,2.37357 -22.01485,-3.29454 0.3552,-2.37357 -9.25692,-1.3853 z" />
      <path
         inkscape:connector-curvature="0"
         id="path3362"
         style="font-style:normal;font-variant:normal;font-weight:normal;font-stretch:normal;font-size:60px;line-height:125%;font-family:'JACKPORT COLLEGE NCV';-inkscape-font-specification:'JACKPORT COLLEGE NCV';text-align:start;letter-spacing:0px;writing-mode:lr-tb;text-anchor:start"
         d="m -751.11599,819.85718 q -1.12932,1.80174 -2.60913,2.63251 -1.53757,0.81454 -3.6729,0.65099 l -6.52737,-1.83352 1.62258,-5.77643 3.17704,0.89242 q 0.98199,0.27583 1.44216,-0.0312 0.46016,-0.307 0.82103,-0.70421 l 0.97355,-3.46586 q -0.10125,-0.52702 -0.33426,-1.02873 -0.23301,-0.5017 -1.215,-0.77754 l -3.17704,-0.89242 q -0.982,-0.27584 -1.43502,-0.21612 -0.45303,0.0597 -1.20007,0.72238 l -7.56776,6.97327 q -0.89502,0.74575 -2.37678,1.13972 -1.46552,0.3362 -3.14069,-0.13434 l -8.08701,-2.27162 q -1.03262,-0.53934 -1.86858,-1.33506 -0.8775,-0.86971 -1.35974,-1.81536 -0.54,-0.96187 -0.70097,-1.94192 -0.21872,-0.99627 0.0247,-1.86273 l 1.42787,-5.08327 2.18726,-1.13063 -1.73293,-0.48677 1.67125,-5.94973 11.49511,3.22893 -1.67125,5.94973 -4.56339,-1.28183 -1.31429,4.67891 q 0.27455,0.5757 0.65553,0.99432 0.38099,0.41863 1.36298,0.69447 l 3.52363,0.98977 q 0.63541,0.17849 1.16242,0.0772 0.46926,-0.11748 1.2163,-0.78015 l 7.49377,-6.93174 q 0.9437,-0.91904 2.30278,-1.09817 1.37531,-0.23691 2.41507,0.0552 l 8.08701,2.27161 q 1.09039,0.55557 1.92635,1.35129 0.7782,0.77949 1.26044,1.72514 0.49846,0.88788 0.65942,1.86793 0.16097,0.98005 -0.0824,1.84651 l -2.27161,8.08701 z m 3.31137,-7.79494 q 0.29206,-1.03976 0.10579,-2.15156 -0.17005,-1.16957 -0.73537,-2.2632 -0.56531,-1.09362 -1.48435,-2.03732 -0.97681,-0.95993 -2.22426,-1.62194 l -8.2603,-2.32029 q -1.27082,-0.35697 -2.81942,-0.16874 -1.54861,0.18822 -2.89471,1.43048 l -7.49377,6.93174 q -0.8048,0.64644 -1.38245,0.48419 l -3.52362,-0.98978 q -0.46212,-0.1298 -0.71849,-0.32646 -0.29791,-0.27065 -0.43875,-0.43486 l 0.90865,-3.2348 4.56338,1.28184 2.25539,-8.02925 -13.57463,-3.81306 -3.84552,13.69015 q -0.29206,1.03976 -0.0643,2.22555 0.17005,1.16957 0.77691,2.33718 0.56531,1.09363 1.52589,2.11132 0.9768,0.95992 2.24048,1.56418 l 8.26031,2.32028 q 1.96399,0.55168 3.76701,0.12331 1.74526,-0.44459 2.74672,-1.34741 l 7.49378,-6.93173 q 0.49261,-0.42253 0.81389,-0.45693 0.26351,-0.0506 0.89891,0.12786 l 3.17705,0.89242 q 0.40435,0.11358 0.52896,0.33555 0.14084,0.16421 0.20769,0.36995 l -0.87619,3.11928 q -0.14798,0.0831 -0.35372,0.14993 -0.20575,0.0669 -0.6101,-0.0467 l -4.2168,-1.18449 -2.20671,7.85596 7.74043,2.17426 q 2.49815,0.20314 4.27391,-0.79379 1.77576,-0.99692 3.11797,-3.11279 l 2.32029,-8.2603 z m -26.83187,-2.98746 1.00146,-0.90281 -4.2168,-1.18449 -0.30829,1.09753 3.52363,0.98977 z m 11.82742,3.82086 3.92798,1.10335 0.38942,-1.38635 -2.71493,-0.76261 q -0.34658,-0.0973 -0.51079,0.0435 l -1.09168,1.00212 z m 13.9063,7.95716 q -1.58754,2.54553 -3.73326,3.75015 -2.20348,1.18839 -5.29549,0.88076 l -8.95348,-2.515 2.30406,-8.20254 -4.68799,4.04286 q -1.18189,1.10142 -3.26465,1.63818 -2.14053,0.52053 -4.4511,-0.1285 l -8.20254,-2.30406 q -1.47851,-0.72692 -2.65392,-1.86728 -1.15918,-1.19812 -1.90688,-2.52994 -0.73147,-1.38959 -0.95214,-2.82266 -0.27844,-1.4493 0.0623,-2.66235 l 4.20248,-14.96098 16.11626,4.527 -2.80706,9.99324 6.16389,-5.74724 q 1.51031,-1.38311 3.16536,-1.7284 1.67127,-0.40306 3.51973,0.11617 l 8.4336,2.36897 q 1.4785,0.72692 2.63769,1.92504 1.17541,1.14035 1.86534,2.45595 0.68993,1.3156 0.92683,2.69091 0.2369,1.37531 -0.12007,2.64612 l -2.36896,8.4336 z" />
      <path
         inkscape:connector-curvature="0"
         id="path3364"
         style="font-style:normal;font-variant:normal;font-weight:normal;font-stretch:normal;font-size:60px;line-height:125%;font-family:'JACKPORT COLLEGE NCV';-inkscape-font-specification:'JACKPORT COLLEGE NCV';text-align:start;letter-spacing:0px;writing-mode:lr-tb;text-anchor:start"
         d="m -766.32444,776.73622 q -0.54042,-0.11812 -1.34904,-0.22827 -0.83784,-0.1898 -1.36627,0.0944 0.12486,0.58687 0.78613,1.15776 0.63206,0.49122 1.07158,0.82712 l 10.11944,6.27558 2.06832,-4.46413 -11.33016,-3.66244 z m 17.92462,13.26437 0.80715,-1.7421 6.53287,3.02681 -4.21231,9.09158 -6.53287,-3.02681 0.8576,-1.85098 -20.74482,-13.3146 -0.93326,2.0143 -6.53288,-3.02681 7.03733,-15.18892 6.53288,3.0268 -0.93327,2.01431 23.59506,7.16281 0.88282,-1.90542 6.53287,3.02681 -4.23753,9.14602 -6.53287,-3.02681 0.80715,-1.7421 -5.15189,-1.7257 -2.42145,5.2263 4.64742,2.81451 z m -3.21347,-3.34042 1.51341,-3.26644 3.09113,1.03542 -0.68103,1.4699 8.49273,3.93485 5.12036,-11.05144 -8.49274,-3.93485 -0.93326,2.0143 -21.50909,-6.52697 0.8576,-1.85099 -8.49274,-3.93485 -7.94537,17.14879 8.49274,3.93486 0.85759,-1.85098 18.9363,12.07991 -0.93327,2.0143 8.49273,3.93485 5.12036,-11.05144 -8.49274,-3.93485 -0.70625,1.52434 -2.78846,-1.68871 z m -4.83617,-5.54705 -1.03416,2.23206 -8.72521,-5.43123 9.75937,3.19917 z m 12.34604,22.45032 -10.88812,-5.04468 0.98371,-2.12318 -16.66702,-10.69788 -0.78193,1.68765 -10.88812,-5.04468 9.05521,-19.54418 10.88812,5.04469 -0.78193,1.68766 18.98758,5.68934 0.98371,-2.12318 10.88812,5.04468 -11.77933,25.42376 z m -5.36419,-16.96717 0.65581,-1.41546 -0.59486,-0.14335 -0.55491,1.19769 0.49396,0.36112 z m -29.98543,-21.62972 q 0.0187,1.5296 -0.61986,2.6224 -0.69302,1.06758 -1.83879,2.25603 -1.04089,1.10479 -2.21588,2.21357 -1.22943,1.08356 -1.58256,1.84572 -0.35313,0.76217 -0.27073,1.72613 0.10762,0.90951 0.93621,1.69018 l -2.93033,0.75838 q -0.88703,-0.93999 -1.26685,-1.97562 -0.40904,-1.1153 -0.38256,-2.02881 0.0437,-1.23615 0.60663,-2.16564 0.53368,-1.00915 1.47367,-1.89617 1.51488,-1.4142 2.74032,-2.63186 1.19622,-1.29732 1.57457,-2.11393 0.4288,-0.92549 0.24551,-1.67169 -0.23773,-0.77141 -1.22965,-1.62775 l 2.71657,-0.72518 q 2.03826,1.7379 2.04373,3.72424 z m -1.47473,5.46656 q 1.38077,-1.41021 1.97815,-2.98499 0.56816,-1.65445 0.51098,-2.67284 -0.0944,-1.36627 -0.77163,-2.47358 -0.70646,-1.18697 -1.92013,-2.27831 l -4.82104,1.27106 q 1.4102,1.38077 1.65193,2.28629 0.24172,0.90552 0.0147,1.39549 -0.3279,0.70772 -1.5029,1.81651 -1.17499,1.10878 -2.55576,2.51898 -0.49522,0.49795 -0.85633,0.99191 -0.41556,0.46874 -0.69302,1.06758 -0.98371,2.12319 -0.43783,4.22766 0.51666,2.02481 2.01052,3.51047 l 4.85025,-1.19139 q -1.30132,-1.33032 -1.37972,-2.16017 -0.10762,-0.90952 0.11939,-1.39948 0.32791,-0.70773 1.53211,-1.73685 1.175,-1.10878 2.27032,-2.18834 z m 3.83417,-5.56367 q 0.13159,1.71415 -0.62512,3.34736 -0.78592,1.55356 -2.00736,2.90533 -0.49522,0.49795 -1.20022,1.16322 -0.75943,0.64004 -1.56931,1.38897 -0.67977,0.61083 -0.90678,1.10079 -0.25623,0.4103 -0.13537,0.86306 0.0664,0.42754 0.48471,0.95198 0.41829,0.52444 1.08356,1.22943 l -0.58014,1.25213 -6.31742,1.50354 q -1.71562,-1.72066 -2.38362,-3.41883 -0.69722,-1.77783 -0.61503,-3.52519 0.13263,-1.85623 0.95576,-3.06191 0.82312,-1.20568 2.20389,-2.61588 0.99044,-0.99591 1.90521,-1.82849 0.94,-0.88703 1.19223,-1.43144 0.17656,-0.38108 -0.007,-1.12727 -0.18329,-0.7462 -1.53506,-1.96764 l 0.63059,-1.36102 5.56324,-1.58845 q 1.76207,1.47768 2.77395,3.00454 0.98266,1.44719 1.08902,3.21577 z" />
      <path
         inkscape:connector-curvature="0"
         id="path3366"
         style="font-style:normal;font-variant:normal;font-weight:normal;font-stretch:normal;font-size:60px;line-height:125%;font-family:'JACKPORT COLLEGE NCV';-inkscape-font-specification:'JACKPORT COLLEGE NCV';text-align:start;letter-spacing:0px;writing-mode:lr-tb;text-anchor:start"
         d="m -729.5347,769.80144 q -1.59976,1.31195 -3.29778,1.69182 -1.71453,0.29665 -3.69343,-0.5221 l -23.68671,-15.84897 q -1.51178,-1.51689 -1.84179,-3.18155 -0.34651,-1.74789 0.25591,-3.72715 l 5.20514,-7.77922 q 1.59975,-1.31194 3.31428,-1.60858 1.69802,-0.37988 3.67692,0.43887 l 23.68671,15.84897 q 1.51178,1.51688 1.85829,3.26477 0.33001,1.66466 -0.27241,3.64393 l -5.20513,7.77921 z m -2.01416,-9.50542 q 0.11733,-0.49904 0.0183,-0.99843 -0.1155,-0.58264 -0.96323,-1.14986 l -17.4035,-11.64482 q -0.89761,-0.60059 -1.43037,-0.45172 -0.4994,0.099 -0.91593,0.39784 l -2.33564,3.49067 q -0.11732,0.49903 -0.0517,1.0483 0.0656,0.54926 0.96324,1.14985 l 17.4035,11.64482 q 0.84774,0.56723 1.43037,0.45173 0.53276,-0.14887 0.94929,-0.44771 l 2.33564,-3.49067 z m 3.842,11.08941 q -2.29972,1.92648 -4.71348,2.40499 -2.46362,0.44515 -5.34049,-0.75786 l -23.88618,-15.98243 q -2.20954,-2.20035 -2.68805,-4.6141 -0.52838,-2.44713 0.37506,-5.30786 l 5.5388,-8.27788 q 2.29971,-1.92648 4.76333,-2.37163 2.41376,-0.47851 5.29063,0.7245 l 23.88618,15.98243 q 2.20954,2.20034 2.73792,4.64747 0.47852,2.41375 -0.42493,5.27449 l -5.53879,8.27788 z m -7.53835,-9.88086 1.06772,-1.59573 -16.70537,-11.1777 -1.06772,1.59574 16.70537,11.17769 z m 11.87997,1.01852 q 0.76962,-2.44493 0.37361,-4.44253 -0.39602,-1.99759 -2.20699,-3.71467 l -23.98591,-16.04916 q -2.2781,-1.01895 -4.27569,-0.62294 -1.9976,0.39601 -3.96401,2.04016 l -5.37197,8.02854 q -0.73625,2.39507 -0.34023,4.39266 0.39601,1.99759 2.17362,3.76454 l 23.98591,16.04917 q 2.31146,0.96908 4.30906,0.57307 1.99759,-0.39602 3.93064,-1.99029 l 5.37196,-8.02855 z m -11.31676,0.51341 q -0.38317,0.24897 -0.98157,-0.15143 l -17.35363,-11.61145 q -0.2992,-0.2002 -0.43194,-0.4334 -0.0994,-0.28306 -0.13236,-0.44953 l 2.10207,-3.1416 q 0.4829,-0.18224 1.03143,0.18479 l 17.35363,11.61145 q 0.5984,0.4004 0.51444,0.84956 l -2.10207,3.14161 z" />
      <path
         inkscape:connector-curvature="0"
         id="path3368"
         style="font-style:normal;font-variant:normal;font-weight:normal;font-stretch:normal;font-size:60px;line-height:125%;font-family:'JACKPORT COLLEGE NCV';-inkscape-font-specification:'JACKPORT COLLEGE NCV';text-align:start;letter-spacing:0px;writing-mode:lr-tb;text-anchor:start"
         d="m -721.8463,716.27499 q -0.84985,-0.8472 -1.65668,-1.31264 -0.80696,-0.55028 -2.03647,0.003 l -3.17701,3.18694 17.29446,17.2406 3.17701,-3.18694 q 0.59212,-1.18887 0.1243,-1.90939 -0.46794,-0.80537 -1.31779,-1.65258 l -12.40782,-12.36917 z m 9.63534,30.10776 -5.09911,-5.08322 1.60969,-1.61472 -17.29446,-17.24059 -1.60969,1.61471 -5.0991,-5.08322 11.09837,-11.13304 q 1.86517,-1.02115 3.60472,-0.98143 1.73941,-0.0451 3.48081,1.18251 l 20.18395,20.12109 q 1.23308,1.73756 1.23586,3.51946 0.003,1.69706 -1.01268,3.56541 l -11.09836,11.13304 z m -12.17947,-29.17041 -0.93192,0.93484 13.89505,13.85178 0.93193,-0.93484 -13.89506,-13.85178 z m 12.18476,32.56452 -8.49851,-8.47204 1.60969,-1.61472 -13.89506,-13.85178 -1.60968,1.61472 -8.49851,-8.47204 13.04694,-13.08769 q 2.62818,-1.4466 5.1314,-1.40808 2.46073,-0.004 5.00909,1.7741 l 20.35392,20.29053 q 1.78588,2.5428 1.83221,5.04589 0.004,2.46072 -1.43455,5.09341 l -13.04694,13.0877 z m 2.13218,-20.24075 q 0.5524,0.55068 0.85011,1.01691 0.25522,0.42387 0.002,1.10309 l -2.20273,2.20961 -15.76473,-15.71563 2.20273,-2.20961 q 0.67842,-0.25562 1.14558,0.0406 0.42466,0.25389 0.97706,0.80458 l 12.79025,12.75041 z m 9.85284,6.3486 q 1.22686,-2.25051 1.18132,-4.24449 -0.003,-2.03646 -1.40649,-4.11317 l -20.4389,-20.37525 q -2.08108,-1.39682 -4.11754,-1.39365 -1.99411,-0.0393 -4.24079,1.19456 l -11.98793,12.02538 6.62884,6.60819 1.60968,-1.61472 15.76473,15.71563 -1.60969,1.61472 6.62884,6.60819 11.98793,-12.02539 z" />
      <path
         inkscape:connector-curvature="0"
         id="path3370"
         style="font-style:normal;font-variant:normal;font-weight:normal;font-stretch:normal;font-size:60px;line-height:125%;font-family:'JACKPORT COLLEGE NCV';-inkscape-font-specification:'JACKPORT COLLEGE NCV';text-align:start;letter-spacing:0px;writing-mode:lr-tb;text-anchor:start"
         d="m -698.49865,702.05574 0.72151,-0.53798 -3.15619,-4.23284 -0.72151,0.53799 3.15619,4.23283 z m -1.58346,-17.38049 7.13729,9.57198 -4.66573,3.47898 -2.8334,-3.79993 -4.56953,3.40725 6.02545,8.08086 4.56953,-3.40725 -1.18357,-1.58731 2.98222,-2.22368 4.91362,6.58975 -2.98223,2.22368 -1.18357,-1.58731 -4.56953,3.40725 6.02545,8.08086 4.56954,-3.40725 -2.8334,-3.79993 4.66573,-3.47898 7.13729,9.57197 -15.92122,11.87158 -4.30389,-5.77205 1.82781,-1.3629 -14.59737,-19.57685 -1.82782,1.3629 -4.30389,-5.77204 15.92122,-11.87158 z m -17.43261,11.65135 5.59506,7.50366 1.82782,-1.3629 13.3062,17.84524 -1.82781,1.3629 5.59506,7.50366 17.65284,-13.16274 -8.42846,-11.30359 -6.39735,4.77015 2.83339,3.79993 -2.83792,2.11608 -4.73428,-6.34925 2.83792,-2.11608 1.18357,1.58731 4.71384,-3.51485 -6.20478,-8.32136 -4.71384,3.51485 1.18357,1.58731 -2.83792,2.11608 -4.73428,-6.34925 2.83792,-2.11608 2.8334,3.79993 6.39734,-4.77015 -8.42845,-11.30359 -17.65284,13.16274 z m 17.922,-15.00999 10.00655,13.42 -1.68351,1.2553 6.06131,8.12897 1.68352,-1.25531 10.00655,13.42001 -19.76925,14.74083 -7.17316,-9.62007 1.82782,-1.3629 -11.72811,-15.72882 -1.82782,1.3629 -7.17316,-9.62008 19.76926,-14.74083 z m 9.66599,32.23512 0.72151,-0.53798 -3.15619,-4.23284 -0.72151,0.53799 3.15619,4.23283 z" />
      <path
         inkscape:connector-curvature="0"
         id="path3372"
         style="font-style:normal;font-variant:normal;font-weight:normal;font-stretch:normal;font-size:60px;line-height:125%;font-family:'JACKPORT COLLEGE NCV';-inkscape-font-specification:'JACKPORT COLLEGE NCV';text-align:start;letter-spacing:0px;writing-mode:lr-tb;text-anchor:start"
         d="m -678.03871,677.89658 q -0.28117,-1.13055 -0.24002,-2.28394 0.015,-1.20739 0.34892,-2.1693 0.36178,-1.04207 0.98854,-1.81251 0.60059,-0.82443 1.4105,-1.21691 l 4.58952,-2.22404 2.2428,0.91337 -0.78496,-1.61983 5.34544,-2.59036 5.20687,10.74487 -5.34543,2.59035 -2.06705,-4.26555 -4.53552,2.19788 q -0.2488,0.58728 -0.30945,1.15006 -0.0607,0.56278 0.38416,1.48068 l 8.97465,18.52004 q 0.44481,0.91791 0.97976,1.05871 0.53495,0.14081 1.07157,0.14747 l 3.13167,-1.51758 q 0.32729,-0.4253 0.54826,-0.93242 0.22097,-0.50712 -0.22384,-1.42503 l -1.43908,-2.96968 5.39943,-2.61652 2.95666,6.10135 q 0.53782,2.07296 0.007,3.73014 -0.55659,1.60319 -2.13074,3.03275 l -7.66719,3.71546 q -2.04346,0.32351 -3.70065,-0.20691 -1.62935,-0.61058 -2.92309,-2.31722 l -12.21914,-25.21533 z m 11.32574,25.84829 q 1.50472,2.00444 3.42855,2.67234 1.92383,0.6679 4.39758,0.26922 l 7.99116,-3.87245 q 1.84579,-1.69453 2.51368,-3.61836 0.6679,-1.92383 0.0271,-4.34692 l -3.50613,-7.23523 -7.34322,3.55846 1.91005,3.94159 q 0.18316,0.37796 0.0997,0.61844 -0.0295,0.21431 -0.0851,0.37463 l -2.8077,1.36059 q -0.21431,-0.0295 -0.4008,-0.13915 -0.18648,-0.10965 -0.36964,-0.48761 l -8.97466,-18.52004 q -0.20932,-0.43196 -0.23216,-0.75426 0.005,-0.40246 0.0345,-0.61677 l 3.18566,-1.54375 2.06705,4.26555 7.23524,-3.50613 -6.14882,-12.68866 -12.3107,5.96566 q -0.9719,0.47097 -1.70831,1.4279 -0.76257,0.90292 -1.18001,2.10532 -0.4436,1.14839 -0.51424,2.5161 -0.0706,1.3677 0.31519,2.71423 l 12.37614,25.5393 z m -13.48552,-24.80168 q -0.48881,-1.69666 -0.41485,-3.33268 0.0478,-1.69 0.54872,-3.13287 0.50092,-1.44287 1.37315,-2.53228 0.92622,-1.11558 2.1141,-1.69121 l 13.55256,-6.56747 7.30009,15.06441 -9.66498,4.68357 -2.06705,-4.26555 -1.13388,0.54947 8.7915,18.14208 1.13388,-0.54947 -2.30253,-4.7515 9.71897,-4.70973 4.0556,8.36912 q 0.84848,2.98919 0.0676,5.36781 -0.80704,2.32462 -3.03246,4.33647 l -8.26112,4.00328 q -2.95804,0.50001 -5.28267,-0.30704 -2.35079,-0.86104 -4.22515,-3.35309 l -12.27148,-25.32332 z" />
      <path
         inkscape:connector-curvature="0"
         id="path3374"
         style="font-style:normal;font-variant:normal;font-weight:normal;font-stretch:normal;font-size:60px;line-height:125%;font-family:'JACKPORT COLLEGE NCV';-inkscape-font-specification:'JACKPORT COLLEGE NCV';text-align:start;letter-spacing:0px;writing-mode:lr-tb;text-anchor:start"
         d="m -636.65185,695.88041 q -2.06827,0.0516 -3.64117,-0.69249 -1.53474,-0.81985 -2.59245,-2.68201 l -8.94239,-27.06074 q -0.26013,-2.12573 0.50275,-3.64166 0.80102,-1.59171 2.49277,-2.78267 l 8.88732,-2.93688 q 2.06827,-0.0516 3.60302,0.76829 1.57289,0.74405 2.63059,2.60622 l 8.9424,27.06074 q 0.26012,2.12573 -0.5409,3.71745 -0.76288,1.51592 -2.45463,2.70688 l -8.88731,2.93687 z m 4.25378,-8.73587 q 0.39928,-0.32151 0.62814,-0.77629 0.26701,-0.53057 -0.053,-1.49906 l -6.5703,-19.88252 q -0.33887,-1.02546 -0.85062,-1.2355 -0.45478,-0.22886 -0.96701,-0.24917 l -3.9879,1.31783 q -0.39928,0.32152 -0.68512,0.79512 -0.28583,0.4736 0.053,1.49906 l 6.57031,19.88253 q 0.32004,0.96848 0.85061,1.23549 0.51175,0.21004 1.02399,0.23034 l 3.9879,-1.31783 z m -3.78559,11.1088 q -2.99812,0.10607 -5.19621,-1.0001 -2.21691,-1.16314 -3.74674,-3.88035 l -9.0177,-27.28862 q -0.39043,-3.09373 0.71574,-5.29181 1.08734,-2.25506 3.55834,-3.95629 l 9.45701,-3.12513 q 2.99813,-0.10608 5.21504,1.05706 2.19809,1.10618 3.72792,3.82338 l 9.0177,27.28862 q 0.39043,3.09373 -0.69692,5.34879 -1.10617,2.19809 -3.57716,3.89932 l -9.45702,3.12513 z m 0.12707,-12.42746 1.82304,-0.60244 -6.30674,-19.08494 -1.82304,0.60243 6.30674,19.08495 z m 8.74486,8.10547 q 2.10986,-1.45551 3.02531,-3.27462 0.91545,-1.8191 0.54237,-4.28666 l -9.05535,-27.40255 q -1.17066,-2.20399 -2.98976,-3.11944 -1.81911,-0.91546 -4.38079,-0.82723 l -9.17217,3.031 q -2.05288,1.43669 -2.96834,3.25579 -0.91545,1.81911 -0.59934,4.30549 l 9.05535,27.40256 q 1.22763,2.18516 3.04674,3.10061 1.8191,0.91545 4.32382,0.84605 l 9.17216,-3.031 z m -9.2422,-6.55092 q -0.45527,-0.0391 -0.68118,-0.72276 l -6.55148,-19.82556 q -0.11296,-0.34182 -0.0743,-0.60735 0.0956,-0.28436 0.1719,-0.43595 l 3.58911,-1.18604 q 0.49292,0.15306 0.7,0.77973 l 6.55148,19.82556 q 0.22592,0.68364 -0.11639,0.98633 l -3.58911,1.18604 z" />
      <path
         inkscape:connector-curvature="0"
         id="path3376"
         style="font-style:normal;font-variant:normal;font-weight:normal;font-stretch:normal;font-size:60px;line-height:125%;font-family:'JACKPORT COLLEGE NCV';-inkscape-font-specification:'JACKPORT COLLEGE NCV';text-align:start;letter-spacing:0px;writing-mode:lr-tb;text-anchor:start"
         d="m -607.51423,654.48853 0.69237,-8.441 15.16032,-2.46865 1.92864,11.844 -2.25036,0.36644 3.15331,19.36494 2.25036,-0.36644 1.92864,11.844 -15.16033,2.46865 -1.52362,-9.35676 -4.02696,0.65574 1.52362,9.35676 -15.16032,2.46865 -1.92863,-11.844 2.25036,-0.36644 -3.15332,-19.36495 -2.25036,0.36644 -1.92863,-11.844 15.16032,-2.46865 3.33459,7.78527 z m 2.12197,23.48426 -8.03965,-18.3869 3.49083,21.43764 2.19114,-0.3568 1.15718,7.1064 -10.42273,1.6972 -1.15718,-7.1064 2.25036,-0.36644 -3.92476,-24.10254 -2.25036,0.36644 -1.15718,-7.1064 10.89648,-1.77435 6.44467,14.93842 1.37237,-16.21132 10.89648,-1.77434 1.15718,7.1064 -2.25036,0.36644 3.92477,24.10255 2.25036,-0.36644 1.15718,7.1064 -10.42272,1.69719 -1.15718,-7.1064 2.19114,-0.35679 -3.49083,-21.43765 -1.79087,19.98767 -3.31632,0.54002 z m -1.26372,-18.21367 -5.04665,-11.57944 -12.79152,2.08292 1.50433,9.23832 2.25036,-0.36644 3.57762,21.97063 -2.25036,0.36644 1.50433,9.23832 12.55464,-2.04435 -1.50433,-9.23832 -2.19114,0.35679 -1.97685,-12.1401 5.02736,11.461 4.85604,-0.79074 1.13152,-12.46389 1.97685,12.1401 -2.19114,0.3568 1.50433,9.23832 12.55465,-2.04435 -1.50434,-9.23832 -2.25036,0.36644 -3.57761,-21.97062 2.25036,-0.36644 -1.50434,-9.23833 -12.79152,2.08293 -1.11223,12.58233 z" />
      <path
         inkscape:connector-curvature="0"
         id="path3378"
         style="font-style:normal;font-variant:normal;font-weight:normal;font-stretch:normal;font-size:60px;line-height:125%;font-family:'JACKPORT COLLEGE NCV';-inkscape-font-specification:'JACKPORT COLLEGE NCV';text-align:start;letter-spacing:0px;writing-mode:lr-tb;text-anchor:start"
         d="m -566.15143,656.53801 q 0.007,-1.19997 -0.22651,-2.16145 -0.17401,-0.96111 -1.43136,-1.38897 l -4.61991,-0.0288 -0.0843,13.49974 4.61991,0.0288 q 1.26222,-0.35213 1.44821,-1.31098 0.24599,-0.95849 0.25348,-2.15846 l 0.0405,-6.47988 z m 1.38702,-10.73155 q 4.01281,1.16508 4.76769,5.18987 l -0.0944,15.1197 q -0.25086,1.73847 -1.7017,3.46945 -1.39083,1.73135 -3.91266,2.01561 l -6.83986,-0.0427 -0.0363,5.81988 2.21996,0.0139 -0.0449,7.19986 -10.5598,-0.0659 0.0449,-7.19986 2.27996,0.0142 0.15246,-24.41953 -2.27996,-0.0142 0.0449,-7.19986 15.95969,0.0996 z m -3.78473,10.35658 q 0.004,-0.59999 -0.0551,-0.78036 l -1.43997,-0.009 -0.0543,8.69983 1.43997,0.009 q 0.0607,-0.11963 0.0645,-0.71961 l 0.045,-7.19986 z m 4.15971,-12.75428 q 2.8747,0.85796 4.54343,2.66841 1.7291,1.75083 2.24999,4.81415 l -0.097,15.53969 q -0.18749,1.19886 -0.79535,2.45508 -0.54785,1.25661 -1.57458,2.33022 -0.96672,1.07399 -2.35156,1.84535 -1.32485,0.77175 -3.06594,0.94088 l -4.67991,-0.0292 -0.006,1.01998 2.21995,0.0139 -0.0749,11.99977 -15.3597,-0.0959 0.0749,-11.99976 2.27996,0.0142 0.12249,-19.61962 -2.27996,-0.0142 0.0749,-11.99977 18.71964,0.11688 z m -2.88469,19.96238 q -0.005,0.77998 -0.12824,1.31922 -0.12299,0.47924 -0.78448,0.71512 l -3.23993,-0.0202 0.0708,-11.33978 3.23993,0.0202 q 0.65812,0.30411 0.77474,0.84485 0.117,0.48074 0.11213,1.26073 l -0.045,7.19986 z m -14.52321,-18.75104 -0.0584,9.35982 2.27996,0.0142 -0.13898,22.25957 -2.27995,-0.0142 -0.0584,9.35982 12.71975,0.0794 0.0584,-9.35981 -2.21996,-0.0139 0.0229,-3.65993 5.87989,0.0367 q 1.44109,-0.17101 2.58519,-0.82388 1.2041,-0.65249 1.9897,-1.54761 0.8456,-0.89473 1.33196,-1.91172 0.54674,-1.07661 0.6731,-2.09584 l 0.0966,-15.47969 q -0.46464,-2.46295 -1.89562,-3.91192 -1.43098,-1.44896 -3.76644,-2.18355 l -17.21966,-0.10751 z" />
      <path
         inkscape:connector-curvature="0"
         id="path3380"
         style="font-style:normal;font-variant:normal;font-weight:normal;font-stretch:normal;font-size:60px;line-height:125%;font-family:'JACKPORT COLLEGE NCV';-inkscape-font-specification:'JACKPORT COLLEGE NCV';text-align:start;letter-spacing:0px;writing-mode:lr-tb;text-anchor:start"
         d="m -547.11232,686.15493 q -3.79898,-1.74005 -3.95646,-5.83199 l 4.03739,-26.15016 -2.2533,-0.3479 1.09861,-7.11569 9.96197,1.53806 -1.09861,7.11569 -2.01611,-0.31127 -3.424,22.17723 q -0.15564,1.00806 0.14521,1.41877 0.36016,0.41987 0.79791,0.7303 l 4.50661,0.69579 q 0.511,-0.16395 0.92171,-0.4648 0.47002,-0.2917 0.62565,-1.29976 l 3.424,-22.17723 -2.01611,-0.31128 1.09861,-7.11569 9.96197,1.53806 -1.09861,7.11569 -2.2533,-0.3479 -4.0374,26.15017 q -1.38425,3.85391 -5.53113,4.36717 l -8.89461,-1.37326 z m 8.90771,2.46808 q 2.42246,-0.35452 4.06532,-1.55794 1.64286,-1.20342 2.4926,-3.56137 l 3.90007,-25.2607 2.2533,0.34789 1.42819,-9.2504 -12.03737,-1.85848 -1.4282,9.2504 1.95682,0.30212 -3.25921,21.10988 q -0.10071,0.65227 -0.49311,0.83453 l -4.15082,-0.64085 q -0.31917,-0.29212 -0.21846,-0.9444 l 3.25921,-21.10988 1.95681,0.30212 1.4282,-9.2504 -12.03738,-1.85848 -1.42819,9.2504 2.2533,0.34789 -3.90007,25.2607 q 0.099,2.50444 1.30244,4.1473 1.20342,1.64286 3.40616,2.71147 l 9.25039,1.4282 z m 15.64544,-40.38565 -1.83102,11.85949 -2.2533,-0.3479 -3.6895,23.89687 q -1.00058,2.94177 -2.98571,4.3959 -1.92582,1.46328 -4.90943,1.9133 l -9.60618,-1.48313 q -2.70895,-1.3289 -4.16308,-3.31403 -1.39483,-1.97596 -1.46159,-5.08253 l 3.68949,-23.89686 -2.2533,-0.34789 1.83102,-11.85949 27.6326,4.26627 z m -16.77397,9.55241 -2.99371,19.39025 2.2533,0.3479 2.99371,-19.39026 -2.2533,-0.34789 z" />
      <path
         inkscape:connector-curvature="0"
         id="path3382"
         style="font-style:normal;font-variant:normal;font-weight:normal;font-stretch:normal;font-size:60px;line-height:125%;font-family:'JACKPORT COLLEGE NCV';-inkscape-font-specification:'JACKPORT COLLEGE NCV';text-align:start;letter-spacing:0px;writing-mode:lr-tb;text-anchor:start"
         d="m -507.12657,661.98821 -2.97914,-0.92689 -1.56858,5.04163 -5.32808,-1.65771 3.54713,-11.40094 22.45814,6.98732 -3.54714,11.40094 -5.32808,-1.65771 1.56859,-5.04162 -2.97914,-0.92689 -7.41512,23.83312 2.52081,0.78429 -2.13897,6.87494 -10.88532,-3.38671 2.13897,-6.87494 2.52081,0.78429 7.41512,-23.83312 z m -8.12551,22.48104 -2.52081,-0.78429 -2.78067,8.93742 12.9478,4.0284 2.78067,-8.93742 -2.52081,-0.78429 6.77342,-21.77064 0.91666,0.2852 -1.56858,5.04162 7.39056,2.2994 4.18882,-13.46343 -24.52061,-7.62901 -4.18883,13.46342 7.39056,2.2994 1.56858,-5.04162 0.91666,0.2852 -6.77342,21.77064 z m 3.55229,-15.86076 -8.30722,-2.5846 4.97312,-15.98423 27.04142,8.4133 -4.97311,15.98424 -8.30722,-2.5846 -4.42055,14.20821 2.52081,0.78429 -3.56496,11.45823 -15.46861,-4.81269 3.56496,-11.45823 2.52081,0.78429 4.42055,-14.20821 z" />
      <path
         inkscape:connector-curvature="0"
         id="path3384"
         style="font-style:normal;font-variant:normal;font-weight:normal;font-stretch:normal;font-size:60px;line-height:125%;font-family:'JACKPORT COLLEGE NCV';-inkscape-font-specification:'JACKPORT COLLEGE NCV';text-align:start;letter-spacing:0px;writing-mode:lr-tb;text-anchor:start"
         d="m -474.4943,678.17761 q 0.12887,-0.53796 0.2551,-1.34422 0.20646,-0.83389 -0.0671,-1.36788 -0.58924,0.11314 -1.17319,0.76291 -0.50372,0.62214 -0.8483,1.05488 l -6.47594,9.99241 4.42204,2.15685 3.88743,-11.25495 z m -13.61883,17.65681 1.72567,0.8417 -3.15635,6.47127 -9.00586,-4.39259 3.15635,-6.47128 1.83353,0.8943 13.72524,-20.47544 -1.99531,-0.97321 3.15635,-6.47128 15.04572,7.33853 -3.15636,6.47127 -1.99531,-0.97321 -7.63145,23.44768 1.88746,0.92061 -3.15636,6.47127 -9.05978,-4.41889 3.15635,-6.47128 1.72568,0.8417 1.82799,-5.11649 -5.17702,-2.52509 -2.90654,4.59043 z m 3.40378,-3.14628 3.23564,1.57818 -1.0968,3.06989 -1.45604,-0.71018 -4.10326,8.41266 10.94724,5.3395 4.10326,-8.41266 -1.99531,-0.97321 6.95418,-21.37478 1.83353,0.8943 4.10327,-8.41266 -16.98711,-8.28544 -4.10326,8.41266 1.83353,0.8943 -12.45476,18.69189 -1.99532,-0.97321 -4.10326,8.41265 10.94724,5.33951 4.10327,-8.41266 -1.50997,-0.73649 1.74393,-2.75425 z m 5.64229,-4.72471 -2.21102,-1.07842 5.60398,-8.61528 -3.39296,9.6937 z m -22.69182,11.89634 5.26059,-10.78546 2.10316,1.02582 11.0278,-16.4506 -1.67174,-0.81539 5.26059,-10.78546 19.3599,9.44276 -5.26059,10.78546 -1.67175,-0.81539 -6.06648,18.87047 2.10316,1.02581 -5.26059,10.78547 -25.18405,-12.28349 z m 17.07067,-5.02511 1.40211,0.68388 0.15517,-0.59188 -1.1864,-0.57867 -0.37088,0.48667 z" />
      <path
         inkscape:connector-curvature="0"
         id="path3386"
         style="font-style:normal;font-variant:normal;font-weight:normal;font-stretch:normal;font-size:60px;line-height:125%;font-family:'JACKPORT COLLEGE NCV';-inkscape-font-specification:'JACKPORT COLLEGE NCV';text-align:start;letter-spacing:0px;writing-mode:lr-tb;text-anchor:start"
         d="m -455.61401,683.48504 q 1.22667,-1.26999 2.68151,-2.02196 1.48858,-0.80158 2.98899,-1.08716 1.50042,-0.28557 2.8797,-0.073 1.4289,0.2463 2.52034,0.9887 l 12.45233,8.47012 -9.415,13.84144 -8.88035,-6.04045 2.66589,-3.91926 -1.04182,-0.70865 -11.3385,16.66925 1.04183,0.70866 2.9696,-4.36576 8.92996,6.07419 -5.23055,7.68969 q -1.78046,1.76408 -3.73341,2.39492 -1.86961,0.61497 -4.03083,0.3785 0.3372,1.31784 0.0254,2.62963 -0.34552,1.3614 -1.18916,2.60168 -2.19346,3.2247 -5.62492,3.5755 -3.43146,0.3508 -7.00345,-2.07887 -0.64494,-0.4387 -1.79984,-1.51452 -1.13903,-0.99247 -2.50018,-3.15193 l 5.06182,-7.44164 1.19067,0.8099 1.959,-1.27981 q -1.80967,-2.24685 -2.22015,-4.63044 -0.37674,-2.4332 0.81443,-5.2512 l 15.82665,-23.2675 z m -6.0722,37.30412 q 2.38938,0.75449 4.38993,0.37372 2.00056,-0.38077 3.78101,-2.14485 l 4.5219,-6.64786 -6.74708,-4.58939 -2.46342,3.6216 q -0.23622,0.34727 -0.48629,0.39487 -0.20046,0.0813 -0.36717,0.11307 l -2.57977,-1.75477 q -0.0813,-0.20046 -0.0793,-0.41678 0.002,-0.21632 0.23823,-0.5636 l 11.57472,-17.01653 q 0.26996,-0.39689 0.53791,-0.57745 0.3513,-0.19643 0.55176,-0.27777 l 2.92705,1.99098 -2.6659,3.91926 6.64786,4.5219 7.9302,-11.65855 -11.31129,-7.69398 q -0.89299,-0.60742 -2.0897,-0.76834 -1.16296,-0.21054 -2.4133,0.0274 -1.2166,0.18837 -2.43723,0.80939 -1.22063,0.62102 -2.19522,1.62708 l -15.96164,23.46595 q -0.98668,2.30401 -0.60591,4.30457 0.38077,2.00055 1.96026,3.9457 l 1.3891,0.94488 -4.63648,2.86911 q 2.36747,1.32011 3.09174,2.17558 0.69052,0.90509 0.42056,1.30198 -0.33745,0.4961 -0.91893,0.39084 -0.56562,-0.0219 -1.11134,-0.39311 -0.59533,-0.40495 -1.33546,-1.34378 -0.69053,-0.90508 -1.11108,-2.20706 l -3.37456,4.96109 q 0.95042,1.58982 1.92475,2.3977 0.9406,0.85749 1.48632,1.22869 3.07587,2.09222 6.04094,1.787 2.93132,-0.25561 4.75358,-2.93459 1.11361,-1.63716 1.09799,-3.53447 -0.0156,-1.8973 -1.51577,-3.42567 l 1.14105,0.77615 z m 8.05663,-35.9543 q 0.83961,-0.80763 1.85978,-1.3473 1.05392,-0.58929 2.0542,-0.77967 1.08363,-0.20625 2.06401,-0.0474 1.01413,0.1093 1.75829,0.61548 l 4.21693,2.86837 0.32713,2.39946 1.01236,-1.48833 4.91148,3.34081 -6.71536,9.87256 -4.91148,-3.3408 2.6659,-3.91926 -4.16731,-2.83463 q -0.63311,0.0773 -1.15113,0.30547 -0.51802,0.22816 -1.09169,1.07155 l -11.57472,17.01653 q -0.57367,0.84339 -0.42887,1.37727 0.14481,0.53388 0.40671,1.00229 l 2.87743,1.95724 q 0.53187,0.0715 1.08162,0.0101 0.54975,-0.0615 1.12342,-0.90484 l 1.85601,-2.72859 4.96109,3.37455 -3.81325,5.60603 q -1.52837,1.50016 -3.22924,1.86708 -1.66713,0.31731 -3.69135,-0.33393 l -1.43872,-0.97862 -1.62558,1.21634 q 1.76812,1.34781 1.88496,3.09628 0.11685,1.74847 -0.89551,3.2368 -1.5523,2.2821 -4.10059,2.50799 -2.54828,0.22589 -5.22727,-1.59637 -0.54572,-0.3712 -1.37123,-1.07784 -0.77589,-0.6729 -1.34931,-1.64346 l 2.05848,-3.02626 q 0.24402,0.60137 0.90281,1.33975 0.62505,0.78798 1.45257,1.2783 0.82752,0.49031 1.6432,0.46463 0.8653,0.008 1.47272,-0.88494 0.67491,-0.99222 -0.16445,-1.99854 -0.82349,-0.92296 -2.44478,-1.95321 l 4.73772,-3.01795 -2.57977,-1.75477 q -1.2997,-1.60971 -1.66662,-3.31058 -0.28356,-1.71674 0.55025,-3.68934 l 15.75916,-23.16828 z" />
      <path
         inkscape:connector-curvature="0"
         id="path3388"
         style="font-style:normal;font-variant:normal;font-weight:normal;font-stretch:normal;font-size:60px;line-height:125%;font-family:'JACKPORT COLLEGE NCV';-inkscape-font-specification:'JACKPORT COLLEGE NCV';text-align:start;letter-spacing:0px;writing-mode:lr-tb;text-anchor:start"
         d="m -423.02282,713.64141 q 0.27814,-0.47817 0.6309,-1.21407 0.43755,-0.73929 0.32908,-1.32941 -0.59688,-0.0611 -1.34303,0.3933 -0.66136,0.451 -1.11583,0.76636 l -9.07603,7.7079 3.61495,3.33744 6.95996,-9.66152 z m -18.12133,12.99434 1.41071,1.30241 -4.88405,5.29018 -7.36217,-6.79698 4.88406,-5.29018 1.49888,1.38382 19.03384,-15.6633 -1.63114,-1.50592 4.88406,-5.29017 12.29967,11.35543 -4.88406,5.29018 -1.63114,-1.50592 -14.05226,20.26245 1.54297,1.42451 -4.88405,5.29018 -7.40625,-6.83768 4.88405,-5.29018 1.41072,1.30242 3.22219,-4.37464 -4.23214,-3.90724 -4.10389,3.56063 z m 4.16481,-2.0345 2.64509,2.44203 -1.93332,2.62478 -1.19029,-1.09891 -6.34927,6.87723 8.94921,8.2622 6.34928,-6.87723 -1.63114,-1.50592 12.80746,-18.47189 1.49889,1.38381 6.34927,-6.87723 -13.88672,-12.82065 -6.34927,6.87723 1.49888,1.38382 -17.30411,14.32044 -1.63114,-1.50591 -6.34928,6.87723 8.94922,8.26219 6.34928,-6.87723 -1.23438,-1.13961 2.46234,-2.13638 z m 6.76269,-2.90248 -1.80748,-1.66871 7.84486,-6.63971 -6.03738,8.30842 z m -25.15442,4.86796 8.14009,-8.81696 1.71931,1.58732 15.29287,-12.58422 -1.36663,-1.26171 8.1401,-8.81697 15.82645,14.61147 -8.1401,8.81697 -1.36663,-1.26172 -11.23706,16.32866 1.7193,1.58732 -8.14009,8.81696 -20.58761,-19.00712 z m 17.79467,0.0964 1.1462,1.05822 0.31884,-0.52225 -0.96987,-0.89541 -0.49517,0.35944 z m 29.78171,-21.90936 q -1.46166,-0.45118 -2.30604,-1.39406 -0.80368,-0.98696 -1.58358,-2.44194 -0.73243,-1.32949 -1.42755,-2.78785 -0.65441,-1.50244 -1.2716,-2.07225 -0.61719,-0.5698 -1.55998,-0.78693 -0.8987,-0.17643 -1.89582,0.37289 l 0.1766,-3.02172 q 1.16669,-0.55609 2.2689,-0.60009 1.18699,-0.0474 2.04838,0.25792 1.16322,0.42063 1.87534,1.24141 0.79692,0.81739 1.35301,1.98408 0.88161,1.87552 1.66489,3.41528 0.86807,1.53637 1.52935,2.14688 0.74944,0.69191 1.51589,0.74624 0.80715,0.0102 1.92637,-0.67134 l -0.14267,2.80807 q -2.27914,1.40724 -4.17149,0.80341 z m -4.7511,-3.07979 q 0.91893,1.74665 2.2347,2.7981 1.40056,1.04806 2.38744,1.30588 1.3294,0.32908 2.59103,0.024 1.34641,-0.30851 2.7573,-1.12911 l 0.26834,-4.97855 q -1.74665,0.91892 -2.68267,0.87136 -0.93603,-0.0476 -1.33279,-0.41386 -0.5731,-0.5291 -1.26822,-1.98746 -0.69511,-1.45836 -1.61404,-3.20501 -0.32213,-0.62405 -0.68158,-1.11922 -0.31874,-0.53926 -0.80368,-0.98696 -1.71931,-1.58732 -3.88979,-1.71298 -2.0857,-0.12905 -3.95784,0.83734 l -0.35312,4.98194 q 1.66525,-0.83075 2.47917,-0.65094 0.89871,0.17642 1.29547,0.54273 0.57311,0.52911 1.18344,1.99085 0.69511,1.45836 1.38684,2.83193 z m 4.12011,5.35537 q -1.67193,-0.40033 -2.99447,-1.62134 -1.23776,-1.2244 -2.14992,-2.80148 -0.32213,-0.62404 -0.7392,-1.49906 -0.37637,-0.9191 -0.84091,-1.9196 -0.37298,-0.83431 -0.76974,-1.20062 -0.31198,-0.36969 -0.77999,-0.39347 -0.42731,-0.0679 -1.05474,0.16949 -0.62743,0.23734 -1.50245,0.65441 l -1.01395,-0.93611 0.50586,-6.47414 q 2.1638,-1.10542 3.985,-1.22057 1.90597,-0.11854 3.54397,0.49544 1.72616,0.69538 2.6214,1.84853 0.89523,1.15315 1.81415,2.8998 0.64427,1.24808 1.15627,2.37407 0.5561,1.16669 0.99695,1.57369 0.30859,0.28491 1.07504,0.33923 0.76645,0.0543 2.34353,-0.85783 l 1.10212,1.01752 -0.19379,5.78232 q -1.94677,1.22413 -3.71033,1.71913 -1.67879,0.49161 -3.3948,0.0506 z" />
      <path
         inkscape:connector-curvature="0"
         id="path3390"
         style="font-style:normal;font-variant:normal;font-weight:normal;font-stretch:normal;font-size:60px;line-height:125%;font-family:'JACKPORT COLLEGE NCV';-inkscape-font-specification:'JACKPORT COLLEGE NCV';text-align:start;letter-spacing:0px;writing-mode:lr-tb;text-anchor:start"
         d="m -427.66752,750.74414 q -0.76373,-1.92279 -0.60962,-3.65595 0.23842,-1.72359 1.61982,-3.36009 l 22.29767,-17.75004 q 1.90456,-0.9793 3.59078,-0.78783 1.77053,0.20106 3.47312,1.37647 l 5.82949,7.32302 q 0.76373,1.92279 0.52531,3.64638 -0.15411,1.73316 -1.53551,3.36966 l -22.29767,17.75004 q -1.90456,0.9793 -3.67509,0.77825 -1.68622,-0.19148 -3.38881,-1.36689 l -5.82949,-7.32302 z m 9.66797,0.96974 q 0.43978,0.26344 0.94564,0.32088 0.59018,0.067 1.3882,-0.56825 l 16.38292,-13.04161 q 0.84496,-0.67263 0.86503,-1.22544 0.0574,-0.50587 -0.10067,-0.99351 l -2.6158,-3.28597 q -0.43978,-0.26344 -0.98301,-0.36782 -0.54323,-0.10439 -1.3882,0.56824 l -16.38291,13.04162 q -0.79802,0.63526 -0.86504,1.22544 -0.0201,0.55281 0.13804,1.04045 l 2.6158,3.28597 z m -11.73251,0.29029 q -1.13649,-2.7764 -0.85885,-5.22142 0.32459,-2.48239 2.34497,-4.85761 l 22.48543,-17.89952 q 2.76775,-1.43637 5.21277,-1.15872 2.49196,0.24027 4.94284,1.97035 l 6.20318,7.79245 q 1.13649,2.77639 0.81191,5.25878 -0.27765,2.44502 -2.29803,4.82024 l -22.48543,17.89952 q -2.76775,1.43637 -5.25971,1.19609 -2.44502,-0.27764 -4.8959,-2.00772 l -6.20318,-7.79244 z m 11.70441,-4.17909 1.1958,1.50216 15.72572,-12.51846 -1.1958,-1.50216 -15.72572,12.51846 z m -4.5806,11.0086 q 2.09542,1.47621 4.11888,1.70599 2.02346,0.22977 4.20968,-0.97374 l 22.57932,-17.97426 q 1.66306,-1.86071 1.89283,-3.88417 0.22978,-2.02346 -0.73902,-4.39652 l -6.01633,-7.55774 q -2.05805,-1.42927 -4.08152,-1.65905 -2.02346,-0.22977 -4.24705,0.9268 l -22.57932,17.97426 q -1.62569,1.90765 -1.85546,3.93111 -0.22978,2.02346 0.70165,4.34958 l 6.01634,7.55774 z m 2.94997,-10.93757 q -0.12075,-0.44071 0.44256,-0.88913 l 16.33597,-13.00424 q 0.28166,-0.22422 0.54416,-0.2798 0.29988,-0.009 0.4685,0.0105 l 2.35422,2.95737 q 0.0269,0.51544 -0.4895,0.92649 l -16.33597,13.00425 q -0.56331,0.44842 -0.96572,0.23193 l -2.35422,-2.95737 z" />
      <path
         inkscape:connector-curvature="0"
         id="path3392"
         style="font-style:normal;font-variant:normal;font-weight:normal;font-stretch:normal;font-size:60px;line-height:125%;font-family:'JACKPORT COLLEGE NCV';-inkscape-font-specification:'JACKPORT COLLEGE NCV';text-align:start;letter-spacing:0px;writing-mode:lr-tb;text-anchor:start"
         d="m -365.47431,798.66212 -0.81482,-2.25745 -22.96951,8.29085 0.81482,2.25744 -6.77233,2.44448 -3.70746,-10.27138 6.77234,-2.44447 0.81482,2.25744 22.96951,-8.29084 -0.81482,-2.25745 6.77233,-2.44448 3.70746,10.27138 -6.77234,2.44448 z m -1.44262,3.07227 -0.81483,-2.25745 -18.45461,6.6612 0.81482,2.25744 -11.28722,4.07413 -5.33711,-14.78627 11.28723,-4.07412 0.81482,2.25744 18.45462,-6.66119 -0.81482,-2.25745 11.28722,-4.07413 5.33711,14.78627 -11.28723,4.07413 z m 9.59748,-4.86757 -4.4408,-12.30308 -8.80404,3.17782 0.81483,2.25745 -20.93781,7.5575 -0.81482,-2.25745 -8.80404,3.17782 4.4408,12.30308 8.80403,-3.17782 -0.81482,-2.25744 20.93781,-7.55751 0.81482,2.25745 8.80404,-3.17782 z" />
      <path
         inkscape:connector-curvature="0"
         id="path3394"
         style="font-style:normal;font-variant:normal;font-weight:normal;font-stretch:normal;font-size:60px;line-height:125%;font-family:'JACKPORT COLLEGE NCV';-inkscape-font-specification:'JACKPORT COLLEGE NCV';text-align:start;letter-spacing:0px;writing-mode:lr-tb;text-anchor:start"
         d="m -363.87069,823.47923 4.6299,-1.01566 -1.25993,-5.74343 -9.96309,2.18561 1.25994,5.74342 1.93401,-0.42426 0.7971,3.6336 -8.08768,1.77419 -0.79711,-3.63359 1.93401,-0.42427 -1.25993,-5.74343 -9.67006,2.12133 0.48855,2.22704 -7.03277,1.54278 -2.2756,-10.37333 7.03277,-1.54278 0.48855,2.22704 23.8528,-5.23259 -0.48855,-2.22705 7.03277,-1.54278 4.29407,19.57454 -11.66267,2.55844 -1.24708,-5.68482 z m 0.42358,6.97116 13.77251,-3.02128 -4.75691,-21.68437 -9.1426,2.00561 0.48855,2.22705 -21.74298,4.76976 -0.48854,-2.22705 -9.1426,2.00562 2.73843,12.48316 9.1426,-2.00561 -0.48855,-2.22704 7.56023,-1.65849 0.7971,3.63359 -1.93401,0.42427 1.25994,5.74343 10.19751,-2.23703 -1.25993,-5.74343 -1.93402,0.42426 -0.7971,-3.63359 7.85326,-1.72278 0.7971,3.6336 -4.6299,1.01566 1.70991,7.79466 z m -1.45647,-0.47904 -11.48686,2.51987 -1.82562,-8.32211 1.93401,-0.42426 -0.23142,-1.05492 -4.98154,1.0928 0.48854,2.22705 -11.72128,2.5713 -3.30412,-15.06185 11.72128,-2.5713 0.48855,2.22704 19.1643,-4.20407 -0.48855,-2.22704 11.72128,-2.5713 5.32259,24.26305 -16.35119,3.58696 -0.44997,-2.05122 z m -2.70171,-9.23561 0.23141,1.05492 5.27458,-1.15709 -0.23142,-1.05491 -5.27457,1.15708 z" />
      <path
         inkscape:connector-curvature="0"
         id="path3396"
         style="font-style:normal;font-variant:normal;font-weight:normal;font-stretch:normal;font-size:60px;line-height:125%;font-family:'JACKPORT COLLEGE NCV';-inkscape-font-specification:'JACKPORT COLLEGE NCV';text-align:start;letter-spacing:0px;writing-mode:lr-tb;text-anchor:start"
         d="m -387.26657,854.02103 7.18933,-0.3917 0.10772,1.97707 q 0.95205,-0.17205 2.13069,-0.5968 1.23855,-0.42801 2.41066,-0.97258 1.17211,-0.54458 2.10131,-1.136 0.98911,-0.59469 1.43902,-1.16001 l -0.173,-3.17529 -8.26773,0.45045 0.10118,1.85725 -7.18933,0.39169 -0.54511,-10.00516 7.18934,-0.39169 0.12403,2.27662 24.38384,-1.3285 -0.12404,-2.27662 7.18934,-0.3917 0.86173,15.81655 q -0.46855,2.42908 -1.78775,3.58256 -1.25603,1.21012 -3.15034,1.73395 l -12.46151,0.67894 q -0.54573,-0.0905 -1.27772,-0.29092 -0.72873,-0.14056 -1.47051,-0.52077 -0.74178,-0.38021 -1.43998,-1.06324 -0.63501,-0.62638 -1.10988,-1.62202 -0.39653,0.44222 -1.44882,0.98027 -0.98911,0.59469 -2.28431,1.08588 -1.23202,0.54783 -2.59039,0.98237 -1.2952,0.49119 -2.30716,0.66651 l 0.11425,2.09689 -7.18934,0.39169 -0.52552,-9.64569 z m 19.91334,-0.66431 q 0.55437,1.35184 1.45956,1.4227 0.90846,0.13077 2.10669,0.0655 l 4.67307,-0.2546 q 1.19822,-0.0653 2.08709,-0.29398 0.95205,-0.17205 1.35627,-1.57612 l -0.27419,-5.03253 -11.68267,0.6365 0.27418,5.03254 z m -23.13561,-14.36265 11.98223,-0.65282 0.12403,2.27662 19.59095,-1.06737 -0.12404,-2.27662 11.98223,-0.65283 1.01188,18.57246 q -0.65923,3.34081 -2.43161,4.99969 -1.76911,1.71879 -4.61221,2.47458 l -12.94081,0.70505 q -1.1481,-0.11772 -2.80161,-0.68861 -1.6535,-0.57089 -2.98998,-1.94021 -1.22875,0.60774 -2.69715,1.22855 -1.40849,0.61754 -2.76687,1.05208 l 0.1371,2.51627 -11.98223,0.65282 -1.48191,-27.19966 z m 25.48963,13.45324 q 0.12308,0.0534 0.7222,0.0207 l 5.392,-0.29377 q 0.59911,-0.0326 0.77558,-0.10235 l -0.10119,-1.85724 -6.88978,0.37537 0.10119,1.85725 z m -23.39799,0.67389 0.63324,11.62276 9.34614,-0.5092 -0.12078,-2.21671 q 0.82897,-0.22543 1.77123,-0.57721 1.00543,-0.29514 1.94442,-0.70683 0.99891,-0.41496 1.87473,-0.8833 0.87908,-0.40843 1.57843,-0.80706 1.16979,1.61875 2.76665,2.25282 1.65677,0.6308 2.80488,0.74852 l 12.76107,-0.69526 q 2.25051,-0.60333 3.73313,-2.06615 1.48588,-1.40291 2.04813,-4.31782 l -0.92374,-16.95485 -9.34614,0.5092 0.12403,2.27663 -22.22703,1.21099 -0.12404,-2.27663 -9.34614,0.5092 0.65609,12.04215 9.34614,-0.50921 -0.0947,-1.73742 6.11094,-0.33294 0.0816,1.49778 q -0.39979,0.38231 -1.09914,0.78095 -0.69609,0.45855 -1.51526,0.86371 -0.81917,0.40517 -1.70152,0.75368 -0.87908,0.40843 -1.64813,0.6306 l -0.0881,-1.6176 -9.34614,0.5092 z m 21.90694,-3.77737 9.52588,-0.519 0.19911,3.65458 q -0.26039,0.73525 -0.79306,0.88445 -0.47276,0.14594 -1.25161,0.18837 l -5.392,0.29377 q -0.71893,0.0392 -1.26466,-0.0513 -0.48582,-0.0937 -0.82454,-0.79632 l -0.19912,-3.65458 z m -11.55748,1.83146 0.0849,1.55769 q 0.35294,-0.13941 0.87908,-0.40843 0.58932,-0.21238 1.1122,-0.54131 0.52615,-0.26902 0.99238,-0.53478 0.46623,-0.26576 0.75599,-0.46181 l -3.82452,0.38864 z" />
      <path
         inkscape:connector-curvature="0"
         id="path3398"
         style="font-style:normal;font-variant:normal;font-weight:normal;font-stretch:normal;font-size:60px;line-height:125%;font-family:'JACKPORT COLLEGE NCV';-inkscape-font-specification:'JACKPORT COLLEGE NCV';text-align:start;letter-spacing:0px;writing-mode:lr-tb;text-anchor:start"
         d="m -387.54837,874.54393 q 0.80932,-1.96637 2.12783,-3.03478 1.37819,-1.06217 3.51053,-1.26104 l 6.74308,0.70652 -0.62524,5.96734 -3.28204,-0.34389 q -1.01444,-0.10629 -1.41625,0.27391 -0.40181,0.3802 -0.69052,0.83257 l -0.37515,3.5804 q 0.18867,0.5024 0.50295,0.95763 0.31427,0.45523 1.32872,0.56152 l 3.28203,0.34388 q 1.01445,0.1063 1.45092,-0.029 0.43647,-0.13525 1.06106,-0.9144 l 6.28346,-8.14959 q 0.75645,-0.88599 2.15054,-1.52419 1.38785,-0.57853 3.11837,-0.39721 l 8.35427,0.87535 q 1.10878,0.35749 2.06696,1.00084 1.01159,0.70928 1.64639,1.56006 0.69447,0.85704 1.0184,1.7959 0.3836,0.94512 0.28981,1.84022 l -0.55022,5.25126 -1.96527,1.48328 1.7902,0.18757 -0.644,6.14635 -11.87499,-1.24424 0.644,-6.14635 4.71419,0.49394 0.50645,-4.83354 q -0.36769,-0.52115 -0.81381,-0.86954 -0.44613,-0.34838 -1.46057,-0.45468 l -3.64008,-0.3814 q -0.6564,-0.0688 -1.1588,0.1199 -0.44272,0.19493 -1.06732,0.97408 l -6.21753,8.09616 q -0.77521,1.06502 -2.08462,1.47078 -1.31566,0.46543 -2.38978,0.35289 l -8.35427,-0.87535 q -1.16846,-0.36374 -2.12663,-1.00709 -0.8985,-0.6371 -1.5333,-1.48789 -0.64105,-0.79111 -0.96498,-1.72997 -0.32392,-0.93887 -0.23014,-1.83397 l 0.87535,-8.35427 z m -1.94947,8.24172 q -0.11254,1.07412 0.25855,2.13859 0.36485,1.12414 1.10649,2.10678 0.74164,0.98263 1.80665,1.75783 1.12469,0.78146 2.46592,1.22363 l 8.53328,0.89411 q 1.31282,0.13755 2.8075,-0.30912 1.49468,-0.44668 2.61202,-1.89814 l 6.21754,-8.09617 q 0.68426,-0.7729 1.281,-0.71038 l 3.64007,0.3814 q 0.47739,0.05 0.76325,0.20063 0.33928,0.21654 0.5058,0.35464 l -0.35014,3.34171 -4.71419,-0.49395 -0.8691,8.2946 14.02324,1.46933 1.48183,-14.14258 q 0.11255,-1.07412 -0.31197,-2.20451 -0.36484,-1.12414 -1.1599,-2.1727 -0.74164,-0.98264 -1.86008,-1.82377 -1.12469,-0.78145 -2.47217,-1.16395 l -8.53328,-0.89411 q -2.0289,-0.21258 -3.73386,0.5137 -1.6453,0.73254 -2.48017,1.7913 l -6.21754,8.09616 q -0.41431,0.49955 -0.72518,0.58763 -0.2512,0.0943 -0.90761,0.0256 l -3.28203,-0.34388 q -0.41771,-0.0438 -0.57798,-0.24155 -0.16651,-0.1381 -0.2671,-0.32963 l 0.33763,-3.22236 q 0.13185,-0.10684 0.32338,-0.20743 0.19152,-0.10059 0.60924,-0.0568 l 4.35615,0.45643 0.85034,-8.11557 -7.99623,-0.83783 q -2.49663,0.22103 -4.07885,1.50313 -1.58221,1.2821 -2.54839,3.59401 l -0.89411,8.53328 z m 26.95139,-1.58005 -0.83487,1.05876 4.35615,0.45643 0.1188,-1.13379 -3.64008,-0.3814 z m -12.30236,-1.77165 -4.05778,-0.42517 -0.15006,1.43216 2.80464,0.29387 q 0.35804,0.0375 0.49615,-0.129 l 0.90705,-1.17186 z m -15.04898,-5.49816 q 1.13555,-2.77678 3.04739,-4.32599 1.97153,-1.54295 5.07114,-1.76113 l 9.24936,0.96913 -0.88785,8.47361 3.9391,-4.77551 q 0.97923,-1.28496 2.94165,-2.16525 2.02209,-0.87404 4.40902,-0.62394 l 8.47362,0.88785 q 1.57991,0.46718 2.93079,1.393 1.34463,0.98548 2.3062,2.17215 0.95532,1.24633 1.4145,2.62167 0.51886,1.38159 0.38755,2.63473 l -1.61939,15.4554 -16.64885,-1.74444 1.08167,-10.32349 -5.10645,6.70437 q -1.25544,1.61798 -2.82855,2.23742 -1.57937,0.67912 -3.48892,0.47904 l -8.71231,-0.91286 q -1.57991,-0.46718 -2.92454,-1.45267 -1.35088,-0.92581 -2.25278,-2.10622 -0.9019,-1.18042 -1.36733,-2.49608 -0.46543,-1.31567 -0.32788,-2.62848 l 0.91286,-8.71231 z" />
      <path
         inkscape:connector-curvature="0"
         id="path3400"
         style="font-style:normal;font-variant:normal;font-weight:normal;font-stretch:normal;font-size:60px;line-height:125%;font-family:'JACKPORT COLLEGE NCV';-inkscape-font-specification:'JACKPORT COLLEGE NCV';text-align:start;letter-spacing:0px;writing-mode:lr-tb;text-anchor:start"
         d="m -360.61129,913.61396 q 1.01429,0.57307 1.82359,1.3959 0.86649,0.84094 1.33544,1.74476 0.50802,0.97913 0.63662,1.96395 0.18579,1.00294 -0.086,1.86092 l -1.54017,4.86187 -2.20519,1.00077 1.71595,0.54359 -1.79385,5.66266 -11.38251,-3.60582 1.79385,-5.66266 4.51869,1.43146 1.52205,-4.80468 q -0.25543,-0.58443 -0.62242,-1.01538 -0.36699,-0.43095 -1.33936,-0.73899 l -19.61911,-6.21506 q -0.97237,-0.30804 -1.4424,-0.0164 -0.47003,0.29167 -0.84379,0.67678 l -1.05094,3.31752 q 0.0838,0.53007 0.30019,1.03917 0.21635,0.50911 1.18873,0.81715 l 3.14592,0.99658 -1.81197,5.71986 -6.46344,-2.04753 q -1.87511,-1.03458 -2.71389,-2.55907 -0.78157,-1.50636 -0.73749,-3.63231 l 2.573,-8.1222 q 1.16994,-1.70635 2.69443,-2.54513 1.56356,-0.76345 3.69235,-0.52965 l 26.71173,8.46191 z m -26.55717,-9.54585 q -2.4901,-0.28532 -4.29774,0.65258 -1.80764,0.93789 -3.21881,3.00839 l -2.68172,8.46539 q -0.0384,2.50538 0.89948,4.31302 0.93789,1.80764 3.13808,3.00813 l 7.6646,2.42805 2.46429,-7.77901 -4.1755,-1.32274 q -0.40039,-0.12683 -0.51762,-0.35279 -0.13536,-0.16875 -0.21352,-0.31939 l 0.94223,-2.97433 q 0.16876,-0.13535 0.37659,-0.19539 0.20784,-0.06 0.60823,0.0668 l 19.6191,6.21507 q 0.45759,0.14496 0.70734,0.34995 0.28884,0.28032 0.42419,0.44907 l -1.06906,3.37472 -4.51869,-1.43146 -2.42804,7.66461 13.44166,4.25813 4.1313,-13.04127 q 0.32615,-1.02957 0.13752,-2.22222 -0.13143,-1.17454 -0.71761,-2.30431 -0.52899,-1.11166 -1.47364,-2.10323 -0.94466,-0.99158 -2.18774,-1.63713 l -27.05492,-8.57064 z m 27.28195,7.25791 q 1.56816,0.81147 2.70537,1.98992 1.19441,1.19658 1.89783,2.55231 0.70342,1.35572 0.89489,2.73809 0.17335,1.43957 -0.22528,2.69794 l -4.54806,14.35683 -15.95839,-5.0554 3.24343,-10.23854 4.51868,1.43145 0.38052,-1.20116 -19.21872,-6.08824 -0.38051,1.20117 5.03347,1.59454 -3.26155,10.29574 -8.86578,-2.80856 q -2.75405,-1.43889 -3.94453,-3.64124 -1.13329,-2.18423 -1.06432,-5.18344 l 2.77232,-8.75138 q 1.67053,-2.49185 3.85476,-3.62514 2.24143,-1.11517 5.33975,-0.76304 l 26.82612,8.49815 z" />
      <path
         inkscape:connector-curvature="0"
         id="path3402"
         style="font-style:normal;font-variant:normal;font-weight:normal;font-stretch:normal;font-size:60px;line-height:125%;font-family:'JACKPORT COLLEGE NCV';-inkscape-font-specification:'JACKPORT COLLEGE NCV';text-align:start;letter-spacing:0px;writing-mode:lr-tb;text-anchor:start"
         d="m -379.62399,951.24189 q 0.53682,0.13355 1.34195,0.26678 0.83207,0.2137 1.36841,-0.0553 -0.10801,-0.5902 -0.75268,-1.17977 -0.61774,-0.50911 -1.04747,-0.85744 l -9.93575,-6.56255 -2.19519,4.40313 11.22073,3.9851 z m -17.53778,-13.77177 -0.85666,1.71829 -6.4436,-3.21248 4.4707,-8.96734 6.4436,3.21248 -0.9102,1.82569 20.35538,13.90267 0.99052,-1.98677 6.44359,3.21248 -7.46901,14.98137 -6.4436,-3.21248 0.99051,-1.98678 -23.38047,-7.83496 -0.93697,1.87939 -6.4436,-3.21248 4.49748,-9.02104 6.44359,3.21248 -0.85666,1.71829 5.10041,1.8724 2.56998,-5.15488 -4.56499,-2.94633 z m 3.11658,3.43099 -1.60624,3.2218 -3.06024,-1.12343 0.72281,-1.44981 -8.37668,-4.17623 -5.43445,10.90042 8.37668,4.17623 0.99051,-1.98678 21.31354,7.1397 -0.9102,1.82568 8.37667,4.17623 8.43277,-16.91445 -8.37668,-4.17622 -0.9102,1.82568 -18.58293,-12.61675 0.99051,-1.98678 -8.37667,-4.17622 -5.43445,10.90042 8.37668,4.17622 0.74958,-1.5035 2.73899,1.76779 z m 4.67549,5.68315 1.0976,-2.20156 8.56625,5.67864 -9.66385,-3.47708 z m -11.69867,-22.79436 10.73934,5.35413 -1.04406,2.09417 16.35413,11.17036 0.82989,-1.6646 10.73933,5.35414 -9.61067,19.2771 -10.73934,-5.35414 0.8299,-1.66459 -18.81703,-6.23027 -1.04406,2.09417 -10.73933,-5.35413 12.5019,-25.07634 z m 4.87656,17.1137 -0.69604,1.39611 0.59051,0.16032 0.58895,-1.18133 -0.48342,-0.3751 z" />
      <path
         inkscape:connector-curvature="0"
         id="path3404"
         style="font-style:normal;font-variant:normal;font-weight:normal;font-stretch:normal;font-size:60px;line-height:125%;font-family:'JACKPORT COLLEGE NCV';-inkscape-font-specification:'JACKPORT COLLEGE NCV';text-align:start;letter-spacing:0px;writing-mode:lr-tb;text-anchor:start"
         d="m -396.31604,985.34945 5.31192,6.59648 -9.29068,12.23167 -9.55596,-7.25838 1.37908,-1.81563 -15.624,-11.86739 -1.37908,1.81563 -9.55597,-7.25834 9.29068,-12.23163 7.54921,5.73409 2.46784,-3.24903 -7.54922,-5.73409 9.29068,-12.23164 9.55597,7.25834 -1.37909,1.81564 15.62401,11.86739 1.37908,-1.81564 9.55597,7.25834 -9.29068,12.23164 -7.77976,-3.34745 z m -17.71352,-15.56419 18.49288,7.79279 -17.2963,-13.1376 -1.3428,1.76786 -5.73357,-4.35501 6.38734,-8.40925 5.73358,4.35501 -1.37909,1.81563 19.44639,14.77073 1.37908,-1.81564 5.73358,4.35501 -6.67767,8.79149 -14.96135,-6.39125 10.17084,12.69818 -6.67767,8.79149 -5.73358,-4.355 1.37909,-1.81564 -19.44639,-14.77072 -1.37909,1.81563 -5.73358,-4.355 6.38734,-8.40925 5.73358,4.355 -1.34279,1.76786 17.2963,13.13759 -12.46846,-15.72423 2.03234,-2.67568 z m 13.46112,12.33423 11.63425,4.91896 7.83901,-10.32045 -7.45365,-5.6615 -1.37909,1.81563 -17.72631,-13.46422 1.37908,-1.81564 -7.45365,-5.6615 -7.69384,10.12932 7.45365,5.66151 1.34279,-1.76786 9.79487,7.4398 -11.5387,-4.84637 -2.97592,3.91794 7.76436,9.81548 -9.79486,-7.4398 1.34279,-1.76785 -7.45365,-5.66151 -7.69385,10.12932 7.45366,5.66151 1.37908,-1.81563 17.72632,13.46422 -1.37909,1.81563 7.45366,5.66152 7.839,-10.32045 -7.85991,-9.88806 z" />
      <path
         inkscape:connector-curvature="0"
         id="path3406"
         style="font-style:normal;font-variant:normal;font-weight:normal;font-stretch:normal;font-size:60px;line-height:125%;font-family:'JACKPORT COLLEGE NCV';-inkscape-font-specification:'JACKPORT COLLEGE NCV';text-align:start;letter-spacing:0px;writing-mode:lr-tb;text-anchor:start"
         d="m -428.07275,1012.4165 q 0.8126,0.883 1.63928,1.4269 0.78254,0.5845 1.99409,0.04 l 3.39952,-3.1285 -9.1418,-9.9337 -3.39952,3.1286 q -0.68336,1.1181 -0.16572,1.9464 0.47348,0.8689 1.28609,1.7519 l 4.38806,4.7681 z m 6.30151,8.7967 q -3.72999,1.8834 -7.02616,-0.5465 l -10.23881,-11.1257 q -1.00168,-1.4428 -1.12036,-3.6983 -0.16284,-2.2148 1.48829,-4.142 l 5.03306,-4.63187 -3.94113,-4.28251 -1.63354,1.50331 -4.87562,-5.29795 7.77033,-7.15091 4.87562,5.29795 -1.67768,1.54395 16.53649,17.96893 1.67768,-1.544 4.87563,5.298 -11.7438,10.8076 z m -4.29175,-10.157 q 0.40631,0.4415 0.57235,0.5334 l 1.05959,-0.9752 -5.89138,-6.4017 -1.05959,0.9752 q 0.0371,0.1289 0.44341,0.5704 l 4.87562,5.2979 z m 5.65206,12.1668 q -2.688,1.3321 -5.14309,1.1453 -2.45862,-0.1021 -4.9281,-1.9881 l -10.52323,-11.4347 q -0.68015,-1.0049 -1.09189,-2.3383 -0.45589,-1.2928 -0.43669,-2.7782 -0.0249,-1.4448 0.4623,-2.9533 0.4431,-1.4678 1.60155,-2.7785 l 3.44367,-3.16915 -0.69072,-0.75054 -1.63353,1.50332 -8.12604,-8.82992 11.30229,-10.40133 8.12604,8.82992 -1.67768,1.54394 13.28607,14.43696 1.67769,-1.544 8.12604,8.8299 -13.77468,12.6767 z m -11.49897,-16.5708 q -0.52819,-0.574 -0.80557,-1.0526 -0.23674,-0.4345 0.0864,-1.058 l 2.38407,-2.194 7.67911,8.3443 -2.38408,2.194 q -0.68879,0.2262 -1.14276,-0.09 -0.41334,-0.272 -0.94154,-0.8459 l -4.87562,-5.2979 z m 23.40849,3.8167 -6.33831,-6.8873 -1.67768,1.5439 -15.07381,-16.37948 1.67769,-1.54395 -6.33831,-6.88734 -9.35972,8.6136 6.33831,6.88734 1.63354,-1.50332 2.47844,2.69313 -4.32666,3.98172 q -0.9377,1.1076 -1.32961,2.3652 -0.43606,1.2983 -0.40055,2.4887 -0.009,1.2311 0.32887,2.3067 0.334,1.1603 0.93642,1.9921 l 10.48259,11.3906 q 2.01903,1.4851 4.05375,1.5696 2.03471,0.085 4.24411,-0.9703 l 12.67093,-11.6609 z" />
      <path
         inkscape:connector-curvature="0"
         id="path3408"
         style="font-style:normal;font-variant:normal;font-weight:normal;font-stretch:normal;font-size:60px;line-height:125%;font-family:'JACKPORT COLLEGE NCV';-inkscape-font-specification:'JACKPORT COLLEGE NCV';text-align:start;letter-spacing:0px;writing-mode:lr-tb;text-anchor:start"
         d="m -462.448,1003.8174 q 3.97703,-1.2819 6.85632,1.6299 l 14.68039,22.014 1.8969,-1.2649 3.99466,5.9902 -8.3863,5.5925 -3.99466,-5.9902 1.69723,-1.1318 -12.45004,-18.6695 q -0.56591,-0.8487 -1.06515,-0.9484 -0.54916,-0.067 -1.08167,10e-5 l -3.7938,2.53 q -0.26619,0.466 -0.36597,0.9652 -0.14969,0.5325 0.41622,1.3811 l 12.45003,18.6695 1.69723,-1.1318 3.99466,5.9902 -8.3863,5.5926 -3.99467,-5.9902 1.89691,-1.265 -14.68039,-22.0141 q -1.58141,-3.7773 1.13064,-6.9561 l 7.48776,-4.9933 z m -8.23672,4.1947 q -1.54735,1.8973 -1.94646,3.8942 -0.39911,1.997 0.56638,4.31 l 14.18105,21.2652 -1.8969,1.265 5.19306,7.7873 10.13345,-6.7576 -5.19306,-7.7873 -1.64731,1.0985 -11.85083,-17.771 q -0.36618,-0.5491 -0.19982,-0.9485 l 3.49429,-2.3302 q 0.43266,0 0.79884,0.5491 l 11.85083,17.7709 -1.64731,1.0986 5.19307,7.7872 10.13344,-6.7576 -5.19306,-7.7873 -1.8969,1.265 -14.18105,-21.2653 q -1.76419,-1.7803 -3.76117,-2.1794 -1.99697,-0.3991 -4.34326,0.3001 l -7.78728,5.1931 z m 15.73128,40.3523 -6.65777,-9.9837 1.8969,-1.265 -13.4154,-20.1171 q -1.24847,-2.8455 -0.76621,-5.2585 0.43234,-2.3797 2.32909,-4.7264 l 8.08679,-5.3928 q 2.89542,-0.849 5.30843,-0.3668 2.36309,0.5156 4.51009,2.7618 l 13.41541,20.1171 1.8969,-1.2649 6.65777,9.9837 -23.262,15.5126 z m 5.92168,-18.3725 -10.88545,-16.3234 -1.8969,1.265 10.88545,16.3234 1.8969,-1.265 z" />
      <path
         inkscape:connector-curvature="0"
         id="path3410"
         style="font-style:normal;font-variant:normal;font-weight:normal;font-stretch:normal;font-size:60px;line-height:125%;font-family:'JACKPORT COLLEGE NCV';-inkscape-font-specification:'JACKPORT COLLEGE NCV';text-align:start;letter-spacing:0px;writing-mode:lr-tb;text-anchor:start"
         d="m -486.03464,1017.9063 q 2.10068,-0.3298 3.69852,0.242 1.6235,0.626 2.901,2.3448 l 2.89869,6.1291 -5.42399,2.5652 -1.41087,-2.9832 q -0.43608,-0.922 -0.96968,-1.0679 -0.53359,-0.1459 -1.07012,-0.1576 l -3.25439,1.5391 q -0.33131,0.4222 -0.55708,0.9272 -0.22576,0.505 0.21032,1.4271 l 1.41087,2.9832 q 0.43608,0.922 0.77837,1.2248 0.34228,0.3027 1.33251,0.4317 l 10.22772,1.1364 q 1.15001,0.1862 2.41948,1.046 1.21522,0.8854 1.95914,2.4584 l 3.59129,7.5936 q 0.27043,1.1332 0.21836,2.2861 -0.0807,1.2328 -0.47795,2.2172 -0.37164,1.0386 -1.00568,1.8031 -0.60838,0.8187 -1.42198,1.2034 l -4.77311,2.2574 -2.28828,-0.9089 0.76956,1.6272 -5.58671,2.6422 -5.10477,-10.7938 5.58671,-2.6422 2.02652,4.285 4.39343,-2.0778 q 0.25435,-0.5849 0.32034,-1.1471 0.066,-0.5622 -0.37011,-1.4843 l -1.56478,-3.3086 q -0.28217,-0.5966 -0.70435,-0.9279 -0.39652,-0.2771 -1.38675,-0.4061 l -10.14783,-1.1078 q -1.31273,-0.1093 -2.33958,-1.0175 -1.0811,-0.8825 -1.54283,-1.8588 l -3.5913,-7.5936 q -0.29609,-1.1874 -0.24401,-2.3403 0.0777,-1.0987 0.47502,-2.0831 0.34305,-0.9587 0.97708,-1.7232 0.63404,-0.7644 1.44764,-1.1492 l 7.59358,-3.5913 z m -8.05532,2.615 q -0.97632,0.4617 -1.69318,1.3317 -0.7711,0.8957 -1.22557,2.0398 -0.45447,1.1442 -0.56372,2.4569 -0.0836,1.367 0.2352,2.7427 l 3.66826,7.7564 q 0.56434,1.1932 1.72239,2.2385 1.15805,1.0452 2.97873,1.2461 l 10.14782,1.1078 q 1.01588,0.1832 1.2724,0.7256 l 1.56478,3.3087 q 0.20522,0.4339 0.225,0.7564 -0.009,0.4024 -0.0403,0.6164 l -3.03743,1.4365 -2.02652,-4.2849 -7.53935,3.5656 6.02825,12.7464 12.85486,-6.0795 q 0.97632,-0.4618 1.72177,-1.4117 0.7711,-0.8956 1.25416,-2.1197 0.45446,-1.1441 0.5923,-2.5367 0.0836,-1.367 -0.28944,-2.7171 l -3.66826,-7.7563 q -0.87217,-1.8442 -2.37837,-2.9239 -1.48056,-1.0254 -2.81894,-1.1889 l -10.14783,-1.1078 q -0.64207,-0.095 -0.87881,-0.3145 -0.21109,-0.1656 -0.49326,-0.7623 l -1.41087,-2.9832 q -0.17957,-0.3797 -0.0938,-0.6193 0.0315,-0.2141 0.14294,-0.3995 l 2.92895,-1.3852 q 0.15979,0.057 0.34522,0.1686 0.18544,0.1114 0.365,0.4911 l 1.87261,3.9595 7.37663,-3.4887 -3.43739,-7.2681 q -1.48565,-2.0187 -3.40306,-2.7048 -1.91741,-0.6861 -4.39483,-0.3109 l -7.75631,3.6683 z m 15.34906,22.2099 -1.33839,-0.1635 1.87261,3.9595 1.03056,-0.4874 -1.56478,-3.3086 z m -4.87607,-11.4329 -1.74435,-3.6883 -1.30176,0.6157 1.20565,2.5492 q 0.15392,0.3255 0.36794,0.357 l 1.47252,0.1664 z m -3.11831,-15.7155 q 2.96264,-0.472 5.27951,0.3571 2.34253,0.8833 4.13894,3.4186 l 3.97608,8.4072 -7.70207,3.6426 6.12681,0.8856 q 1.60665,0.1694 3.37818,1.3891 1.79719,1.2739 2.82327,3.4435 l 3.6426,7.7021 q 0.42141,1.5927 0.33194,3.228 -0.1437,1.6608 -0.65828,3.0989 -0.56882,1.4637 -1.50558,2.5705 -0.9111,1.1609 -2.05014,1.6996 l -14.04814,6.6439 -7.15694,-15.1329 9.3835,-4.4378 -8.38139,-0.8813 q -2.0347,-0.2324 -3.38112,-1.2549 -1.40066,-0.9969 -2.22153,-2.7325 l -3.74521,-7.9191 q -0.42141,-1.5927 -0.2777,-3.2536 0.0895,-1.6352 0.6297,-3.019 0.54023,-1.3839 1.42275,-2.465 0.88251,-1.0811 2.07579,-1.6454 l 7.91903,-3.7452 z" />
      <path
         inkscape:connector-curvature="0"
         id="path3412"
         style="font-style:normal;font-variant:normal;font-weight:normal;font-stretch:normal;font-size:60px;line-height:125%;font-family:'JACKPORT COLLEGE NCV';-inkscape-font-specification:'JACKPORT COLLEGE NCV';text-align:start;letter-spacing:0px;writing-mode:lr-tb;text-anchor:start"
         d="m -524.97429,1032.2911 1.80516,6.9701 -1.91676,0.4964 q 0.35686,0.8992 1.00622,1.9707 0.6644,1.1295 1.42993,2.1708 0.76553,1.0413 1.52897,1.8353 0.77849,0.852 1.42158,1.1813 l 3.07844,-0.7973 -2.07594,-8.0155 -1.80059,0.4663 -1.80516,-6.97 9.69996,-2.5122 1.80516,6.97 -2.20718,0.5716 6.12251,23.6401 2.20718,-0.5717 1.80516,6.9701 -15.33408,3.9713 q -2.47377,0.021 -3.86527,-1.0442 -1.43453,-0.9921 -2.32249,-2.7454 l -3.12895,-12.0814 q -0.0192,-0.5529 0.0326,-1.31 -0.006,-0.7422 0.2198,-1.5445 0.22607,-0.8023 0.7576,-1.6217 0.48849,-0.7463 1.37061,-1.4086 -0.51188,-0.3013 -1.24733,-1.2265 -0.77848,-0.852 -1.51601,-2.0246 -0.78058,-1.0994 -1.47507,-2.345 -0.73753,-1.1726 -1.10943,-2.1299 l -2.03292,0.5265 -1.80517,-6.97 9.35147,-2.422 z m 4.58769,19.3891 q -1.21558,0.8107 -1.1061,1.712 0.0514,0.9164 0.35226,2.0781 l 1.17335,4.5305 q 0.30086,1.1616 0.70076,1.9878 0.35685,0.8992 1.81312,1.0179 l 4.87903,-1.2636 -2.93339,-11.3263 -4.87903,1.2636 z m 9.50575,-25.5183 3.0086,11.6167 -2.20718,0.5717 4.91907,18.9933 2.20717,-0.5716 3.00861,11.6167 -18.00593,4.6633 q -3.4052,0.014 -5.38171,-1.3952 -2.03459,-1.3945 -3.33749,-4.0321 l -3.24929,-12.546 q -0.11157,-1.1487 0.12119,-2.8825 0.23276,-1.7337 1.31086,-3.3145 -0.83865,-1.0844 -1.73748,-2.4011 -0.88378,-1.2586 -1.57828,-2.5042 l -2.43951,0.6318 -3.0086,-11.6168 26.36997,-6.8295 z m -8.14894,27.6461 q -0.028,0.1312 0.12243,0.712 l 1.35388,5.2276 q 0.15043,0.5808 0.25364,0.74 l 1.80059,-0.4663 -1.72995,-6.6796 -1.80059,0.4663 z m -5.28594,-22.8031 -11.26822,2.9184 2.34671,9.061 2.14909,-0.5566 q 0.38486,0.7681 0.91596,1.6222 0.48807,0.9273 1.07726,1.7663 0.60423,0.8972 1.23646,1.6631 0.57415,0.781 1.10317,1.3878 -1.35557,1.4667 -1.66146,3.1574 -0.29084,1.7488 -0.17927,2.8975 l 3.20416,12.3718 q 1.0363,2.0868 2.76335,3.251 1.66895,1.1792 4.63748,1.1542 l 16.43767,-4.2572 -2.34671,-9.061 -2.20718,0.5716 -5.58096,-21.549 2.20718,-0.5717 -2.34671,-9.061 -11.67481,3.0236 2.34671,9.0611 1.68443,-0.4363 1.53439,5.9246 -1.45209,0.376 q -0.45381,-0.3163 -0.98283,-0.923 -0.5871,-0.5917 -1.1462,-1.3146 -0.55911,-0.723 -1.07517,-1.519 -0.57415,-0.781 -0.94396,-1.491 l 1.56826,-0.4061 -2.34671,-9.0611 z m 8.03343,20.728 2.39184,9.2353 -3.5431,0.9176 q -0.77222,-0.1099 -1.02378,-0.6026 -0.23651,-0.4346 -0.43207,-1.1897 l -1.35387,-5.2275 q -0.18052,-0.697 -0.19974,-1.2498 -0.004,-0.4948 0.61762,-0.9657 l 3.5431,-0.9176 z m -4.08002,-10.9674 -1.51017,0.3911 q 0.20642,0.3184 0.57414,0.781 0.32468,0.5357 0.75049,0.9833 0.36772,0.4625 0.7204,0.867 0.35268,0.4045 0.60214,0.6498 l -1.137,-3.6722 z" />
      <path
         inkscape:connector-curvature="0"
         id="path3414"
         style="font-style:normal;font-variant:normal;font-weight:normal;font-stretch:normal;font-size:60px;line-height:125%;font-family:'JACKPORT COLLEGE NCV';-inkscape-font-specification:'JACKPORT COLLEGE NCV';text-align:start;letter-spacing:0px;writing-mode:lr-tb;text-anchor:start"
         d="m -546.87272,1068.3022 2.37851,-0.3205 -3.26063,-24.2013 -2.37851,0.3204 -0.96136,-7.1355 10.82222,-1.4581 0.96136,7.1356 -2.37851,0.3204 3.26063,24.2013 2.37851,-0.3204 0.96137,7.1355 -10.82222,1.4581 -0.96137,-7.1355 z m -2.69896,-2.0581 2.37851,-0.3204 -2.61972,-19.4444 -2.37851,0.3205 -1.60228,-11.8926 15.57924,-2.0989 1.60228,11.8925 -2.37851,0.3205 2.61972,19.4443 2.37851,-0.3205 1.60227,11.8926 -15.57923,2.099 -1.60228,-11.8926 z m 2.73421,10.4081 12.96287,-1.7465 -1.24977,-9.2761 -2.37851,0.3204 -2.97222,-22.0607 2.37851,-0.3204 -1.24978,-9.2762 -12.96288,1.7465 1.24978,9.2762 2.37851,-0.3205 2.97222,22.0607 -2.37851,0.3204 1.24978,9.2762 z" />
      <path
         inkscape:connector-curvature="0"
         id="path3416"
         style="font-style:normal;font-variant:normal;font-weight:normal;font-stretch:normal;font-size:60px;line-height:125%;font-family:'JACKPORT COLLEGE NCV';-inkscape-font-specification:'JACKPORT COLLEGE NCV';text-align:start;letter-spacing:0px;writing-mode:lr-tb;text-anchor:start"
         d="m -562.14599,1037.7969 q 1.99409,0.5514 3.28307,1.7202 1.23046,1.2302 1.7017,3.3193 l 0.69716,28.4915 q -0.36851,2.1097 -1.53879,3.3387 -1.22881,1.2904 -3.19354,1.9387 l -9.3572,0.2289 q -1.99408,-0.5514 -3.22454,-1.7816 -1.28898,-1.1689 -1.76022,-3.258 l -0.69716,-28.4914 q 0.36851,-2.1097 1.59731,-3.4001 1.17028,-1.229 3.13501,-1.8773 l 9.3572,-0.2289 z m -6.60771,7.1237 q -0.47546,0.1917 -0.82654,0.5604 -0.4096,0.4302 -0.38465,1.4499 l 0.51222,20.9337 q 0.0264,1.0797 0.4551,1.4293 0.3687,0.3511 0.85296,0.5193 l 4.19874,-0.1028 q 0.47546,-0.1916 0.88652,-0.5618 0.41107,-0.3702 0.38465,-1.4498 l -0.51222,-20.9338 q -0.0249,-1.0197 -0.4551,-1.4293 -0.42868,-0.3496 -0.91294,-0.5178 l -4.19874,0.1027 z m 6.84892,-9.5303 q 2.89968,0.7693 4.68172,2.4662 1.78351,1.7569 2.45819,4.8013 l 0.70302,28.7314 q -0.52496,3.0737 -2.22188,4.8558 -1.69545,1.842 -4.55404,2.7522 l -9.95702,0.2436 q -2.89968,-0.7693 -4.68319,-2.5262 -1.78205,-1.6969 -2.45672,-4.7413 l -0.70303,-28.7314 q 0.52497,-3.0737 2.22042,-4.9158 1.69692,-1.782 4.55551,-2.6922 l 9.95702,-0.2436 z m -3.73113,11.8548 -1.91943,0.047 0.49168,20.094 1.91943,-0.047 -0.49168,-20.094 z m -6.01366,-10.296 q -2.44165,0.78 -3.84599,2.2547 -1.40435,1.4748 -1.76405,3.9444 l 0.70596,28.8513 q 0.48005,2.449 1.95485,3.8534 1.47479,1.4043 3.95167,2.0639 l 9.65711,-0.2363 q 2.38167,-0.7785 3.78601,-2.2533 1.40435,-1.4748 1.82403,-3.9458 l -0.70596,-28.8513 q -0.54004,-2.4475 -2.01483,-3.8519 -1.47479,-1.4043 -3.89169,-2.0654 l -9.65711,0.2363 z m 6.94108,8.9529 q 0.42428,0.1697 0.44189,0.8894 l 0.51076,20.8738 q 0.009,0.3599 -0.10529,0.6027 -0.17407,0.2444 -0.2911,0.3673 l -3.77887,0.092 q -0.42721,-0.2896 -0.44336,-0.9494 l -0.51076,-20.8738 q -0.0176,-0.7197 0.39786,-0.91 l 3.77887,-0.092 z" />
      <path
         inkscape:connector-curvature="0"
         id="path3418"
         style="font-style:normal;font-variant:normal;font-weight:normal;font-stretch:normal;font-size:60px;line-height:125%;font-family:'JACKPORT COLLEGE NCV';-inkscape-font-specification:'JACKPORT COLLEGE NCV';text-align:start;letter-spacing:0px;writing-mode:lr-tb;text-anchor:start"
         d="m -614.83669,1060.7501 6.10511,0.9592 -0.73569,4.6826 5.63093,0.8847 q 0.53937,-0.3405 0.91023,-0.7681 0.37087,-0.4276 0.52918,-1.4352 l 3.0452,-19.3823 q 0.15832,-1.0076 -0.0636,-1.5284 -0.22186,-0.5207 -0.63086,-1.0101 l -5.57165,-0.8754 -1.40619,8.9502 3.20073,0.5029 -0.76363,4.8604 -9.36511,-1.4714 3.28733,-20.9233 6.28292,0.9871 -0.27937,1.7782 1.93901,-1.5175 5.45311,0.8568 q 0.88909,0.1397 1.713,0.6943 0.81459,0.6138 1.47339,1.4462 0.59021,0.8823 0.96535,1.9737 0.37515,1.0915 0.42599,2.3142 l -4.27446,27.2063 q -0.41403,1.0889 -1.1058,2.0127 -0.70108,0.9831 -1.52411,1.5826 -0.89161,0.6495 -1.84589,0.9247 -0.96359,0.3345 -1.85269,0.1949 l -5.63092,-0.8847 -1.38027,-2.039 -0.27937,1.7782 -6.10511,-0.9592 1.85319,-11.7953 z m -1.99841,-2.7434 10.90621,1.7135 -0.73569,4.6826 1.83746,0.2886 0.87538,-5.5716 -12.74367,-2.0022 4.03233,-25.6652 15.76659,2.4772 q 1.30401,0.2048 2.51488,1.0025 1.1423,0.8475 2.04158,2.0821 0.89929,1.2345 1.44634,2.7781 0.54704,1.5436 0.59197,3.1906 l -4.31171,27.4433 q -0.5478,1.5538 -1.54185,2.8553 -0.99405,1.3015 -2.22859,2.2008 -1.23454,0.8993 -2.57239,1.2964 -1.40645,0.4471 -2.71045,0.2423 l -15.76659,-2.4772 2.5982,-16.5371 z m 14.39199,-8.4891 0.6612,-4.2084 -1.83746,-0.2887 -0.6612,4.2084 1.83746,0.2887 z m -15.48131,23.9271 14.46259,2.2723 q 1.06691,0.1676 2.21763,-0.1982 1.14142,-0.3066 2.1702,-1.056 1.01947,-0.6901 1.85772,-1.7732 0.83825,-1.083 1.28953,-2.409 l 4.33034,-27.5619 q -0.0229,-1.4005 -0.48866,-2.6884 -0.46575,-1.2879 -1.21515,-2.3167 -0.75872,-0.9695 -1.74182,-1.6706 -0.99241,-0.6418 -2.05932,-0.8094 l -14.46259,-2.2723 -3.62258,23.0572 11.43967,1.7973 1.09888,-6.9942 -3.14147,-0.4936 1.07095,-6.8164 4.08983,0.6426 q 0.0906,0.1965 0.22186,0.5208 0.0627,0.3742 -0.0118,0.8484 l -3.0452,19.3822 q -0.0745,0.4742 -0.23961,0.752 -0.23369,0.3277 -0.38018,0.4869 l -4.1491,-0.6519 0.73569,-4.6826 -8.23893,-1.2944 -2.18845,13.9291 z" />
      <path
         inkscape:connector-curvature="0"
         id="path3420"
         style="font-style:normal;font-variant:normal;font-weight:normal;font-stretch:normal;font-size:60px;line-height:125%;font-family:'JACKPORT COLLEGE NCV';-inkscape-font-specification:'JACKPORT COLLEGE NCV';text-align:start;letter-spacing:0px;writing-mode:lr-tb;text-anchor:start"
         d="m -629.33098,1029.0368 -2.11218,6.8832 -1.89289,-0.5808 q -0.1669,0.9529 -0.17477,2.2057 -0.0255,1.3102 0.0814,2.5982 0.10685,1.288 0.34147,2.3642 0.21701,1.1335 0.59244,1.7508 l 3.04009,0.9329 2.42901,-7.9157 -1.77816,-0.5456 2.11218,-6.8832 9.57914,2.9394 -2.11218,6.8832 -2.17969,-0.6688 -7.16381,23.3456 2.17968,0.6688 -2.11218,6.8832 -15.14308,-4.6468 q -2.11839,-1.2776 -2.74604,-2.9137 -0.70261,-1.5964 -0.54088,-3.5551 l 3.66112,-11.9309 q 0.27313,-0.4811 0.71379,-1.099 0.3833,-0.6355 0.99604,-1.2006 0.61274,-0.5651 1.49467,-0.9849 0.80698,-0.38 1.90531,-0.4823 -0.27831,-0.5247 -0.42036,-1.698 -0.21701,-1.1335 -0.2313,-2.5187 -0.0892,-1.3453 -0.0286,-2.7702 -0.0143,-1.3852 0.17022,-2.3955 l -2.0076,-0.616 2.11218,-6.8833 9.23498,2.8339 z m -6.24522,18.9203 q -1.4601,0.054 -1.83884,0.8793 -0.43611,0.8076 -0.78814,1.9548 l -1.37292,4.4741 q -0.35203,1.1472 -0.44397,2.0604 -0.1669,0.953 1.01157,1.8167 l 4.81825,1.4785 3.4323,-11.1852 -4.81825,-1.4786 z m 21.4614,-16.7615 -3.5203,11.472 -2.17969,-0.6689 -5.7557,18.7568 2.17969,0.6689 -3.52031,11.472 -17.78164,-5.4565 q -2.90839,-1.7711 -3.85411,-4.0069 -1.00307,-2.2534 -0.7318,-5.1827 l 3.80193,-12.3898 q 0.50651,-1.037 1.61271,-2.3922 1.1062,-1.3551 2.85248,-2.1372 -0.14661,-1.363 -0.22281,-2.9554 -0.0938,-1.535 -0.0331,-2.9599 l -2.40912,-0.7393 3.5203,-11.472 26.04151,7.9911 z m -21.41978,19.2848 q -0.0926,0.097 -0.26858,0.6707 l -1.58414,5.1624 q -0.17601,0.5736 -0.17146,0.7633 l 1.77817,0.5456 2.02417,-6.5964 -1.77816,-0.5456 z m 7.43819,-22.1945 -11.12787,-3.4147 -2.74583,8.9482 2.12232,0.6513 q -0.0743,0.8558 -0.0692,1.8616 -0.0698,1.0455 -0.007,2.0689 0.0449,1.0807 0.18243,2.0643 0.0801,0.966 0.21308,1.76 -1.92291,0.5396 -3.06887,1.8198 -1.16356,1.3375 -1.67007,2.3745 l -3.74913,12.2177 q -0.20997,2.3205 0.65167,4.2167 0.80428,1.8786 3.34635,3.4118 l 16.23292,4.9812 2.74584,-8.9481 -2.17968,-0.6689 6.53016,-21.2806 2.17969,0.6688 2.74583,-8.9481 -11.52939,-3.5379 -2.74583,8.9481 1.66344,0.5105 -1.79535,5.8507 -1.43401,-0.44 q -0.22095,-0.5072 -0.35389,-1.3011 -0.1903,-0.8115 -0.28804,-1.7202 -0.0977,-0.9086 -0.12052,-1.857 -0.0801,-0.966 -0.0234,-1.7645 l 1.54872,0.4752 2.74584,-8.9482 z m -4.01087,21.8654 -2.79864,9.1203 -3.49897,-1.0737 q -0.60032,-0.498 -0.55662,-1.0495 0.0261,-0.494 0.25491,-1.2397 l 1.58413,-5.1624 q 0.21122,-0.6884 0.48436,-1.1694 0.25553,-0.4237 1.03186,-0.4993 l 3.49897,1.0737 z m 2.26749,-11.4799 -1.49136,-0.4576 q 0.009,0.3794 0.0801,0.966 -0.004,0.6264 0.12446,1.2307 0.071,0.5866 0.15965,1.1159 0.0886,0.5293 0.1727,0.8689 l 0.95442,-3.7239 z" />
      <path
         inkscape:connector-curvature="0"
         id="path3422"
         style="font-style:normal;font-variant:normal;font-weight:normal;font-stretch:normal;font-size:60px;line-height:125%;font-family:'JACKPORT COLLEGE NCV';-inkscape-font-specification:'JACKPORT COLLEGE NCV';text-align:start;letter-spacing:0px;writing-mode:lr-tb;text-anchor:start"
         d="m -668.24334,1044.7091 q -0.12696,0.5384 -0.25033,1.3451 -0.2035,0.8346 0.072,1.3676 0.58883,-0.1152 1.17047,-0.767 0.50152,-0.624 0.84456,-1.0579 l 6.44046,-10.0153 -4.42966,-2.1412 -3.84749,11.2687 z m 13.55612,-17.705 -1.72865,-0.8356 3.13339,-6.4824 9.02138,4.3606 -3.13338,6.4824 -1.83669,-0.8878 -13.65254,20.524 1.99875,0.9662 -3.13338,6.4824 -15.07165,-7.2851 3.13338,-6.4825 1.99875,0.9662 7.54825,-23.4746 -1.89071,-0.9139 3.13338,-6.4825 9.07541,4.3868 -3.13339,6.4824 -1.72865,-0.8356 -1.80983,5.123 5.18594,2.5067 2.89024,-4.6007 z m -3.3926,3.1583 -3.24121,-1.5667 1.0859,-3.0737 1.45855,0.705 4.0734,-8.4272 -10.96611,-5.3006 -4.0734,8.4271 1.99875,0.9661 -6.87833,21.3994 -1.83669,-0.8878 -4.0734,8.4271 17.01638,8.2252 4.0734,-8.4272 -1.83669,-0.8878 12.38839,-18.7359 1.99875,0.9661 4.0734,-8.4272 -10.96611,-5.3006 -4.0734,8.4272 1.51257,0.7311 -1.73415,2.7604 z m -5.6255,4.7447 2.21483,1.0706 -5.57339,8.6351 3.35856,-9.7057 z m 22.64949,-11.9767 -5.22231,10.804 -2.10679,-1.0183 -10.96938,16.4896 1.67463,0.8094 -5.22231,10.8041 -19.39327,-9.3741 5.22231,-10.804 1.67462,0.8094 5.99953,-18.8918 -2.10679,-1.0184 5.22231,-10.804 25.22745,12.1941 z m -17.05274,5.0856 -1.40453,-0.6789 -0.15307,0.5924 1.18844,0.5745 0.36916,-0.488 z" />
      <path
         inkscape:connector-curvature="0"
         id="path3424"
         style="font-style:normal;font-variant:normal;font-weight:normal;font-stretch:normal;font-size:60px;line-height:125%;font-family:'JACKPORT COLLEGE NCV';-inkscape-font-specification:'JACKPORT COLLEGE NCV';text-align:start;letter-spacing:0px;writing-mode:lr-tb;text-anchor:start"
         d="m -702.54778,1026.9852 1.8151,1.2782 -4.14556,5.8868 -8.24151,-5.8038 4.14555,-5.8868 1.86416,1.3128 18.2059,-25.85285 5.59246,3.93825 -10.26637,27.1877 12.05666,-17.1208 -1.81509,-1.2782 4.14556,-5.8868 8.48679,5.9765 -4.14556,5.8868 -1.86415,-1.3127 -14.06035,19.966 1.86415,1.3128 -4.14556,5.8868 -8.48679,-5.9765 8.9785,-23.6916 -9.98389,14.1774 z m -13.91609,1.9416 6.90926,-9.8113 1.86415,1.3128 18.20591,-25.85287 9.07548,6.39107 -1.12413,2.951 1.76186,-2.5019 12.41133,8.7402 -6.90927,9.8113 -1.86415,-1.3127 -11.29664,16.0415 1.86415,1.3128 -6.90926,9.8113 -23.98869,-16.8932 z m 23.66946,15.0539 5.38923,-7.6528 -1.86416,-1.3128 12.81669,-18.2 1.86415,1.3128 5.38922,-7.6529 -10.25283,-7.2201 -5.38923,7.6528 1.86416,1.3128 -6.59835,9.3698 7.52342,-20.1664 -7.11321,-5.0092 -18.20591,25.8528 -1.86415,-1.3127 -5.38923,7.6528 10.00755,7.0475 4.90558,-6.9661 -3.09048,8.2443 10.00755,7.0474 z m -3.72295,-23.6831 -2.85764,7.601 -1.66793,-1.1746 4.52557,-6.4264 z" />
      <path
         inkscape:connector-curvature="0"
         id="path3426"
         style="font-style:normal;font-variant:normal;font-weight:normal;font-stretch:normal;font-size:60px;line-height:125%;font-family:'JACKPORT COLLEGE NCV';-inkscape-font-specification:'JACKPORT COLLEGE NCV';text-align:start;letter-spacing:0px;writing-mode:lr-tb;text-anchor:start"
         d="m -725.62123,1002.4326 q -0.83518,0.8617 -1.28923,1.675 -0.53889,0.8146 0.0318,2.0362 l 3.23127,3.1319 16.99584,-17.53504 -3.23128,-3.13191 q -1.19707,-0.57535 -1.91094,-0.0975 -0.79872,0.47922 -1.63389,1.3409 l -12.19357,12.58045 z m 29.96936,-10.05751 -5.01105,5.17004 -1.63718,-1.58683 -16.99584,17.535 1.63718,1.5869 -5.01105,5.17 -11.28792,-10.9408 q -1.04726,-1.8506 -1.032,-3.5906 -0.0696,-1.7386 1.13348,-3.497 l 19.83543,-20.46478 q 1.72006,-1.25738 3.50175,-1.2852 1.69685,-0.0265 3.57928,0.96246 l 11.28792,10.94081 z m -28.99635,12.58821 0.94784,0.9187 13.65513,-14.08835 -0.94784,-0.91869 -13.65513,14.08834 z m 32.39005,-12.6412 -8.35176,8.6167 -1.63718,-1.5868 -13.65513,14.0884 1.63718,1.5868 -8.35176,8.6167 -13.26977,-12.8617 q -1.48339,-2.6076 -1.48005,-5.1111 -0.0384,-2.4604 1.70352,-5.0335 l 20.00247,-20.6371 q 2.51745,-1.82144 5.01964,-1.90295 2.46043,-0.0384 5.11307,1.36284 l 13.26977,12.86171 z m -20.26871,-1.84751 q 0.54286,-0.56008 1.00486,-0.86432 0.42024,-0.26115 1.10295,-0.0172 l 2.24035,2.17146 -15.49251,15.98397 -2.24035,-2.1714 q -0.26513,-0.6748 0.0245,-1.146 0.2479,-0.4282 0.79077,-0.9883 l 12.5694,-12.96819 z m 6.2095,-9.94109 q -2.26754,-1.1951 -4.26067,-1.12155 -2.03622,0.0318 -4.093,1.46416 l -20.08599,20.72329 q -1.36744,2.1005 -1.33564,4.1367 -0.0113,1.9944 1.25404,4.2235 l 12.19267,11.8178 6.51438,-6.7211 -1.63718,-1.5868 15.49251,-15.98404 1.63718,1.58684 6.51438,-6.72106 -12.19268,-11.81774 z" />
      <path
         inkscape:connector-curvature="0"
         id="path3428"
         style="font-style:normal;font-variant:normal;font-weight:normal;font-stretch:normal;font-size:60px;line-height:125%;font-family:'JACKPORT COLLEGE NCV';-inkscape-font-specification:'JACKPORT COLLEGE NCV';text-align:start;letter-spacing:0px;writing-mode:lr-tb;text-anchor:start"
         d="m -740.21983,979.29717 -0.54735,-0.71443 -4.1913,3.21115 0.54736,0.71443 4.19129,-3.21115 z m -17.35835,1.81009 9.47804,-7.26157 3.53956,4.61995 -3.76264,2.88273 3.46658,4.52469 8.00156,-6.13037 -3.46658,-4.52469 -1.57174,1.20418 -2.2624,-2.95296 6.52509,-4.99917 2.26239,2.95296 -1.57173,1.20418 3.46658,4.52469 8.00156,-6.13037 -3.46658,-4.52469 -3.76264,2.88273 -3.53956,-4.61995 9.47804,-7.26157 12.07829,15.76498 -5.7154,4.37884 -1.38663,-1.80988 -19.38473,14.85155 1.38663,1.80988 -5.7154,4.37884 -12.07829,-15.76498 z m 11.87781,17.27911 7.43002,-5.69249 -1.38664,-1.80987 17.67011,-13.5379 1.38664,1.80987 7.43002,-5.69249 -13.39195,-17.47959 -11.19265,8.57522 4.85321,6.33457 3.76263,-2.88274 2.15293,2.81007 -6.28694,4.81672 -2.15292,-2.81007 1.57173,-1.20418 -3.57605,-4.66757 -8.2397,6.31282 3.57605,4.66757 1.57173,-1.20418 2.15293,2.81008 -6.28694,4.81672 -2.15293,-2.81008 3.76264,-2.88273 -4.85321,-6.33457 -11.19266,8.57522 13.39195,17.4796 z m -15.24256,-17.72463 13.28831,-10.1808 1.27716,1.66699 8.04919,-6.16686 -1.27716,-1.66699 13.2883,-10.18079 14.99752,19.57524 -9.52567,7.29806 -1.38663,-1.80987 -15.57447,11.93232 1.38664,1.80988 -9.52567,7.29808 -14.99752,-19.57526 z m 32.10627,-10.08575 -0.54735,-0.71443 -4.19129,3.21115 0.54735,0.71442 4.19129,-3.21114 z" />
    </g>
    <path
       inkscape:connector-curvature="0"
       id="path3273"
       d="M 701.46843,681.59695 A 328.75905,320.43625 0 0 1 372.70938,1002.0332 328.75905,320.43625 0 0 1 43.950324,681.59695 328.75905,320.43625 0 0 1 372.70938,361.1607 328.75905,320.43625 0 0 1 701.46843,681.59695 Z"
       style="fill:none;stroke:#002b3d;stroke-width:3.8250947;stroke-miterlimit:4;stroke-dasharray:none" />
  </g>
</svg>
