<?xml version="1.0" encoding="UTF-8" standalone="no"?>
<!-- Created with Inkscape (http://www.inkscape.org/) -->

<svg
   xmlns:dc="http://purl.org/dc/elements/1.1/"
   xmlns:cc="http://creativecommons.org/ns#"
   xmlns:rdf="http://www.w3.org/1999/02/22-rdf-syntax-ns#"
   xmlns:svg="http://www.w3.org/2000/svg"
   xmlns="http://www.w3.org/2000/svg"
   xmlns:sodipodi="http://sodipodi.sourceforge.net/DTD/sodipodi-0.dtd"
   xmlns:inkscape="http://www.inkscape.org/namespaces/inkscape"
   width="1018.3622"
   height="405.09448"
   id="svg3172"
   version="1.1"
   inkscape:version="0.91 r13725"
   sodipodi:docname="info.svg"
   inkscape:export-filename="/home/marcio/github/info-cultura-e-identidade-visual/arte/info-logo-rectangle.png"
   inkscape:export-xdpi="18.025753"
   inkscape:export-ydpi="18.025753">
  <defs
     id="defs3174" />
  <sodipodi:namedview
     id="base"
     pagecolor="#ffffff"
     bordercolor="#666666"
     borderopacity="1.0"
     inkscape:pageopacity="0.0"
     inkscape:pageshadow="2"
     inkscape:zoom="0.7"
     inkscape:cx="704.84634"
     inkscape:cy="0.75158099"
     inkscape:document-units="px"
     inkscape:current-layer="g3476"
     showgrid="false"
     inkscape:window-width="1366"
     inkscape:window-height="744"
     inkscape:window-x="0"
     inkscape:window-y="24"
     inkscape:window-maximized="1"
     showguides="true"
     inkscape:guide-bbox="true" />
  <metadata
     id="metadata3177">
    <rdf:RDF>
      <cc:Work
         rdf:about="">
        <dc:format>image/svg+xml</dc:format>
        <dc:type
           rdf:resource="http://purl.org/dc/dcmitype/StillImage" />
        <dc:title />
      </cc:Work>
    </rdf:RDF>
  </metadata>
  <g
     inkscape:label="Camada 1"
     inkscape:groupmode="layer"
     id="layer1"
     transform="translate(0,-647.2677)">
    <g
       id="g3476">
      <g
         style="font-style:normal;font-variant:normal;font-stretch:normal;font-size:144px;line-height:125%;font-family:'Source Code Pro';-inkscape-font-specification:'Source Code Pro Semi-Light';text-align:start;letter-spacing:0px;word-spacing:0px;writing-mode:lr-tb;text-anchor:start;fill:#000000;fill-opacity:1;stroke:none"
         transform="matrix(2.2262565,0,0,2.2262565,-480.11968,-23.69064)"
         id="g3087" />
      <path
         style="font-style:normal;font-variant:normal;font-stretch:normal;font-size:144px;line-height:125%;font-family:'Source Code Pro';-inkscape-font-specification:'Source Code Pro Semi-Light';text-align:start;letter-spacing:0px;word-spacing:0px;writing-mode:lr-tb;text-anchor:start;fill:#85f611;fill-opacity:1;stroke:none"
         d="m 414.10094,927.71802 c 0,-44.77447 0,-89.54894 0,-134.32341 -24.15043,0 -48.30087,0 -72.4513,0 0,-7.15964 0,-14.31928 0,-21.47893 32.91298,0 65.82596,0 98.73893,0 0,51.93412 0,103.86823 0,155.80234 -8.76254,0 -17.52509,0 -26.28763,0 z"
         id="path3089"
         inkscape:connector-curvature="0"
         inkscape:export-filename="/home/marcio/info.png"
         inkscape:export-xdpi="599.98749"
         inkscape:export-ydpi="599.98749" />
      <path
         style="font-style:normal;font-variant:normal;font-stretch:normal;font-size:144px;line-height:125%;font-family:'Source Code Pro';-inkscape-font-specification:'Source Code Pro Semi-Light';text-align:start;letter-spacing:0px;word-spacing:0px;writing-mode:lr-tb;text-anchor:start;fill:#d40000;fill-opacity:1;stroke:none"
         d="m 424.35665,743.66195 c -12.61621,0.77418 -24.83887,-10.01884 -24.60467,-23.5617 -1.62437,-14.8792 11.97704,-27.78156 25.89782,-26.32819 13.62382,-0.10241 25.38246,13.47847 23.2284,27.69162 -0.53421,13.20774 -12.25685,22.73266 -24.52155,22.19827 z"
         id="path3091"
         inkscape:connector-curvature="0"
         inkscape:export-filename="/home/marcio/info.png"
         inkscape:export-xdpi="599.98749"
         inkscape:export-ydpi="599.98749" />
      <path
         d="m 490.30959,927.71802 0,-155.80234 21.79951,0 2.24406,26.60822 1.28233,0 c 8.12131,-8.76241 16.88386,-16.02891 26.28763,-21.7995 9.40362,-5.7703 20.19651,-8.65553 32.37868,-8.65569 18.59356,1.6e-4 32.16482,5.34318 40.71378,16.02905 8.76239,10.47244 13.14366,26.07403 13.14381,46.80482 l 0,96.81544 -26.28763,0 0,-93.28905 c -1.4e-4,-14.74661 -2.7785,-25.64637 -8.33511,-32.69926 -5.55684,-7.26637 -14.74683,-10.89962 -27.56996,-10.89975 -4.70194,1.3e-4 -9.08321,0.6413 -13.14382,1.92349 -3.84706,1.06873 -7.69403,2.7785 -11.54091,5.12929 -3.84704,2.35106 -7.80087,5.34315 -11.86149,8.97627 -4.06076,3.41964 -8.33515,7.48033 -12.82324,12.18207 l 0,108.67694 -26.28764,0"
         style="font-style:normal;font-variant:normal;font-stretch:normal;font-size:144px;line-height:125%;font-family:'Source Code Pro';-inkscape-font-specification:'Source Code Pro Semi-Light';text-align:start;letter-spacing:0px;word-spacing:0px;writing-mode:lr-tb;text-anchor:start;fill:#18a6dc;fill-opacity:1;stroke:none"
         id="path3093"
         inkscape:connector-curvature="0"
         inkscape:export-filename="/home/marcio/info.png"
         inkscape:export-xdpi="599.98749"
         inkscape:export-ydpi="599.98749" />
      <path
         d="m 699.1319,927.71802 0,-134.32341 -44.56076,0 0,-19.87602 44.56076,-1.60291 0,-13.14381 c -7e-5,-19.02096 5.02236,-34.30196 15.0673,-45.84308 10.2585,-11.54069 26.18066,-17.31115 47.76656,-17.31137 15.38773,2.2e-4 30.34817,2.99231 44.88133,8.97627 l -6.09104,19.87602 c -6.4118,-2.99189 -12.39595,-4.91538 -17.95253,-5.77046 -5.34317,-1.0684 -11.43419,-1.6027 -18.27311,-1.60291 -14.1057,2.1e-4 -24.25741,3.63346 -30.45519,10.89976 -5.98429,7.05298 -8.97636,16.99096 -8.97627,29.81402 l 0,14.10556 65.39851,0 0,21.47893 -65.39851,0 0,134.32341 -25.96705,0"
         style="font-style:normal;font-variant:normal;font-stretch:normal;font-size:144px;line-height:125%;font-family:'Source Code Pro';-inkscape-font-specification:'Source Code Pro Semi-Light';text-align:start;letter-spacing:0px;word-spacing:0px;writing-mode:lr-tb;text-anchor:start;fill:#f31161;fill-opacity:1;stroke:none"
         id="path3095"
         inkscape:connector-curvature="0"
         inkscape:export-filename="/home/marcio/info.png"
         inkscape:export-xdpi="599.98749"
         inkscape:export-ydpi="599.98749" />
      <path
         d="m 878.78133,931.56499 c -10.25868,0 -20.0898,-1.81662 -29.49344,-5.44987 -9.19003,-3.63326 -17.31142,-8.86941 -24.36415,-15.70847 -7.05281,-7.05276 -12.7164,-15.60158 -16.99079,-25.64648 -4.06072,-10.25854 -6.09106,-21.79943 -6.09104,-34.62274 -2e-5,-13.03687 2.03032,-24.57776 6.09104,-34.62274 4.27439,-10.25848 9.93798,-18.91414 16.99079,-25.96705 7.05273,-7.05265 15.17412,-12.39564 24.36415,-16.02905 9.40364,-3.6331 19.23476,-5.44972 29.49344,-5.44988 10.25848,1.6e-4 19.98277,1.81678 29.17287,5.44988 9.40357,3.63341 17.63182,8.9764 24.68473,16.02905 7.05263,7.05291 12.60936,15.70857 16.67021,25.96705 4.27426,10.04498 6.41144,21.58587 6.41162,34.62274 -1.8e-4,12.82331 -2.13736,24.3642 -6.41162,34.62274 -4.06085,10.0449 -9.61758,18.59372 -16.67021,25.64648 -7.05291,6.83906 -15.28116,12.07521 -24.68473,15.70847 -9.1901,3.63325 -18.91439,5.44987 -29.17287,5.44987 m 0,-21.7995 c 7.48014,2e-5 14.21231,-1.38916 20.1966,-4.16755 6.19779,-2.99207 11.43394,-7.05276 15.70847,-12.18208 4.488,-5.34297 7.90753,-11.64773 10.25859,-18.91428 2.35079,-7.26643 3.52625,-15.38781 3.52639,-24.36415 -1.4e-4,-8.97617 -1.1756,-17.09756 -3.52639,-24.36415 -2.35106,-7.48011 -5.77059,-13.89173 -10.25859,-19.23485 -4.27453,-5.34289 -9.51068,-9.40358 -15.70847,-12.18208 -5.98429,-2.99195 -12.71646,-4.488 -20.1966,-4.48813 -7.48031,1.3e-4 -14.31935,1.49618 -20.51718,4.48813 -5.98424,2.7785 -11.2204,6.83919 -15.70846,12.18208 -4.27446,5.34312 -7.58713,11.75474 -9.93801,19.23485 -2.35097,7.26659 -3.52644,15.38798 -3.52639,24.36415 -5e-5,8.97634 1.17542,17.09772 3.52639,24.36415 2.35088,7.26655 5.66355,13.57131 9.93801,18.91428 4.48806,5.12932 9.72422,9.19001 15.70846,12.18208 6.19783,2.77839 13.03687,4.16757 20.51718,4.16755"
         style="font-style:normal;font-variant:normal;font-stretch:normal;font-size:144px;line-height:125%;font-family:'Source Code Pro';-inkscape-font-specification:'Source Code Pro Semi-Light';text-align:start;letter-spacing:0px;word-spacing:0px;writing-mode:lr-tb;text-anchor:start;fill:#ff8d12;fill-opacity:1;stroke:none"
         id="path3097"
         inkscape:connector-curvature="0"
         inkscape:export-filename="/home/marcio/info.png"
         inkscape:export-xdpi="599.98749"
         inkscape:export-ydpi="599.98749" />
      <g
         id="g3099"
         transform="matrix(1.7264096,0,0,1.7264096,-2089.7132,719.32751)"
         inkscape:export-filename="/home/marcio/info.png"
         inkscape:export-xdpi="599.98749"
         inkscape:export-ydpi="599.98749">
        <path
           style="fill:#ff8d12;fill-opacity:1;fill-rule:evenodd;stroke:none"
           d="m 1298.2427,77.850952 34.0339,0 c 2.77,0 5,2.23 5,5 l 0,34.033898 c 0,2.77 -2.23,5 -5,5 l -34.0339,0 c -2.77,0 -5,-2.23 -5,-5 l 0,-34.033898 c 0,-2.77 2.23,-5 5,-5 z"
           id="rect3101" />
        <path
           style="fill:#18a6dc;fill-opacity:1;fill-rule:evenodd;stroke:none"
           d="m 1344.326,31.85096 34.034,0 c 2.77,0 5,2.23 5,5 l 0,34.033901 c 0,2.77 -2.23,5 -5,5 l -34.034,0 c -2.77,0 -5,-2.23 -5,-5 l 0,-34.033901 c 0,-2.77 2.23,-5 5,-5 z"
           id="rect3103" />
        <path
           style="fill:#f31161;fill-opacity:1;fill-rule:evenodd;stroke:none"
           d="m 1344.3262,77.850952 34.0339,0 c 2.77,0 5,2.23 5,5 l 0,34.033898 c 0,2.77 -2.23,5 -5,5 l -34.0339,0 c -2.77,0 -5,-2.23 -5,-5 l 0,-34.033898 c 0,-2.77 2.23,-5 5,-5 z"
           id="rect3105" />
        <path
           style="fill:#85f611;fill-opacity:1;fill-rule:evenodd;stroke:none"
           d="m 1298.2427,-14.14904 34.0339,0 c 2.77,0 5,2.23 5,4.9999998 l 0,34.0339012 c 0,2.77 -2.23,5 -5,5 l -34.0339,0 c -2.77,0 -5,-2.23 -5,-5 l 0,-34.0339012 c 0,-2.7699998 2.23,-4.9999998 5,-4.9999998 z"
           id="rect3107" />
        <path
           style="fill:#d40000;fill-opacity:1;fill-rule:evenodd;stroke:none"
           d="m 1252.1051,77.850952 34.0339,0 c 2.77,0 5,2.23 5,5 l 0,34.033898 c 0,2.77 -2.23,5 -5,5 l -34.0339,0 c -2.77,0 -5,-2.23 -5,-5 l 0,-34.033898 c 0,-2.77 2.23,-5 5,-5 z"
           id="rect3109" />
      </g>
      <g
         style="font-style:normal;font-weight:normal;font-size:50.47404861px;line-height:125%;font-family:sans-serif;letter-spacing:0px;word-spacing:0px;fill:#000000;fill-opacity:1;stroke:none;stroke-width:1px;stroke-linecap:butt;stroke-linejoin:miter;stroke-opacity:1"
         id="text4324">
        <path
           d="m 76.886546,993.84418 -2.538489,0 0,-33.6658 -11.706628,0 0,-2.36597 25.951745,0 0,2.36597 -11.706628,0 0,33.6658 z"
           style="font-style:normal;font-variant:normal;font-weight:300;font-stretch:normal;font-size:50.47404861px;line-height:125%;font-family:'Open Sans';-inkscape-font-specification:'Open Sans, Light';text-align:start;writing-mode:lr-tb;text-anchor:start"
           id="path3355" />
        <path
           d="m 104.11986,994.33709 q -5.840993,0 -9.118848,-3.59825 -3.25321,-3.59825 -3.25321,-10.08002 0,-6.40784 3.154628,-10.25254 3.154628,-3.86935 8.50271,-3.86935 4.73194,0 7.46759,3.3025 2.73566,3.3025 2.73566,8.97097 l 0,1.97165 -19.297453,0 q 0.04929,5.52059 2.563135,8.42877 2.53849,2.90817 7.245788,2.90817 2.29203,0 4.01722,-0.32039 1.74983,-0.32039 4.41155,-1.38015 l 0,2.2181 q -2.26739,0.98582 -4.18974,1.33085 -1.92235,0.36969 -4.23903,0.36969 z m -0.71472,-25.63135 q -3.86935,0 -6.210676,2.56313 -2.341325,2.53849 -2.735654,7.34437 l 16.5618,0 q 0,-4.65801 -2.02094,-7.27043 -2.02093,-2.63707 -5.59453,-2.63707 z m -3.450376,-5.841 q 1.799126,-1.94699 3.548956,-4.21438 1.77448,-2.29204 2.41526,-3.47502 l 3.47502,0 0,0.41897 q -0.88724,1.28157 -3.0314,3.40109 -2.11951,2.11951 -4.68265,4.26367 l -1.725186,0 0,-0.39433 z"
           style="font-style:normal;font-variant:normal;font-weight:300;font-stretch:normal;font-size:50.47404861px;line-height:125%;font-family:'Open Sans';-inkscape-font-specification:'Open Sans, Light';text-align:start;writing-mode:lr-tb;text-anchor:start"
           id="path3357" />
        <path
           d="m 131.69821,994.33709 q -5.74241,0 -8.99562,-3.6229 -3.25321,-3.62289 -3.25321,-10.10466 0,-6.6543 3.37644,-10.35113 3.37644,-3.72147 9.24207,-3.72147 3.47502,0 6.6543,1.20763 l -0.66543,2.16881 q -3.47502,-1.15834 -6.03816,-1.15834 -4.9291,0 -7.46759,3.05604 -2.53849,3.0314 -2.53849,8.74917 0,5.42201 2.53849,8.5027 2.53849,3.05605 7.09791,3.05605 3.64754,0 6.77752,-1.30621 l 0,2.26739 q -2.56313,1.25692 -6.72823,1.25692 z"
           style="font-style:normal;font-variant:normal;font-weight:300;font-stretch:normal;font-size:50.47404861px;line-height:125%;font-family:'Open Sans';-inkscape-font-specification:'Open Sans, Light';text-align:start;writing-mode:lr-tb;text-anchor:start"
           id="path3359" />
        <path
           d="m 163.63882,993.84418 0,-17.3751 q 0,-4.04187 -1.70055,-5.86564 -1.70054,-1.84841 -5.27414,-1.84841 -4.80588,0 -7.04862,2.4399 -2.2181,2.41527 -2.2181,7.86193 l 0,14.78732 -2.43991,0 0,-26.7897 2.07023,0 0.46826,3.67219 0.14788,0 q 2.61242,-4.18974 9.29136,-4.18974 9.11885,0 9.11885,9.78427 l 0,17.52298 -2.41526,0 z"
           style="font-style:normal;font-variant:normal;font-weight:300;font-stretch:normal;font-size:50.47404861px;line-height:125%;font-family:'Open Sans';-inkscape-font-specification:'Open Sans, Light';text-align:start;writing-mode:lr-tb;text-anchor:start"
           id="path3361" />
        <path
           d="m 177.16921,993.84418 -2.4399,0 0,-26.7897 2.4399,0 0,26.7897 z m -2.78494,-34.23265 q 0,-2.36597 1.55267,-2.36597 0.76401,0 1.18298,0.61614 0.44362,0.61614 0.44362,1.74983 0,1.10905 -0.44362,1.74984 -0.41897,0.64078 -1.18298,0.64078 -1.55267,0 -1.55267,-2.39062 z"
           style="font-style:normal;font-variant:normal;font-weight:300;font-stretch:normal;font-size:50.47404861px;line-height:125%;font-family:'Open Sans';-inkscape-font-specification:'Open Sans, Light';text-align:start;writing-mode:lr-tb;text-anchor:start"
           id="path3363" />
        <path
           d="m 196.86099,994.33709 q -5.74241,0 -8.99562,-3.6229 -3.25321,-3.62289 -3.25321,-10.10466 0,-6.6543 3.37644,-10.35113 3.37644,-3.72147 9.24207,-3.72147 3.47502,0 6.6543,1.20763 l -0.66543,2.16881 q -3.47502,-1.15834 -6.03816,-1.15834 -4.9291,0 -7.46759,3.05604 -2.53849,3.0314 -2.53849,8.74917 0,5.42201 2.53849,8.5027 2.53849,3.05605 7.09791,3.05605 3.64754,0 6.77752,-1.30621 l 0,2.26739 q -2.56313,1.25692 -6.72823,1.25692 z"
           style="font-style:normal;font-variant:normal;font-weight:300;font-stretch:normal;font-size:50.47404861px;line-height:125%;font-family:'Open Sans';-inkscape-font-specification:'Open Sans, Light';text-align:start;writing-mode:lr-tb;text-anchor:start"
           id="path3365" />
        <path
           d="m 232.27662,980.41236 q 0,6.55571 -3.17928,10.25254 -3.17927,3.67219 -8.77381,3.67219 -3.52431,0 -6.21067,-1.70054 -2.68636,-1.70055 -4.1158,-4.87982 -1.42945,-3.17927 -1.42945,-7.34437 0,-6.55571 3.17928,-10.20325 3.17927,-3.67218 8.72452,-3.67218 5.5206,0 8.65058,3.72147 3.15463,3.69683 3.15463,10.15396 z m -21.14587,0 q 0,5.5206 2.41526,8.62594 2.43991,3.08069 6.87611,3.08069 4.43619,0 6.85145,-3.08069 2.43991,-3.10534 2.43991,-8.62594 0,-5.54524 -2.46455,-8.60129 -2.43991,-3.05604 -6.87611,-3.05604 -4.43619,0 -6.85145,3.05604 -2.39062,3.0314 -2.39062,8.60129 z"
           style="font-style:normal;font-variant:normal;font-weight:300;font-stretch:normal;font-size:50.47404861px;line-height:125%;font-family:'Open Sans';-inkscape-font-specification:'Open Sans, Light';text-align:start;writing-mode:lr-tb;text-anchor:start"
           id="path3367" />
        <path
           d="m 263.62574,994.33709 q -5.84099,0 -9.11885,-3.59825 -3.25321,-3.59825 -3.25321,-10.08002 0,-6.40784 3.15463,-10.25254 3.15463,-3.86935 8.50271,-3.86935 4.73194,0 7.46759,3.3025 2.73566,3.3025 2.73566,8.97097 l 0,1.97165 -19.29745,0 q 0.0493,5.52059 2.56313,8.42877 2.53849,2.90817 7.24579,2.90817 2.29203,0 4.01722,-0.32039 1.74983,-0.32039 4.41155,-1.38015 l 0,2.2181 q -2.26739,0.98582 -4.18974,1.33085 -1.92235,0.36969 -4.23903,0.36969 z m -0.71472,-25.63135 q -3.86935,0 -6.21068,2.56313 -2.34132,2.53849 -2.73565,7.34437 l 16.5618,0 q 0,-4.65801 -2.02094,-7.27043 -2.02093,-2.63707 -5.59453,-2.63707 z"
           style="font-style:normal;font-variant:normal;font-weight:300;font-stretch:normal;font-size:50.47404861px;line-height:125%;font-family:'Open Sans';-inkscape-font-specification:'Open Sans, Light';text-align:start;writing-mode:lr-tb;text-anchor:start"
           id="path3369" />
        <path
           d="m 313.97656,993.84418 0,-17.57227 q 0,-3.91864 -1.52802,-5.71776 -1.52802,-1.79912 -4.68265,-1.79912 -4.1158,0 -6.08745,2.26739 -1.97164,2.26738 -1.97164,7.12255 l 0,15.69921 -2.4892,0 0,-18.31163 q 0,-6.77752 -6.21067,-6.77752 -4.21439,0 -6.13674,2.46455 -1.92235,2.43991 -1.92235,7.83728 l 0,14.78732 -2.43991,0 0,-26.7897 2.02094,0 0.51755,3.67219 0.14788,0 q 1.10904,-1.99629 3.15462,-3.08069 2.04558,-1.10905 4.51014,-1.10905 6.3339,0 8.13302,4.75659 l 0.0986,0 q 1.30622,-2.29204 3.49967,-3.52432 2.2181,-1.23227 5.02769,-1.23227 4.3869,0 6.58035,2.34132 2.19346,2.34133 2.19346,7.44295 l 0,17.52298 -2.41527,0 z"
           style="font-style:normal;font-variant:normal;font-weight:300;font-stretch:normal;font-size:50.47404861px;line-height:125%;font-family:'Open Sans';-inkscape-font-specification:'Open Sans, Light';text-align:start;writing-mode:lr-tb;text-anchor:start"
           id="path3371" />
        <path
           d="m 338.44959,993.84418 0,-36.03199 5.89032,0 0,36.03199 -5.89032,0 z"
           style="font-style:normal;font-variant:normal;font-weight:600;font-stretch:normal;font-size:50.47435379px;line-height:125%;font-family:'Open Sans';-inkscape-font-specification:'Open Sans, Semi-Bold';text-align:start;writing-mode:lr-tb;text-anchor:start"
           id="path3373" />
        <path
           d="m 377.19261,993.84418 -5.81638,0 0,-16.75907 q 0,-3.15464 -1.28158,-4.70732 -1.25693,-1.55268 -4.01725,-1.55268 -3.6722,0 -5.37275,2.16882 -1.70056,2.16882 -1.70056,7.27048 l 0,13.57977 -5.79173,0 0,-27.25813 4.5348,0 0.81331,3.57363 0.29575,0 q 1.23228,-1.94701 3.49969,-3.00677 2.2674,-1.05977 5.02771,-1.05977 9.80899,0 9.80899,9.9815 l 0,17.76954 z"
           style="font-style:normal;font-variant:normal;font-weight:600;font-stretch:normal;font-size:50.47435379px;line-height:125%;font-family:'Open Sans';-inkscape-font-specification:'Open Sans, Semi-Bold';text-align:start;writing-mode:lr-tb;text-anchor:start"
           id="path3375" />
        <path
           d="m 398.93011,970.97299 -6.65433,0 0,22.87119 -5.81638,0 0,-22.87119 -4.48552,0 0,-2.71103 4.48552,-1.77449 0,-1.77449 q 0,-4.83055 2.2674,-7.14724 2.2674,-2.34134 6.92543,-2.34134 3.05607,0 6.01355,1.01047 l -1.52803,4.38693 q -2.14418,-0.69008 -4.09119,-0.69008 -1.97165,0 -2.88354,1.23228 -0.88724,1.20764 -0.88724,3.64757 l 0,1.77448 6.65433,0 0,4.38694 z"
           style="font-style:normal;font-variant:normal;font-weight:600;font-stretch:normal;font-size:50.47435379px;line-height:125%;font-family:'Open Sans';-inkscape-font-specification:'Open Sans, Semi-Bold';text-align:start;writing-mode:lr-tb;text-anchor:start"
           id="path3377" />
        <path
           d="m 427.76553,980.16582 q 0,6.67898 -3.42575,10.42513 -3.42575,3.74614 -9.53787,3.74614 -3.82008,0 -6.75292,-1.7252 -2.93284,-1.72519 -4.51016,-4.95378 -1.57732,-3.22858 -1.57732,-7.49229 0,-6.62968 3.4011,-10.35118 3.4011,-3.7215 9.58717,-3.7215 5.91496,0 9.36536,3.82008 3.45039,3.79544 3.45039,10.2526 z m -19.83977,0 q 0,9.4393 6.97473,9.4393 6.90079,0 6.90079,-9.4393 0,-9.34071 -6.95008,-9.34071 -3.64756,0 -5.29882,2.41528 -1.62662,2.41527 -1.62662,6.92543 z"
           style="font-style:normal;font-variant:normal;font-weight:600;font-stretch:normal;font-size:50.47435379px;line-height:125%;font-family:'Open Sans';-inkscape-font-specification:'Open Sans, Semi-Bold';text-align:start;writing-mode:lr-tb;text-anchor:start"
           id="path3379" />
        <path
           d="m 448.27076,966.09314 q 1.74985,0 2.88355,0.24646 l -0.56685,5.3974 q -1.23229,-0.29575 -2.56315,-0.29575 -3.47504,0 -5.64386,2.26741 -2.14418,2.2674 -2.14418,5.89031 l 0,14.24521 -5.79173,0 0,-27.25813 4.5348,0 0.76402,4.80591 0.29575,0 q 1.35551,-2.43992 3.52433,-3.86937 2.19346,-1.42945 4.70732,-1.42945 z"
           style="font-style:normal;font-variant:normal;font-weight:600;font-stretch:normal;font-size:50.47435379px;line-height:125%;font-family:'Open Sans';-inkscape-font-specification:'Open Sans, Semi-Bold';text-align:start;writing-mode:lr-tb;text-anchor:start"
           id="path3381" />
        <path
           d="m 479.20108,993.84418 -5.81638,0 0,-16.80836 q 0,-3.13 -1.18299,-4.65803 -1.18299,-1.55268 -3.69685,-1.55268 -3.35181,0 -4.92914,2.19347 -1.55268,2.16882 -1.55268,7.24583 l 0,13.57977 -5.79173,0 0,-27.25813 4.53481,0 0.8133,3.57363 0.29575,0 q 1.1337,-1.94701 3.27788,-3.00677 2.16882,-1.05977 4.75661,-1.05977 6.28465,0 8.33024,4.28835 l 0.39433,0 q 1.20764,-2.02095 3.40111,-3.15465 2.19346,-1.1337 5.02772,-1.1337 4.87984,0 7.09795,2.46457 2.24276,2.46457 2.24276,7.51693 l 0,17.76954 -5.79174,0 0,-16.80836 q 0,-3.13 -1.20763,-4.65803 -1.183,-1.55268 -3.69686,-1.55268 -3.37645,0 -4.95378,2.11953 -1.55268,2.09488 -1.55268,6.45717 l 0,14.44237 z"
           style="font-style:normal;font-variant:normal;font-weight:600;font-stretch:normal;font-size:50.47435379px;line-height:125%;font-family:'Open Sans';-inkscape-font-specification:'Open Sans, Semi-Bold';text-align:start;writing-mode:lr-tb;text-anchor:start"
           id="path3383" />
        <path
           d="m 521.59166,993.84418 -1.15834,-3.79544 -0.19717,0 q -1.97165,2.48922 -3.96795,3.40111 -1.9963,0.88724 -5.12631,0.88724 -4.01724,0 -6.28464,-2.16882 -2.24276,-2.16882 -2.24276,-6.13677 0,-4.21441 3.13,-6.35859 3.13,-2.14417 9.53788,-2.34134 l 4.70732,-0.14787 0,-1.4541 q 0,-2.61244 -1.23228,-3.89402 -1.20764,-1.30622 -3.77079,-1.30622 -2.09488,0 -4.01725,0.61615 -1.92236,0.61614 -3.69685,1.45409 l -1.87307,-4.14047 q 2.21811,-1.15835 4.8552,-1.74985 2.63709,-0.61614 4.97843,-0.61614 5.20024,0 7.83732,2.2674 2.66174,2.26741 2.66174,7.12261 l 0,18.36103 -4.14048,0 z m -8.62599,-3.94331 q 3.15465,0 5.05237,-1.74984 1.92236,-1.77449 1.92236,-4.95379 l 0,-2.36598 -3.49968,0.14787 q -4.09119,0.14788 -5.96426,1.38016 -1.84843,1.20764 -1.84843,3.7215 0,1.82378 1.08441,2.83425 1.08441,0.98583 3.25323,0.98583 z m -1.77448,-26.64198 0,-0.61614 q 1.4048,-1.7252 2.88354,-3.84473 1.50339,-2.11953 2.36599,-3.62292 l 6.72827,0 0,0.51756 q -1.28158,1.50339 -3.84473,3.89402 -2.5385,2.36599 -4.28835,3.67221 l -3.84472,0 z"
           style="font-style:normal;font-variant:normal;font-weight:600;font-stretch:normal;font-size:50.47435379px;line-height:125%;font-family:'Open Sans';-inkscape-font-specification:'Open Sans, Semi-Bold';text-align:start;writing-mode:lr-tb;text-anchor:start"
           id="path3385" />
        <path
           d="m 543.96993,989.65441 q 2.11952,0 4.23905,-0.66543 l 0,4.36228 q -0.96118,0.41898 -2.48921,0.69008 -1.50339,0.29575 -3.13,0.29575 -8.23166,0 -8.23166,-8.67528 l 0,-14.68882 -3.7215,0 0,-2.56316 3.9926,-2.11952 1.97166,-5.76709 3.57362,0 0,6.06283 7.76339,0 0,4.38694 -7.76339,0 0,14.59024 q 0,2.09488 1.03512,3.10535 1.05976,0.98583 2.76032,0.98583 z"
           style="font-style:normal;font-variant:normal;font-weight:600;font-stretch:normal;font-size:50.47435379px;line-height:125%;font-family:'Open Sans';-inkscape-font-specification:'Open Sans, Semi-Bold';text-align:start;writing-mode:lr-tb;text-anchor:start"
           id="path3387" />
        <path
           d="m 559.42276,993.84418 -5.79173,0 0,-27.25813 5.79173,0 0,27.25813 z m -6.13677,-34.47931 q 0,-1.55268 0.83795,-2.39063 0.8626,-0.83795 2.43993,-0.83795 1.52803,0 2.36598,0.83795 0.8626,0.83795 0.8626,2.39063 0,1.47874 -0.8626,2.34134 -0.83795,0.83795 -2.36598,0.83795 -1.57733,0 -2.43993,-0.83795 -0.83795,-0.8626 -0.83795,-2.34134 z"
           style="font-style:normal;font-variant:normal;font-weight:600;font-stretch:normal;font-size:50.47435379px;line-height:125%;font-family:'Open Sans';-inkscape-font-specification:'Open Sans, Semi-Bold';text-align:start;writing-mode:lr-tb;text-anchor:start"
           id="path3389" />
        <path
           d="m 578.72032,994.33709 q -6.18606,0 -9.41465,-3.59827 -3.20394,-3.62291 -3.20394,-10.37583 0,-6.87614 3.35182,-10.573 3.37646,-3.69685 9.73504,-3.69685 4.313,0 7.76339,1.60197 l -1.74984,4.65803 q -3.67221,-1.42945 -6.06284,-1.42945 -7.07331,0 -7.07331,9.39001 0,4.5841 1.74984,6.90079 1.77449,2.29205 5.1756,2.29205 3.86937,0 7.31976,-1.92237 l 0,5.05237 q -1.55268,0.91189 -3.32716,1.30622 -1.74985,0.39433 -4.26371,0.39433 z"
           style="font-style:normal;font-variant:normal;font-weight:600;font-stretch:normal;font-size:50.47435379px;line-height:125%;font-family:'Open Sans';-inkscape-font-specification:'Open Sans, Semi-Bold';text-align:start;writing-mode:lr-tb;text-anchor:start"
           id="path3391" />
        <path
           d="m 609.82317,993.84418 -1.15835,-3.79544 -0.19716,0 q -1.97166,2.48922 -3.96796,3.40111 -1.9963,0.88724 -5.1263,0.88724 -4.01725,0 -6.28465,-2.16882 -2.24275,-2.16882 -2.24275,-6.13677 0,-4.21441 3.13,-6.35859 3.13,-2.14417 9.53787,-2.34134 l 4.70733,-0.14787 0,-1.4541 q 0,-2.61244 -1.23228,-3.89402 -1.20764,-1.30622 -3.77079,-1.30622 -2.09489,0 -4.01725,0.61615 -1.92236,0.61614 -3.69685,1.45409 l -1.87307,-4.14047 q 2.21811,-1.15835 4.8552,-1.74985 2.63708,-0.61614 4.97842,-0.61614 5.20024,0 7.83733,2.2674 2.66173,2.26741 2.66173,7.12261 l 0,18.36103 -4.14047,0 z m -8.62599,-3.94331 q 3.15465,0 5.05237,-1.74984 1.92236,-1.77449 1.92236,-4.95379 l 0,-2.36598 -3.49969,0.14787 q -4.09118,0.14788 -5.96425,1.38016 -1.84843,1.20764 -1.84843,3.7215 0,1.82378 1.08441,2.83425 1.08441,0.98583 3.25323,0.98583 z"
           style="font-style:normal;font-variant:normal;font-weight:600;font-stretch:normal;font-size:50.47435379px;line-height:125%;font-family:'Open Sans';-inkscape-font-specification:'Open Sans, Semi-Bold';text-align:start;writing-mode:lr-tb;text-anchor:start"
           id="path3393" />
        <path
           d="m 648.98515,994.33709 q -5.17559,0 -8.03449,-3.7215 l -0.34504,0 q 0.34504,3.4504 0.34504,4.18977 l 0,11.16454 -5.79174,0 0,-39.38385 4.68268,0 q 0.19717,0.76402 0.81331,3.64757 l 0.29575,0 q 2.71102,-4.14048 8.13307,-4.14048 5.10166,0 7.93591,3.69685 2.8589,3.69686 2.8589,10.37583 0,6.67898 -2.90819,10.42513 -2.88355,3.74614 -7.9852,3.74614 z m -1.4048,-23.51198 q -3.4504,0 -5.05237,2.02095 -1.57732,2.02094 -1.57732,6.45717 l 0,0.86259 q 0,4.97843 1.57732,7.22119 1.57732,2.21811 5.15095,2.21811 3.00677,0 4.63339,-2.46457 1.62661,-2.46457 1.62661,-7.02402 0,-4.58409 -1.62661,-6.92543 -1.60197,-2.36599 -4.73197,-2.36599 z"
           style="font-style:normal;font-variant:normal;font-weight:600;font-stretch:normal;font-size:50.47435379px;line-height:125%;font-family:'Open Sans';-inkscape-font-specification:'Open Sans, Semi-Bold';text-align:start;writing-mode:lr-tb;text-anchor:start"
           id="path3395" />
        <path
           d="m 683.66167,993.84418 -1.15835,-3.79544 -0.19716,0 q -1.97166,2.48922 -3.96796,3.40111 -1.9963,0.88724 -5.1263,0.88724 -4.01724,0 -6.28465,-2.16882 -2.24275,-2.16882 -2.24275,-6.13677 0,-4.21441 3.13,-6.35859 3.13,-2.14417 9.53788,-2.34134 l 4.70732,-0.14787 0,-1.4541 q 0,-2.61244 -1.23228,-3.89402 -1.20764,-1.30622 -3.77079,-1.30622 -2.09489,0 -4.01725,0.61615 -1.92236,0.61614 -3.69685,1.45409 l -1.87307,-4.14047 q 2.21811,-1.15835 4.8552,-1.74985 2.63708,-0.61614 4.97842,-0.61614 5.20024,0 7.83733,2.2674 2.66173,2.26741 2.66173,7.12261 l 0,18.36103 -4.14047,0 z m -8.62599,-3.94331 q 3.15465,0 5.05237,-1.74984 1.92236,-1.77449 1.92236,-4.95379 l 0,-2.36598 -3.49969,0.14787 q -4.09118,0.14788 -5.96425,1.38016 -1.84843,1.20764 -1.84843,3.7215 0,1.82378 1.08441,2.83425 1.08441,0.98583 3.25323,0.98583 z"
           style="font-style:normal;font-variant:normal;font-weight:600;font-stretch:normal;font-size:50.47435379px;line-height:125%;font-family:'Open Sans';-inkscape-font-specification:'Open Sans, Semi-Bold';text-align:start;writing-mode:lr-tb;text-anchor:start"
           id="path3397" />
        <path
           d="m 709.71214,966.09314 q 1.74984,0 2.88354,0.24646 l -0.56685,5.3974 q -1.23228,-0.29575 -2.56315,-0.29575 -3.47504,0 -5.64386,2.26741 -2.14417,2.2674 -2.14417,5.89031 l 0,14.24521 -5.79174,0 0,-27.25813 4.53481,0 0.76401,4.80591 0.29575,0 q 1.35551,-2.43992 3.52433,-3.86937 2.19347,-1.42945 4.70733,-1.42945 z"
           style="font-style:normal;font-variant:normal;font-weight:600;font-stretch:normal;font-size:50.47435379px;line-height:125%;font-family:'Open Sans';-inkscape-font-specification:'Open Sans, Semi-Bold';text-align:start;writing-mode:lr-tb;text-anchor:start"
           id="path3399" />
        <path
           d="m 734.72747,993.84418 -1.15835,-3.79544 -0.19717,0 q -1.97165,2.48922 -3.96795,3.40111 -1.9963,0.88724 -5.1263,0.88724 -4.01725,0 -6.28465,-2.16882 -2.24276,-2.16882 -2.24276,-6.13677 0,-4.21441 3.13,-6.35859 3.13,-2.14417 9.53788,-2.34134 l 4.70733,-0.14787 0,-1.4541 q 0,-2.61244 -1.23229,-3.89402 -1.20764,-1.30622 -3.77079,-1.30622 -2.09488,0 -4.01724,0.61615 -1.92237,0.61614 -3.69685,1.45409 l -1.87308,-4.14047 q 2.21812,-1.15835 4.8552,-1.74985 2.63709,-0.61614 4.97843,-0.61614 5.20024,0 7.83733,2.2674 2.66173,2.26741 2.66173,7.12261 l 0,18.36103 -4.14047,0 z m -8.62599,-3.94331 q 3.15464,0 5.05236,-1.74984 1.92237,-1.77449 1.92237,-4.95379 l 0,-2.36598 -3.49969,0.14787 q -4.09118,0.14788 -5.96426,1.38016 -1.84842,1.20764 -1.84842,3.7215 0,1.82378 1.08441,2.83425 1.08441,0.98583 3.25323,0.98583 z"
           style="font-style:normal;font-variant:normal;font-weight:600;font-stretch:normal;font-size:50.47435379px;line-height:125%;font-family:'Open Sans';-inkscape-font-specification:'Open Sans, Semi-Bold';text-align:start;writing-mode:lr-tb;text-anchor:start"
           id="path3401" />
        <path
           d="m 760.67942,993.84418 0,-36.03199 5.89032,0 0,36.03199 -5.89032,0 z"
           style="font-style:normal;font-variant:normal;font-weight:600;font-stretch:normal;font-size:50.47435379px;line-height:125%;font-family:'Open Sans';-inkscape-font-specification:'Open Sans, Semi-Bold';text-align:start;writing-mode:lr-tb;text-anchor:start"
           id="path3403" />
        <path
           d="m 799.42243,993.84418 -5.81638,0 0,-16.75907 q 0,-3.15464 -1.28157,-4.70732 -1.25693,-1.55268 -4.01725,-1.55268 -3.6722,0 -5.37276,2.16882 -1.70055,2.16882 -1.70055,7.27048 l 0,13.57977 -5.79173,0 0,-27.25813 4.5348,0 0.81331,3.57363 0.29575,0 q 1.23228,-1.94701 3.49968,-3.00677 2.26741,-1.05977 5.02772,-1.05977 9.80898,0 9.80898,9.9815 l 0,17.76954 z"
           style="font-style:normal;font-variant:normal;font-weight:600;font-stretch:normal;font-size:50.47435379px;line-height:125%;font-family:'Open Sans';-inkscape-font-specification:'Open Sans, Semi-Bold';text-align:start;writing-mode:lr-tb;text-anchor:start"
           id="path3405" />
        <path
           d="m 817.63557,989.65441 q 2.11953,0 4.23906,-0.66543 l 0,4.36228 q -0.96118,0.41898 -2.48921,0.69008 -1.50339,0.29575 -3.13,0.29575 -8.23166,0 -8.23166,-8.67528 l 0,-14.68882 -3.7215,0 0,-2.56316 3.9926,-2.11952 1.97166,-5.76709 3.57362,0 0,6.06283 7.76339,0 0,4.38694 -7.76339,0 0,14.59024 q 0,2.09488 1.03512,3.10535 1.05976,0.98583 2.76031,0.98583 z"
           style="font-style:normal;font-variant:normal;font-weight:600;font-stretch:normal;font-size:50.47435379px;line-height:125%;font-family:'Open Sans';-inkscape-font-specification:'Open Sans, Semi-Bold';text-align:start;writing-mode:lr-tb;text-anchor:start"
           id="path3407" />
        <path
           d="m 839.20054,994.33709 q -6.35858,0 -9.95685,-3.69685 -3.57363,-3.7215 -3.57363,-10.22796 0,-6.67898 3.32717,-10.49906 3.32717,-3.82008 9.14355,-3.82008 5.3974,0 8.5274,3.27788 3.13,3.27787 3.13,9.02032 l 0,3.13 -18.16386,0 q 0.12323,3.96795 2.14417,6.11213 2.02095,2.11952 5.69315,2.11952 2.41528,0 4.48552,-0.44362 2.09488,-0.46827 4.48551,-1.52803 l 0,4.70732 q -2.11953,1.01048 -4.28835,1.42945 -2.16882,0.41898 -4.95378,0.41898 z m -1.05976,-23.85702 q -2.76032,0 -4.43622,1.74985 -1.65127,1.74984 -1.97166,5.10165 l 12.37213,0 q -0.0493,-3.37646 -1.62661,-5.10165 -1.57733,-1.74985 -4.33764,-1.74985 z"
           style="font-style:normal;font-variant:normal;font-weight:600;font-stretch:normal;font-size:50.47435379px;line-height:125%;font-family:'Open Sans';-inkscape-font-specification:'Open Sans, Semi-Bold';text-align:start;writing-mode:lr-tb;text-anchor:start"
           id="path3409" />
        <path
           d="m 870.20481,966.09314 q 1.74985,0 2.88355,0.24646 l -0.56685,5.3974 q -1.23229,-0.29575 -2.56315,-0.29575 -3.47504,0 -5.64386,2.26741 -2.14418,2.2674 -2.14418,5.89031 l 0,14.24521 -5.79173,0 0,-27.25813 4.5348,0 0.76402,4.80591 0.29575,0 q 1.35551,-2.43992 3.52433,-3.86937 2.19347,-1.42945 4.70732,-1.42945 z"
           style="font-style:normal;font-variant:normal;font-weight:600;font-stretch:normal;font-size:50.47435379px;line-height:125%;font-family:'Open Sans';-inkscape-font-specification:'Open Sans, Semi-Bold';text-align:start;writing-mode:lr-tb;text-anchor:start"
           id="path3411" />
        <path
           d="m 902.14558,993.84418 -5.81638,0 0,-16.75907 q 0,-3.15464 -1.28158,-4.70732 -1.25693,-1.55268 -4.01724,-1.55268 -3.67221,0 -5.37276,2.16882 -1.70055,2.16882 -1.70055,7.27048 l 0,13.57977 -5.79174,0 0,-27.25813 4.53481,0 0.8133,3.57363 0.29575,0 q 1.23229,-1.94701 3.49969,-3.00677 2.2674,-1.05977 5.02772,-1.05977 9.80898,0 9.80898,9.9815 l 0,17.76954 z"
           style="font-style:normal;font-variant:normal;font-weight:600;font-stretch:normal;font-size:50.47435379px;line-height:125%;font-family:'Open Sans';-inkscape-font-specification:'Open Sans, Semi-Bold';text-align:start;writing-mode:lr-tb;text-anchor:start"
           id="path3413" />
        <path
           d="m 922.10862,994.33709 q -6.35858,0 -9.95685,-3.69685 -3.57363,-3.7215 -3.57363,-10.22796 0,-6.67898 3.32717,-10.49906 3.32717,-3.82008 9.14355,-3.82008 5.3974,0 8.5274,3.27788 3.13001,3.27787 3.13001,9.02032 l 0,3.13 -18.16387,0 q 0.12323,3.96795 2.14417,6.11213 2.02095,2.11952 5.69316,2.11952 2.41527,0 4.48551,-0.44362 2.09488,-0.46827 4.48551,-1.52803 l 0,4.70732 q -2.11952,1.01048 -4.28834,1.42945 -2.16882,0.41898 -4.95379,0.41898 z m -1.05976,-23.85702 q -2.76032,0 -4.43622,1.74985 -1.65126,1.74984 -1.97166,5.10165 l 12.37213,0 q -0.0493,-3.37646 -1.62661,-5.10165 -1.57732,-1.74985 -4.33764,-1.74985 z"
           style="font-style:normal;font-variant:normal;font-weight:600;font-stretch:normal;font-size:50.47435379px;line-height:125%;font-family:'Open Sans';-inkscape-font-specification:'Open Sans, Semi-Bold';text-align:start;writing-mode:lr-tb;text-anchor:start"
           id="path3415" />
        <path
           d="m 949.44069,989.65441 q 2.11953,0 4.23906,-0.66543 l 0,4.36228 q -0.96119,0.41898 -2.48922,0.69008 -1.50338,0.29575 -3.13,0.29575 -8.23166,0 -8.23166,-8.67528 l 0,-14.68882 -3.72149,0 0,-2.56316 3.9926,-2.11952 1.97165,-5.76709 3.57362,0 0,6.06283 7.76339,0 0,4.38694 -7.76339,0 0,14.59024 q 0,2.09488 1.03512,3.10535 1.05977,0.98583 2.76032,0.98583 z"
           style="font-style:normal;font-variant:normal;font-weight:600;font-stretch:normal;font-size:50.47435379px;line-height:125%;font-family:'Open Sans';-inkscape-font-specification:'Open Sans, Semi-Bold';text-align:start;writing-mode:lr-tb;text-anchor:start"
           id="path3417" />
      </g>
    </g>
  </g>
</svg>
