<?xml version="1.0" encoding="UTF-8" standalone="no"?>
<!-- Created with Inkscape (http://www.inkscape.org/) -->

<svg
   xmlns:dc="http://purl.org/dc/elements/1.1/"
   xmlns:cc="http://creativecommons.org/ns#"
   xmlns:rdf="http://www.w3.org/1999/02/22-rdf-syntax-ns#"
   xmlns:svg="http://www.w3.org/2000/svg"
   xmlns="http://www.w3.org/2000/svg"
   xmlns:sodipodi="http://sodipodi.sourceforge.net/DTD/sodipodi-0.dtd"
   xmlns:inkscape="http://www.inkscape.org/namespaces/inkscape"
   width="297mm"
   height="105mm"
   id="svg3494"
   version="1.1"
   inkscape:version="0.91 r13725"
   sodipodi:docname="ifrs.svg"
   inkscape:export-filename="/home/marcio/ifrs.png"
   inkscape:export-xdpi="599.8988"
   inkscape:export-ydpi="599.8988">
  <defs
     id="defs3496" />
  <sodipodi:namedview
     id="base"
     pagecolor="#ffffff"
     bordercolor="#666666"
     borderopacity="1.0"
     inkscape:pageopacity="0.0"
     inkscape:pageshadow="2"
     inkscape:zoom="0.51913005"
     inkscape:cx="564.25081"
     inkscape:cy="399.39101"
     inkscape:document-units="px"
     inkscape:current-layer="g3350"
     showgrid="true"
     inkscape:window-width="1366"
     inkscape:window-height="744"
     inkscape:window-x="0"
     inkscape:window-y="24"
     inkscape:window-maximized="1"
     showguides="true"
     inkscape:guide-bbox="true">
    <inkscape:grid
       type="xygrid"
       id="grid3382" />
  </sodipodi:namedview>
  <metadata
     id="metadata3499">
    <rdf:RDF>
      <cc:Work
         rdf:about="">
        <dc:format>image/svg+xml</dc:format>
        <dc:type
           rdf:resource="http://purl.org/dc/dcmitype/StillImage" />
        <dc:title></dc:title>
      </cc:Work>
    </rdf:RDF>
  </metadata>
  <g
     inkscape:label="Camada 1"
     inkscape:groupmode="layer"
     id="layer1"
     transform="translate(0,-680.31527)">
    <g
       id="g3350"
       transform="translate(-5.2145621,194.10471)">
      <path
         style="fill:#c8191e;fill-opacity:1;stroke:none;stroke-width:1;stroke-miterlimit:4;stroke-dasharray:1, 8;stroke-dashoffset:0;stroke-opacity:1"
         d="m 67.345402,528.58496 c 17.919352,0 32.345402,14.42605 32.345402,32.3454 0,17.91936 -14.42605,32.3454 -32.345402,32.3454 C 49.426049,593.27576 35,578.84972 35,560.93036 c 0,-17.91935 14.426049,-32.3454 32.345402,-32.3454 z"
         id="rect3388" />
      <path
         style="fill:#32a041;fill-opacity:1;stroke:none;stroke-width:1;stroke-miterlimit:4;stroke-dasharray:1, 8;stroke-dashoffset:0;stroke-opacity:1"
         d="m 114.39327,531.52545 47.04785,0 c 3.25806,0 5.88098,2.62292 5.88098,5.88098 l 0,47.04786 c 0,3.25806 -2.62292,5.88098 -5.88098,5.88098 l -47.04785,0 c -3.25807,0 -5.88099,-2.62292 -5.88099,-5.88098 l 0,-47.04786 c 0,-3.25806 2.62292,-5.88098 5.88099,-5.88098 z"
         id="rect3396" />
      <path
         style="fill:#32a041;fill-opacity:1;stroke:none;stroke-width:1;stroke-miterlimit:4;stroke-dasharray:1, 8;stroke-dashoffset:0;stroke-opacity:1"
         d="m 184.96504,531.52545 47.04786,0 c 3.25806,0 5.88098,2.62292 5.88098,5.88098 l 0,47.04786 c 0,3.25806 -2.62292,5.88098 -5.88098,5.88098 l -47.04786,0 c -3.25806,0 -5.88098,-2.62292 -5.88098,-5.88098 l 0,-47.04786 c 0,-3.25806 2.62292,-5.88098 5.88098,-5.88098 z"
         id="rect3398" />
      <path
         style="fill:#32a041;fill-opacity:1;stroke:none;stroke-width:1;stroke-miterlimit:4;stroke-dasharray:1, 8;stroke-dashoffset:0;stroke-opacity:1"
         d="m 43.821477,602.09723 47.047853,0 c 3.258065,0 5.880983,2.62292 5.880983,5.88098 l 0,47.04785 c 0,3.25807 -2.622918,5.88099 -5.880983,5.88099 l -47.047853,0 c -3.258064,0 -5.880982,-2.62292 -5.880982,-5.88099 l 0,-47.04785 c 0,-3.25806 2.622918,-5.88098 5.880982,-5.88098 z"
         id="rect3400" />
      <path
         style="fill:#32a041;fill-opacity:1;stroke:none;stroke-width:1;stroke-miterlimit:4;stroke-dasharray:1, 8;stroke-dashoffset:0;stroke-opacity:1"
         d="m 114.39327,602.09723 47.04785,0 c 3.25806,0 5.88098,2.62292 5.88098,5.88098 l 0,47.04785 c 0,3.25807 -2.62292,5.88099 -5.88098,5.88099 l -47.04785,0 c -3.25807,0 -5.88099,-2.62292 -5.88099,-5.88099 l 0,-47.04785 c 0,-3.25806 2.62292,-5.88098 5.88099,-5.88098 z"
         id="rect3402" />
      <path
         style="fill:#32a041;fill-opacity:1;stroke:none;stroke-width:1;stroke-miterlimit:4;stroke-dasharray:1, 8;stroke-dashoffset:0;stroke-opacity:1"
         d="m 43.821477,672.66907 47.047853,0 c 3.258065,0 5.880983,2.62292 5.880983,5.88098 l 0,47.04785 c 0,3.25807 -2.622918,5.88099 -5.880983,5.88099 l -47.047853,0 c -3.258064,0 -5.880982,-2.62292 -5.880982,-5.88099 l 0,-47.04785 c 0,-3.25806 2.622918,-5.88098 5.880982,-5.88098 z"
         id="rect3406" />
      <path
         style="fill:#32a041;fill-opacity:1;stroke:none;stroke-width:1;stroke-miterlimit:4;stroke-dasharray:1, 8;stroke-dashoffset:0;stroke-opacity:1"
         d="m 114.39327,672.66907 47.04785,0 c 3.25806,0 5.88098,2.62292 5.88098,5.88098 l 0,47.04785 c 0,3.25807 -2.62292,5.88099 -5.88098,5.88099 l -47.04785,0 c -3.25807,0 -5.88099,-2.62292 -5.88099,-5.88099 l 0,-47.04785 c 0,-3.25806 2.62292,-5.88098 5.88099,-5.88098 z"
         id="rect3408" />
      <path
         style="fill:#32a041;fill-opacity:1;stroke:none;stroke-width:1;stroke-miterlimit:4;stroke-dasharray:1, 8;stroke-dashoffset:0;stroke-opacity:1"
         d="m 184.96504,672.66907 47.04786,0 c 3.25806,0 5.88098,2.62292 5.88098,5.88098 l 0,47.04785 c 0,3.25807 -2.62292,5.88099 -5.88098,5.88099 l -47.04786,0 c -3.25806,0 -5.88098,-2.62292 -5.88098,-5.88099 l 0,-47.04785 c 0,-3.25806 2.62292,-5.88098 5.88098,-5.88098 z"
         id="rect3410" />
      <path
         style="fill:#32a041;fill-opacity:1;stroke:none;stroke-width:1;stroke-miterlimit:4;stroke-dasharray:1, 8;stroke-dashoffset:0;stroke-opacity:1"
         d="m 43.821477,743.24084 47.047853,0 c 3.258065,0 5.880983,2.62292 5.880983,5.88099 l 0,47.04785 c 0,3.25806 -2.622918,5.88098 -5.880983,5.88098 l -47.047853,0 c -3.258064,0 -5.880982,-2.62292 -5.880982,-5.88098 l 0,-47.04785 c 0,-3.25807 2.622918,-5.88099 5.880982,-5.88099 z"
         id="rect3412" />
      <path
         style="fill:#32a041;fill-opacity:1;stroke:none;stroke-width:1;stroke-miterlimit:4;stroke-dasharray:1, 8;stroke-dashoffset:0;stroke-opacity:1"
         d="m 114.39327,743.24084 47.04785,0 c 3.25806,0 5.88098,2.62292 5.88098,5.88099 l 0,47.04785 c 0,3.25806 -2.62292,5.88098 -5.88098,5.88098 l -47.04785,0 c -3.25807,0 -5.88099,-2.62292 -5.88099,-5.88098 l 0,-47.04785 c 0,-3.25807 2.62292,-5.88099 5.88099,-5.88099 z"
         id="rect3414" />
      <g
         transform="scale(0.98568811,1.0145197)"
         style="font-style:normal;font-variant:normal;font-weight:bold;font-stretch:normal;font-size:78.88288879px;line-height:125%;font-family:'Open Sans';-inkscape-font-specification:'Open Sans, Bold';text-align:start;letter-spacing:0px;word-spacing:0px;writing-mode:lr-tb;text-anchor:start;fill:#000000;fill-opacity:1;stroke:none;stroke-width:1px;stroke-linecap:butt;stroke-linejoin:miter;stroke-opacity:1"
         id="text4218">
        <path
           d="m 271.17982,650.67786 0,-56.31191 11.94028,0 0,56.31191 -11.94028,0 z"
           style="font-style:normal;font-variant:normal;font-weight:bold;font-stretch:normal;font-size:78.88288879px;line-height:125%;font-family:'Open Sans';-inkscape-font-specification:'Open Sans, Bold';text-align:start;writing-mode:lr-tb;text-anchor:start"
           id="path3381" />
        <path
           d="m 347.328,650.67786 -15.17572,0 -24.49683,-42.59984 -0.34665,0 q 0.73182,11.28549 0.73182,16.10012 l 0,26.49972 -10.66922,0 0,-56.31191 15.06016,0 24.45832,42.17615 0.26962,0 q -0.57776,-10.97735 -0.57776,-15.52236 l 0,-26.65379 10.74626,0 0,56.31191 z"
           style="font-style:normal;font-variant:normal;font-weight:bold;font-stretch:normal;font-size:78.88288879px;line-height:125%;font-family:'Open Sans';-inkscape-font-specification:'Open Sans, Bold';text-align:start;writing-mode:lr-tb;text-anchor:start"
           id="path3383" />
        <path
           d="m 394.70395,635.03994 q 0,7.62637 -5.50794,12.01732 -5.46942,4.39094 -15.25275,4.39094 -9.01298,0 -15.94605,-3.3895 l 0,-11.09291 q 5.70052,2.54213 9.62926,3.58209 3.96725,1.03996 7.2412,1.03996 3.92874,0 6.00866,-1.50217 2.11844,-1.50216 2.11844,-4.46797 0,-1.65624 -0.92441,-2.9273 -0.92441,-1.30958 -2.73471,-2.50361 -1.77178,-1.19402 -7.27972,-3.81318 -5.16128,-2.42658 -7.74193,-4.66056 -2.58064,-2.23399 -4.12132,-5.1998 -1.54068,-2.96582 -1.54068,-6.93307 0,-7.47231 5.04573,-11.7477 5.08425,-4.27539 14.0202,-4.27539 4.39095,0 8.3582,1.03996 4.00577,1.03996 8.3582,2.9273 l -3.85171,9.2826 q -4.50649,-1.84881 -7.4723,-2.58064 -2.9273,-0.73182 -5.77756,-0.73182 -3.3895,0 -5.1998,1.5792 -1.8103,1.57919 -1.8103,4.12132 0,1.5792 0.73183,2.77323 0.73182,1.15551 2.31102,2.2725 1.61771,1.07848 7.58785,3.92874 7.896,3.77467 10.82329,7.58785 2.9273,3.77467 2.9273,9.28261 z"
           style="font-style:normal;font-variant:normal;font-weight:bold;font-stretch:normal;font-size:78.88288879px;line-height:125%;font-family:'Open Sans';-inkscape-font-specification:'Open Sans, Bold';text-align:start;writing-mode:lr-tb;text-anchor:start"
           id="path3385" />
        <path
           d="m 426.63456,650.67786 -11.94028,0 0,-46.37451 -15.29126,0 0,-9.9374 42.52281,0 0,9.9374 -15.29127,0 0,46.37451 z"
           style="font-style:normal;font-variant:normal;font-weight:bold;font-stretch:normal;font-size:78.88288879px;line-height:125%;font-family:'Open Sans';-inkscape-font-specification:'Open Sans, Bold';text-align:start;writing-mode:lr-tb;text-anchor:start"
           id="path3387" />
        <path
           d="m 450.6692,650.67786 0,-56.31191 11.94028,0 0,56.31191 -11.94028,0 z"
           style="font-style:normal;font-variant:normal;font-weight:bold;font-stretch:normal;font-size:78.88288879px;line-height:125%;font-family:'Open Sans';-inkscape-font-specification:'Open Sans, Bold';text-align:start;writing-mode:lr-tb;text-anchor:start"
           id="path3389" />
        <path
           d="m 498.58439,650.67786 -11.94028,0 0,-46.37451 -15.29126,0 0,-9.9374 42.52281,0 0,9.9374 -15.29127,0 0,46.37451 z"
           style="font-style:normal;font-variant:normal;font-weight:bold;font-stretch:normal;font-size:78.88288879px;line-height:125%;font-family:'Open Sans';-inkscape-font-specification:'Open Sans, Bold';text-align:start;writing-mode:lr-tb;text-anchor:start"
           id="path3391" />
        <path
           d="m 568.4543,594.36595 0,36.43712 q 0,6.23976 -2.81175,10.93883 -2.77322,4.69908 -8.05006,7.20269 -5.27683,2.50361 -12.47952,2.50361 -10.8618,0 -16.87046,-5.54646 -6.00865,-5.58497 -6.00865,-15.25274 l 0,-36.28305 11.90176,0 0,34.47275 q 0,6.50938 2.61916,9.55222 2.61916,3.04285 8.66633,3.04285 5.85459,0 8.47375,-3.04285 2.65767,-3.08136 2.65767,-9.62926 l 0,-34.39571 11.90177,0 z"
           style="font-style:normal;font-variant:normal;font-weight:bold;font-stretch:normal;font-size:78.88288879px;line-height:125%;font-family:'Open Sans';-inkscape-font-specification:'Open Sans, Bold';text-align:start;writing-mode:lr-tb;text-anchor:start"
           id="path3393" />
        <path
           d="m 603.96699,650.67786 -11.94028,0 0,-46.37451 -15.29126,0 0,-9.9374 42.52281,0 0,9.9374 -15.29127,0 0,46.37451 z"
           style="font-style:normal;font-variant:normal;font-weight:bold;font-stretch:normal;font-size:78.88288879px;line-height:125%;font-family:'Open Sans';-inkscape-font-specification:'Open Sans, Bold';text-align:start;writing-mode:lr-tb;text-anchor:start"
           id="path3395" />
        <path
           d="m 679.11373,622.44487 q 0,13.98168 -6.93307,21.49251 -6.93306,7.51082 -19.87479,7.51082 -12.94172,0 -19.87479,-7.51082 -6.93306,-7.51083 -6.93306,-21.56954 0,-14.05872 6.93306,-21.45399 6.97159,-7.43379 19.95183,-7.43379 12.98024,0 19.83627,7.4723 6.89455,7.47231 6.89455,21.49251 z m -41.09768,0 q 0,9.43667 3.58209,14.21279 3.58208,4.77611 10.70773,4.77611 14.28982,0 14.28982,-18.9889 0,-19.02742 -14.21278,-19.02742 -7.12565,0 -10.74626,4.81463 -3.6206,4.77612 -3.6206,14.21279 z"
           style="font-style:normal;font-variant:normal;font-weight:bold;font-stretch:normal;font-size:78.88288879px;line-height:125%;font-family:'Open Sans';-inkscape-font-specification:'Open Sans, Bold';text-align:start;writing-mode:lr-tb;text-anchor:start"
           id="path3397" />
        <path
           d="m 723.10018,650.67786 -11.7477,0 0,-56.31191 32.27728,0 0,9.78333 -20.52958,0 0,14.52092 19.10445,0 0,9.74481 -19.10445,0 0,22.26285 z"
           style="font-style:normal;font-variant:normal;font-weight:bold;font-stretch:normal;font-size:78.88288879px;line-height:125%;font-family:'Open Sans';-inkscape-font-specification:'Open Sans, Bold';text-align:start;writing-mode:lr-tb;text-anchor:start"
           id="path3399" />
        <path
           d="m 787.07698,650.67786 -32.43134,0 0,-56.31191 32.43134,0 0,9.78333 -20.49106,0 0,12.36397 19.06593,0 0,9.78332 -19.06593,0 0,14.52093 20.49106,0 0,9.86036 z"
           style="font-style:normal;font-variant:normal;font-weight:bold;font-stretch:normal;font-size:78.88288879px;line-height:125%;font-family:'Open Sans';-inkscape-font-specification:'Open Sans, Bold';text-align:start;writing-mode:lr-tb;text-anchor:start"
           id="path3401" />
        <path
           d="m 845.58439,621.98266 q 0,13.90465 -7.93451,21.29993 -7.89599,7.39527 -22.8406,7.39527 l -15.94605,0 0,-56.31191 17.67932,0 q 13.7891,0 21.41547,7.27972 7.62637,7.27972 7.62637,20.33699 z m -12.40248,0.30814 q 0,-18.14152 -16.02309,-18.14152 l -6.35531,0 0,36.66822 5.12276,0 q 17.25564,0 17.25564,-18.5267 z"
           style="font-style:normal;font-variant:normal;font-weight:bold;font-stretch:normal;font-size:78.88288879px;line-height:125%;font-family:'Open Sans';-inkscape-font-specification:'Open Sans, Bold';text-align:start;writing-mode:lr-tb;text-anchor:start"
           id="path3403" />
        <path
           d="m 889.68636,650.67786 -32.43135,0 0,-56.31191 32.43135,0 0,9.78333 -20.49107,0 0,12.36397 19.06594,0 0,9.78332 -19.06594,0 0,14.52093 20.49107,0 0,9.86036 z"
           style="font-style:normal;font-variant:normal;font-weight:bold;font-stretch:normal;font-size:78.88288879px;line-height:125%;font-family:'Open Sans';-inkscape-font-specification:'Open Sans, Bold';text-align:start;writing-mode:lr-tb;text-anchor:start"
           id="path3405" />
        <path
           d="m 913.41288,619.36351 3.85171,0 q 5.662,0 8.35819,-1.88734 2.6962,-1.88733 2.6962,-5.93162 0,-4.00577 -2.77323,-5.70052 -2.73471,-1.69475 -8.51227,-1.69475 l -3.6206,0 0,15.21423 z m 0,9.70629 0,21.60806 -11.94028,0 0,-56.31191 16.40826,0 q 11.47808,0 16.98601,4.19836 5.50794,4.15984 5.50794,12.6721 0,4.9687 -2.73471,8.85892 -2.73471,3.8517 -7.74193,6.04717 12.71063,18.9889 16.56233,24.53536 l -13.24986,0 -13.44245,-21.60806 -6.35531,0 z"
           style="font-style:normal;font-variant:normal;font-weight:bold;font-stretch:normal;font-size:78.88288879px;line-height:125%;font-family:'Open Sans';-inkscape-font-specification:'Open Sans, Bold';text-align:start;writing-mode:lr-tb;text-anchor:start"
           id="path3407" />
        <path
           d="m 988.02036,650.67786 -4.0828,-13.40393 -20.52958,0 -4.08281,13.40393 -12.86469,0 19.87479,-56.54301 14.59796,0 19.95187,56.54301 -12.86474,0 z m -6.93307,-23.41836 q -5.662,-18.21856 -6.39382,-20.60662 -0.69331,-2.38805 -1.00145,-3.77466 -1.27106,4.93018 -7.27972,24.38128 l 14.67499,0 z"
           style="font-style:normal;font-variant:normal;font-weight:bold;font-stretch:normal;font-size:78.88288879px;line-height:125%;font-family:'Open Sans';-inkscape-font-specification:'Open Sans, Bold';text-align:start;writing-mode:lr-tb;text-anchor:start"
           id="path3409" />
        <path
           d="m 1007.9337,650.67786 0,-56.31191 11.9402,0 0,46.45155 22.8406,0 0,9.86036 -34.7808,0 z"
           style="font-style:normal;font-variant:normal;font-weight:bold;font-stretch:normal;font-size:78.88288879px;line-height:125%;font-family:'Open Sans';-inkscape-font-specification:'Open Sans, Bold';text-align:start;writing-mode:lr-tb;text-anchor:start"
           id="path3411" />
      </g>
      <g
         transform="scale(0.98568811,1.0145197)"
         style="font-style:normal;font-variant:normal;font-weight:normal;font-stretch:normal;font-size:59.16194534px;line-height:125%;font-family:'Open Sans';-inkscape-font-specification:'Open Sans, Normal';text-align:start;letter-spacing:0px;word-spacing:0px;writing-mode:lr-tb;text-anchor:start;fill:#000000;fill-opacity:1;stroke:none;stroke-width:1px;stroke-linecap:butt;stroke-linejoin:miter;stroke-opacity:1"
         id="text3468">
        <path
           d="m 276.5818,702.86843 0,17.5637 -4.91091,0 0,-42.23377 11.58396,0 q 7.77078,0 11.4684,2.97543 3.72651,2.97543 3.72651,8.95517 0,8.37743 -8.49297,11.32397 l 11.4684,18.9792 -5.80642,0 -10.22623,-17.5637 -8.81074,0 z m 0,-4.2176 6.73082,0 q 5.19978,0 7.62635,-2.05103 2.42656,-2.07991 2.42656,-6.21085 0,-4.18871 -2.48434,-6.03752 -2.45545,-1.84881 -7.91522,-1.84881 l -6.38417,0 0,16.14821 z"
           style="font-style:normal;font-variant:normal;font-weight:normal;font-stretch:normal;font-size:59.16194534px;line-height:125%;font-family:'Open Sans';-inkscape-font-specification:'Open Sans, Normal';text-align:start;writing-mode:lr-tb;text-anchor:start"
           id="path3414" />
        <path
           d="m 312.37362,720.43213 -4.79536,0 0,-31.66089 4.79536,0 0,31.66089 z m -5.19978,-40.24052 q 0,-1.6466 0.80885,-2.39768 0.80886,-0.77997 2.02214,-0.77997 1.1555,0 1.99325,0.77997 0.83774,0.77997 0.83774,2.39768 0,1.61771 -0.83774,2.42656 -0.83775,0.77997 -1.99325,0.77997 -1.21328,0 -2.02214,-0.77997 -0.80885,-0.80885 -0.80885,-2.42656 z"
           style="font-style:normal;font-variant:normal;font-weight:normal;font-stretch:normal;font-size:59.16194534px;line-height:125%;font-family:'Open Sans';-inkscape-font-specification:'Open Sans, Normal';text-align:start;writing-mode:lr-tb;text-anchor:start"
           id="path3416" />
        <path
           d="m 349.92759,704.5728 q 0,7.74189 -3.89984,12.10393 -3.89984,4.33315 -10.7751,4.33315 -4.24649,0 -7.53968,-1.99325 -3.2932,-1.99325 -5.08423,-5.71976 -1.79104,-3.7265 -1.79104,-8.72407 0,-7.7419 3.87095,-12.04616 3.87095,-4.33315 10.74621,-4.33315 6.64417,0 10.544,4.41981 3.92873,4.41982 3.92873,11.9595 z m -24.12121,0 q 0,6.06641 2.42657,9.24405 2.42656,3.17765 7.13525,3.17765 4.70869,0 7.13525,-3.14876 2.45546,-3.17764 2.45546,-9.27294 0,-6.03752 -2.45546,-9.15739 -2.42656,-3.14876 -7.19302,-3.14876 -4.70869,0 -7.10637,3.09098 -2.39768,3.09098 -2.39768,9.21517 z"
           style="font-style:normal;font-variant:normal;font-weight:normal;font-stretch:normal;font-size:59.16194534px;line-height:125%;font-family:'Open Sans';-inkscape-font-specification:'Open Sans, Normal';text-align:start;writing-mode:lr-tb;text-anchor:start"
           id="path3418" />
        <path
           d="m 392.97021,698.30417 14.35717,0 0,20.53914 q -3.35097,1.06884 -6.81749,1.61771 -3.46652,0.54886 -8.03077,0.54886 -9.5907,0 -14.93492,-5.69087 -5.34422,-5.71976 -5.34422,-16.00377 0,-6.58639 2.62878,-11.52618 2.65766,-4.96868 7.62634,-7.56857 4.96868,-2.62877 11.64173,-2.62877 6.75972,0 12.59502,2.48434 l -1.90658,4.33315 q -5.71976,-2.42657 -11.0062,-2.42657 -7.71301,0 -12.04616,4.59314 -4.33315,4.59314 -4.33315,12.73946 0,8.55075 4.15982,12.97057 4.18871,4.41981 12.27726,4.41981 4.39093,0 8.57964,-1.01107 l 0,-12.99945 -9.44627,0 0,-4.39093 z"
           style="font-style:normal;font-variant:normal;font-weight:normal;font-stretch:normal;font-size:59.16194534px;line-height:125%;font-family:'Open Sans';-inkscape-font-specification:'Open Sans, Normal';text-align:start;writing-mode:lr-tb;text-anchor:start"
           id="path3420" />
        <path
           d="m 431.21749,688.19349 q 2.1088,0 3.78428,0.34665 l -0.66442,4.4487 q -1.96436,-0.43331 -3.46652,-0.43331 -3.84206,0 -6.58638,3.11987 -2.71544,3.11987 -2.71544,7.77078 l 0,16.98595 -4.79536,0 0,-31.66089 3.95761,0 0.54887,5.8642 0.2311,0 q 1.76215,-3.09098 4.24649,-4.76646 2.48434,-1.67549 5.45977,-1.67549 z"
           style="font-style:normal;font-variant:normal;font-weight:normal;font-stretch:normal;font-size:59.16194534px;line-height:125%;font-family:'Open Sans';-inkscape-font-specification:'Open Sans, Normal';text-align:start;writing-mode:lr-tb;text-anchor:start"
           id="path3422" />
        <path
           d="m 460.39403,720.43213 -0.9533,-4.50648 -0.2311,0 q -2.36879,2.97543 -4.73758,4.04428 -2.3399,1.03995 -5.86419,1.03995 -4.70869,0 -7.39525,-2.42656 -2.65766,-2.42657 -2.65766,-6.90415 0,-9.59071 15.33935,-10.05291 l 5.37311,-0.17333 0,-1.96436 q 0,-3.72651 -1.61771,-5.48866 -1.58882,-1.79103 -5.11312,-1.79103 -3.95761,0 -8.95518,2.42656 l -1.47327,-3.66873 q 2.3399,-1.27106 5.11312,-1.99325 2.8021,-0.72219 5.60421,-0.72219 5.66198,0 8.37742,2.51322 2.74433,2.51323 2.74433,8.05966 l 0,21.60798 -3.55318,0 z m -10.83288,-3.37986 q 4.47759,0 7.0197,-2.45545 2.57101,-2.45545 2.57101,-6.87527 l 0,-2.85987 -4.79536,0.20221 q -5.71975,0.20221 -8.26187,1.79103 -2.51323,1.55994 -2.51323,4.88202 0,2.59989 1.55994,3.95761 1.58882,1.35772 4.41981,1.35772 z"
           style="font-style:normal;font-variant:normal;font-weight:normal;font-stretch:normal;font-size:59.16194534px;line-height:125%;font-family:'Open Sans';-inkscape-font-specification:'Open Sans, Normal';text-align:start;writing-mode:lr-tb;text-anchor:start"
           id="path3424" />
        <path
           d="m 495.52144,720.43213 0,-20.48136 q 0,-3.87095 -1.76215,-5.77753 -1.76215,-1.90659 -5.51755,-1.90659 -4.96868,0 -7.27969,2.68656 -2.31101,2.68655 -2.31101,8.86851 l 0,16.61041 -4.79536,0 0,-31.66089 3.89984,0 0.77997,4.33315 0.2311,0 q 1.47327,-2.3399 4.13093,-3.61095 2.65767,-1.29995 5.92198,-1.29995 5.71975,0 8.60852,2.77322 2.88877,2.74433 2.88877,8.81074 l 0,20.65468 -4.79535,0 z"
           style="font-style:normal;font-variant:normal;font-weight:normal;font-stretch:normal;font-size:59.16194534px;line-height:125%;font-family:'Open Sans';-inkscape-font-specification:'Open Sans, Normal';text-align:start;writing-mode:lr-tb;text-anchor:start"
           id="path3426" />
        <path
           d="m 531.6888,716.18564 -0.25999,0 q -3.32208,4.82424 -9.93736,4.82424 -6.21085,0 -9.67737,-4.24649 -3.43763,-4.24648 -3.43763,-12.07504 0,-7.82856 3.46652,-12.16171 3.46652,-4.33315 9.64848,-4.33315 6.44195,0 9.87958,4.6798 l 0.37554,0 -0.20221,-2.28212 -0.11555,-2.22435 0,-12.8839 4.79535,0 0,44.94921 -3.89983,0 -0.63553,-4.24649 z m -9.59071,0.80886 q 4.91091,0 7.10637,-2.65767 2.22435,-2.68655 2.22435,-8.63741 l 0,-1.01107 q 0,-6.73083 -2.25324,-9.59071 -2.22435,-2.88876 -7.13525,-2.88876 -4.2176,0 -6.47084,3.29319 -2.22435,3.26431 -2.22435,9.24405 0,6.06642 2.22435,9.1574 2.22435,3.09098 6.52861,3.09098 z"
           style="font-style:normal;font-variant:normal;font-weight:normal;font-stretch:normal;font-size:59.16194534px;line-height:125%;font-family:'Open Sans';-inkscape-font-specification:'Open Sans, Normal';text-align:start;writing-mode:lr-tb;text-anchor:start"
           id="path3428" />
        <path
           d="m 559.7965,721.00988 q -7.0197,0 -11.09286,-4.27537 -4.04428,-4.27538 -4.04428,-11.87283 0,-7.65524 3.7554,-12.16171 3.78428,-4.50648 10.13957,-4.50648 5.95086,0 9.41738,3.92872 3.46652,3.89984 3.46652,10.3129 l 0,3.03321 -21.81019,0 q 0.14444,5.57532 2.80211,8.46408 2.68655,2.88877 7.53968,2.88877 5.11311,0 10.11068,-2.13769 l 0,4.27538 q -2.54211,1.09773 -4.82424,1.55993 -2.25324,0.49109 -5.45977,0.49109 z m -1.29994,-28.801 q -3.81318,0 -6.0953,2.48434 -2.25324,2.48434 -2.65767,6.87526 l 16.55264,0 q 0,-4.53536 -2.02214,-6.93304 -2.02214,-2.42656 -5.77753,-2.42656 z"
           style="font-style:normal;font-variant:normal;font-weight:normal;font-stretch:normal;font-size:59.16194534px;line-height:125%;font-family:'Open Sans';-inkscape-font-specification:'Open Sans, Normal';text-align:start;writing-mode:lr-tb;text-anchor:start"
           id="path3430" />
        <path
           d="m 616.50299,716.18564 -0.25999,0 q -3.32208,4.82424 -9.93736,4.82424 -6.21084,0 -9.67736,-4.24649 -3.43764,-4.24648 -3.43764,-12.07504 0,-7.82856 3.46652,-12.16171 3.46652,-4.33315 9.64848,-4.33315 6.44195,0 9.87959,4.6798 l 0.37554,0 -0.20222,-2.28212 -0.11555,-2.22435 0,-12.8839 4.79536,0 0,44.94921 -3.89984,0 -0.63553,-4.24649 z m -9.5907,0.80886 q 4.9109,0 7.10636,-2.65767 2.22435,-2.68655 2.22435,-8.63741 l 0,-1.01107 q 0,-6.73083 -2.25324,-9.59071 -2.22435,-2.88876 -7.13525,-2.88876 -4.2176,0 -6.47084,3.29319 -2.22435,3.26431 -2.22435,9.24405 0,6.06642 2.22435,9.1574 2.22435,3.09098 6.52862,3.09098 z"
           style="font-style:normal;font-variant:normal;font-weight:normal;font-stretch:normal;font-size:59.16194534px;line-height:125%;font-family:'Open Sans';-inkscape-font-specification:'Open Sans, Normal';text-align:start;writing-mode:lr-tb;text-anchor:start"
           id="path3432" />
        <path
           d="m 658.56345,704.5728 q 0,7.74189 -3.89983,12.10393 -3.89984,4.33315 -10.7751,4.33315 -4.24649,0 -7.53968,-1.99325 -3.2932,-1.99325 -5.08423,-5.71976 -1.79104,-3.7265 -1.79104,-8.72407 0,-7.7419 3.87095,-12.04616 3.87095,-4.33315 10.74621,-4.33315 6.64417,0 10.544,4.41981 3.92872,4.41982 3.92872,11.9595 z m -24.1212,0 q 0,6.06641 2.42656,9.24405 2.42657,3.17765 7.13526,3.17765 4.70869,0 7.13525,-3.14876 2.45545,-3.17764 2.45545,-9.27294 0,-6.03752 -2.45545,-9.15739 -2.42656,-3.14876 -7.19303,-3.14876 -4.70869,0 -7.10636,3.09098 -2.39768,3.09098 -2.39768,9.21517 z"
           style="font-style:normal;font-variant:normal;font-weight:normal;font-stretch:normal;font-size:59.16194534px;line-height:125%;font-family:'Open Sans';-inkscape-font-specification:'Open Sans, Normal';text-align:start;writing-mode:lr-tb;text-anchor:start"
           id="path3434" />
        <path
           d="m 706.86363,709.19483 q 0,5.57532 -4.04427,8.69518 -4.04428,3.11987 -10.97732,3.11987 -7.51079,0 -11.55506,-1.93547 l 0,-4.73758 q 2.59989,1.09773 5.66198,1.73326 3.06209,0.63553 6.06641,0.63553 4.9109,0 7.39524,-1.84881 2.48434,-1.8777 2.48434,-5.19978 0,-2.19546 -0.89551,-3.58207 -0.86663,-1.4155 -2.94655,-2.59989 -2.05102,-1.1844 -6.26862,-2.68656 -5.89309,-2.1088 -8.4352,-4.99756 -2.51323,-2.88877 -2.51323,-7.53968 0,-4.88202 3.66874,-7.77079 3.66873,-2.88876 9.70625,-2.88876 6.29751,0 11.58396,2.31101 l -1.53105,4.27537 q -5.22867,-2.19546 -10.16846,-2.19546 -3.89983,0 -6.0953,1.67549 -2.19546,1.67548 -2.19546,4.65091 0,2.19546 0.80886,3.61096 0.80885,1.38661 2.71544,2.571 1.93547,1.15551 5.89308,2.571 6.64417,2.36879 9.1285,5.08423 2.51323,2.71545 2.51323,7.0486 z"
           style="font-style:normal;font-variant:normal;font-weight:normal;font-stretch:normal;font-size:59.16194534px;line-height:125%;font-family:'Open Sans';-inkscape-font-specification:'Open Sans, Normal';text-align:start;writing-mode:lr-tb;text-anchor:start"
           id="path3436" />
        <path
           d="m 719.28532,688.77124 0,20.53914 q 0,3.87094 1.76214,5.77753 1.76215,1.90659 5.51755,1.90659 4.96868,0 7.2508,-2.71544 2.31102,-2.71545 2.31102,-8.86852 l 0,-16.6393 4.79535,0 0,31.66089 -3.95761,0 -0.6933,-4.24649 -0.25999,0 q -1.47327,2.3399 -4.10205,3.58207 -2.59989,1.24217 -5.95086,1.24217 -5.77754,0 -8.6663,-2.74433 -2.85988,-2.74432 -2.85988,-8.78185 l 0,-20.71246 4.85313,0 z"
           style="font-style:normal;font-variant:normal;font-weight:normal;font-stretch:normal;font-size:59.16194534px;line-height:125%;font-family:'Open Sans';-inkscape-font-specification:'Open Sans, Normal';text-align:start;writing-mode:lr-tb;text-anchor:start"
           id="path3438" />
        <path
           d="m 755.85712,720.43213 -4.79535,0 0,-44.94921 4.79535,0 0,44.94921 z"
           style="font-style:normal;font-variant:normal;font-weight:normal;font-stretch:normal;font-size:59.16194534px;line-height:125%;font-family:'Open Sans';-inkscape-font-specification:'Open Sans, Normal';text-align:start;writing-mode:lr-tb;text-anchor:start"
           id="path3440" />
      </g>
      <g
         transform="scale(0.98568811,1.0145197)"
         style="font-style:normal;font-variant:normal;font-weight:normal;font-stretch:normal;font-size:59.16194534px;line-height:125%;font-family:'Open Sans';-inkscape-font-specification:'Open Sans, Normal';text-align:start;letter-spacing:0px;word-spacing:0px;writing-mode:lr-tb;text-anchor:start;fill:#000000;fill-opacity:1;stroke:none;stroke-width:1px;stroke-linecap:butt;stroke-linejoin:miter;stroke-opacity:1"
         id="text3472">
        <path
           d="m 289.75457,751.54435 q -6.96192,0 -11.0062,4.65091 -4.01538,4.62203 -4.01538,12.68169 0,8.29076 3.87094,12.82612 3.89984,4.50648 11.09287,4.50648 4.41981,0 10.08179,-1.58882 l 0,4.30426 q -4.39092,1.6466 -10.83287,1.6466 -9.33072,0 -14.41495,-5.66198 -5.05534,-5.66199 -5.05534,-16.09044 0,-6.52861 2.42656,-11.43951 2.45546,-4.91091 7.0486,-7.56857 4.62202,-2.65767 10.86176,-2.65767 6.64416,0 11.61284,2.42657 l -2.07991,4.2176 q -4.79535,-2.25324 -9.59071,-2.25324 z"
           style="font-style:normal;font-variant:normal;font-weight:normal;font-stretch:normal;font-size:59.16194534px;line-height:125%;font-family:'Open Sans';-inkscape-font-specification:'Open Sans, Normal';text-align:start;writing-mode:lr-tb;text-anchor:start"
           id="path3443" />
        <path
           d="m 327.74186,789.99384 -0.95329,-4.50648 -0.23111,0 q -2.36879,2.97543 -4.73757,4.04427 -2.33991,1.03996 -5.8642,1.03996 -4.70869,0 -7.39524,-2.42657 -2.65767,-2.42656 -2.65767,-6.90415 0,-9.5907 15.33935,-10.05291 l 5.37311,-0.17332 0,-1.96436 q 0,-3.72651 -1.61771,-5.48866 -1.58882,-1.79104 -5.11312,-1.79104 -3.95761,0 -8.95518,2.42657 l -1.47327,-3.66874 q 2.33991,-1.27105 5.11312,-1.99325 2.80211,-0.72219 5.60421,-0.72219 5.66198,0 8.37742,2.51323 2.74433,2.51323 2.74433,8.05966 l 0,21.60798 -3.55318,0 z m -10.83288,-3.37986 q 4.47759,0 7.01971,-2.45545 2.571,-2.45546 2.571,-6.87527 l 0,-2.85988 -4.79535,0.20222 q -5.71976,0.20221 -8.26188,1.79103 -2.51323,1.55994 -2.51323,4.88202 0,2.59989 1.55994,3.95761 1.58882,1.35772 4.41981,1.35772 z"
           style="font-style:normal;font-variant:normal;font-weight:normal;font-stretch:normal;font-size:59.16194534px;line-height:125%;font-family:'Open Sans';-inkscape-font-specification:'Open Sans, Normal';text-align:start;writing-mode:lr-tb;text-anchor:start"
           id="path3445" />
        <path
           d="m 381.55958,789.99384 0,-20.59691 q 0,-3.78429 -1.61771,-5.66199 -1.61771,-1.90658 -5.02645,-1.90658 -4.47759,0 -6.61528,2.571 -2.13769,2.571 -2.13769,7.91522 l 0,17.67926 -4.79535,0 0,-20.59691 q 0,-3.78429 -1.61771,-5.66199 -1.61771,-1.90658 -5.05534,-1.90658 -4.50648,0 -6.61528,2.71544 -2.07991,2.68655 -2.07991,8.83963 l 0,16.61041 -4.79535,0 0,-31.66089 3.89983,0 0.77997,4.33315 0.2311,0 q 1.35772,-2.31101 3.81317,-3.61096 2.48434,-1.29994 5.54644,-1.29994 7.42413,0 9.70625,5.3731 l 0.2311,0 q 1.4155,-2.48434 4.10205,-3.92872 2.68656,-1.44438 6.12419,-1.44438 5.3731,0 8.03077,2.77321 2.68655,2.74433 2.68655,8.81074 l 0,20.65469 -4.79535,0 z"
           style="font-style:normal;font-variant:normal;font-weight:normal;font-stretch:normal;font-size:59.16194534px;line-height:125%;font-family:'Open Sans';-inkscape-font-specification:'Open Sans, Normal';text-align:start;writing-mode:lr-tb;text-anchor:start"
           id="path3447" />
        <path
           d="m 410.93834,790.57159 q -3.09098,0 -5.66198,-1.12662 -2.54212,-1.15551 -4.27538,-3.5243 l -0.34665,0 q 0.34665,2.77322 0.34665,5.25756 l 0,13.02834 -4.79535,0 0,-45.87362 3.89983,0 0.66442,4.33315 0.2311,0 q 1.84881,-2.59989 4.30426,-3.7554 2.45546,-1.1555 5.6331,-1.1555 6.29751,0 9.70626,4.30426 3.43763,4.30426 3.43763,12.07505 0,7.79967 -3.49541,12.13282 -3.46652,4.30426 -9.64848,4.30426 z m -0.6933,-28.74323 q -4.85313,0 -7.01971,2.68655 -2.16657,2.68655 -2.22435,8.55075 l 0,1.06885 q 0,6.67305 2.22435,9.56181 2.22435,2.85988 7.13526,2.85988 4.10205,0 6.41306,-3.32208 2.3399,-3.32208 2.3399,-9.15739 0,-5.92197 -2.3399,-9.07073 -2.31101,-3.17764 -6.52861,-3.17764 z"
           style="font-style:normal;font-variant:normal;font-weight:normal;font-stretch:normal;font-size:59.16194534px;line-height:125%;font-family:'Open Sans';-inkscape-font-specification:'Open Sans, Normal';text-align:start;writing-mode:lr-tb;text-anchor:start"
           id="path3449" />
        <path
           d="m 436.99502,758.33295 0,20.53913 q 0,3.87095 1.76215,5.77754 1.76214,1.90658 5.51754,1.90658 4.96868,0 7.25081,-2.71544 2.31101,-2.71544 2.31101,-8.86851 l 0,-16.6393 4.79535,0 0,31.66089 -3.95761,0 -0.6933,-4.24649 -0.25999,0 q -1.47327,2.3399 -4.10205,3.58207 -2.59989,1.24217 -5.95086,1.24217 -5.77753,0 -8.6663,-2.74433 -2.85988,-2.74433 -2.85988,-8.78185 l 0,-20.71246 4.85313,0 z"
           style="font-style:normal;font-variant:normal;font-weight:normal;font-stretch:normal;font-size:59.16194534px;line-height:125%;font-family:'Open Sans';-inkscape-font-specification:'Open Sans, Normal';text-align:start;writing-mode:lr-tb;text-anchor:start"
           id="path3451" />
        <path
           d="m 489.19504,781.35642 q 0,4.41982 -3.2932,6.81749 -3.29319,2.39768 -9.24405,2.39768 -6.29751,0 -9.82181,-1.99325 l 0,-4.4487 q 2.28213,1.15551 4.88202,1.81992 2.62878,0.66442 5.05534,0.66442 3.7554,0 5.77753,-1.1844 2.02214,-1.21328 2.02214,-3.66873 0,-1.84881 -1.61771,-3.14876 -1.58882,-1.32883 -6.23974,-3.11986 -4.41981,-1.6466 -6.29751,-2.85988 -1.84881,-1.24217 -2.77321,-2.80211 -0.89552,-1.55993 -0.89552,-3.72651 0,-3.87094 3.14875,-6.09529 3.14876,-2.25324 8.63742,-2.25324 5.11311,0 9.99513,2.07991 l -1.70437,3.89983 q -4.76647,-1.96436 -8.63742,-1.96436 -3.40874,0 -5.142,1.06885 -1.73326,1.06884 -1.73326,2.94654 0,1.27106 0.63553,2.16657 0.66441,0.89552 2.1088,1.70438 1.44438,0.80885 5.54643,2.3399 5.6331,2.05102 7.59746,4.13093 1.99325,2.07992 1.99325,5.22867 z"
           style="font-style:normal;font-variant:normal;font-weight:normal;font-stretch:normal;font-size:59.16194534px;line-height:125%;font-family:'Open Sans';-inkscape-font-specification:'Open Sans, Normal';text-align:start;writing-mode:lr-tb;text-anchor:start"
           id="path3453" />
        <path
           d="m 517.96716,772.43013 0,17.56371 -4.91091,0 0,-42.23378 11.58396,0 q 7.77078,0 11.4684,2.97543 3.72651,2.97543 3.72651,8.95518 0,8.37742 -8.49297,11.32397 l 11.4684,18.9792 -5.80642,0 -10.22623,-17.56371 -8.81074,0 z m 0,-4.2176 6.73082,0 q 5.19978,0 7.62635,-2.05102 2.42656,-2.07991 2.42656,-6.21085 0,-4.18871 -2.48434,-6.03752 -2.45545,-1.84881 -7.91522,-1.84881 l -6.38417,0 0,16.1482 z"
           style="font-style:normal;font-variant:normal;font-weight:normal;font-stretch:normal;font-size:59.16194534px;line-height:125%;font-family:'Open Sans';-inkscape-font-specification:'Open Sans, Normal';text-align:start;writing-mode:lr-tb;text-anchor:start"
           id="path3455" />
        <path
           d="m 553.75898,789.99384 -4.79536,0 0,-31.66089 4.79536,0 0,31.66089 z m -5.19978,-40.24053 q 0,-1.64659 0.80885,-2.39767 0.80886,-0.77997 2.02214,-0.77997 1.15551,0 1.99325,0.77997 0.83774,0.77996 0.83774,2.39767 0,1.61771 -0.83774,2.42657 -0.83774,0.77996 -1.99325,0.77996 -1.21328,0 -2.02214,-0.77996 -0.80885,-0.80886 -0.80885,-2.42657 z"
           style="font-style:normal;font-variant:normal;font-weight:normal;font-stretch:normal;font-size:59.16194534px;line-height:125%;font-family:'Open Sans';-inkscape-font-specification:'Open Sans, Normal';text-align:start;writing-mode:lr-tb;text-anchor:start"
           id="path3457" />
        <path
           d="m 591.31293,774.13451 q 0,7.74189 -3.89983,12.10393 -3.89984,4.33315 -10.7751,4.33315 -4.24649,0 -7.53968,-1.99325 -3.2932,-1.99325 -5.08423,-5.71976 -1.79104,-3.72651 -1.79104,-8.72407 0,-7.7419 3.87095,-12.04616 3.87095,-4.33315 10.74621,-4.33315 6.64417,0 10.544,4.41981 3.92872,4.41981 3.92872,11.9595 z m -24.1212,0 q 0,6.06641 2.42657,9.24405 2.42656,3.17764 7.13525,3.17764 4.70869,0 7.13525,-3.14875 2.45546,-3.17765 2.45546,-9.27294 0,-6.03753 -2.45546,-9.1574 -2.42656,-3.14875 -7.19303,-3.14875 -4.70869,0 -7.10636,3.09098 -2.39768,3.09098 -2.39768,9.21517 z"
           style="font-style:normal;font-variant:normal;font-weight:normal;font-stretch:normal;font-size:59.16194534px;line-height:125%;font-family:'Open Sans';-inkscape-font-specification:'Open Sans, Normal';text-align:start;writing-mode:lr-tb;text-anchor:start"
           id="path3459" />
        <path
           d="m 634.35559,767.86588 14.35717,0 0,20.53913 q -3.35097,1.06885 -6.81749,1.61771 -3.46652,0.54887 -8.03077,0.54887 -9.59071,0 -14.93493,-5.69087 -5.34422,-5.71976 -5.34422,-16.00377 0,-6.58639 2.62878,-11.52618 2.65767,-4.96868 7.62635,-7.56857 4.96868,-2.62878 11.64173,-2.62878 6.75971,0 12.59502,2.48434 l -1.90659,4.33315 q -5.71975,-2.42656 -11.0062,-2.42656 -7.713,0 -12.04616,4.59314 -4.33315,4.59314 -4.33315,12.73946 0,8.55075 4.15983,12.97056 4.18871,4.41982 12.27726,4.41982 4.39092,0 8.57964,-1.01107 l 0,-12.99945 -9.44627,0 0,-4.39093 z"
           style="font-style:normal;font-variant:normal;font-weight:normal;font-stretch:normal;font-size:59.16194534px;line-height:125%;font-family:'Open Sans';-inkscape-font-specification:'Open Sans, Normal';text-align:start;writing-mode:lr-tb;text-anchor:start"
           id="path3461" />
        <path
           d="m 672.60286,757.7552 q 2.1088,0 3.78429,0.34665 l -0.66442,4.4487 q -1.96436,-0.43331 -3.46652,-0.43331 -3.84206,0 -6.58639,3.11986 -2.71544,3.11987 -2.71544,7.77079 l 0,16.98595 -4.79535,0 0,-31.66089 3.95761,0 0.54886,5.8642 0.23111,0 q 1.76214,-3.09098 4.24648,-4.76647 2.48434,-1.67548 5.45977,-1.67548 z"
           style="font-style:normal;font-variant:normal;font-weight:normal;font-stretch:normal;font-size:59.16194534px;line-height:125%;font-family:'Open Sans';-inkscape-font-specification:'Open Sans, Normal';text-align:start;writing-mode:lr-tb;text-anchor:start"
           id="path3463" />
        <path
           d="m 701.7794,789.99384 -0.95329,-4.50648 -0.2311,0 q -2.36879,2.97543 -4.73758,4.04427 -2.3399,1.03996 -5.8642,1.03996 -4.70869,0 -7.39524,-2.42657 -2.65767,-2.42656 -2.65767,-6.90415 0,-9.5907 15.33936,-10.05291 l 5.3731,-0.17332 0,-1.96436 q 0,-3.72651 -1.61771,-5.48866 -1.58882,-1.79104 -5.11311,-1.79104 -3.95761,0 -8.95518,2.42657 l -1.47327,-3.66874 q 2.3399,-1.27105 5.11312,-1.99325 2.8021,-0.72219 5.6042,-0.72219 5.66199,0 8.37743,2.51323 2.74433,2.51323 2.74433,8.05966 l 0,21.60798 -3.55319,0 z m -10.83287,-3.37986 q 4.47759,0 7.0197,-2.45545 2.571,-2.45546 2.571,-6.87527 l 0,-2.85988 -4.79535,0.20222 q -5.71976,0.20221 -8.26187,1.79103 -2.51323,1.55994 -2.51323,4.88202 0,2.59989 1.55993,3.95761 1.58883,1.35772 4.41982,1.35772 z"
           style="font-style:normal;font-variant:normal;font-weight:normal;font-stretch:normal;font-size:59.16194534px;line-height:125%;font-family:'Open Sans';-inkscape-font-specification:'Open Sans, Normal';text-align:start;writing-mode:lr-tb;text-anchor:start"
           id="path3465" />
        <path
           d="m 736.90681,789.99384 0,-20.48136 q 0,-3.87095 -1.76215,-5.77754 -1.76214,-1.90658 -5.51754,-1.90658 -4.96868,0 -7.27969,2.68655 -2.31102,2.68655 -2.31102,8.86852 l 0,16.61041 -4.79535,0 0,-31.66089 3.89983,0 0.77997,4.33315 0.2311,0 q 1.47327,-2.3399 4.13094,-3.61096 2.65767,-1.29994 5.92197,-1.29994 5.71976,0 8.60853,2.77321 2.88876,2.74433 2.88876,8.81074 l 0,20.65469 -4.79535,0 z"
           style="font-style:normal;font-variant:normal;font-weight:normal;font-stretch:normal;font-size:59.16194534px;line-height:125%;font-family:'Open Sans';-inkscape-font-specification:'Open Sans, Normal';text-align:start;writing-mode:lr-tb;text-anchor:start"
           id="path3467" />
        <path
           d="m 773.07416,785.74735 -0.25999,0 q -3.32208,4.82424 -9.93736,4.82424 -6.21085,0 -9.67737,-4.24649 -3.43763,-4.24649 -3.43763,-12.07504 0,-7.82856 3.46652,-12.16171 3.46652,-4.33315 9.64848,-4.33315 6.44195,0 9.87958,4.6798 l 0.37554,0 -0.20221,-2.28213 -0.11555,-2.22435 0,-12.8839 4.79535,0 0,44.94922 -3.89983,0 -0.63553,-4.24649 z m -9.59071,0.80885 q 4.91091,0 7.10637,-2.65766 2.22435,-2.68656 2.22435,-8.63742 l 0,-1.01106 q 0,-6.73083 -2.25324,-9.59071 -2.22435,-2.88877 -7.13525,-2.88877 -4.2176,0 -6.47084,3.2932 -2.22435,3.2643 -2.22435,9.24405 0,6.06641 2.22435,9.15739 2.22435,3.09098 6.52861,3.09098 z"
           style="font-style:normal;font-variant:normal;font-weight:normal;font-stretch:normal;font-size:59.16194534px;line-height:125%;font-family:'Open Sans';-inkscape-font-specification:'Open Sans, Normal';text-align:start;writing-mode:lr-tb;text-anchor:start"
           id="path3469" />
        <path
           d="m 801.18185,790.57159 q -7.01971,0 -11.09287,-4.27538 -4.04427,-4.27537 -4.04427,-11.87283 0,-7.65523 3.75539,-12.16171 3.78429,-4.50647 10.13958,-4.50647 5.95086,0 9.41738,3.92872 3.46652,3.89984 3.46652,10.3129 l 0,3.0332 -21.81019,0 q 0.14443,5.57532 2.8021,8.46409 2.68655,2.88877 7.53968,2.88877 5.11312,0 10.11069,-2.13769 l 0,4.27537 q -2.54212,1.09774 -4.82424,1.55994 -2.25324,0.49109 -5.45977,0.49109 z m -1.29995,-28.80101 q -3.81317,0 -6.0953,2.48434 -2.25324,2.48434 -2.65766,6.87527 l 16.55263,0 q 0,-4.53537 -2.02214,-6.93304 -2.02213,-2.42657 -5.77753,-2.42657 z"
           style="font-style:normal;font-variant:normal;font-weight:normal;font-stretch:normal;font-size:59.16194534px;line-height:125%;font-family:'Open Sans';-inkscape-font-specification:'Open Sans, Normal';text-align:start;writing-mode:lr-tb;text-anchor:start"
           id="path3471" />
      </g>
    </g>
  </g>
</svg>
